G04 #@! TF.GenerationSoftware,KiCad,Pcbnew,(5.0.0-3-g5ebb6b6)*
G04 #@! TF.CreationDate,2019-01-15T21:50:23+09:00*
G04 #@! TF.ProjectId,YM2151,594D323135312E6B696361645F706362,rev?*
G04 #@! TF.SameCoordinates,Original*
G04 #@! TF.FileFunction,Copper,L1,Top,Signal*
G04 #@! TF.FilePolarity,Positive*
%FSLAX46Y46*%
G04 Gerber Fmt 4.6, Leading zero omitted, Abs format (unit mm)*
G04 Created by KiCad (PCBNEW (5.0.0-3-g5ebb6b6)) date *
%MOMM*%
%LPD*%
G01*
G04 APERTURE LIST*
G04 #@! TA.AperFunction,EtchedComponent*
%ADD10C,0.100000*%
G04 #@! TD*
G04 #@! TA.AperFunction,ComponentPad*
%ADD11R,1.600000X1.600000*%
G04 #@! TD*
G04 #@! TA.AperFunction,ComponentPad*
%ADD12C,1.600000*%
G04 #@! TD*
G04 #@! TA.AperFunction,ComponentPad*
%ADD13C,1.400000*%
G04 #@! TD*
G04 #@! TA.AperFunction,ComponentPad*
%ADD14O,1.400000X1.400000*%
G04 #@! TD*
G04 #@! TA.AperFunction,ComponentPad*
%ADD15R,1.700000X1.700000*%
G04 #@! TD*
G04 #@! TA.AperFunction,ComponentPad*
%ADD16O,1.700000X1.700000*%
G04 #@! TD*
G04 #@! TA.AperFunction,ComponentPad*
%ADD17C,1.500000*%
G04 #@! TD*
G04 #@! TA.AperFunction,ComponentPad*
%ADD18R,1.500000X1.500000*%
G04 #@! TD*
G04 #@! TA.AperFunction,ComponentPad*
%ADD19O,1.600000X1.600000*%
G04 #@! TD*
G04 #@! TA.AperFunction,ComponentPad*
%ADD20C,2.900000*%
G04 #@! TD*
G04 #@! TA.AperFunction,ComponentPad*
%ADD21C,2.700000*%
G04 #@! TD*
G04 #@! TA.AperFunction,ComponentPad*
%ADD22C,2.500000*%
G04 #@! TD*
G04 #@! TA.AperFunction,ComponentPad*
%ADD23O,1.727200X2.032000*%
G04 #@! TD*
G04 #@! TA.AperFunction,ComponentPad*
%ADD24C,4.064000*%
G04 #@! TD*
G04 #@! TA.AperFunction,Conductor*
%ADD25C,2.000000*%
G04 #@! TD*
G04 #@! TA.AperFunction,ViaPad*
%ADD26C,0.600000*%
G04 #@! TD*
G04 #@! TA.AperFunction,Conductor*
%ADD27C,0.650000*%
G04 #@! TD*
G04 #@! TA.AperFunction,Conductor*
%ADD28C,0.350000*%
G04 #@! TD*
G04 #@! TA.AperFunction,Conductor*
%ADD29C,0.254000*%
G04 #@! TD*
G04 APERTURE END LIST*
D10*
G04 #@! TO.C,NT1*
G36*
X119219000Y-117207000D02*
X123219000Y-117207000D01*
X123219000Y-119207000D01*
X119219000Y-119207000D01*
X119219000Y-117207000D01*
G37*
G04 #@! TD*
D11*
G04 #@! TO.P,C1,1*
G04 #@! TO.N,Net-(C1-Pad1)*
X117028000Y-79853000D03*
D12*
G04 #@! TO.P,C1,2*
G04 #@! TO.N,GNDA*
X114528000Y-79853000D03*
G04 #@! TD*
G04 #@! TO.P,C4,2*
G04 #@! TO.N,Net-(C4-Pad2)*
X95605000Y-79980000D03*
D11*
G04 #@! TO.P,C4,1*
G04 #@! TO.N,Net-(C4-Pad1)*
X98105000Y-79980000D03*
G04 #@! TD*
G04 #@! TO.P,C5,1*
G04 #@! TO.N,Net-(C5-Pad1)*
X98105000Y-114524000D03*
D12*
G04 #@! TO.P,C5,2*
G04 #@! TO.N,Net-(C5-Pad2)*
X95605000Y-114524000D03*
G04 #@! TD*
G04 #@! TO.P,C6,2*
G04 #@! TO.N,GNDD*
X145516000Y-108555000D03*
D11*
G04 #@! TO.P,C6,1*
G04 #@! TO.N,VCC*
X148016000Y-108555000D03*
G04 #@! TD*
G04 #@! TO.P,C10,1*
G04 #@! TO.N,VCC*
X169733000Y-117953000D03*
D12*
G04 #@! TO.P,C10,2*
G04 #@! TO.N,GNDD*
X169733000Y-115453000D03*
G04 #@! TD*
D13*
G04 #@! TO.P,R5,1*
G04 #@! TO.N,Net-(R5-Pad1)*
X117268000Y-86495000D03*
D14*
G04 #@! TO.P,R5,2*
G04 #@! TO.N,Net-(R5-Pad2)*
X124888000Y-86495000D03*
G04 #@! TD*
D15*
G04 #@! TO.P,JP3,1*
G04 #@! TO.N,Net-(JP3-Pad1)*
X129347000Y-119096000D03*
D16*
G04 #@! TO.P,JP3,2*
G04 #@! TO.N,Net-(JP2-Pad1)*
X129347000Y-116556000D03*
G04 #@! TO.P,JP3,3*
G04 #@! TO.N,Net-(JP3-Pad3)*
X131887000Y-119096000D03*
G04 #@! TO.P,JP3,4*
G04 #@! TO.N,Net-(JP2-Pad1)*
X131887000Y-116556000D03*
G04 #@! TO.P,JP3,5*
G04 #@! TO.N,Net-(JP3-Pad5)*
X134427000Y-119096000D03*
G04 #@! TO.P,JP3,6*
G04 #@! TO.N,Net-(JP2-Pad1)*
X134427000Y-116556000D03*
G04 #@! TO.P,JP3,7*
G04 #@! TO.N,Net-(JP3-Pad7)*
X136967000Y-119096000D03*
G04 #@! TO.P,JP3,8*
G04 #@! TO.N,Net-(JP2-Pad1)*
X136967000Y-116556000D03*
G04 #@! TO.P,JP3,9*
G04 #@! TO.N,Net-(JP3-Pad9)*
X139507000Y-119096000D03*
G04 #@! TO.P,JP3,10*
G04 #@! TO.N,Net-(JP2-Pad1)*
X139507000Y-116556000D03*
G04 #@! TO.P,JP3,11*
G04 #@! TO.N,Net-(JP3-Pad11)*
X142047000Y-119096000D03*
G04 #@! TO.P,JP3,12*
G04 #@! TO.N,Net-(JP2-Pad1)*
X142047000Y-116556000D03*
G04 #@! TO.P,JP3,13*
G04 #@! TO.N,Net-(JP3-Pad13)*
X144587000Y-119096000D03*
G04 #@! TO.P,JP3,14*
G04 #@! TO.N,Net-(JP2-Pad1)*
X144587000Y-116556000D03*
G04 #@! TO.P,JP3,15*
G04 #@! TO.N,Net-(JP3-Pad15)*
X147127000Y-119096000D03*
G04 #@! TO.P,JP3,16*
G04 #@! TO.N,Net-(JP2-Pad1)*
X147127000Y-116556000D03*
G04 #@! TD*
D15*
G04 #@! TO.P,JP4,1*
G04 #@! TO.N,VCC*
X112488000Y-68305000D03*
D16*
G04 #@! TO.P,JP4,2*
G04 #@! TO.N,GNDD*
X112488000Y-65765000D03*
G04 #@! TO.P,JP4,3*
G04 #@! TO.N,VCC*
X115028000Y-68305000D03*
G04 #@! TO.P,JP4,4*
G04 #@! TO.N,GNDD*
X115028000Y-65765000D03*
G04 #@! TO.P,JP4,5*
G04 #@! TO.N,N/C*
X117568000Y-68305000D03*
G04 #@! TO.P,JP4,6*
X117568000Y-65765000D03*
G04 #@! TO.P,JP4,7*
X120108000Y-68305000D03*
G04 #@! TO.P,JP4,8*
X120108000Y-65765000D03*
G04 #@! TO.P,JP4,9*
G04 #@! TO.N,/D0*
X122648000Y-68305000D03*
G04 #@! TO.P,JP4,10*
G04 #@! TO.N,/D1*
X122648000Y-65765000D03*
G04 #@! TO.P,JP4,11*
G04 #@! TO.N,/D2*
X125188000Y-68305000D03*
G04 #@! TO.P,JP4,12*
G04 #@! TO.N,/D3*
X125188000Y-65765000D03*
G04 #@! TO.P,JP4,13*
G04 #@! TO.N,/D4*
X127728000Y-68305000D03*
G04 #@! TO.P,JP4,14*
G04 #@! TO.N,/D5*
X127728000Y-65765000D03*
G04 #@! TO.P,JP4,15*
G04 #@! TO.N,/D6*
X130268000Y-68305000D03*
G04 #@! TO.P,JP4,16*
G04 #@! TO.N,/D7*
X130268000Y-65765000D03*
G04 #@! TO.P,JP4,17*
G04 #@! TO.N,/~RD*
X132808000Y-68305000D03*
G04 #@! TO.P,JP4,18*
G04 #@! TO.N,N/C*
X132808000Y-65765000D03*
G04 #@! TO.P,JP4,19*
G04 #@! TO.N,/~WR*
X135348000Y-68305000D03*
G04 #@! TO.P,JP4,20*
G04 #@! TO.N,N/C*
X135348000Y-65765000D03*
G04 #@! TO.P,JP4,21*
G04 #@! TO.N,RES*
X137888000Y-68305000D03*
G04 #@! TO.P,JP4,22*
G04 #@! TO.N,N/C*
X137888000Y-65765000D03*
G04 #@! TO.P,JP4,23*
X140428000Y-68305000D03*
G04 #@! TO.P,JP4,24*
X140428000Y-65765000D03*
G04 #@! TO.P,JP4,25*
G04 #@! TO.N,/A0*
X142968000Y-68305000D03*
G04 #@! TO.P,JP4,26*
G04 #@! TO.N,N/C*
X142968000Y-65765000D03*
G04 #@! TO.P,JP4,27*
X145508000Y-68305000D03*
G04 #@! TO.P,JP4,28*
X145508000Y-65765000D03*
G04 #@! TO.P,JP4,29*
X148048000Y-68305000D03*
G04 #@! TO.P,JP4,30*
G04 #@! TO.N,/A5*
X148048000Y-65765000D03*
G04 #@! TO.P,JP4,31*
G04 #@! TO.N,/A6*
X150588000Y-68305000D03*
G04 #@! TO.P,JP4,32*
G04 #@! TO.N,/A7*
X150588000Y-65765000D03*
G04 #@! TO.P,JP4,33*
G04 #@! TO.N,N/C*
X153128000Y-68305000D03*
G04 #@! TO.P,JP4,34*
X153128000Y-65765000D03*
G04 #@! TO.P,JP4,35*
X155668000Y-68305000D03*
G04 #@! TO.P,JP4,36*
X155668000Y-65765000D03*
G04 #@! TO.P,JP4,37*
X158208000Y-68305000D03*
G04 #@! TO.P,JP4,38*
X158208000Y-65765000D03*
G04 #@! TO.P,JP4,39*
X160748000Y-68305000D03*
G04 #@! TO.P,JP4,40*
X160748000Y-65765000D03*
G04 #@! TD*
D11*
G04 #@! TO.P,C11,1*
G04 #@! TO.N,VCC*
X100772000Y-67661000D03*
D12*
G04 #@! TO.P,C11,2*
G04 #@! TO.N,GNDD*
X100772000Y-65161000D03*
G04 #@! TD*
G04 #@! TO.P,C7,1*
G04 #@! TO.N,VCC*
X134935000Y-102840000D03*
G04 #@! TO.P,C7,2*
G04 #@! TO.N,GNDD*
X132435000Y-102840000D03*
G04 #@! TD*
G04 #@! TO.P,C8,2*
G04 #@! TO.N,GNDD*
X177734000Y-115032000D03*
G04 #@! TO.P,C8,1*
G04 #@! TO.N,VCC*
X175234000Y-115032000D03*
G04 #@! TD*
G04 #@! TO.P,C9,1*
G04 #@! TO.N,VCC*
X141158000Y-102840000D03*
G04 #@! TO.P,C9,2*
G04 #@! TO.N,GNDD*
X143658000Y-102840000D03*
G04 #@! TD*
D16*
G04 #@! TO.P,JP1,3*
G04 #@! TO.N,Net-(JP1-Pad3)*
X159192000Y-115286000D03*
G04 #@! TO.P,JP1,2*
G04 #@! TO.N,/~CS*
X156652000Y-115286000D03*
D15*
G04 #@! TO.P,JP1,1*
G04 #@! TO.N,GNDD*
X154112000Y-115286000D03*
G04 #@! TD*
G04 #@! TO.P,JP2,1*
G04 #@! TO.N,Net-(JP2-Pad1)*
X154112000Y-119604000D03*
D16*
G04 #@! TO.P,JP2,2*
G04 #@! TO.N,Net-(JP1-Pad3)*
X156652000Y-119604000D03*
G04 #@! TO.P,JP2,3*
G04 #@! TO.N,/~CE*
X159192000Y-119604000D03*
G04 #@! TD*
D17*
G04 #@! TO.P,Q1,2*
G04 #@! TO.N,Net-(JP5-Pad3)*
X180274000Y-68931000D03*
G04 #@! TO.P,Q1,3*
G04 #@! TO.N,Net-(Q1-Pad3)*
X180274000Y-71471000D03*
D18*
G04 #@! TO.P,Q1,1*
G04 #@! TO.N,GNDD*
X180274000Y-66391000D03*
G04 #@! TD*
D11*
G04 #@! TO.P,U4,1*
G04 #@! TO.N,/A5*
X148016000Y-99284000D03*
D19*
G04 #@! TO.P,U4,9*
G04 #@! TO.N,Net-(JP3-Pad13)*
X140396000Y-81504000D03*
G04 #@! TO.P,U4,2*
G04 #@! TO.N,/A6*
X148016000Y-96744000D03*
G04 #@! TO.P,U4,10*
G04 #@! TO.N,Net-(JP3-Pad11)*
X140396000Y-84044000D03*
G04 #@! TO.P,U4,3*
G04 #@! TO.N,/A7*
X148016000Y-94204000D03*
G04 #@! TO.P,U4,11*
G04 #@! TO.N,Net-(JP3-Pad9)*
X140396000Y-86584000D03*
G04 #@! TO.P,U4,4*
G04 #@! TO.N,GNDD*
X148016000Y-91664000D03*
G04 #@! TO.P,U4,12*
G04 #@! TO.N,Net-(JP3-Pad7)*
X140396000Y-89124000D03*
G04 #@! TO.P,U4,5*
G04 #@! TO.N,GNDD*
X148016000Y-89124000D03*
G04 #@! TO.P,U4,13*
G04 #@! TO.N,Net-(JP3-Pad5)*
X140396000Y-91664000D03*
G04 #@! TO.P,U4,6*
G04 #@! TO.N,VCC*
X148016000Y-86584000D03*
G04 #@! TO.P,U4,14*
G04 #@! TO.N,Net-(JP3-Pad3)*
X140396000Y-94204000D03*
G04 #@! TO.P,U4,7*
G04 #@! TO.N,Net-(JP3-Pad15)*
X148016000Y-84044000D03*
G04 #@! TO.P,U4,15*
G04 #@! TO.N,Net-(JP3-Pad1)*
X140396000Y-96744000D03*
G04 #@! TO.P,U4,8*
G04 #@! TO.N,GNDD*
X148016000Y-81504000D03*
G04 #@! TO.P,U4,16*
G04 #@! TO.N,VCC*
X140396000Y-99284000D03*
G04 #@! TD*
D14*
G04 #@! TO.P,R3,2*
G04 #@! TO.N,RES*
X175956000Y-68550000D03*
D13*
G04 #@! TO.P,R3,1*
G04 #@! TO.N,Net-(Q1-Pad3)*
X168336000Y-68550000D03*
G04 #@! TD*
G04 #@! TO.P,R4,1*
G04 #@! TO.N,Net-(JP5-Pad3)*
X175956000Y-64867000D03*
D14*
G04 #@! TO.P,R4,2*
G04 #@! TO.N,VCC*
X168336000Y-64867000D03*
G04 #@! TD*
D20*
G04 #@! TO.P,J1,1*
G04 #@! TO.N,GNDA*
X92178000Y-97335000D03*
D21*
G04 #@! TO.P,J1,2*
G04 #@! TO.N,Net-(J1-Pad2)*
X100678000Y-91935000D03*
D22*
G04 #@! TO.P,J1,3*
G04 #@! TO.N,N/C*
X98978000Y-94435000D03*
D20*
G04 #@! TO.P,J1,4*
X103478000Y-101635000D03*
G04 #@! TO.P,J1,5*
G04 #@! TO.N,Net-(J1-Pad5)*
X95678000Y-101835000D03*
G04 #@! TD*
D12*
G04 #@! TO.P,C3,2*
G04 #@! TO.N,GNDA*
X106440000Y-109063000D03*
G04 #@! TO.P,C3,1*
G04 #@! TO.N,Net-(C3-Pad1)*
X111440000Y-109063000D03*
G04 #@! TD*
G04 #@! TO.P,C2,1*
G04 #@! TO.N,Net-(C2-Pad1)*
X111313000Y-85187000D03*
G04 #@! TO.P,C2,2*
G04 #@! TO.N,GNDA*
X106313000Y-85187000D03*
G04 #@! TD*
D23*
G04 #@! TO.P,P1,1*
G04 #@! TO.N,N/C*
X138938000Y-123825000D03*
G04 #@! TO.P,P1,2*
X141478000Y-123825000D03*
G04 #@! TO.P,P1,3*
X144018000Y-123825000D03*
G04 #@! TO.P,P1,4*
X146558000Y-123825000D03*
G04 #@! TO.P,P1,5*
G04 #@! TO.N,VCC*
X149098000Y-123825000D03*
G04 #@! TO.P,P1,6*
G04 #@! TO.N,GNDD*
X151638000Y-123825000D03*
G04 #@! TO.P,P1,7*
X154178000Y-123825000D03*
G04 #@! TO.P,P1,8*
G04 #@! TO.N,N/C*
X156718000Y-123825000D03*
G04 #@! TD*
G04 #@! TO.P,P2,1*
G04 #@! TO.N,/~CE*
X161798000Y-123825000D03*
G04 #@! TO.P,P2,2*
G04 #@! TO.N,N/C*
X164338000Y-123825000D03*
G04 #@! TO.P,P2,3*
X166878000Y-123825000D03*
G04 #@! TO.P,P2,4*
X169418000Y-123825000D03*
G04 #@! TO.P,P2,5*
X171958000Y-123825000D03*
G04 #@! TO.P,P2,6*
X174498000Y-123825000D03*
G04 #@! TD*
G04 #@! TO.P,P3,1*
G04 #@! TO.N,N/C*
X129794000Y-75565000D03*
G04 #@! TO.P,P3,2*
X132334000Y-75565000D03*
G04 #@! TO.P,P3,3*
X134874000Y-75565000D03*
G04 #@! TO.P,P3,4*
G04 #@! TO.N,GNDD*
X137414000Y-75565000D03*
G04 #@! TO.P,P3,5*
G04 #@! TO.N,Net-(JP5-Pad1)*
X139954000Y-75565000D03*
G04 #@! TO.P,P3,6*
G04 #@! TO.N,/A0*
X142494000Y-75565000D03*
G04 #@! TO.P,P3,7*
G04 #@! TO.N,/~WR*
X145034000Y-75565000D03*
G04 #@! TO.P,P3,8*
G04 #@! TO.N,/~RD*
X147574000Y-75565000D03*
G04 #@! TO.P,P3,9*
G04 #@! TO.N,/D7*
X150114000Y-75565000D03*
G04 #@! TO.P,P3,10*
G04 #@! TO.N,/D6*
X152654000Y-75565000D03*
G04 #@! TD*
G04 #@! TO.P,P4,1*
G04 #@! TO.N,/D5*
X156718000Y-75565000D03*
G04 #@! TO.P,P4,2*
G04 #@! TO.N,/D4*
X159258000Y-75565000D03*
G04 #@! TO.P,P4,3*
G04 #@! TO.N,/D3*
X161798000Y-75565000D03*
G04 #@! TO.P,P4,4*
G04 #@! TO.N,/D2*
X164338000Y-75565000D03*
G04 #@! TO.P,P4,5*
G04 #@! TO.N,/D1*
X166878000Y-75565000D03*
G04 #@! TO.P,P4,6*
G04 #@! TO.N,/D0*
X169418000Y-75565000D03*
G04 #@! TO.P,P4,7*
G04 #@! TO.N,N/C*
X171958000Y-75565000D03*
G04 #@! TO.P,P4,8*
X174498000Y-75565000D03*
G04 #@! TD*
D24*
G04 #@! TO.P,P5,1*
G04 #@! TO.N,N/C*
X92048000Y-125635000D03*
G04 #@! TD*
G04 #@! TO.P,P6,1*
G04 #@! TO.N,N/C*
X181038000Y-125645000D03*
G04 #@! TD*
G04 #@! TO.P,P7,1*
G04 #@! TO.N,N/C*
X92058000Y-59695000D03*
G04 #@! TD*
G04 #@! TO.P,P8,1*
G04 #@! TO.N,N/C*
X181048000Y-59655000D03*
G04 #@! TD*
D13*
G04 #@! TO.P,R1,1*
G04 #@! TO.N,Net-(J1-Pad2)*
X93748000Y-86075000D03*
D14*
G04 #@! TO.P,R1,2*
G04 #@! TO.N,Net-(C4-Pad2)*
X101368000Y-86075000D03*
G04 #@! TD*
D13*
G04 #@! TO.P,R2,1*
G04 #@! TO.N,Net-(J1-Pad5)*
X94168000Y-109063000D03*
D14*
G04 #@! TO.P,R2,2*
G04 #@! TO.N,Net-(C5-Pad2)*
X101788000Y-109063000D03*
G04 #@! TD*
D11*
G04 #@! TO.P,U1,1*
G04 #@! TO.N,GNDD*
X152969000Y-110714000D03*
D19*
G04 #@! TO.P,U1,13*
G04 #@! TO.N,/D2*
X180909000Y-95474000D03*
G04 #@! TO.P,U1,2*
G04 #@! TO.N,N/C*
X155509000Y-110714000D03*
G04 #@! TO.P,U1,14*
G04 #@! TO.N,/D3*
X178369000Y-95474000D03*
G04 #@! TO.P,U1,3*
G04 #@! TO.N,/~IC*
X158049000Y-110714000D03*
G04 #@! TO.P,U1,15*
G04 #@! TO.N,/D4*
X175829000Y-95474000D03*
G04 #@! TO.P,U1,4*
G04 #@! TO.N,/A0*
X160589000Y-110714000D03*
G04 #@! TO.P,U1,16*
G04 #@! TO.N,/D5*
X173289000Y-95474000D03*
G04 #@! TO.P,U1,5*
G04 #@! TO.N,/~WR*
X163129000Y-110714000D03*
G04 #@! TO.P,U1,17*
G04 #@! TO.N,/D6*
X170749000Y-95474000D03*
G04 #@! TO.P,U1,6*
G04 #@! TO.N,/~RD*
X165669000Y-110714000D03*
G04 #@! TO.P,U1,18*
G04 #@! TO.N,/D7*
X168209000Y-95474000D03*
G04 #@! TO.P,U1,7*
G04 #@! TO.N,/~CS*
X168209000Y-110714000D03*
G04 #@! TO.P,U1,19*
G04 #@! TO.N,Net-(U1-Pad19)*
X165669000Y-95474000D03*
G04 #@! TO.P,U1,8*
G04 #@! TO.N,N/C*
X170749000Y-110714000D03*
G04 #@! TO.P,U1,20*
G04 #@! TO.N,Net-(U1-Pad20)*
X163129000Y-95474000D03*
G04 #@! TO.P,U1,9*
G04 #@! TO.N,N/C*
X173289000Y-110714000D03*
G04 #@! TO.P,U1,21*
G04 #@! TO.N,Net-(U1-Pad21)*
X160589000Y-95474000D03*
G04 #@! TO.P,U1,10*
G04 #@! TO.N,/D0*
X175829000Y-110714000D03*
G04 #@! TO.P,U1,22*
G04 #@! TO.N,VCC*
X158049000Y-95474000D03*
G04 #@! TO.P,U1,11*
G04 #@! TO.N,GNDD*
X178369000Y-110714000D03*
G04 #@! TO.P,U1,23*
G04 #@! TO.N,Net-(U1-Pad23)*
X155509000Y-95474000D03*
G04 #@! TO.P,U1,12*
G04 #@! TO.N,/D1*
X180909000Y-110714000D03*
G04 #@! TO.P,U1,24*
G04 #@! TO.N,/phM*
X152969000Y-95474000D03*
G04 #@! TD*
D11*
G04 #@! TO.P,U2,1*
G04 #@! TO.N,VCC*
X135062000Y-99284000D03*
D19*
G04 #@! TO.P,U2,9*
G04 #@! TO.N,Net-(C3-Pad1)*
X127442000Y-81504000D03*
G04 #@! TO.P,U2,2*
G04 #@! TO.N,Net-(U1-Pad23)*
X135062000Y-96744000D03*
G04 #@! TO.P,U2,10*
G04 #@! TO.N,Net-(C2-Pad1)*
X127442000Y-84044000D03*
G04 #@! TO.P,U2,3*
G04 #@! TO.N,GNDD*
X135062000Y-94204000D03*
G04 #@! TO.P,U2,11*
G04 #@! TO.N,Net-(R5-Pad2)*
X127442000Y-86584000D03*
G04 #@! TO.P,U2,4*
G04 #@! TO.N,Net-(U1-Pad21)*
X135062000Y-91664000D03*
G04 #@! TO.P,U2,12*
G04 #@! TO.N,Net-(U2-Pad12)*
X127442000Y-89124000D03*
G04 #@! TO.P,U2,5*
G04 #@! TO.N,Net-(U1-Pad19)*
X135062000Y-89124000D03*
G04 #@! TO.P,U2,13*
G04 #@! TO.N,Net-(U2-Pad13)*
X127442000Y-91664000D03*
G04 #@! TO.P,U2,6*
G04 #@! TO.N,Net-(U1-Pad20)*
X135062000Y-86584000D03*
G04 #@! TO.P,U2,14*
G04 #@! TO.N,Net-(U2-Pad13)*
X127442000Y-94204000D03*
G04 #@! TO.P,U2,7*
G04 #@! TO.N,/~IC*
X135062000Y-84044000D03*
G04 #@! TO.P,U2,15*
G04 #@! TO.N,Net-(C1-Pad1)*
X127442000Y-96744000D03*
G04 #@! TO.P,U2,8*
G04 #@! TO.N,GNDA*
X135062000Y-81504000D03*
G04 #@! TO.P,U2,16*
X127442000Y-99284000D03*
G04 #@! TD*
D11*
G04 #@! TO.P,U3,1*
G04 #@! TO.N,Net-(U2-Pad13)*
X116393000Y-104364000D03*
D19*
G04 #@! TO.P,U3,8*
G04 #@! TO.N,Net-(C4-Pad1)*
X108773000Y-89124000D03*
G04 #@! TO.P,U3,2*
G04 #@! TO.N,Net-(U2-Pad13)*
X116393000Y-101824000D03*
G04 #@! TO.P,U3,9*
G04 #@! TO.N,Net-(C4-Pad1)*
X108773000Y-91664000D03*
G04 #@! TO.P,U3,3*
G04 #@! TO.N,Net-(C1-Pad1)*
X116393000Y-99284000D03*
G04 #@! TO.P,U3,10*
G04 #@! TO.N,Net-(C2-Pad1)*
X108773000Y-94204000D03*
G04 #@! TO.P,U3,4*
G04 #@! TO.N,VCC*
X116393000Y-96744000D03*
G04 #@! TO.P,U3,11*
G04 #@! TO.N,GNDA*
X108773000Y-96744000D03*
G04 #@! TO.P,U3,5*
G04 #@! TO.N,Net-(U2-Pad12)*
X116393000Y-94204000D03*
G04 #@! TO.P,U3,12*
G04 #@! TO.N,Net-(C3-Pad1)*
X108773000Y-99284000D03*
G04 #@! TO.P,U3,6*
G04 #@! TO.N,Net-(R5-Pad1)*
X116393000Y-91664000D03*
G04 #@! TO.P,U3,13*
G04 #@! TO.N,Net-(C5-Pad1)*
X108773000Y-101824000D03*
G04 #@! TO.P,U3,7*
G04 #@! TO.N,Net-(R5-Pad1)*
X116393000Y-89124000D03*
G04 #@! TO.P,U3,14*
G04 #@! TO.N,Net-(C5-Pad1)*
X108773000Y-104364000D03*
G04 #@! TD*
D25*
G04 #@! TO.N,GNDA*
G04 #@! TO.C,NT1*
X119219000Y-118207000D03*
G04 #@! TO.N,GNDD*
X123219000Y-118207000D03*
G04 #@! TD*
D11*
G04 #@! TO.P,O1,1*
G04 #@! TO.N,N/C*
X179639000Y-81758000D03*
D12*
G04 #@! TO.P,O1,14*
G04 #@! TO.N,VCC*
X179639000Y-89378000D03*
G04 #@! TO.P,O1,8*
G04 #@! TO.N,/phM*
X164399000Y-89378000D03*
G04 #@! TO.P,O1,7*
G04 #@! TO.N,GNDD*
X164399000Y-81758000D03*
G04 #@! TD*
D15*
G04 #@! TO.P,JP5,1*
G04 #@! TO.N,Net-(JP5-Pad1)*
X169733000Y-60803000D03*
D16*
G04 #@! TO.P,JP5,2*
G04 #@! TO.N,/~IC*
X172273000Y-60803000D03*
G04 #@! TO.P,JP5,3*
G04 #@! TO.N,Net-(JP5-Pad3)*
X174813000Y-60803000D03*
G04 #@! TD*
D26*
G04 #@! TO.N,GNDA*
X119187000Y-115032000D03*
X118425000Y-90394000D03*
X118552000Y-95601000D03*
G04 #@! TO.N,VCC*
X150436000Y-87181100D03*
G04 #@! TO.N,/~WR*
X142428000Y-73385000D03*
G04 #@! TO.N,/~RD*
X138522000Y-72920000D03*
G04 #@! TO.N,Net-(U1-Pad20)*
X156647000Y-87934200D03*
G04 #@! TO.N,Net-(U1-Pad23)*
X147232000Y-103158000D03*
G04 #@! TO.N,GNDD*
X166812000Y-84298000D03*
X171384000Y-88616000D03*
X124267000Y-103856000D03*
X140523000Y-110460000D03*
X172781000Y-103221000D03*
X166304000Y-98268000D03*
X130236000Y-81758000D03*
X158049000Y-82647000D03*
X125791000Y-71979000D03*
X124394000Y-93823000D03*
X132435000Y-96831000D03*
G04 #@! TO.N,/A7*
X165021000Y-84626600D03*
G04 #@! TO.N,Net-(JP5-Pad1)*
X126868500Y-67225300D03*
G04 #@! TD*
D27*
G04 #@! TO.N,GNDA*
X106313000Y-85187000D02*
X111647000Y-79853000D01*
X111647000Y-79853000D02*
X114528000Y-79853000D01*
X135062000Y-81504000D02*
X133737000Y-81504000D01*
X133737000Y-81504000D02*
X130840000Y-84400300D01*
X130840000Y-84400300D02*
X130840000Y-95885600D01*
X130840000Y-95885600D02*
X127442000Y-99284000D01*
X119219000Y-118207000D02*
X115584000Y-118207000D01*
X115584000Y-118207000D02*
X106440000Y-109063000D01*
X119187000Y-115032000D02*
X119187000Y-118175000D01*
X119187000Y-118175000D02*
X119219000Y-118207000D01*
D28*
G04 #@! TO.N,Net-(C2-Pad1)*
X111313000Y-85187000D02*
X125124000Y-85187000D01*
X125124000Y-85187000D02*
X126267000Y-84044000D01*
X126267000Y-84044000D02*
X127442000Y-84044000D01*
G04 #@! TO.N,Net-(C3-Pad1)*
X108773000Y-99284000D02*
X109948000Y-99284000D01*
X109948000Y-99284000D02*
X109948000Y-107571000D01*
X109948000Y-107571000D02*
X111440000Y-109063000D01*
X127442000Y-81504000D02*
X127442000Y-82679300D01*
X127442000Y-82679300D02*
X127807000Y-82679300D01*
X127807000Y-82679300D02*
X128627000Y-83498900D01*
X128627000Y-83498900D02*
X128627000Y-87075200D01*
X128627000Y-87075200D02*
X127848000Y-87854000D01*
X127848000Y-87854000D02*
X124335000Y-87854000D01*
X124335000Y-87854000D02*
X119255000Y-92934000D01*
X119255000Y-92934000D02*
X115469000Y-92934000D01*
X115469000Y-92934000D02*
X112358000Y-96045000D01*
X112358000Y-96045000D02*
X112358000Y-108145000D01*
X112358000Y-108145000D02*
X111440000Y-109063000D01*
G04 #@! TO.N,Net-(C4-Pad1)*
X108773000Y-89124000D02*
X107598000Y-89124000D01*
X107598000Y-89124000D02*
X107598000Y-88297400D01*
X107598000Y-88297400D02*
X99280300Y-79980000D01*
X99280300Y-79980000D02*
X98105000Y-79980000D01*
G04 #@! TO.N,Net-(C5-Pad1)*
X108773000Y-104364000D02*
X107598000Y-104364000D01*
X107598000Y-104364000D02*
X107598000Y-104781000D01*
X107598000Y-104781000D02*
X99030100Y-113349000D01*
X99030100Y-113349000D02*
X98105000Y-113349000D01*
X98105000Y-113349000D02*
X98105000Y-114524000D01*
D27*
G04 #@! TO.N,VCC*
X169733000Y-117953000D02*
X168408000Y-117953000D01*
X168408000Y-117953000D02*
X164972000Y-121389000D01*
X164972000Y-121389000D02*
X151534000Y-121389000D01*
X151534000Y-121389000D02*
X149098000Y-123825000D01*
X175234000Y-115032000D02*
X172313000Y-117953000D01*
X172313000Y-117953000D02*
X169733000Y-117953000D01*
X176137000Y-89378000D02*
X172331000Y-93183900D01*
X172331000Y-93183900D02*
X160339000Y-93183900D01*
X160339000Y-93183900D02*
X158049000Y-95474000D01*
X179639000Y-89378000D02*
X176137000Y-89378000D01*
X150436000Y-87181100D02*
X149839000Y-86584000D01*
X149839000Y-86584000D02*
X148016000Y-86584000D01*
X148016000Y-108555000D02*
X143958000Y-104497000D01*
X143958000Y-104497000D02*
X142815000Y-104497000D01*
X142815000Y-104497000D02*
X141158000Y-102840000D01*
X112488000Y-68305000D02*
X115028000Y-68305000D01*
X141158000Y-102840000D02*
X134935000Y-102840000D01*
X116393000Y-96744000D02*
X117718000Y-96744000D01*
X117718000Y-96744000D02*
X121584000Y-100609000D01*
X121584000Y-100609000D02*
X132411000Y-100609000D01*
X132411000Y-100609000D02*
X133737000Y-99284000D01*
X133737000Y-99284000D02*
X135062000Y-99284000D01*
X168336000Y-64867000D02*
X168848000Y-65595000D01*
X168848000Y-65595000D02*
X170495000Y-66772000D01*
X170495000Y-66772000D02*
X170495000Y-69394400D01*
X170495000Y-69394400D02*
X176137000Y-75036000D01*
X176137000Y-75036000D02*
X176137000Y-89378000D01*
D28*
G04 #@! TO.N,/~CS*
X168209000Y-110714000D02*
X167034000Y-110714000D01*
X167034000Y-110714000D02*
X167034000Y-111081000D01*
X167034000Y-111081000D02*
X166226000Y-111889000D01*
X166226000Y-111889000D02*
X160766000Y-111889000D01*
X160766000Y-111889000D02*
X157877000Y-114778000D01*
X157877000Y-114778000D02*
X157877000Y-115286000D01*
X157877000Y-115286000D02*
X156652000Y-115286000D01*
G04 #@! TO.N,/phM*
X152969000Y-95474000D02*
X154144000Y-95474000D01*
X154144000Y-95474000D02*
X154144000Y-95108700D01*
X154144000Y-95108700D02*
X159875000Y-89378000D01*
X159875000Y-89378000D02*
X164399000Y-89378000D01*
G04 #@! TO.N,/~IC*
X135062000Y-84044000D02*
X135062000Y-85219300D01*
X135062000Y-85219300D02*
X134695000Y-85219300D01*
X134695000Y-85219300D02*
X133270000Y-86643900D01*
X133270000Y-86643900D02*
X133270000Y-94121900D01*
X133270000Y-94121900D02*
X134622000Y-95474000D01*
X134622000Y-95474000D02*
X135478000Y-95474000D01*
X135478000Y-95474000D02*
X138113000Y-98108700D01*
X138113000Y-98108700D02*
X143138000Y-98108700D01*
X143138000Y-98108700D02*
X153439000Y-108410000D01*
X153439000Y-108410000D02*
X158049000Y-108410000D01*
X158049000Y-108410000D02*
X158049000Y-110714000D01*
G04 #@! TO.N,/~WR*
X142428000Y-73385000D02*
X142988000Y-73370400D01*
X142988000Y-73370400D02*
X145034000Y-75416600D01*
X145034000Y-75416600D02*
X145034000Y-75565000D01*
G04 #@! TO.N,/~RD*
X147574000Y-75565000D02*
X146335000Y-75565000D01*
X146335000Y-75565000D02*
X146335000Y-74945500D01*
X146335000Y-74945500D02*
X144085000Y-72695100D01*
X144085000Y-72695100D02*
X138747000Y-72695100D01*
X138747000Y-72695100D02*
X138747000Y-72695200D01*
X138747000Y-72695200D02*
X138522000Y-72920000D01*
G04 #@! TO.N,/D7*
X150114000Y-75565000D02*
X148875000Y-75565000D01*
X148875000Y-75565000D02*
X148875000Y-74945600D01*
X148875000Y-74945600D02*
X146074000Y-72144800D01*
X146074000Y-72144800D02*
X132361000Y-72144800D01*
X132361000Y-72144800D02*
X128998000Y-68781800D01*
X128998000Y-68781800D02*
X128998000Y-67752500D01*
X128998000Y-67752500D02*
X129760000Y-66990300D01*
X129760000Y-66990300D02*
X130268000Y-66990300D01*
X130268000Y-66990300D02*
X130268000Y-65765000D01*
G04 #@! TO.N,/D6*
X152654000Y-75565000D02*
X151415000Y-75565000D01*
X151415000Y-75565000D02*
X151415000Y-74945600D01*
X151415000Y-74945600D02*
X148036000Y-71566600D01*
X148036000Y-71566600D02*
X134247000Y-71566600D01*
X134247000Y-71566600D02*
X131493000Y-68812800D01*
X131493000Y-68812800D02*
X131493000Y-68305000D01*
X131493000Y-68305000D02*
X130268000Y-68305000D01*
G04 #@! TO.N,/D4*
X141905900Y-73989300D02*
X140938000Y-73595000D01*
X140938000Y-73595000D02*
X133031000Y-73608000D01*
X133031000Y-73608000D02*
X127728000Y-68305000D01*
X142018000Y-74035000D02*
X141905900Y-73989300D01*
X141905900Y-73989300D02*
X141888000Y-73985000D01*
X159258000Y-75565000D02*
X158019000Y-75565000D01*
X158019000Y-75565000D02*
X158019000Y-76184400D01*
X158019000Y-76184400D02*
X157202000Y-77001700D01*
X157202000Y-77001700D02*
X144542000Y-77001700D01*
X144542000Y-77001700D02*
X143764000Y-76224000D01*
X143764000Y-76224000D02*
X143764000Y-75671000D01*
X143764000Y-75671000D02*
X143733000Y-75639600D01*
X143733000Y-75639600D02*
X143733000Y-74899600D01*
X143733000Y-74899600D02*
X143007000Y-74174000D01*
X143007000Y-74174000D02*
X142267000Y-74174000D01*
X142267000Y-74174000D02*
X142139000Y-74045700D01*
X142139000Y-74045700D02*
X141905900Y-73989300D01*
G04 #@! TO.N,/D3*
X125188000Y-65765000D02*
X126413000Y-65765000D01*
X126413000Y-65765000D02*
X126413000Y-65305500D01*
X126413000Y-65305500D02*
X127232000Y-64486700D01*
X127232000Y-64486700D02*
X130723000Y-64486700D01*
X130723000Y-64486700D02*
X131493000Y-65257300D01*
X131493000Y-65257300D02*
X131493000Y-66232500D01*
X131493000Y-66232500D02*
X132340000Y-67079600D01*
X132340000Y-67079600D02*
X133405000Y-67079600D01*
X133405000Y-67079600D02*
X134078000Y-67752900D01*
X134078000Y-67752900D02*
X134078000Y-68769900D01*
X134078000Y-68769900D02*
X135802000Y-70494000D01*
X135802000Y-70494000D02*
X156154000Y-70494000D01*
X156154000Y-70494000D02*
X160559000Y-74899200D01*
X160559000Y-74899200D02*
X160559000Y-75565000D01*
X160559000Y-75565000D02*
X161798000Y-75565000D01*
G04 #@! TO.N,/D2*
X125188000Y-68305000D02*
X126413000Y-68305000D01*
X126413000Y-68305000D02*
X126413000Y-68764500D01*
X126413000Y-68764500D02*
X131812000Y-74163500D01*
X131812000Y-74163500D02*
X140501000Y-74163500D01*
X140501000Y-74163500D02*
X141224000Y-74886600D01*
X141224000Y-74886600D02*
X141224000Y-76212300D01*
X141224000Y-76212300D02*
X142567000Y-77555000D01*
X142567000Y-77555000D02*
X161775000Y-77555000D01*
X161775000Y-77555000D02*
X163099000Y-76230800D01*
X163099000Y-76230800D02*
X163099000Y-75565000D01*
X163099000Y-75565000D02*
X164338000Y-75565000D01*
G04 #@! TO.N,/D1*
X166878000Y-75565000D02*
X165639000Y-75565000D01*
X165639000Y-75565000D02*
X165639000Y-74945500D01*
X165639000Y-74945500D02*
X160565000Y-69871000D01*
X160565000Y-69871000D02*
X137693000Y-69871000D01*
X137693000Y-69871000D02*
X136618000Y-68796300D01*
X136618000Y-68796300D02*
X136618000Y-65247700D01*
X136618000Y-65247700D02*
X135250000Y-63879300D01*
X135250000Y-63879300D02*
X125251000Y-63879300D01*
X125251000Y-63879300D02*
X123873000Y-65257200D01*
X123873000Y-65257200D02*
X123873000Y-65765000D01*
X123873000Y-65765000D02*
X122648000Y-65765000D01*
G04 #@! TO.N,Net-(U1-Pad19)*
X135062000Y-89124000D02*
X135062000Y-90299300D01*
X135062000Y-90299300D02*
X134695000Y-90299300D01*
X134695000Y-90299300D02*
X133871000Y-91123200D01*
X133871000Y-91123200D02*
X133871000Y-92148300D01*
X133871000Y-92148300D02*
X134751000Y-93028600D01*
X134751000Y-93028600D02*
X135653000Y-93028600D01*
X135653000Y-93028600D02*
X138099000Y-95474000D01*
X138099000Y-95474000D02*
X141292000Y-95474000D01*
X141292000Y-95474000D02*
X146828000Y-101010000D01*
X146828000Y-101010000D02*
X159323000Y-101010000D01*
X159323000Y-101010000D02*
X164494000Y-95839300D01*
X164494000Y-95839300D02*
X164494000Y-95474000D01*
X164494000Y-95474000D02*
X165669000Y-95474000D01*
G04 #@! TO.N,Net-(U1-Pad20)*
X135062000Y-86584000D02*
X136237000Y-86584000D01*
X136237000Y-86584000D02*
X137588000Y-87934200D01*
X137588000Y-87934200D02*
X156647000Y-87934200D01*
G04 #@! TO.N,Net-(U1-Pad21)*
X135062000Y-91664000D02*
X136237000Y-91664000D01*
X136237000Y-91664000D02*
X137413000Y-90488400D01*
X137413000Y-90488400D02*
X140972000Y-90488400D01*
X140972000Y-90488400D02*
X145372000Y-94887800D01*
X145372000Y-94887800D02*
X145372000Y-98772400D01*
X145372000Y-98772400D02*
X147058000Y-100459000D01*
X147058000Y-100459000D02*
X154794000Y-100459000D01*
X154794000Y-100459000D02*
X159414000Y-95839300D01*
X159414000Y-95839300D02*
X159414000Y-95474000D01*
X159414000Y-95474000D02*
X160589000Y-95474000D01*
G04 #@! TO.N,Net-(U1-Pad23)*
X135062000Y-96744000D02*
X138793000Y-100475000D01*
X138793000Y-100475000D02*
X144549000Y-100475000D01*
X144549000Y-100475000D02*
X147232000Y-103158000D01*
G04 #@! TO.N,Net-(U2-Pad12)*
X116393000Y-94204000D02*
X121187000Y-94204000D01*
X121187000Y-94204000D02*
X126267000Y-89124000D01*
X126267000Y-89124000D02*
X127442000Y-89124000D01*
D27*
G04 #@! TO.N,GNDD*
X132435000Y-108555000D02*
X132435000Y-102840000D01*
X123219000Y-118207000D02*
X132435000Y-108991000D01*
X132435000Y-108991000D02*
X132435000Y-108555000D01*
X112488000Y-65765000D02*
X101376000Y-65765000D01*
X101376000Y-65765000D02*
X100772000Y-65161000D01*
X137414000Y-75565000D02*
X135285000Y-77694000D01*
X135285000Y-77694000D02*
X127188000Y-77694000D01*
X127188000Y-77694000D02*
X127188000Y-74392000D01*
X127188000Y-74392000D02*
X123759000Y-70963000D01*
X123759000Y-70963000D02*
X111059000Y-70963000D01*
X111059000Y-70963000D02*
X111059000Y-69464100D01*
X111059000Y-69464100D02*
X111113000Y-69410500D01*
X111113000Y-69410500D02*
X111113000Y-67140400D01*
X111113000Y-67140400D02*
X112488000Y-65765000D01*
X115028000Y-65765000D02*
X112488000Y-65765000D01*
X145516000Y-108555000D02*
X147675000Y-110714000D01*
X147675000Y-110714000D02*
X152969000Y-110714000D01*
X154112000Y-115286000D02*
X154112000Y-113911000D01*
X154112000Y-113911000D02*
X152969000Y-112768000D01*
X152969000Y-112768000D02*
X152969000Y-110714000D01*
X132435000Y-108555000D02*
X145516000Y-108555000D01*
X148016000Y-81504000D02*
X149341000Y-81504000D01*
X149341000Y-81504000D02*
X149503000Y-81342000D01*
X149503000Y-81342000D02*
X163983000Y-81342000D01*
X163983000Y-81342000D02*
X164399000Y-81758000D01*
X148016000Y-81504000D02*
X143353000Y-81504000D01*
X143353000Y-81504000D02*
X137414000Y-75565000D01*
X148016000Y-89124000D02*
X148016000Y-91664000D01*
X154178000Y-123825000D02*
X151638000Y-123825000D01*
X182687000Y-105071000D02*
X178369000Y-109389000D01*
X182687000Y-67534000D02*
X182687000Y-105071000D01*
X178369000Y-109389000D02*
X178369000Y-110714000D01*
X181544000Y-66391000D02*
X182687000Y-67534000D01*
X180274000Y-66391000D02*
X181544000Y-66391000D01*
D28*
G04 #@! TO.N,RES*
X171771000Y-63649700D02*
X171870000Y-64464400D01*
X171870000Y-64464400D02*
X175956000Y-68550000D01*
X171452000Y-63649700D02*
X171771000Y-63649700D01*
X175956000Y-68550000D02*
X176464000Y-68550000D01*
X175956000Y-68169000D02*
X175956000Y-68550000D01*
X171452000Y-63649700D02*
X171452000Y-63665000D01*
X171771000Y-63649700D02*
X171818000Y-63649700D01*
X171818000Y-63649700D02*
X171765000Y-63597000D01*
X171765000Y-63597000D02*
X171771000Y-63649700D01*
X137888000Y-68305000D02*
X139113000Y-68305000D01*
X139113000Y-68305000D02*
X139113000Y-67845400D01*
X139113000Y-67845400D02*
X139879000Y-67079700D01*
X139879000Y-67079700D02*
X140935000Y-67079700D01*
X140935000Y-67079700D02*
X141698000Y-66317100D01*
X141698000Y-66317100D02*
X141698000Y-65206100D01*
X141698000Y-65206100D02*
X143254000Y-63649700D01*
X143254000Y-63649700D02*
X171452000Y-63649700D01*
G04 #@! TO.N,Net-(JP1-Pad3)*
X156652000Y-119604000D02*
X156652000Y-118379000D01*
X156652000Y-118379000D02*
X158519000Y-116511000D01*
X158519000Y-116511000D02*
X159192000Y-116511000D01*
X159192000Y-116511000D02*
X159192000Y-115286000D01*
G04 #@! TO.N,Net-(JP2-Pad1)*
X131887000Y-116556000D02*
X129347000Y-116556000D01*
X134427000Y-116556000D02*
X131887000Y-116556000D01*
X136967000Y-116556000D02*
X134427000Y-116556000D01*
X139507000Y-116556000D02*
X136967000Y-116556000D01*
X142047000Y-116556000D02*
X139507000Y-116556000D01*
X144587000Y-116556000D02*
X142047000Y-116556000D01*
X147127000Y-116556000D02*
X149839000Y-116556000D01*
X149839000Y-116556000D02*
X152887000Y-119604000D01*
X152887000Y-119604000D02*
X154112000Y-119604000D01*
X144587000Y-116556000D02*
X147127000Y-116556000D01*
G04 #@! TO.N,/A5*
X148048000Y-65765000D02*
X149273000Y-65765000D01*
X149273000Y-65765000D02*
X149273000Y-65305500D01*
X149273000Y-65305500D02*
X150085000Y-64493500D01*
X150085000Y-64493500D02*
X161280000Y-64493500D01*
X161280000Y-64493500D02*
X165198000Y-68411400D01*
X165198000Y-68411400D02*
X165198000Y-68503100D01*
X165198000Y-68503100D02*
X170688000Y-73993000D01*
X170688000Y-73993000D02*
X170688000Y-84809000D01*
X170688000Y-84809000D02*
X164371000Y-91126100D01*
X164371000Y-91126100D02*
X160698000Y-91126100D01*
X160698000Y-91126100D02*
X156779000Y-95045100D01*
X156779000Y-95045100D02*
X156779000Y-95888700D01*
X156779000Y-95888700D02*
X153384000Y-99284000D01*
X153384000Y-99284000D02*
X148016000Y-99284000D01*
G04 #@! TO.N,/A6*
X148016000Y-96744000D02*
X149191000Y-96744000D01*
X149191000Y-96744000D02*
X159365000Y-86570600D01*
X159365000Y-86570600D02*
X161302000Y-86570600D01*
X161302000Y-86570600D02*
X168148000Y-79724300D01*
X168148000Y-79724300D02*
X168148000Y-73945000D01*
X168148000Y-73945000D02*
X161283000Y-67079600D01*
X161283000Y-67079600D02*
X152531000Y-67079600D01*
X152531000Y-67079600D02*
X151813000Y-67797200D01*
X151813000Y-67797200D02*
X151813000Y-68305000D01*
X151813000Y-68305000D02*
X150588000Y-68305000D01*
G04 #@! TO.N,/A7*
X148016000Y-94204000D02*
X148016000Y-95379300D01*
X148016000Y-95379300D02*
X147649000Y-95379300D01*
X147649000Y-95379300D02*
X146838000Y-96189600D01*
X146838000Y-96189600D02*
X146838000Y-97267900D01*
X146838000Y-97267900D02*
X147495000Y-97924100D01*
X147495000Y-97924100D02*
X148790000Y-97924100D01*
X148790000Y-97924100D02*
X158857000Y-87856400D01*
X158857000Y-87856400D02*
X161791000Y-87856400D01*
X161791000Y-87856400D02*
X165021000Y-84626600D01*
G04 #@! TO.N,Net-(JP5-Pad1)*
X126868500Y-67225300D02*
X126633600Y-66990400D01*
X126633600Y-66990400D02*
X122124200Y-66990400D01*
X122124200Y-66990400D02*
X121378000Y-66244200D01*
X121378000Y-66244200D02*
X121378000Y-65261300D01*
X121378000Y-65261300D02*
X125836300Y-60803000D01*
X125836300Y-60803000D02*
X169733000Y-60803000D01*
G04 #@! TD*
D29*
G04 #@! TO.N,GNDA*
G36*
X120457000Y-84377000D02*
X112530719Y-84377000D01*
X112529534Y-84374138D01*
X112125862Y-83970466D01*
X111598439Y-83752000D01*
X111027561Y-83752000D01*
X110500138Y-83970466D01*
X110096466Y-84374138D01*
X109878000Y-84901561D01*
X109878000Y-85472439D01*
X110096466Y-85999862D01*
X110500138Y-86403534D01*
X111027561Y-86622000D01*
X111598439Y-86622000D01*
X112125862Y-86403534D01*
X112529534Y-85999862D01*
X112530719Y-85997000D01*
X116029285Y-85997000D01*
X115933000Y-86229452D01*
X115933000Y-86760548D01*
X116136242Y-87251217D01*
X116511783Y-87626758D01*
X116780042Y-87737875D01*
X116534333Y-87689000D01*
X116251667Y-87689000D01*
X115833091Y-87772260D01*
X115358423Y-88089423D01*
X115041260Y-88564091D01*
X114929887Y-89124000D01*
X115041260Y-89683909D01*
X115358423Y-90158577D01*
X115710758Y-90394000D01*
X115358423Y-90629423D01*
X115041260Y-91104091D01*
X114929887Y-91664000D01*
X115041260Y-92223909D01*
X115051293Y-92238925D01*
X114885023Y-92350023D01*
X114839834Y-92417653D01*
X111841656Y-95415832D01*
X111774023Y-95461023D01*
X111594997Y-95728955D01*
X111549528Y-95957544D01*
X111532132Y-96045000D01*
X111548000Y-96124773D01*
X111548001Y-107628000D01*
X111154561Y-107628000D01*
X111151698Y-107629186D01*
X110758000Y-107235488D01*
X110758000Y-99363774D01*
X110773868Y-99284000D01*
X110711003Y-98967954D01*
X110531977Y-98700023D01*
X110264046Y-98520997D01*
X110027774Y-98474000D01*
X109948000Y-98458132D01*
X109947145Y-98458302D01*
X109807577Y-98249423D01*
X109423892Y-97993053D01*
X109628134Y-97896389D01*
X110004041Y-97481423D01*
X110164904Y-97093039D01*
X110042915Y-96871000D01*
X108900000Y-96871000D01*
X108900000Y-96891000D01*
X108646000Y-96891000D01*
X108646000Y-96871000D01*
X107503085Y-96871000D01*
X107381096Y-97093039D01*
X107541959Y-97481423D01*
X107917866Y-97896389D01*
X108122108Y-97993053D01*
X107738423Y-98249423D01*
X107421260Y-98724091D01*
X107309887Y-99284000D01*
X107421260Y-99843909D01*
X107738423Y-100318577D01*
X108090758Y-100554000D01*
X107738423Y-100789423D01*
X107421260Y-101264091D01*
X107309887Y-101824000D01*
X107421260Y-102383909D01*
X107738423Y-102858577D01*
X108090758Y-103094000D01*
X107738423Y-103329423D01*
X107598855Y-103538302D01*
X107598000Y-103538132D01*
X107518226Y-103554000D01*
X107281954Y-103600997D01*
X107014023Y-103780023D01*
X106834997Y-104047954D01*
X106772132Y-104364000D01*
X106788000Y-104443774D01*
X106788000Y-104445489D01*
X102903703Y-108329832D01*
X102750481Y-108100519D01*
X102308891Y-107805458D01*
X101919485Y-107728000D01*
X101656515Y-107728000D01*
X101267109Y-107805458D01*
X100825519Y-108100519D01*
X100530458Y-108542109D01*
X100426846Y-109063000D01*
X100530458Y-109583891D01*
X100825519Y-110025481D01*
X101054845Y-110178712D01*
X98694585Y-112539000D01*
X98184774Y-112539000D01*
X98105000Y-112523132D01*
X98025226Y-112539000D01*
X97788954Y-112585997D01*
X97521023Y-112765023D01*
X97341997Y-113032954D01*
X97333323Y-113076560D01*
X97305000Y-113076560D01*
X97057235Y-113125843D01*
X96847191Y-113266191D01*
X96706843Y-113476235D01*
X96686899Y-113576503D01*
X96417862Y-113307466D01*
X95890439Y-113089000D01*
X95319561Y-113089000D01*
X94792138Y-113307466D01*
X94388466Y-113711138D01*
X94170000Y-114238561D01*
X94170000Y-114809439D01*
X94388466Y-115336862D01*
X94792138Y-115740534D01*
X95319561Y-115959000D01*
X95890439Y-115959000D01*
X96417862Y-115740534D01*
X96686899Y-115471497D01*
X96706843Y-115571765D01*
X96847191Y-115781809D01*
X97057235Y-115922157D01*
X97305000Y-115971440D01*
X98905000Y-115971440D01*
X99152765Y-115922157D01*
X99362809Y-115781809D01*
X99503157Y-115571765D01*
X99552440Y-115324000D01*
X99552440Y-113974162D01*
X99614077Y-113932977D01*
X99659269Y-113865343D01*
X103453822Y-110070745D01*
X105611861Y-110070745D01*
X105685995Y-110316864D01*
X106223223Y-110509965D01*
X106793454Y-110482778D01*
X107194005Y-110316864D01*
X107268139Y-110070745D01*
X106440000Y-109242605D01*
X105611861Y-110070745D01*
X103453822Y-110070745D01*
X105169629Y-108354919D01*
X104993035Y-108846223D01*
X105020222Y-109416454D01*
X105186136Y-109817005D01*
X105432255Y-109891139D01*
X106260395Y-109063000D01*
X106619605Y-109063000D01*
X107447745Y-109891139D01*
X107693864Y-109817005D01*
X107886965Y-109279777D01*
X107859778Y-108709546D01*
X107693864Y-108308995D01*
X107447745Y-108234861D01*
X106619605Y-109063000D01*
X106260395Y-109063000D01*
X106246252Y-109048858D01*
X106425858Y-108869252D01*
X106440000Y-108883395D01*
X107268139Y-108055255D01*
X107194005Y-107809136D01*
X106656777Y-107616035D01*
X106086546Y-107643222D01*
X105736202Y-107788339D01*
X107970722Y-105553794D01*
X108213091Y-105715740D01*
X108631667Y-105799000D01*
X108914333Y-105799000D01*
X109138001Y-105754510D01*
X109138001Y-107491222D01*
X109122132Y-107571000D01*
X109153362Y-107728000D01*
X109184998Y-107887046D01*
X109364024Y-108154977D01*
X109431654Y-108200166D01*
X110006186Y-108774698D01*
X110005000Y-108777561D01*
X110005000Y-109348439D01*
X110223466Y-109875862D01*
X110627138Y-110279534D01*
X111154561Y-110498000D01*
X111725439Y-110498000D01*
X112252862Y-110279534D01*
X112656534Y-109875862D01*
X112875000Y-109348439D01*
X112875000Y-108777561D01*
X112873814Y-108774699D01*
X112874347Y-108774166D01*
X112941977Y-108728977D01*
X113121003Y-108461046D01*
X113168000Y-108224774D01*
X113183868Y-108145001D01*
X113168000Y-108065228D01*
X113168000Y-96380512D01*
X114998678Y-94549835D01*
X115041260Y-94763909D01*
X115358423Y-95238577D01*
X115710758Y-95474000D01*
X115358423Y-95709423D01*
X115041260Y-96184091D01*
X114929887Y-96744000D01*
X115041260Y-97303909D01*
X115358423Y-97778577D01*
X115710758Y-98014000D01*
X115358423Y-98249423D01*
X115041260Y-98724091D01*
X114929887Y-99284000D01*
X115041260Y-99843909D01*
X115358423Y-100318577D01*
X115710758Y-100554000D01*
X115358423Y-100789423D01*
X115041260Y-101264091D01*
X114929887Y-101824000D01*
X115041260Y-102383909D01*
X115358423Y-102858577D01*
X115479106Y-102939215D01*
X115345235Y-102965843D01*
X115135191Y-103106191D01*
X114994843Y-103316235D01*
X114945560Y-103564000D01*
X114945560Y-105164000D01*
X114994843Y-105411765D01*
X115135191Y-105621809D01*
X115345235Y-105762157D01*
X115593000Y-105811440D01*
X117193000Y-105811440D01*
X117440765Y-105762157D01*
X117650809Y-105621809D01*
X117791157Y-105411765D01*
X117840440Y-105164000D01*
X117840440Y-103564000D01*
X117791157Y-103316235D01*
X117650809Y-103106191D01*
X117440765Y-102965843D01*
X117306894Y-102939215D01*
X117427577Y-102858577D01*
X117744740Y-102383909D01*
X117856113Y-101824000D01*
X117744740Y-101264091D01*
X117427577Y-100789423D01*
X117075242Y-100554000D01*
X117427577Y-100318577D01*
X117744740Y-99843909D01*
X117856113Y-99284000D01*
X117744740Y-98724091D01*
X117427577Y-98249423D01*
X117075242Y-98014000D01*
X117408066Y-97791614D01*
X120457000Y-100839761D01*
X120457000Y-116572000D01*
X119512900Y-116572000D01*
X119483539Y-116561092D01*
X118833540Y-116585144D01*
X118344736Y-116787613D01*
X118246073Y-117054468D01*
X118584000Y-117392395D01*
X118584000Y-117751605D01*
X118066468Y-117234073D01*
X117799613Y-117332736D01*
X117573092Y-117942461D01*
X117597144Y-118592460D01*
X117799613Y-119081264D01*
X118066468Y-119179927D01*
X118584000Y-118662395D01*
X118584000Y-119021605D01*
X118246073Y-119359532D01*
X118344736Y-119626387D01*
X118954461Y-119852908D01*
X119249247Y-119842000D01*
X120457000Y-119842000D01*
X120457000Y-129002000D01*
X87436711Y-129002000D01*
X87427813Y-125104501D01*
X89381000Y-125104501D01*
X89381000Y-126165499D01*
X89787026Y-127145734D01*
X90537266Y-127895974D01*
X91517501Y-128302000D01*
X92578499Y-128302000D01*
X93558734Y-127895974D01*
X94308974Y-127145734D01*
X94715000Y-126165499D01*
X94715000Y-125104501D01*
X94308974Y-124124266D01*
X93558734Y-123374026D01*
X92578499Y-122968000D01*
X91517501Y-122968000D01*
X90537266Y-123374026D01*
X89787026Y-124124266D01*
X89381000Y-125104501D01*
X87427813Y-125104501D01*
X87390584Y-108797452D01*
X92833000Y-108797452D01*
X92833000Y-109328548D01*
X93036242Y-109819217D01*
X93411783Y-110194758D01*
X93902452Y-110398000D01*
X94433548Y-110398000D01*
X94924217Y-110194758D01*
X95299758Y-109819217D01*
X95503000Y-109328548D01*
X95503000Y-108797452D01*
X95299758Y-108306783D01*
X94924217Y-107931242D01*
X94433548Y-107728000D01*
X93902452Y-107728000D01*
X93411783Y-107931242D01*
X93036242Y-108306783D01*
X92833000Y-108797452D01*
X87390584Y-108797452D01*
X87373742Y-101420268D01*
X93593000Y-101420268D01*
X93593000Y-102249732D01*
X93910422Y-103016058D01*
X94496942Y-103602578D01*
X95263268Y-103920000D01*
X96092732Y-103920000D01*
X96859058Y-103602578D01*
X97445578Y-103016058D01*
X97763000Y-102249732D01*
X97763000Y-101420268D01*
X97680158Y-101220268D01*
X101393000Y-101220268D01*
X101393000Y-102049732D01*
X101710422Y-102816058D01*
X102296942Y-103402578D01*
X103063268Y-103720000D01*
X103892732Y-103720000D01*
X104659058Y-103402578D01*
X105245578Y-102816058D01*
X105563000Y-102049732D01*
X105563000Y-101220268D01*
X105245578Y-100453942D01*
X104659058Y-99867422D01*
X103892732Y-99550000D01*
X103063268Y-99550000D01*
X102296942Y-99867422D01*
X101710422Y-100453942D01*
X101393000Y-101220268D01*
X97680158Y-101220268D01*
X97445578Y-100653942D01*
X96859058Y-100067422D01*
X96092732Y-99750000D01*
X95263268Y-99750000D01*
X94496942Y-100067422D01*
X93910422Y-100653942D01*
X93593000Y-101420268D01*
X87373742Y-101420268D01*
X87367788Y-98812849D01*
X90879756Y-98812849D01*
X91033435Y-99126424D01*
X91806108Y-99428066D01*
X92635398Y-99411058D01*
X93322565Y-99126424D01*
X93476244Y-98812849D01*
X92178000Y-97514605D01*
X90879756Y-98812849D01*
X87367788Y-98812849D01*
X87363564Y-96963108D01*
X90084934Y-96963108D01*
X90101942Y-97792398D01*
X90386576Y-98479565D01*
X90700151Y-98633244D01*
X91998395Y-97335000D01*
X92357605Y-97335000D01*
X93655849Y-98633244D01*
X93969424Y-98479565D01*
X94271066Y-97706892D01*
X94254058Y-96877602D01*
X93969424Y-96190435D01*
X93655849Y-96036756D01*
X92357605Y-97335000D01*
X91998395Y-97335000D01*
X90700151Y-96036756D01*
X90386576Y-96190435D01*
X90084934Y-96963108D01*
X87363564Y-96963108D01*
X87361039Y-95857151D01*
X90879756Y-95857151D01*
X92178000Y-97155395D01*
X93476244Y-95857151D01*
X93322565Y-95543576D01*
X92549892Y-95241934D01*
X91720602Y-95258942D01*
X91033435Y-95543576D01*
X90879756Y-95857151D01*
X87361039Y-95857151D01*
X87356937Y-94060050D01*
X97093000Y-94060050D01*
X97093000Y-94809950D01*
X97379974Y-95502767D01*
X97910233Y-96033026D01*
X98603050Y-96320000D01*
X99352950Y-96320000D01*
X100045767Y-96033026D01*
X100576026Y-95502767D01*
X100863000Y-94809950D01*
X100863000Y-94060050D01*
X100804989Y-93920000D01*
X101072841Y-93920000D01*
X101802412Y-93617801D01*
X102360801Y-93059412D01*
X102663000Y-92329841D01*
X102663000Y-91540159D01*
X102360801Y-90810588D01*
X101802412Y-90252199D01*
X101072841Y-89950000D01*
X100283159Y-89950000D01*
X99553588Y-90252199D01*
X98995199Y-90810588D01*
X98693000Y-91540159D01*
X98693000Y-92329841D01*
X98784193Y-92550000D01*
X98603050Y-92550000D01*
X97910233Y-92836974D01*
X97379974Y-93367233D01*
X97093000Y-94060050D01*
X87356937Y-94060050D01*
X87338099Y-85809452D01*
X92413000Y-85809452D01*
X92413000Y-86340548D01*
X92616242Y-86831217D01*
X92991783Y-87206758D01*
X93482452Y-87410000D01*
X94013548Y-87410000D01*
X94504217Y-87206758D01*
X94879758Y-86831217D01*
X95083000Y-86340548D01*
X95083000Y-86075000D01*
X100006846Y-86075000D01*
X100110458Y-86595891D01*
X100405519Y-87037481D01*
X100847109Y-87332542D01*
X101236515Y-87410000D01*
X101499485Y-87410000D01*
X101888891Y-87332542D01*
X102330481Y-87037481D01*
X102625542Y-86595891D01*
X102729154Y-86075000D01*
X102625542Y-85554109D01*
X102330481Y-85112519D01*
X101888891Y-84817458D01*
X101499485Y-84740000D01*
X101236515Y-84740000D01*
X100847109Y-84817458D01*
X100405519Y-85112519D01*
X100110458Y-85554109D01*
X100006846Y-86075000D01*
X95083000Y-86075000D01*
X95083000Y-85809452D01*
X94879758Y-85318783D01*
X94504217Y-84943242D01*
X94013548Y-84740000D01*
X93482452Y-84740000D01*
X92991783Y-84943242D01*
X92616242Y-85318783D01*
X92413000Y-85809452D01*
X87338099Y-85809452D01*
X87324138Y-79694561D01*
X94170000Y-79694561D01*
X94170000Y-80265439D01*
X94388466Y-80792862D01*
X94792138Y-81196534D01*
X95319561Y-81415000D01*
X95890439Y-81415000D01*
X96417862Y-81196534D01*
X96686899Y-80927497D01*
X96706843Y-81027765D01*
X96847191Y-81237809D01*
X97057235Y-81378157D01*
X97305000Y-81427440D01*
X98905000Y-81427440D01*
X99152765Y-81378157D01*
X99362809Y-81237809D01*
X99374750Y-81219938D01*
X106788000Y-88632922D01*
X106788000Y-89044226D01*
X106772132Y-89124000D01*
X106834997Y-89440046D01*
X106834998Y-89440047D01*
X107014023Y-89707977D01*
X107281954Y-89887003D01*
X107598000Y-89949868D01*
X107598855Y-89949698D01*
X107738423Y-90158577D01*
X108090758Y-90394000D01*
X107738423Y-90629423D01*
X107421260Y-91104091D01*
X107309887Y-91664000D01*
X107421260Y-92223909D01*
X107738423Y-92698577D01*
X108090758Y-92934000D01*
X107738423Y-93169423D01*
X107421260Y-93644091D01*
X107309887Y-94204000D01*
X107421260Y-94763909D01*
X107738423Y-95238577D01*
X108122108Y-95494947D01*
X107917866Y-95591611D01*
X107541959Y-96006577D01*
X107381096Y-96394961D01*
X107503085Y-96617000D01*
X108646000Y-96617000D01*
X108646000Y-96597000D01*
X108900000Y-96597000D01*
X108900000Y-96617000D01*
X110042915Y-96617000D01*
X110164904Y-96394961D01*
X110004041Y-96006577D01*
X109628134Y-95591611D01*
X109423892Y-95494947D01*
X109807577Y-95238577D01*
X110124740Y-94763909D01*
X110236113Y-94204000D01*
X110124740Y-93644091D01*
X109807577Y-93169423D01*
X109455242Y-92934000D01*
X109807577Y-92698577D01*
X110124740Y-92223909D01*
X110236113Y-91664000D01*
X110124740Y-91104091D01*
X109807577Y-90629423D01*
X109455242Y-90394000D01*
X109807577Y-90158577D01*
X110124740Y-89683909D01*
X110236113Y-89124000D01*
X110124740Y-88564091D01*
X109807577Y-88089423D01*
X109332909Y-87772260D01*
X108914333Y-87689000D01*
X108631667Y-87689000D01*
X108220329Y-87770820D01*
X108181977Y-87713423D01*
X108114341Y-87668230D01*
X106939675Y-86493606D01*
X107067005Y-86440864D01*
X107141139Y-86194745D01*
X106313000Y-85366605D01*
X106298858Y-85380748D01*
X106119252Y-85201142D01*
X106133395Y-85187000D01*
X106492605Y-85187000D01*
X107320745Y-86015139D01*
X107566864Y-85941005D01*
X107759965Y-85403777D01*
X107732778Y-84833546D01*
X107566864Y-84432995D01*
X107320745Y-84358861D01*
X106492605Y-85187000D01*
X106133395Y-85187000D01*
X105305255Y-84358861D01*
X105059136Y-84432995D01*
X105011506Y-84565507D01*
X104625240Y-84179255D01*
X105484861Y-84179255D01*
X106313000Y-85007395D01*
X107141139Y-84179255D01*
X107067005Y-83933136D01*
X106529777Y-83740035D01*
X105959546Y-83767222D01*
X105558995Y-83933136D01*
X105484861Y-84179255D01*
X104625240Y-84179255D01*
X101306611Y-80860745D01*
X113699861Y-80860745D01*
X113773995Y-81106864D01*
X114311223Y-81299965D01*
X114881454Y-81272778D01*
X115282005Y-81106864D01*
X115356139Y-80860745D01*
X114528000Y-80032605D01*
X113699861Y-80860745D01*
X101306611Y-80860745D01*
X100082044Y-79636223D01*
X113081035Y-79636223D01*
X113108222Y-80206454D01*
X113274136Y-80607005D01*
X113520255Y-80681139D01*
X114348395Y-79853000D01*
X114707605Y-79853000D01*
X115535745Y-80681139D01*
X115583307Y-80666813D01*
X115629843Y-80900765D01*
X115770191Y-81110809D01*
X115980235Y-81251157D01*
X116228000Y-81300440D01*
X117828000Y-81300440D01*
X118075765Y-81251157D01*
X118285809Y-81110809D01*
X118426157Y-80900765D01*
X118475440Y-80653000D01*
X118475440Y-79053000D01*
X118426157Y-78805235D01*
X118285809Y-78595191D01*
X118075765Y-78454843D01*
X117828000Y-78405560D01*
X116228000Y-78405560D01*
X115980235Y-78454843D01*
X115770191Y-78595191D01*
X115629843Y-78805235D01*
X115583307Y-79039187D01*
X115535745Y-79024861D01*
X114707605Y-79853000D01*
X114348395Y-79853000D01*
X113520255Y-79024861D01*
X113274136Y-79098995D01*
X113081035Y-79636223D01*
X100082044Y-79636223D01*
X99909464Y-79463650D01*
X99864277Y-79396023D01*
X99796638Y-79350828D01*
X99796636Y-79350826D01*
X99769897Y-79332960D01*
X99596346Y-79216997D01*
X99596337Y-79216995D01*
X99596332Y-79216992D01*
X99552440Y-79208262D01*
X99552440Y-79180000D01*
X99503157Y-78932235D01*
X99445039Y-78845255D01*
X113699861Y-78845255D01*
X114528000Y-79673395D01*
X115356139Y-78845255D01*
X115282005Y-78599136D01*
X114744777Y-78406035D01*
X114174546Y-78433222D01*
X113773995Y-78599136D01*
X113699861Y-78845255D01*
X99445039Y-78845255D01*
X99362809Y-78722191D01*
X99152765Y-78581843D01*
X98905000Y-78532560D01*
X97305000Y-78532560D01*
X97057235Y-78581843D01*
X96847191Y-78722191D01*
X96706843Y-78932235D01*
X96686899Y-79032503D01*
X96417862Y-78763466D01*
X95890439Y-78545000D01*
X95319561Y-78545000D01*
X94792138Y-78763466D01*
X94388466Y-79167138D01*
X94170000Y-79694561D01*
X87324138Y-79694561D01*
X87310291Y-73630000D01*
X120457000Y-73630000D01*
X120457000Y-84377000D01*
X120457000Y-84377000D01*
G37*
X120457000Y-84377000D02*
X112530719Y-84377000D01*
X112529534Y-84374138D01*
X112125862Y-83970466D01*
X111598439Y-83752000D01*
X111027561Y-83752000D01*
X110500138Y-83970466D01*
X110096466Y-84374138D01*
X109878000Y-84901561D01*
X109878000Y-85472439D01*
X110096466Y-85999862D01*
X110500138Y-86403534D01*
X111027561Y-86622000D01*
X111598439Y-86622000D01*
X112125862Y-86403534D01*
X112529534Y-85999862D01*
X112530719Y-85997000D01*
X116029285Y-85997000D01*
X115933000Y-86229452D01*
X115933000Y-86760548D01*
X116136242Y-87251217D01*
X116511783Y-87626758D01*
X116780042Y-87737875D01*
X116534333Y-87689000D01*
X116251667Y-87689000D01*
X115833091Y-87772260D01*
X115358423Y-88089423D01*
X115041260Y-88564091D01*
X114929887Y-89124000D01*
X115041260Y-89683909D01*
X115358423Y-90158577D01*
X115710758Y-90394000D01*
X115358423Y-90629423D01*
X115041260Y-91104091D01*
X114929887Y-91664000D01*
X115041260Y-92223909D01*
X115051293Y-92238925D01*
X114885023Y-92350023D01*
X114839834Y-92417653D01*
X111841656Y-95415832D01*
X111774023Y-95461023D01*
X111594997Y-95728955D01*
X111549528Y-95957544D01*
X111532132Y-96045000D01*
X111548000Y-96124773D01*
X111548001Y-107628000D01*
X111154561Y-107628000D01*
X111151698Y-107629186D01*
X110758000Y-107235488D01*
X110758000Y-99363774D01*
X110773868Y-99284000D01*
X110711003Y-98967954D01*
X110531977Y-98700023D01*
X110264046Y-98520997D01*
X110027774Y-98474000D01*
X109948000Y-98458132D01*
X109947145Y-98458302D01*
X109807577Y-98249423D01*
X109423892Y-97993053D01*
X109628134Y-97896389D01*
X110004041Y-97481423D01*
X110164904Y-97093039D01*
X110042915Y-96871000D01*
X108900000Y-96871000D01*
X108900000Y-96891000D01*
X108646000Y-96891000D01*
X108646000Y-96871000D01*
X107503085Y-96871000D01*
X107381096Y-97093039D01*
X107541959Y-97481423D01*
X107917866Y-97896389D01*
X108122108Y-97993053D01*
X107738423Y-98249423D01*
X107421260Y-98724091D01*
X107309887Y-99284000D01*
X107421260Y-99843909D01*
X107738423Y-100318577D01*
X108090758Y-100554000D01*
X107738423Y-100789423D01*
X107421260Y-101264091D01*
X107309887Y-101824000D01*
X107421260Y-102383909D01*
X107738423Y-102858577D01*
X108090758Y-103094000D01*
X107738423Y-103329423D01*
X107598855Y-103538302D01*
X107598000Y-103538132D01*
X107518226Y-103554000D01*
X107281954Y-103600997D01*
X107014023Y-103780023D01*
X106834997Y-104047954D01*
X106772132Y-104364000D01*
X106788000Y-104443774D01*
X106788000Y-104445489D01*
X102903703Y-108329832D01*
X102750481Y-108100519D01*
X102308891Y-107805458D01*
X101919485Y-107728000D01*
X101656515Y-107728000D01*
X101267109Y-107805458D01*
X100825519Y-108100519D01*
X100530458Y-108542109D01*
X100426846Y-109063000D01*
X100530458Y-109583891D01*
X100825519Y-110025481D01*
X101054845Y-110178712D01*
X98694585Y-112539000D01*
X98184774Y-112539000D01*
X98105000Y-112523132D01*
X98025226Y-112539000D01*
X97788954Y-112585997D01*
X97521023Y-112765023D01*
X97341997Y-113032954D01*
X97333323Y-113076560D01*
X97305000Y-113076560D01*
X97057235Y-113125843D01*
X96847191Y-113266191D01*
X96706843Y-113476235D01*
X96686899Y-113576503D01*
X96417862Y-113307466D01*
X95890439Y-113089000D01*
X95319561Y-113089000D01*
X94792138Y-113307466D01*
X94388466Y-113711138D01*
X94170000Y-114238561D01*
X94170000Y-114809439D01*
X94388466Y-115336862D01*
X94792138Y-115740534D01*
X95319561Y-115959000D01*
X95890439Y-115959000D01*
X96417862Y-115740534D01*
X96686899Y-115471497D01*
X96706843Y-115571765D01*
X96847191Y-115781809D01*
X97057235Y-115922157D01*
X97305000Y-115971440D01*
X98905000Y-115971440D01*
X99152765Y-115922157D01*
X99362809Y-115781809D01*
X99503157Y-115571765D01*
X99552440Y-115324000D01*
X99552440Y-113974162D01*
X99614077Y-113932977D01*
X99659269Y-113865343D01*
X103453822Y-110070745D01*
X105611861Y-110070745D01*
X105685995Y-110316864D01*
X106223223Y-110509965D01*
X106793454Y-110482778D01*
X107194005Y-110316864D01*
X107268139Y-110070745D01*
X106440000Y-109242605D01*
X105611861Y-110070745D01*
X103453822Y-110070745D01*
X105169629Y-108354919D01*
X104993035Y-108846223D01*
X105020222Y-109416454D01*
X105186136Y-109817005D01*
X105432255Y-109891139D01*
X106260395Y-109063000D01*
X106619605Y-109063000D01*
X107447745Y-109891139D01*
X107693864Y-109817005D01*
X107886965Y-109279777D01*
X107859778Y-108709546D01*
X107693864Y-108308995D01*
X107447745Y-108234861D01*
X106619605Y-109063000D01*
X106260395Y-109063000D01*
X106246252Y-109048858D01*
X106425858Y-108869252D01*
X106440000Y-108883395D01*
X107268139Y-108055255D01*
X107194005Y-107809136D01*
X106656777Y-107616035D01*
X106086546Y-107643222D01*
X105736202Y-107788339D01*
X107970722Y-105553794D01*
X108213091Y-105715740D01*
X108631667Y-105799000D01*
X108914333Y-105799000D01*
X109138001Y-105754510D01*
X109138001Y-107491222D01*
X109122132Y-107571000D01*
X109153362Y-107728000D01*
X109184998Y-107887046D01*
X109364024Y-108154977D01*
X109431654Y-108200166D01*
X110006186Y-108774698D01*
X110005000Y-108777561D01*
X110005000Y-109348439D01*
X110223466Y-109875862D01*
X110627138Y-110279534D01*
X111154561Y-110498000D01*
X111725439Y-110498000D01*
X112252862Y-110279534D01*
X112656534Y-109875862D01*
X112875000Y-109348439D01*
X112875000Y-108777561D01*
X112873814Y-108774699D01*
X112874347Y-108774166D01*
X112941977Y-108728977D01*
X113121003Y-108461046D01*
X113168000Y-108224774D01*
X113183868Y-108145001D01*
X113168000Y-108065228D01*
X113168000Y-96380512D01*
X114998678Y-94549835D01*
X115041260Y-94763909D01*
X115358423Y-95238577D01*
X115710758Y-95474000D01*
X115358423Y-95709423D01*
X115041260Y-96184091D01*
X114929887Y-96744000D01*
X115041260Y-97303909D01*
X115358423Y-97778577D01*
X115710758Y-98014000D01*
X115358423Y-98249423D01*
X115041260Y-98724091D01*
X114929887Y-99284000D01*
X115041260Y-99843909D01*
X115358423Y-100318577D01*
X115710758Y-100554000D01*
X115358423Y-100789423D01*
X115041260Y-101264091D01*
X114929887Y-101824000D01*
X115041260Y-102383909D01*
X115358423Y-102858577D01*
X115479106Y-102939215D01*
X115345235Y-102965843D01*
X115135191Y-103106191D01*
X114994843Y-103316235D01*
X114945560Y-103564000D01*
X114945560Y-105164000D01*
X114994843Y-105411765D01*
X115135191Y-105621809D01*
X115345235Y-105762157D01*
X115593000Y-105811440D01*
X117193000Y-105811440D01*
X117440765Y-105762157D01*
X117650809Y-105621809D01*
X117791157Y-105411765D01*
X117840440Y-105164000D01*
X117840440Y-103564000D01*
X117791157Y-103316235D01*
X117650809Y-103106191D01*
X117440765Y-102965843D01*
X117306894Y-102939215D01*
X117427577Y-102858577D01*
X117744740Y-102383909D01*
X117856113Y-101824000D01*
X117744740Y-101264091D01*
X117427577Y-100789423D01*
X117075242Y-100554000D01*
X117427577Y-100318577D01*
X117744740Y-99843909D01*
X117856113Y-99284000D01*
X117744740Y-98724091D01*
X117427577Y-98249423D01*
X117075242Y-98014000D01*
X117408066Y-97791614D01*
X120457000Y-100839761D01*
X120457000Y-116572000D01*
X119512900Y-116572000D01*
X119483539Y-116561092D01*
X118833540Y-116585144D01*
X118344736Y-116787613D01*
X118246073Y-117054468D01*
X118584000Y-117392395D01*
X118584000Y-117751605D01*
X118066468Y-117234073D01*
X117799613Y-117332736D01*
X117573092Y-117942461D01*
X117597144Y-118592460D01*
X117799613Y-119081264D01*
X118066468Y-119179927D01*
X118584000Y-118662395D01*
X118584000Y-119021605D01*
X118246073Y-119359532D01*
X118344736Y-119626387D01*
X118954461Y-119852908D01*
X119249247Y-119842000D01*
X120457000Y-119842000D01*
X120457000Y-129002000D01*
X87436711Y-129002000D01*
X87427813Y-125104501D01*
X89381000Y-125104501D01*
X89381000Y-126165499D01*
X89787026Y-127145734D01*
X90537266Y-127895974D01*
X91517501Y-128302000D01*
X92578499Y-128302000D01*
X93558734Y-127895974D01*
X94308974Y-127145734D01*
X94715000Y-126165499D01*
X94715000Y-125104501D01*
X94308974Y-124124266D01*
X93558734Y-123374026D01*
X92578499Y-122968000D01*
X91517501Y-122968000D01*
X90537266Y-123374026D01*
X89787026Y-124124266D01*
X89381000Y-125104501D01*
X87427813Y-125104501D01*
X87390584Y-108797452D01*
X92833000Y-108797452D01*
X92833000Y-109328548D01*
X93036242Y-109819217D01*
X93411783Y-110194758D01*
X93902452Y-110398000D01*
X94433548Y-110398000D01*
X94924217Y-110194758D01*
X95299758Y-109819217D01*
X95503000Y-109328548D01*
X95503000Y-108797452D01*
X95299758Y-108306783D01*
X94924217Y-107931242D01*
X94433548Y-107728000D01*
X93902452Y-107728000D01*
X93411783Y-107931242D01*
X93036242Y-108306783D01*
X92833000Y-108797452D01*
X87390584Y-108797452D01*
X87373742Y-101420268D01*
X93593000Y-101420268D01*
X93593000Y-102249732D01*
X93910422Y-103016058D01*
X94496942Y-103602578D01*
X95263268Y-103920000D01*
X96092732Y-103920000D01*
X96859058Y-103602578D01*
X97445578Y-103016058D01*
X97763000Y-102249732D01*
X97763000Y-101420268D01*
X97680158Y-101220268D01*
X101393000Y-101220268D01*
X101393000Y-102049732D01*
X101710422Y-102816058D01*
X102296942Y-103402578D01*
X103063268Y-103720000D01*
X103892732Y-103720000D01*
X104659058Y-103402578D01*
X105245578Y-102816058D01*
X105563000Y-102049732D01*
X105563000Y-101220268D01*
X105245578Y-100453942D01*
X104659058Y-99867422D01*
X103892732Y-99550000D01*
X103063268Y-99550000D01*
X102296942Y-99867422D01*
X101710422Y-100453942D01*
X101393000Y-101220268D01*
X97680158Y-101220268D01*
X97445578Y-100653942D01*
X96859058Y-100067422D01*
X96092732Y-99750000D01*
X95263268Y-99750000D01*
X94496942Y-100067422D01*
X93910422Y-100653942D01*
X93593000Y-101420268D01*
X87373742Y-101420268D01*
X87367788Y-98812849D01*
X90879756Y-98812849D01*
X91033435Y-99126424D01*
X91806108Y-99428066D01*
X92635398Y-99411058D01*
X93322565Y-99126424D01*
X93476244Y-98812849D01*
X92178000Y-97514605D01*
X90879756Y-98812849D01*
X87367788Y-98812849D01*
X87363564Y-96963108D01*
X90084934Y-96963108D01*
X90101942Y-97792398D01*
X90386576Y-98479565D01*
X90700151Y-98633244D01*
X91998395Y-97335000D01*
X92357605Y-97335000D01*
X93655849Y-98633244D01*
X93969424Y-98479565D01*
X94271066Y-97706892D01*
X94254058Y-96877602D01*
X93969424Y-96190435D01*
X93655849Y-96036756D01*
X92357605Y-97335000D01*
X91998395Y-97335000D01*
X90700151Y-96036756D01*
X90386576Y-96190435D01*
X90084934Y-96963108D01*
X87363564Y-96963108D01*
X87361039Y-95857151D01*
X90879756Y-95857151D01*
X92178000Y-97155395D01*
X93476244Y-95857151D01*
X93322565Y-95543576D01*
X92549892Y-95241934D01*
X91720602Y-95258942D01*
X91033435Y-95543576D01*
X90879756Y-95857151D01*
X87361039Y-95857151D01*
X87356937Y-94060050D01*
X97093000Y-94060050D01*
X97093000Y-94809950D01*
X97379974Y-95502767D01*
X97910233Y-96033026D01*
X98603050Y-96320000D01*
X99352950Y-96320000D01*
X100045767Y-96033026D01*
X100576026Y-95502767D01*
X100863000Y-94809950D01*
X100863000Y-94060050D01*
X100804989Y-93920000D01*
X101072841Y-93920000D01*
X101802412Y-93617801D01*
X102360801Y-93059412D01*
X102663000Y-92329841D01*
X102663000Y-91540159D01*
X102360801Y-90810588D01*
X101802412Y-90252199D01*
X101072841Y-89950000D01*
X100283159Y-89950000D01*
X99553588Y-90252199D01*
X98995199Y-90810588D01*
X98693000Y-91540159D01*
X98693000Y-92329841D01*
X98784193Y-92550000D01*
X98603050Y-92550000D01*
X97910233Y-92836974D01*
X97379974Y-93367233D01*
X97093000Y-94060050D01*
X87356937Y-94060050D01*
X87338099Y-85809452D01*
X92413000Y-85809452D01*
X92413000Y-86340548D01*
X92616242Y-86831217D01*
X92991783Y-87206758D01*
X93482452Y-87410000D01*
X94013548Y-87410000D01*
X94504217Y-87206758D01*
X94879758Y-86831217D01*
X95083000Y-86340548D01*
X95083000Y-86075000D01*
X100006846Y-86075000D01*
X100110458Y-86595891D01*
X100405519Y-87037481D01*
X100847109Y-87332542D01*
X101236515Y-87410000D01*
X101499485Y-87410000D01*
X101888891Y-87332542D01*
X102330481Y-87037481D01*
X102625542Y-86595891D01*
X102729154Y-86075000D01*
X102625542Y-85554109D01*
X102330481Y-85112519D01*
X101888891Y-84817458D01*
X101499485Y-84740000D01*
X101236515Y-84740000D01*
X100847109Y-84817458D01*
X100405519Y-85112519D01*
X100110458Y-85554109D01*
X100006846Y-86075000D01*
X95083000Y-86075000D01*
X95083000Y-85809452D01*
X94879758Y-85318783D01*
X94504217Y-84943242D01*
X94013548Y-84740000D01*
X93482452Y-84740000D01*
X92991783Y-84943242D01*
X92616242Y-85318783D01*
X92413000Y-85809452D01*
X87338099Y-85809452D01*
X87324138Y-79694561D01*
X94170000Y-79694561D01*
X94170000Y-80265439D01*
X94388466Y-80792862D01*
X94792138Y-81196534D01*
X95319561Y-81415000D01*
X95890439Y-81415000D01*
X96417862Y-81196534D01*
X96686899Y-80927497D01*
X96706843Y-81027765D01*
X96847191Y-81237809D01*
X97057235Y-81378157D01*
X97305000Y-81427440D01*
X98905000Y-81427440D01*
X99152765Y-81378157D01*
X99362809Y-81237809D01*
X99374750Y-81219938D01*
X106788000Y-88632922D01*
X106788000Y-89044226D01*
X106772132Y-89124000D01*
X106834997Y-89440046D01*
X106834998Y-89440047D01*
X107014023Y-89707977D01*
X107281954Y-89887003D01*
X107598000Y-89949868D01*
X107598855Y-89949698D01*
X107738423Y-90158577D01*
X108090758Y-90394000D01*
X107738423Y-90629423D01*
X107421260Y-91104091D01*
X107309887Y-91664000D01*
X107421260Y-92223909D01*
X107738423Y-92698577D01*
X108090758Y-92934000D01*
X107738423Y-93169423D01*
X107421260Y-93644091D01*
X107309887Y-94204000D01*
X107421260Y-94763909D01*
X107738423Y-95238577D01*
X108122108Y-95494947D01*
X107917866Y-95591611D01*
X107541959Y-96006577D01*
X107381096Y-96394961D01*
X107503085Y-96617000D01*
X108646000Y-96617000D01*
X108646000Y-96597000D01*
X108900000Y-96597000D01*
X108900000Y-96617000D01*
X110042915Y-96617000D01*
X110164904Y-96394961D01*
X110004041Y-96006577D01*
X109628134Y-95591611D01*
X109423892Y-95494947D01*
X109807577Y-95238577D01*
X110124740Y-94763909D01*
X110236113Y-94204000D01*
X110124740Y-93644091D01*
X109807577Y-93169423D01*
X109455242Y-92934000D01*
X109807577Y-92698577D01*
X110124740Y-92223909D01*
X110236113Y-91664000D01*
X110124740Y-91104091D01*
X109807577Y-90629423D01*
X109455242Y-90394000D01*
X109807577Y-90158577D01*
X110124740Y-89683909D01*
X110236113Y-89124000D01*
X110124740Y-88564091D01*
X109807577Y-88089423D01*
X109332909Y-87772260D01*
X108914333Y-87689000D01*
X108631667Y-87689000D01*
X108220329Y-87770820D01*
X108181977Y-87713423D01*
X108114341Y-87668230D01*
X106939675Y-86493606D01*
X107067005Y-86440864D01*
X107141139Y-86194745D01*
X106313000Y-85366605D01*
X106298858Y-85380748D01*
X106119252Y-85201142D01*
X106133395Y-85187000D01*
X106492605Y-85187000D01*
X107320745Y-86015139D01*
X107566864Y-85941005D01*
X107759965Y-85403777D01*
X107732778Y-84833546D01*
X107566864Y-84432995D01*
X107320745Y-84358861D01*
X106492605Y-85187000D01*
X106133395Y-85187000D01*
X105305255Y-84358861D01*
X105059136Y-84432995D01*
X105011506Y-84565507D01*
X104625240Y-84179255D01*
X105484861Y-84179255D01*
X106313000Y-85007395D01*
X107141139Y-84179255D01*
X107067005Y-83933136D01*
X106529777Y-83740035D01*
X105959546Y-83767222D01*
X105558995Y-83933136D01*
X105484861Y-84179255D01*
X104625240Y-84179255D01*
X101306611Y-80860745D01*
X113699861Y-80860745D01*
X113773995Y-81106864D01*
X114311223Y-81299965D01*
X114881454Y-81272778D01*
X115282005Y-81106864D01*
X115356139Y-80860745D01*
X114528000Y-80032605D01*
X113699861Y-80860745D01*
X101306611Y-80860745D01*
X100082044Y-79636223D01*
X113081035Y-79636223D01*
X113108222Y-80206454D01*
X113274136Y-80607005D01*
X113520255Y-80681139D01*
X114348395Y-79853000D01*
X114707605Y-79853000D01*
X115535745Y-80681139D01*
X115583307Y-80666813D01*
X115629843Y-80900765D01*
X115770191Y-81110809D01*
X115980235Y-81251157D01*
X116228000Y-81300440D01*
X117828000Y-81300440D01*
X118075765Y-81251157D01*
X118285809Y-81110809D01*
X118426157Y-80900765D01*
X118475440Y-80653000D01*
X118475440Y-79053000D01*
X118426157Y-78805235D01*
X118285809Y-78595191D01*
X118075765Y-78454843D01*
X117828000Y-78405560D01*
X116228000Y-78405560D01*
X115980235Y-78454843D01*
X115770191Y-78595191D01*
X115629843Y-78805235D01*
X115583307Y-79039187D01*
X115535745Y-79024861D01*
X114707605Y-79853000D01*
X114348395Y-79853000D01*
X113520255Y-79024861D01*
X113274136Y-79098995D01*
X113081035Y-79636223D01*
X100082044Y-79636223D01*
X99909464Y-79463650D01*
X99864277Y-79396023D01*
X99796638Y-79350828D01*
X99796636Y-79350826D01*
X99769897Y-79332960D01*
X99596346Y-79216997D01*
X99596337Y-79216995D01*
X99596332Y-79216992D01*
X99552440Y-79208262D01*
X99552440Y-79180000D01*
X99503157Y-78932235D01*
X99445039Y-78845255D01*
X113699861Y-78845255D01*
X114528000Y-79673395D01*
X115356139Y-78845255D01*
X115282005Y-78599136D01*
X114744777Y-78406035D01*
X114174546Y-78433222D01*
X113773995Y-78599136D01*
X113699861Y-78845255D01*
X99445039Y-78845255D01*
X99362809Y-78722191D01*
X99152765Y-78581843D01*
X98905000Y-78532560D01*
X97305000Y-78532560D01*
X97057235Y-78581843D01*
X96847191Y-78722191D01*
X96706843Y-78932235D01*
X96686899Y-79032503D01*
X96417862Y-78763466D01*
X95890439Y-78545000D01*
X95319561Y-78545000D01*
X94792138Y-78763466D01*
X94388466Y-79167138D01*
X94170000Y-79694561D01*
X87324138Y-79694561D01*
X87310291Y-73630000D01*
X120457000Y-73630000D01*
X120457000Y-84377000D01*
G36*
X120457000Y-98124823D02*
X118463647Y-96131987D01*
X118410121Y-96051879D01*
X118329909Y-95998283D01*
X118329869Y-95998243D01*
X118257337Y-95949792D01*
X118092573Y-95839700D01*
X118092509Y-95839687D01*
X118092456Y-95839652D01*
X117909678Y-95803320D01*
X117812549Y-95784000D01*
X117812483Y-95784000D01*
X117717874Y-95765194D01*
X117623393Y-95784000D01*
X117477408Y-95784000D01*
X117427577Y-95709423D01*
X117075242Y-95474000D01*
X117427577Y-95238577D01*
X117577635Y-95014000D01*
X120457000Y-95014000D01*
X120457000Y-98124823D01*
X120457000Y-98124823D01*
G37*
X120457000Y-98124823D02*
X118463647Y-96131987D01*
X118410121Y-96051879D01*
X118329909Y-95998283D01*
X118329869Y-95998243D01*
X118257337Y-95949792D01*
X118092573Y-95839700D01*
X118092509Y-95839687D01*
X118092456Y-95839652D01*
X117909678Y-95803320D01*
X117812549Y-95784000D01*
X117812483Y-95784000D01*
X117717874Y-95765194D01*
X117623393Y-95784000D01*
X117477408Y-95784000D01*
X117427577Y-95709423D01*
X117075242Y-95474000D01*
X117427577Y-95238577D01*
X117577635Y-95014000D01*
X120457000Y-95014000D01*
X120457000Y-98124823D01*
G36*
X120457000Y-90586488D02*
X118919488Y-92124000D01*
X117764613Y-92124000D01*
X117856113Y-91664000D01*
X117744740Y-91104091D01*
X117427577Y-90629423D01*
X117075242Y-90394000D01*
X117427577Y-90158577D01*
X117744740Y-89683909D01*
X117856113Y-89124000D01*
X117744740Y-88564091D01*
X117427577Y-88089423D01*
X117039323Y-87830000D01*
X117533548Y-87830000D01*
X118024217Y-87626758D01*
X118399758Y-87251217D01*
X118603000Y-86760548D01*
X118603000Y-86229452D01*
X118506715Y-85997000D01*
X120457000Y-85997000D01*
X120457000Y-90586488D01*
X120457000Y-90586488D01*
G37*
X120457000Y-90586488D02*
X118919488Y-92124000D01*
X117764613Y-92124000D01*
X117856113Y-91664000D01*
X117744740Y-91104091D01*
X117427577Y-90629423D01*
X117075242Y-90394000D01*
X117427577Y-90158577D01*
X117744740Y-89683909D01*
X117856113Y-89124000D01*
X117744740Y-88564091D01*
X117427577Y-88089423D01*
X117039323Y-87830000D01*
X117533548Y-87830000D01*
X118024217Y-87626758D01*
X118399758Y-87251217D01*
X118603000Y-86760548D01*
X118603000Y-86229452D01*
X118506715Y-85997000D01*
X120457000Y-85997000D01*
X120457000Y-90586488D01*
G04 #@! TO.N,GNDD*
G36*
X185735000Y-129129000D02*
X121981000Y-129129000D01*
X121981000Y-119842000D01*
X122925100Y-119842000D01*
X122954461Y-119852908D01*
X123604460Y-119828856D01*
X124093264Y-119626387D01*
X124191927Y-119359532D01*
X123854000Y-119021605D01*
X123854000Y-118662395D01*
X124371532Y-119179927D01*
X124638387Y-119081264D01*
X124864908Y-118471539D01*
X124840856Y-117821540D01*
X124638387Y-117332736D01*
X124371532Y-117234073D01*
X123854000Y-117751605D01*
X123854000Y-117392395D01*
X124191927Y-117054468D01*
X124093264Y-116787613D01*
X123483539Y-116561092D01*
X123188753Y-116572000D01*
X121981000Y-116572000D01*
X121981000Y-114309691D01*
X152627000Y-114309691D01*
X152627000Y-115000250D01*
X152785750Y-115159000D01*
X153985000Y-115159000D01*
X153985000Y-113959750D01*
X153826250Y-113801000D01*
X153135690Y-113801000D01*
X152902301Y-113897673D01*
X152723673Y-114076302D01*
X152627000Y-114309691D01*
X121981000Y-114309691D01*
X121981000Y-110999750D01*
X151534000Y-110999750D01*
X151534000Y-111640309D01*
X151630673Y-111873698D01*
X151809301Y-112052327D01*
X152042690Y-112149000D01*
X152683250Y-112149000D01*
X152842000Y-111990250D01*
X152842000Y-110841000D01*
X151692750Y-110841000D01*
X151534000Y-110999750D01*
X121981000Y-110999750D01*
X121981000Y-109562745D01*
X144687861Y-109562745D01*
X144761995Y-109808864D01*
X145299223Y-110001965D01*
X145869454Y-109974778D01*
X146270005Y-109808864D01*
X146344139Y-109562745D01*
X145516000Y-108734605D01*
X144687861Y-109562745D01*
X121981000Y-109562745D01*
X121981000Y-108338223D01*
X144069035Y-108338223D01*
X144096222Y-108908454D01*
X144262136Y-109309005D01*
X144508255Y-109383139D01*
X145336395Y-108555000D01*
X144508255Y-107726861D01*
X144262136Y-107800995D01*
X144069035Y-108338223D01*
X121981000Y-108338223D01*
X121981000Y-103847745D01*
X131606861Y-103847745D01*
X131680995Y-104093864D01*
X132218223Y-104286965D01*
X132788454Y-104259778D01*
X133189005Y-104093864D01*
X133263139Y-103847745D01*
X132435000Y-103019605D01*
X131606861Y-103847745D01*
X121981000Y-103847745D01*
X121981000Y-102623223D01*
X130988035Y-102623223D01*
X131015222Y-103193454D01*
X131181136Y-103594005D01*
X131427255Y-103668139D01*
X132255395Y-102840000D01*
X132614605Y-102840000D01*
X133442745Y-103668139D01*
X133688864Y-103594005D01*
X133691290Y-103587254D01*
X133718466Y-103652862D01*
X134122138Y-104056534D01*
X134649561Y-104275000D01*
X135220439Y-104275000D01*
X135747862Y-104056534D01*
X136004396Y-103800000D01*
X140088604Y-103800000D01*
X140345138Y-104056534D01*
X140872561Y-104275000D01*
X141235356Y-104275000D01*
X142069321Y-105108966D01*
X142122879Y-105189121D01*
X142440427Y-105401300D01*
X142720451Y-105457000D01*
X142720455Y-105457000D01*
X142815000Y-105475806D01*
X142909544Y-105457000D01*
X143560356Y-105457000D01*
X145235117Y-107131762D01*
X145162546Y-107135222D01*
X144761995Y-107301136D01*
X144687861Y-107547255D01*
X145516000Y-108375395D01*
X145530143Y-108361253D01*
X145709748Y-108540858D01*
X145695605Y-108555000D01*
X146523745Y-109383139D01*
X146571307Y-109368813D01*
X146617843Y-109602765D01*
X146758191Y-109812809D01*
X146968235Y-109953157D01*
X147216000Y-110002440D01*
X148816000Y-110002440D01*
X149063765Y-109953157D01*
X149273809Y-109812809D01*
X149290592Y-109787691D01*
X151534000Y-109787691D01*
X151534000Y-110428250D01*
X151692750Y-110587000D01*
X152842000Y-110587000D01*
X152842000Y-109437750D01*
X152683250Y-109279000D01*
X152042690Y-109279000D01*
X151809301Y-109375673D01*
X151630673Y-109554302D01*
X151534000Y-109787691D01*
X149290592Y-109787691D01*
X149414157Y-109602765D01*
X149463440Y-109355000D01*
X149463440Y-107755000D01*
X149414157Y-107507235D01*
X149273809Y-107297191D01*
X149063765Y-107156843D01*
X148816000Y-107107560D01*
X147926206Y-107107560D01*
X144703681Y-103885037D01*
X144693635Y-103870001D01*
X144780622Y-103783014D01*
X144665747Y-103668139D01*
X144911864Y-103594005D01*
X145104965Y-103056777D01*
X145077778Y-102486546D01*
X144911864Y-102085995D01*
X144665745Y-102011861D01*
X143837605Y-102840000D01*
X143851748Y-102854142D01*
X143672142Y-103033748D01*
X143658000Y-103019605D01*
X143643858Y-103033748D01*
X143464253Y-102854143D01*
X143478395Y-102840000D01*
X142650255Y-102011861D01*
X142404136Y-102085995D01*
X142401710Y-102092746D01*
X142374534Y-102027138D01*
X142179651Y-101832255D01*
X142829861Y-101832255D01*
X143658000Y-102660395D01*
X144486139Y-101832255D01*
X144412005Y-101586136D01*
X143874777Y-101393035D01*
X143304546Y-101420222D01*
X142903995Y-101586136D01*
X142829861Y-101832255D01*
X142179651Y-101832255D01*
X141970862Y-101623466D01*
X141443439Y-101405000D01*
X140872561Y-101405000D01*
X140345138Y-101623466D01*
X140088604Y-101880000D01*
X136004396Y-101880000D01*
X135747862Y-101623466D01*
X135220439Y-101405000D01*
X134649561Y-101405000D01*
X134122138Y-101623466D01*
X133718466Y-102027138D01*
X133691475Y-102092299D01*
X133688864Y-102085995D01*
X133442745Y-102011861D01*
X132614605Y-102840000D01*
X132255395Y-102840000D01*
X131427255Y-102011861D01*
X131181136Y-102085995D01*
X130988035Y-102623223D01*
X121981000Y-102623223D01*
X121981000Y-101569000D01*
X131722365Y-101569000D01*
X131680995Y-101586136D01*
X131606861Y-101832255D01*
X132435000Y-102660395D01*
X133263139Y-101832255D01*
X133189005Y-101586136D01*
X132855807Y-101466371D01*
X132945705Y-101406303D01*
X133022684Y-101354909D01*
X133022810Y-101354783D01*
X133103121Y-101301121D01*
X133156580Y-101221114D01*
X133823492Y-100554706D01*
X134014235Y-100682157D01*
X134262000Y-100731440D01*
X135862000Y-100731440D01*
X136109765Y-100682157D01*
X136319809Y-100541809D01*
X136460157Y-100331765D01*
X136509440Y-100084000D01*
X136509440Y-99336953D01*
X138163834Y-100991347D01*
X138209023Y-101058977D01*
X138276652Y-101104165D01*
X138476953Y-101238003D01*
X138793000Y-101300868D01*
X138872774Y-101285000D01*
X144213488Y-101285000D01*
X146314345Y-103385858D01*
X146439345Y-103687635D01*
X146702365Y-103950655D01*
X147046017Y-104093000D01*
X147417983Y-104093000D01*
X147761635Y-103950655D01*
X147797963Y-103914327D01*
X152809829Y-108926340D01*
X152855023Y-108993977D01*
X153009213Y-109097003D01*
X153122942Y-109172998D01*
X153122948Y-109172999D01*
X153122954Y-109173003D01*
X153278572Y-109203957D01*
X153438987Y-109235868D01*
X153518767Y-109220000D01*
X157239000Y-109220000D01*
X157239000Y-109529365D01*
X157014423Y-109679423D01*
X156779000Y-110031758D01*
X156543577Y-109679423D01*
X156068909Y-109362260D01*
X155650333Y-109279000D01*
X155367667Y-109279000D01*
X154949091Y-109362260D01*
X154474423Y-109679423D01*
X154403265Y-109785918D01*
X154307327Y-109554302D01*
X154128699Y-109375673D01*
X153895310Y-109279000D01*
X153254750Y-109279000D01*
X153096000Y-109437750D01*
X153096000Y-110587000D01*
X153116000Y-110587000D01*
X153116000Y-110841000D01*
X153096000Y-110841000D01*
X153096000Y-111990250D01*
X153254750Y-112149000D01*
X153895310Y-112149000D01*
X154128699Y-112052327D01*
X154307327Y-111873698D01*
X154403265Y-111642082D01*
X154474423Y-111748577D01*
X154949091Y-112065740D01*
X155367667Y-112149000D01*
X155650333Y-112149000D01*
X156068909Y-112065740D01*
X156543577Y-111748577D01*
X156779000Y-111396242D01*
X157014423Y-111748577D01*
X157489091Y-112065740D01*
X157907667Y-112149000D01*
X158190333Y-112149000D01*
X158608909Y-112065740D01*
X159083577Y-111748577D01*
X159319000Y-111396242D01*
X159554423Y-111748577D01*
X159678203Y-111831284D01*
X157465751Y-114043737D01*
X157231418Y-113887161D01*
X156798256Y-113801000D01*
X156505744Y-113801000D01*
X156072582Y-113887161D01*
X155581375Y-114215375D01*
X155566904Y-114237033D01*
X155500327Y-114076302D01*
X155321699Y-113897673D01*
X155088310Y-113801000D01*
X154397750Y-113801000D01*
X154239000Y-113959750D01*
X154239000Y-115159000D01*
X154259000Y-115159000D01*
X154259000Y-115413000D01*
X154239000Y-115413000D01*
X154239000Y-116612250D01*
X154397750Y-116771000D01*
X155088310Y-116771000D01*
X155321699Y-116674327D01*
X155500327Y-116495698D01*
X155566904Y-116334967D01*
X155581375Y-116356625D01*
X156072582Y-116684839D01*
X156505744Y-116771000D01*
X156798256Y-116771000D01*
X157192263Y-116692627D01*
X156135562Y-117749896D01*
X156068024Y-117795023D01*
X156022775Y-117862743D01*
X156022697Y-117862821D01*
X155977972Y-117929795D01*
X155888998Y-118062954D01*
X155888976Y-118063063D01*
X155888913Y-118063158D01*
X155856958Y-118224033D01*
X155842001Y-118299226D01*
X155842001Y-118299331D01*
X155828282Y-118368397D01*
X155581375Y-118533375D01*
X155569184Y-118551619D01*
X155560157Y-118506235D01*
X155419809Y-118296191D01*
X155209765Y-118155843D01*
X154962000Y-118106560D01*
X153262000Y-118106560D01*
X153014235Y-118155843D01*
X152804191Y-118296191D01*
X152772353Y-118343840D01*
X150468168Y-116039656D01*
X150422977Y-115972023D01*
X150155046Y-115792997D01*
X149918774Y-115746000D01*
X149918773Y-115746000D01*
X149839000Y-115730132D01*
X149759227Y-115746000D01*
X148371769Y-115746000D01*
X148255339Y-115571750D01*
X152627000Y-115571750D01*
X152627000Y-116262309D01*
X152723673Y-116495698D01*
X152902301Y-116674327D01*
X153135690Y-116771000D01*
X153826250Y-116771000D01*
X153985000Y-116612250D01*
X153985000Y-115413000D01*
X152785750Y-115413000D01*
X152627000Y-115571750D01*
X148255339Y-115571750D01*
X148197625Y-115485375D01*
X147706418Y-115157161D01*
X147273256Y-115071000D01*
X146980744Y-115071000D01*
X146547582Y-115157161D01*
X146056375Y-115485375D01*
X145882231Y-115746000D01*
X145831769Y-115746000D01*
X145657625Y-115485375D01*
X145166418Y-115157161D01*
X144733256Y-115071000D01*
X144440744Y-115071000D01*
X144007582Y-115157161D01*
X143516375Y-115485375D01*
X143342231Y-115746000D01*
X143291769Y-115746000D01*
X143117625Y-115485375D01*
X142626418Y-115157161D01*
X142193256Y-115071000D01*
X141900744Y-115071000D01*
X141467582Y-115157161D01*
X140976375Y-115485375D01*
X140802231Y-115746000D01*
X140751769Y-115746000D01*
X140577625Y-115485375D01*
X140086418Y-115157161D01*
X139653256Y-115071000D01*
X139360744Y-115071000D01*
X138927582Y-115157161D01*
X138436375Y-115485375D01*
X138262231Y-115746000D01*
X138211769Y-115746000D01*
X138037625Y-115485375D01*
X137546418Y-115157161D01*
X137113256Y-115071000D01*
X136820744Y-115071000D01*
X136387582Y-115157161D01*
X135896375Y-115485375D01*
X135722231Y-115746000D01*
X135671769Y-115746000D01*
X135497625Y-115485375D01*
X135006418Y-115157161D01*
X134573256Y-115071000D01*
X134280744Y-115071000D01*
X133847582Y-115157161D01*
X133356375Y-115485375D01*
X133182231Y-115746000D01*
X133131769Y-115746000D01*
X132957625Y-115485375D01*
X132466418Y-115157161D01*
X132033256Y-115071000D01*
X131740744Y-115071000D01*
X131307582Y-115157161D01*
X130816375Y-115485375D01*
X130642231Y-115746000D01*
X130591769Y-115746000D01*
X130417625Y-115485375D01*
X129926418Y-115157161D01*
X129493256Y-115071000D01*
X129200744Y-115071000D01*
X128767582Y-115157161D01*
X128276375Y-115485375D01*
X127948161Y-115976582D01*
X127832908Y-116556000D01*
X127948161Y-117135418D01*
X128276375Y-117626625D01*
X128294619Y-117638816D01*
X128249235Y-117647843D01*
X128039191Y-117788191D01*
X127898843Y-117998235D01*
X127849560Y-118246000D01*
X127849560Y-119946000D01*
X127898843Y-120193765D01*
X128039191Y-120403809D01*
X128249235Y-120544157D01*
X128497000Y-120593440D01*
X130197000Y-120593440D01*
X130444765Y-120544157D01*
X130654809Y-120403809D01*
X130795157Y-120193765D01*
X130804184Y-120148381D01*
X130816375Y-120166625D01*
X131307582Y-120494839D01*
X131740744Y-120581000D01*
X132033256Y-120581000D01*
X132466418Y-120494839D01*
X132957625Y-120166625D01*
X133157000Y-119868239D01*
X133356375Y-120166625D01*
X133847582Y-120494839D01*
X134280744Y-120581000D01*
X134573256Y-120581000D01*
X135006418Y-120494839D01*
X135497625Y-120166625D01*
X135697000Y-119868239D01*
X135896375Y-120166625D01*
X136387582Y-120494839D01*
X136820744Y-120581000D01*
X137113256Y-120581000D01*
X137546418Y-120494839D01*
X138037625Y-120166625D01*
X138237000Y-119868239D01*
X138436375Y-120166625D01*
X138927582Y-120494839D01*
X139360744Y-120581000D01*
X139653256Y-120581000D01*
X140086418Y-120494839D01*
X140577625Y-120166625D01*
X140777000Y-119868239D01*
X140976375Y-120166625D01*
X141467582Y-120494839D01*
X141900744Y-120581000D01*
X142193256Y-120581000D01*
X142626418Y-120494839D01*
X143117625Y-120166625D01*
X143317000Y-119868239D01*
X143516375Y-120166625D01*
X144007582Y-120494839D01*
X144440744Y-120581000D01*
X144733256Y-120581000D01*
X145166418Y-120494839D01*
X145657625Y-120166625D01*
X145857000Y-119868239D01*
X146056375Y-120166625D01*
X146547582Y-120494839D01*
X146980744Y-120581000D01*
X147273256Y-120581000D01*
X147706418Y-120494839D01*
X148197625Y-120166625D01*
X148525839Y-119675418D01*
X148641092Y-119096000D01*
X148525839Y-118516582D01*
X148197625Y-118025375D01*
X147899239Y-117826000D01*
X148197625Y-117626625D01*
X148371769Y-117366000D01*
X149503488Y-117366000D01*
X152257834Y-120120347D01*
X152303023Y-120187977D01*
X152570954Y-120367003D01*
X152614560Y-120375677D01*
X152614560Y-120429000D01*
X151628544Y-120429000D01*
X151533999Y-120410194D01*
X151439455Y-120429000D01*
X151439451Y-120429000D01*
X151159427Y-120484700D01*
X150841879Y-120696879D01*
X150788321Y-120777034D01*
X149367173Y-122198183D01*
X149098000Y-122144641D01*
X148513275Y-122260950D01*
X148017570Y-122592170D01*
X147828000Y-122875881D01*
X147638430Y-122592170D01*
X147142724Y-122260950D01*
X146558000Y-122144641D01*
X145973275Y-122260950D01*
X145477570Y-122592170D01*
X145288000Y-122875881D01*
X145098430Y-122592170D01*
X144602724Y-122260950D01*
X144018000Y-122144641D01*
X143433275Y-122260950D01*
X142937570Y-122592170D01*
X142748000Y-122875881D01*
X142558430Y-122592170D01*
X142062724Y-122260950D01*
X141478000Y-122144641D01*
X140893275Y-122260950D01*
X140397570Y-122592170D01*
X140208000Y-122875881D01*
X140018430Y-122592170D01*
X139522724Y-122260950D01*
X138938000Y-122144641D01*
X138353275Y-122260950D01*
X137857570Y-122592170D01*
X137526350Y-123087876D01*
X137439400Y-123525003D01*
X137439400Y-124124998D01*
X137526350Y-124562125D01*
X137857570Y-125057830D01*
X138353276Y-125389050D01*
X138938000Y-125505359D01*
X139522725Y-125389050D01*
X140018430Y-125057830D01*
X140208000Y-124774119D01*
X140397570Y-125057830D01*
X140893276Y-125389050D01*
X141478000Y-125505359D01*
X142062725Y-125389050D01*
X142558430Y-125057830D01*
X142748000Y-124774119D01*
X142937570Y-125057830D01*
X143433276Y-125389050D01*
X144018000Y-125505359D01*
X144602725Y-125389050D01*
X145098430Y-125057830D01*
X145288000Y-124774119D01*
X145477570Y-125057830D01*
X145973276Y-125389050D01*
X146558000Y-125505359D01*
X147142725Y-125389050D01*
X147638430Y-125057830D01*
X147828000Y-124774119D01*
X148017570Y-125057830D01*
X148513276Y-125389050D01*
X149098000Y-125505359D01*
X149682725Y-125389050D01*
X150178430Y-125057830D01*
X150371909Y-124768267D01*
X150735964Y-125175732D01*
X151263209Y-125429709D01*
X151278974Y-125432358D01*
X151511000Y-125311217D01*
X151511000Y-123952000D01*
X151765000Y-123952000D01*
X151765000Y-125311217D01*
X151997026Y-125432358D01*
X152012791Y-125429709D01*
X152540036Y-125175732D01*
X152908000Y-124763892D01*
X153275964Y-125175732D01*
X153803209Y-125429709D01*
X153818974Y-125432358D01*
X154051000Y-125311217D01*
X154051000Y-123952000D01*
X151765000Y-123952000D01*
X151511000Y-123952000D01*
X151491000Y-123952000D01*
X151491000Y-123698000D01*
X151511000Y-123698000D01*
X151511000Y-123678000D01*
X151765000Y-123678000D01*
X151765000Y-123698000D01*
X154051000Y-123698000D01*
X154051000Y-123678000D01*
X154305000Y-123678000D01*
X154305000Y-123698000D01*
X154325000Y-123698000D01*
X154325000Y-123952000D01*
X154305000Y-123952000D01*
X154305000Y-125311217D01*
X154537026Y-125432358D01*
X154552791Y-125429709D01*
X155080036Y-125175732D01*
X155444090Y-124768268D01*
X155637570Y-125057830D01*
X156133276Y-125389050D01*
X156718000Y-125505359D01*
X157302725Y-125389050D01*
X157798430Y-125057830D01*
X158129650Y-124562124D01*
X158216600Y-124124997D01*
X158216600Y-123525002D01*
X158129650Y-123087875D01*
X157798430Y-122592170D01*
X157434500Y-122349000D01*
X161081499Y-122349000D01*
X160717570Y-122592170D01*
X160386350Y-123087876D01*
X160299400Y-123525003D01*
X160299400Y-124124998D01*
X160386350Y-124562125D01*
X160717570Y-125057830D01*
X161213276Y-125389050D01*
X161798000Y-125505359D01*
X162382725Y-125389050D01*
X162878430Y-125057830D01*
X163068000Y-124774119D01*
X163257570Y-125057830D01*
X163753276Y-125389050D01*
X164338000Y-125505359D01*
X164922725Y-125389050D01*
X165418430Y-125057830D01*
X165608000Y-124774119D01*
X165797570Y-125057830D01*
X166293276Y-125389050D01*
X166878000Y-125505359D01*
X167462725Y-125389050D01*
X167958430Y-125057830D01*
X168148000Y-124774119D01*
X168337570Y-125057830D01*
X168833276Y-125389050D01*
X169418000Y-125505359D01*
X170002725Y-125389050D01*
X170498430Y-125057830D01*
X170688000Y-124774119D01*
X170877570Y-125057830D01*
X171373276Y-125389050D01*
X171958000Y-125505359D01*
X172542725Y-125389050D01*
X173038430Y-125057830D01*
X173228000Y-124774119D01*
X173417570Y-125057830D01*
X173913276Y-125389050D01*
X174498000Y-125505359D01*
X175082725Y-125389050D01*
X175493615Y-125114501D01*
X178371000Y-125114501D01*
X178371000Y-126175499D01*
X178777026Y-127155734D01*
X179527266Y-127905974D01*
X180507501Y-128312000D01*
X181568499Y-128312000D01*
X182548734Y-127905974D01*
X183298974Y-127155734D01*
X183705000Y-126175499D01*
X183705000Y-125114501D01*
X183298974Y-124134266D01*
X182548734Y-123384026D01*
X181568499Y-122978000D01*
X180507501Y-122978000D01*
X179527266Y-123384026D01*
X178777026Y-124134266D01*
X178371000Y-125114501D01*
X175493615Y-125114501D01*
X175578430Y-125057830D01*
X175909650Y-124562124D01*
X175996600Y-124124997D01*
X175996600Y-123525002D01*
X175909650Y-123087875D01*
X175578430Y-122592170D01*
X175082724Y-122260950D01*
X174498000Y-122144641D01*
X173913275Y-122260950D01*
X173417570Y-122592170D01*
X173228000Y-122875881D01*
X173038430Y-122592170D01*
X172542724Y-122260950D01*
X171958000Y-122144641D01*
X171373275Y-122260950D01*
X170877570Y-122592170D01*
X170688000Y-122875881D01*
X170498430Y-122592170D01*
X170002724Y-122260950D01*
X169418000Y-122144641D01*
X168833275Y-122260950D01*
X168337570Y-122592170D01*
X168148000Y-122875881D01*
X167958430Y-122592170D01*
X167462724Y-122260950D01*
X166878000Y-122144641D01*
X166293275Y-122260950D01*
X165797570Y-122592170D01*
X165608000Y-122875881D01*
X165418430Y-122592170D01*
X165057263Y-122350846D01*
X165066544Y-122349000D01*
X165066549Y-122349000D01*
X165346573Y-122293300D01*
X165664121Y-122081121D01*
X165717681Y-122000963D01*
X168494760Y-119223885D01*
X168685235Y-119351157D01*
X168933000Y-119400440D01*
X170533000Y-119400440D01*
X170780765Y-119351157D01*
X170990809Y-119210809D01*
X171131157Y-119000765D01*
X171148614Y-118913000D01*
X172218456Y-118913000D01*
X172313000Y-118931806D01*
X172407544Y-118913000D01*
X172407549Y-118913000D01*
X172687573Y-118857300D01*
X173005121Y-118645121D01*
X173058681Y-118564963D01*
X175156645Y-116467000D01*
X175519439Y-116467000D01*
X176046862Y-116248534D01*
X176255651Y-116039745D01*
X176905861Y-116039745D01*
X176979995Y-116285864D01*
X177517223Y-116478965D01*
X178087454Y-116451778D01*
X178488005Y-116285864D01*
X178562139Y-116039745D01*
X177734000Y-115211605D01*
X176905861Y-116039745D01*
X176255651Y-116039745D01*
X176450534Y-115844862D01*
X176477525Y-115779701D01*
X176480136Y-115786005D01*
X176726255Y-115860139D01*
X177554395Y-115032000D01*
X177913605Y-115032000D01*
X178741745Y-115860139D01*
X178987864Y-115786005D01*
X179180965Y-115248777D01*
X179153778Y-114678546D01*
X178987864Y-114277995D01*
X178741745Y-114203861D01*
X177913605Y-115032000D01*
X177554395Y-115032000D01*
X176726255Y-114203861D01*
X176480136Y-114277995D01*
X176477710Y-114284746D01*
X176450534Y-114219138D01*
X176255651Y-114024255D01*
X176905861Y-114024255D01*
X177734000Y-114852395D01*
X178562139Y-114024255D01*
X178488005Y-113778136D01*
X177950777Y-113585035D01*
X177380546Y-113612222D01*
X176979995Y-113778136D01*
X176905861Y-114024255D01*
X176255651Y-114024255D01*
X176046862Y-113815466D01*
X175519439Y-113597000D01*
X174948561Y-113597000D01*
X174421138Y-113815466D01*
X174017466Y-114219138D01*
X173799000Y-114746561D01*
X173799000Y-115109355D01*
X171915356Y-116993000D01*
X171148614Y-116993000D01*
X171131157Y-116905235D01*
X170990809Y-116695191D01*
X170780765Y-116554843D01*
X170546813Y-116508307D01*
X170561139Y-116460745D01*
X169733000Y-115632605D01*
X168904861Y-116460745D01*
X168919187Y-116508307D01*
X168685235Y-116554843D01*
X168475191Y-116695191D01*
X168334843Y-116905235D01*
X168317548Y-116992185D01*
X168313452Y-116993000D01*
X168313451Y-116993000D01*
X168033427Y-117048700D01*
X167715879Y-117260879D01*
X167662321Y-117341034D01*
X164574356Y-120429000D01*
X160426746Y-120429000D01*
X160590839Y-120183418D01*
X160706092Y-119604000D01*
X160590839Y-119024582D01*
X160262625Y-118533375D01*
X159771418Y-118205161D01*
X159338256Y-118119000D01*
X159045744Y-118119000D01*
X158612582Y-118205161D01*
X158121375Y-118533375D01*
X157922000Y-118831761D01*
X157722625Y-118533375D01*
X157674831Y-118501440D01*
X158854640Y-117321000D01*
X159112226Y-117321000D01*
X159192000Y-117336868D01*
X159271774Y-117321000D01*
X159508046Y-117274003D01*
X159775977Y-117094977D01*
X159955003Y-116827046D01*
X160015765Y-116521571D01*
X160262625Y-116356625D01*
X160590839Y-115865418D01*
X160706092Y-115286000D01*
X160696191Y-115236223D01*
X168286035Y-115236223D01*
X168313222Y-115806454D01*
X168479136Y-116207005D01*
X168725255Y-116281139D01*
X169553395Y-115453000D01*
X169912605Y-115453000D01*
X170740745Y-116281139D01*
X170986864Y-116207005D01*
X171179965Y-115669777D01*
X171152778Y-115099546D01*
X170986864Y-114698995D01*
X170740745Y-114624861D01*
X169912605Y-115453000D01*
X169553395Y-115453000D01*
X168725255Y-114624861D01*
X168479136Y-114698995D01*
X168286035Y-115236223D01*
X160696191Y-115236223D01*
X160590839Y-114706582D01*
X160416226Y-114445255D01*
X168904861Y-114445255D01*
X169733000Y-115273395D01*
X170561139Y-114445255D01*
X170487005Y-114199136D01*
X169949777Y-114006035D01*
X169379546Y-114033222D01*
X168978995Y-114199136D01*
X168904861Y-114445255D01*
X160416226Y-114445255D01*
X160262625Y-114215375D01*
X159856501Y-113944012D01*
X161101513Y-112699000D01*
X166146227Y-112699000D01*
X166226000Y-112714868D01*
X166305773Y-112699000D01*
X166305774Y-112699000D01*
X166542046Y-112652003D01*
X166809977Y-112472977D01*
X166855168Y-112405344D01*
X167376747Y-111883766D01*
X167649091Y-112065740D01*
X168067667Y-112149000D01*
X168350333Y-112149000D01*
X168768909Y-112065740D01*
X169243577Y-111748577D01*
X169479000Y-111396242D01*
X169714423Y-111748577D01*
X170189091Y-112065740D01*
X170607667Y-112149000D01*
X170890333Y-112149000D01*
X171308909Y-112065740D01*
X171783577Y-111748577D01*
X172019000Y-111396242D01*
X172254423Y-111748577D01*
X172729091Y-112065740D01*
X173147667Y-112149000D01*
X173430333Y-112149000D01*
X173848909Y-112065740D01*
X174323577Y-111748577D01*
X174559000Y-111396242D01*
X174794423Y-111748577D01*
X175269091Y-112065740D01*
X175687667Y-112149000D01*
X175970333Y-112149000D01*
X176388909Y-112065740D01*
X176863577Y-111748577D01*
X177119947Y-111364892D01*
X177216611Y-111569134D01*
X177631577Y-111945041D01*
X178019961Y-112105904D01*
X178242000Y-111983915D01*
X178242000Y-110841000D01*
X178222000Y-110841000D01*
X178222000Y-110587000D01*
X178242000Y-110587000D01*
X178242000Y-109444085D01*
X178496000Y-109444085D01*
X178496000Y-110587000D01*
X178516000Y-110587000D01*
X178516000Y-110841000D01*
X178496000Y-110841000D01*
X178496000Y-111983915D01*
X178718039Y-112105904D01*
X179106423Y-111945041D01*
X179521389Y-111569134D01*
X179618053Y-111364892D01*
X179874423Y-111748577D01*
X180349091Y-112065740D01*
X180767667Y-112149000D01*
X181050333Y-112149000D01*
X181468909Y-112065740D01*
X181943577Y-111748577D01*
X182260740Y-111273909D01*
X182372113Y-110714000D01*
X182260740Y-110154091D01*
X181943577Y-109679423D01*
X181468909Y-109362260D01*
X181050333Y-109279000D01*
X180767667Y-109279000D01*
X180349091Y-109362260D01*
X179874423Y-109679423D01*
X179618053Y-110063108D01*
X179521389Y-109858866D01*
X179106423Y-109482959D01*
X178718039Y-109322096D01*
X178496000Y-109444085D01*
X178242000Y-109444085D01*
X178019961Y-109322096D01*
X177631577Y-109482959D01*
X177216611Y-109858866D01*
X177119947Y-110063108D01*
X176863577Y-109679423D01*
X176388909Y-109362260D01*
X175970333Y-109279000D01*
X175687667Y-109279000D01*
X175269091Y-109362260D01*
X174794423Y-109679423D01*
X174559000Y-110031758D01*
X174323577Y-109679423D01*
X173848909Y-109362260D01*
X173430333Y-109279000D01*
X173147667Y-109279000D01*
X172729091Y-109362260D01*
X172254423Y-109679423D01*
X172019000Y-110031758D01*
X171783577Y-109679423D01*
X171308909Y-109362260D01*
X170890333Y-109279000D01*
X170607667Y-109279000D01*
X170189091Y-109362260D01*
X169714423Y-109679423D01*
X169479000Y-110031758D01*
X169243577Y-109679423D01*
X168768909Y-109362260D01*
X168350333Y-109279000D01*
X168067667Y-109279000D01*
X167649091Y-109362260D01*
X167174423Y-109679423D01*
X167034855Y-109888302D01*
X167034000Y-109888132D01*
X166954226Y-109904000D01*
X166865435Y-109921661D01*
X166703577Y-109679423D01*
X166228909Y-109362260D01*
X165810333Y-109279000D01*
X165527667Y-109279000D01*
X165109091Y-109362260D01*
X164634423Y-109679423D01*
X164399000Y-110031758D01*
X164163577Y-109679423D01*
X163688909Y-109362260D01*
X163270333Y-109279000D01*
X162987667Y-109279000D01*
X162569091Y-109362260D01*
X162094423Y-109679423D01*
X161859000Y-110031758D01*
X161623577Y-109679423D01*
X161148909Y-109362260D01*
X160730333Y-109279000D01*
X160447667Y-109279000D01*
X160029091Y-109362260D01*
X159554423Y-109679423D01*
X159319000Y-110031758D01*
X159083577Y-109679423D01*
X158859000Y-109529365D01*
X158859000Y-108489774D01*
X158874868Y-108410000D01*
X158812003Y-108093954D01*
X158632977Y-107826023D01*
X158365046Y-107646997D01*
X158128774Y-107600000D01*
X158049000Y-107584132D01*
X157969226Y-107600000D01*
X153774520Y-107600000D01*
X147994687Y-101820000D01*
X159243216Y-101820000D01*
X159322977Y-101835868D01*
X159402763Y-101820000D01*
X159402774Y-101820000D01*
X159478278Y-101804981D01*
X159639024Y-101773012D01*
X159639034Y-101773005D01*
X159639046Y-101773003D01*
X159787425Y-101673859D01*
X159839329Y-101639180D01*
X159839335Y-101639174D01*
X159906977Y-101593977D01*
X159952161Y-101526355D01*
X164835721Y-96643080D01*
X165109091Y-96825740D01*
X165527667Y-96909000D01*
X165810333Y-96909000D01*
X166228909Y-96825740D01*
X166703577Y-96508577D01*
X166939000Y-96156242D01*
X167174423Y-96508577D01*
X167649091Y-96825740D01*
X168067667Y-96909000D01*
X168350333Y-96909000D01*
X168768909Y-96825740D01*
X169243577Y-96508577D01*
X169479000Y-96156242D01*
X169714423Y-96508577D01*
X170189091Y-96825740D01*
X170607667Y-96909000D01*
X170890333Y-96909000D01*
X171308909Y-96825740D01*
X171783577Y-96508577D01*
X172019000Y-96156242D01*
X172254423Y-96508577D01*
X172729091Y-96825740D01*
X173147667Y-96909000D01*
X173430333Y-96909000D01*
X173848909Y-96825740D01*
X174323577Y-96508577D01*
X174559000Y-96156242D01*
X174794423Y-96508577D01*
X175269091Y-96825740D01*
X175687667Y-96909000D01*
X175970333Y-96909000D01*
X176388909Y-96825740D01*
X176863577Y-96508577D01*
X177099000Y-96156242D01*
X177334423Y-96508577D01*
X177809091Y-96825740D01*
X178227667Y-96909000D01*
X178510333Y-96909000D01*
X178928909Y-96825740D01*
X179403577Y-96508577D01*
X179639000Y-96156242D01*
X179874423Y-96508577D01*
X180349091Y-96825740D01*
X180767667Y-96909000D01*
X181050333Y-96909000D01*
X181468909Y-96825740D01*
X181943577Y-96508577D01*
X182260740Y-96033909D01*
X182372113Y-95474000D01*
X182260740Y-94914091D01*
X181943577Y-94439423D01*
X181468909Y-94122260D01*
X181050333Y-94039000D01*
X180767667Y-94039000D01*
X180349091Y-94122260D01*
X179874423Y-94439423D01*
X179639000Y-94791758D01*
X179403577Y-94439423D01*
X178928909Y-94122260D01*
X178510333Y-94039000D01*
X178227667Y-94039000D01*
X177809091Y-94122260D01*
X177334423Y-94439423D01*
X177099000Y-94791758D01*
X176863577Y-94439423D01*
X176388909Y-94122260D01*
X175970333Y-94039000D01*
X175687667Y-94039000D01*
X175269091Y-94122260D01*
X174794423Y-94439423D01*
X174559000Y-94791758D01*
X174323577Y-94439423D01*
X173848909Y-94122260D01*
X173430333Y-94039000D01*
X173147667Y-94039000D01*
X172729091Y-94122260D01*
X172254423Y-94439423D01*
X172019000Y-94791758D01*
X171783577Y-94439423D01*
X171341296Y-94143900D01*
X172236450Y-94143900D01*
X172330988Y-94162706D01*
X172425539Y-94143900D01*
X172425549Y-94143900D01*
X172581887Y-94112803D01*
X172705561Y-94088204D01*
X172705564Y-94088202D01*
X172705573Y-94088200D01*
X172921146Y-93944159D01*
X172942956Y-93929586D01*
X172942957Y-93929585D01*
X173023121Y-93876021D01*
X173076678Y-93795868D01*
X176534638Y-90338000D01*
X178569604Y-90338000D01*
X178826138Y-90594534D01*
X179353561Y-90813000D01*
X179924439Y-90813000D01*
X180451862Y-90594534D01*
X180855534Y-90190862D01*
X181074000Y-89663439D01*
X181074000Y-89092561D01*
X180855534Y-88565138D01*
X180451862Y-88161466D01*
X179924439Y-87943000D01*
X179353561Y-87943000D01*
X178826138Y-88161466D01*
X178569604Y-88418000D01*
X177097000Y-88418000D01*
X177097000Y-80958000D01*
X178191560Y-80958000D01*
X178191560Y-82558000D01*
X178240843Y-82805765D01*
X178381191Y-83015809D01*
X178591235Y-83156157D01*
X178839000Y-83205440D01*
X180439000Y-83205440D01*
X180686765Y-83156157D01*
X180896809Y-83015809D01*
X181037157Y-82805765D01*
X181086440Y-82558000D01*
X181086440Y-80958000D01*
X181037157Y-80710235D01*
X180896809Y-80500191D01*
X180686765Y-80359843D01*
X180439000Y-80310560D01*
X178839000Y-80310560D01*
X178591235Y-80359843D01*
X178381191Y-80500191D01*
X178240843Y-80710235D01*
X178191560Y-80958000D01*
X177097000Y-80958000D01*
X177097000Y-75130527D01*
X177115806Y-75035965D01*
X177081122Y-74861628D01*
X177041300Y-74661427D01*
X177041289Y-74661411D01*
X177041286Y-74661394D01*
X176942456Y-74513497D01*
X176829121Y-74343879D01*
X176748950Y-74290311D01*
X171455000Y-68996736D01*
X171455000Y-66787043D01*
X171460525Y-66611306D01*
X171421076Y-66506903D01*
X171399300Y-66397427D01*
X171354215Y-66329953D01*
X171325534Y-66254047D01*
X171249131Y-66172684D01*
X171187121Y-66079879D01*
X171040921Y-65982191D01*
X169670179Y-65002615D01*
X169697154Y-64867000D01*
X169616137Y-64459700D01*
X171045075Y-64459700D01*
X171044132Y-64464440D01*
X171069605Y-64592468D01*
X171075539Y-64641301D01*
X171085136Y-64670527D01*
X171107013Y-64780483D01*
X171134987Y-64822345D01*
X171150694Y-64870178D01*
X171223767Y-64955198D01*
X171240861Y-64980778D01*
X171275651Y-65015564D01*
X171360733Y-65114557D01*
X171388892Y-65128794D01*
X174630611Y-68370197D01*
X174594846Y-68550000D01*
X174698458Y-69070891D01*
X174993519Y-69512481D01*
X175435109Y-69807542D01*
X175824515Y-69885000D01*
X176087485Y-69885000D01*
X176476891Y-69807542D01*
X176918481Y-69512481D01*
X177213542Y-69070891D01*
X177317154Y-68550000D01*
X177213542Y-68029109D01*
X176918481Y-67587519D01*
X176476891Y-67292458D01*
X176087485Y-67215000D01*
X175824515Y-67215000D01*
X175776075Y-67224635D01*
X175228137Y-66676750D01*
X178889000Y-66676750D01*
X178889000Y-67267310D01*
X178985673Y-67500699D01*
X179164302Y-67679327D01*
X179397691Y-67776000D01*
X179470313Y-67776000D01*
X179099853Y-68146460D01*
X178889000Y-68655506D01*
X178889000Y-69206494D01*
X179099853Y-69715540D01*
X179489460Y-70105147D01*
X179720870Y-70201000D01*
X179489460Y-70296853D01*
X179099853Y-70686460D01*
X178889000Y-71195506D01*
X178889000Y-71746494D01*
X179099853Y-72255540D01*
X179489460Y-72645147D01*
X179998506Y-72856000D01*
X180549494Y-72856000D01*
X181058540Y-72645147D01*
X181448147Y-72255540D01*
X181659000Y-71746494D01*
X181659000Y-71195506D01*
X181448147Y-70686460D01*
X181058540Y-70296853D01*
X180827130Y-70201000D01*
X181058540Y-70105147D01*
X181448147Y-69715540D01*
X181659000Y-69206494D01*
X181659000Y-68655506D01*
X181448147Y-68146460D01*
X181077687Y-67776000D01*
X181150309Y-67776000D01*
X181383698Y-67679327D01*
X181562327Y-67500699D01*
X181659000Y-67267310D01*
X181659000Y-66676750D01*
X181500250Y-66518000D01*
X180401000Y-66518000D01*
X180401000Y-66538000D01*
X180147000Y-66538000D01*
X180147000Y-66518000D01*
X179047750Y-66518000D01*
X178889000Y-66676750D01*
X175228137Y-66676750D01*
X173152634Y-64601452D01*
X174621000Y-64601452D01*
X174621000Y-65132548D01*
X174824242Y-65623217D01*
X175199783Y-65998758D01*
X175690452Y-66202000D01*
X176221548Y-66202000D01*
X176712217Y-65998758D01*
X177087758Y-65623217D01*
X177132711Y-65514690D01*
X178889000Y-65514690D01*
X178889000Y-66105250D01*
X179047750Y-66264000D01*
X180147000Y-66264000D01*
X180147000Y-65164750D01*
X180401000Y-65164750D01*
X180401000Y-66264000D01*
X181500250Y-66264000D01*
X181659000Y-66105250D01*
X181659000Y-65514690D01*
X181562327Y-65281301D01*
X181383698Y-65102673D01*
X181150309Y-65006000D01*
X180559750Y-65006000D01*
X180401000Y-65164750D01*
X180147000Y-65164750D01*
X179988250Y-65006000D01*
X179397691Y-65006000D01*
X179164302Y-65102673D01*
X178985673Y-65281301D01*
X178889000Y-65514690D01*
X177132711Y-65514690D01*
X177291000Y-65132548D01*
X177291000Y-64601452D01*
X177087758Y-64110783D01*
X176712217Y-63735242D01*
X176221548Y-63532000D01*
X175690452Y-63532000D01*
X175199783Y-63735242D01*
X174824242Y-64110783D01*
X174621000Y-64601452D01*
X173152634Y-64601452D01*
X172640370Y-64089239D01*
X172608563Y-63827496D01*
X172612598Y-63806906D01*
X172643868Y-63649700D01*
X172643635Y-63648526D01*
X172643864Y-63647355D01*
X172612260Y-63490795D01*
X172581003Y-63333654D01*
X172580338Y-63332659D01*
X172580102Y-63331490D01*
X172491094Y-63199096D01*
X172401977Y-63065723D01*
X172343370Y-63026563D01*
X172279168Y-62950712D01*
X172175771Y-62897448D01*
X172078879Y-62833104D01*
X172033664Y-62824243D01*
X171992705Y-62803144D01*
X171876797Y-62793503D01*
X171762657Y-62771136D01*
X171717493Y-62780253D01*
X171671577Y-62776434D01*
X171560802Y-62811883D01*
X171476987Y-62828802D01*
X171452000Y-62823832D01*
X171372226Y-62839700D01*
X143333720Y-62839700D01*
X143253893Y-62823832D01*
X143095566Y-62855346D01*
X142937954Y-62886697D01*
X142937909Y-62886727D01*
X142937855Y-62886738D01*
X142806469Y-62974552D01*
X142670023Y-63065723D01*
X142624804Y-63133398D01*
X141238197Y-64520362D01*
X141007418Y-64366161D01*
X140574256Y-64280000D01*
X140281744Y-64280000D01*
X139848582Y-64366161D01*
X139357375Y-64694375D01*
X139158000Y-64992761D01*
X138958625Y-64694375D01*
X138467418Y-64366161D01*
X138034256Y-64280000D01*
X137741744Y-64280000D01*
X137308582Y-64366161D01*
X137052873Y-64537020D01*
X135879202Y-63363007D01*
X135833977Y-63295323D01*
X135693663Y-63201568D01*
X135566157Y-63116344D01*
X135566099Y-63116332D01*
X135566046Y-63116297D01*
X135405088Y-63084281D01*
X135250120Y-63053432D01*
X135170285Y-63069300D01*
X125330789Y-63069300D01*
X125251030Y-63053432D01*
X125171241Y-63069300D01*
X125171226Y-63069300D01*
X125089838Y-63085489D01*
X124934981Y-63116286D01*
X124934969Y-63116294D01*
X124934954Y-63116297D01*
X124798872Y-63207224D01*
X124734675Y-63250116D01*
X124734665Y-63250126D01*
X124667023Y-63295323D01*
X124621842Y-63362941D01*
X123461878Y-64522822D01*
X123342054Y-64442758D01*
X126171812Y-61613000D01*
X168235560Y-61613000D01*
X168235560Y-61653000D01*
X168284843Y-61900765D01*
X168425191Y-62110809D01*
X168635235Y-62251157D01*
X168883000Y-62300440D01*
X170583000Y-62300440D01*
X170830765Y-62251157D01*
X171040809Y-62110809D01*
X171181157Y-61900765D01*
X171190184Y-61855381D01*
X171202375Y-61873625D01*
X171693582Y-62201839D01*
X172126744Y-62288000D01*
X172419256Y-62288000D01*
X172852418Y-62201839D01*
X173343625Y-61873625D01*
X173543000Y-61575239D01*
X173742375Y-61873625D01*
X174233582Y-62201839D01*
X174666744Y-62288000D01*
X174959256Y-62288000D01*
X175392418Y-62201839D01*
X175883625Y-61873625D01*
X176211839Y-61382418D01*
X176327092Y-60803000D01*
X176211839Y-60223582D01*
X175883625Y-59732375D01*
X175392418Y-59404161D01*
X174959256Y-59318000D01*
X174666744Y-59318000D01*
X174233582Y-59404161D01*
X173742375Y-59732375D01*
X173543000Y-60030761D01*
X173343625Y-59732375D01*
X172852418Y-59404161D01*
X172419256Y-59318000D01*
X172126744Y-59318000D01*
X171693582Y-59404161D01*
X171202375Y-59732375D01*
X171190184Y-59750619D01*
X171181157Y-59705235D01*
X171040809Y-59495191D01*
X170830765Y-59354843D01*
X170583000Y-59305560D01*
X168883000Y-59305560D01*
X168635235Y-59354843D01*
X168425191Y-59495191D01*
X168284843Y-59705235D01*
X168235560Y-59953000D01*
X168235560Y-59993000D01*
X125916069Y-59993000D01*
X125836299Y-59977133D01*
X125756530Y-59993000D01*
X125756526Y-59993000D01*
X125520254Y-60039997D01*
X125252323Y-60219023D01*
X125207132Y-60286656D01*
X120951304Y-64542484D01*
X120687418Y-64366161D01*
X120254256Y-64280000D01*
X119961744Y-64280000D01*
X119528582Y-64366161D01*
X119037375Y-64694375D01*
X118838000Y-64992761D01*
X118638625Y-64694375D01*
X118147418Y-64366161D01*
X117714256Y-64280000D01*
X117421744Y-64280000D01*
X116988582Y-64366161D01*
X116497375Y-64694375D01*
X116284157Y-65013478D01*
X116223183Y-64883642D01*
X115794924Y-64493355D01*
X115384890Y-64323524D01*
X115155000Y-64444845D01*
X115155000Y-65638000D01*
X115175000Y-65638000D01*
X115175000Y-65892000D01*
X115155000Y-65892000D01*
X115155000Y-65912000D01*
X114901000Y-65912000D01*
X114901000Y-65892000D01*
X112615000Y-65892000D01*
X112615000Y-65912000D01*
X112361000Y-65912000D01*
X112361000Y-65892000D01*
X111167181Y-65892000D01*
X111046514Y-66121892D01*
X111292817Y-66646358D01*
X111499855Y-66835039D01*
X111390235Y-66856843D01*
X111180191Y-66997191D01*
X111039843Y-67207235D01*
X110990560Y-67455000D01*
X110990560Y-69155000D01*
X111039843Y-69402765D01*
X111180191Y-69612809D01*
X111390235Y-69753157D01*
X111638000Y-69802440D01*
X113338000Y-69802440D01*
X113585765Y-69753157D01*
X113795809Y-69612809D01*
X113936157Y-69402765D01*
X113945184Y-69357381D01*
X113957375Y-69375625D01*
X114448582Y-69703839D01*
X114881744Y-69790000D01*
X115174256Y-69790000D01*
X115607418Y-69703839D01*
X116098625Y-69375625D01*
X116298000Y-69077239D01*
X116497375Y-69375625D01*
X116988582Y-69703839D01*
X117421744Y-69790000D01*
X117714256Y-69790000D01*
X118147418Y-69703839D01*
X118638625Y-69375625D01*
X118838000Y-69077239D01*
X119037375Y-69375625D01*
X119528582Y-69703839D01*
X119961744Y-69790000D01*
X120254256Y-69790000D01*
X120687418Y-69703839D01*
X121178625Y-69375625D01*
X121378000Y-69077239D01*
X121577375Y-69375625D01*
X122068582Y-69703839D01*
X122501744Y-69790000D01*
X122794256Y-69790000D01*
X123227418Y-69703839D01*
X123718625Y-69375625D01*
X123918000Y-69077239D01*
X124117375Y-69375625D01*
X124608582Y-69703839D01*
X125041744Y-69790000D01*
X125334256Y-69790000D01*
X125767418Y-69703839D01*
X126030824Y-69527836D01*
X130756075Y-74253087D01*
X130378724Y-74000950D01*
X129794000Y-73884641D01*
X129209275Y-74000950D01*
X128713570Y-74332170D01*
X128382350Y-74827876D01*
X128295400Y-75265003D01*
X128295400Y-75864998D01*
X128382350Y-76302125D01*
X128713570Y-76797830D01*
X129209276Y-77129050D01*
X129794000Y-77245359D01*
X130378725Y-77129050D01*
X130874430Y-76797830D01*
X131064000Y-76514119D01*
X131253570Y-76797830D01*
X131749276Y-77129050D01*
X132334000Y-77245359D01*
X132918725Y-77129050D01*
X133414430Y-76797830D01*
X133604000Y-76514119D01*
X133793570Y-76797830D01*
X134289276Y-77129050D01*
X134874000Y-77245359D01*
X135458725Y-77129050D01*
X135954430Y-76797830D01*
X136147909Y-76508267D01*
X136511964Y-76915732D01*
X137039209Y-77169709D01*
X137054974Y-77172358D01*
X137287000Y-77051217D01*
X137287000Y-75692000D01*
X137267000Y-75692000D01*
X137267000Y-75438000D01*
X137287000Y-75438000D01*
X137287000Y-75418000D01*
X137541000Y-75418000D01*
X137541000Y-75438000D01*
X137561000Y-75438000D01*
X137561000Y-75692000D01*
X137541000Y-75692000D01*
X137541000Y-77051217D01*
X137773026Y-77172358D01*
X137788791Y-77169709D01*
X138316036Y-76915732D01*
X138680090Y-76508268D01*
X138873570Y-76797830D01*
X139369276Y-77129050D01*
X139954000Y-77245359D01*
X140538725Y-77129050D01*
X140812406Y-76946182D01*
X141937860Y-78071387D01*
X141983023Y-78138977D01*
X142050689Y-78184190D01*
X142050722Y-78184223D01*
X142117571Y-78228879D01*
X142250954Y-78318003D01*
X142251000Y-78318012D01*
X142251039Y-78318038D01*
X142408632Y-78349367D01*
X142487226Y-78365000D01*
X142487271Y-78365000D01*
X142567092Y-78380868D01*
X142646819Y-78365000D01*
X161695257Y-78365000D01*
X161775062Y-78380868D01*
X161925684Y-78350895D01*
X162091046Y-78318003D01*
X162091075Y-78317984D01*
X162091103Y-78317978D01*
X162215959Y-78234539D01*
X162358977Y-78138977D01*
X162404184Y-78071320D01*
X163509304Y-76966033D01*
X163753276Y-77129050D01*
X164338000Y-77245359D01*
X164922725Y-77129050D01*
X165418430Y-76797830D01*
X165608000Y-76514119D01*
X165797570Y-76797830D01*
X166293276Y-77129050D01*
X166878000Y-77245359D01*
X167338000Y-77153859D01*
X167338000Y-79388798D01*
X165673370Y-81053501D01*
X165652864Y-81003995D01*
X165406745Y-80929861D01*
X164578605Y-81758000D01*
X164592748Y-81772143D01*
X164413143Y-81951748D01*
X164399000Y-81937605D01*
X163570861Y-82765745D01*
X163644995Y-83011864D01*
X163696560Y-83030398D01*
X160966478Y-85760600D01*
X159444785Y-85760600D01*
X159365024Y-85744732D01*
X159285238Y-85760600D01*
X159285226Y-85760600D01*
X159206280Y-85776303D01*
X159048976Y-85807588D01*
X159048966Y-85807595D01*
X159048954Y-85807597D01*
X158900575Y-85906741D01*
X158848671Y-85941420D01*
X158848665Y-85941426D01*
X158781023Y-85986623D01*
X158735839Y-86054245D01*
X157412548Y-87377458D01*
X157176635Y-87141545D01*
X156832983Y-86999200D01*
X156461017Y-86999200D01*
X156159240Y-87124200D01*
X151403477Y-87124200D01*
X151340330Y-86806602D01*
X151181729Y-86569197D01*
X150584704Y-85972071D01*
X150531121Y-85891879D01*
X150365987Y-85781540D01*
X150213649Y-85679732D01*
X150213609Y-85679724D01*
X150213573Y-85679700D01*
X150016704Y-85640540D01*
X149839081Y-85605194D01*
X149744495Y-85624000D01*
X149100408Y-85624000D01*
X149050577Y-85549423D01*
X148698242Y-85314000D01*
X149050577Y-85078577D01*
X149367740Y-84603909D01*
X149479113Y-84044000D01*
X149367740Y-83484091D01*
X149050577Y-83009423D01*
X148666892Y-82753053D01*
X148871134Y-82656389D01*
X149247041Y-82241423D01*
X149407904Y-81853039D01*
X149285915Y-81631000D01*
X148143000Y-81631000D01*
X148143000Y-81651000D01*
X147889000Y-81651000D01*
X147889000Y-81631000D01*
X146746085Y-81631000D01*
X146624096Y-81853039D01*
X146784959Y-82241423D01*
X147160866Y-82656389D01*
X147365108Y-82753053D01*
X146981423Y-83009423D01*
X146664260Y-83484091D01*
X146552887Y-84044000D01*
X146664260Y-84603909D01*
X146981423Y-85078577D01*
X147333758Y-85314000D01*
X146981423Y-85549423D01*
X146664260Y-86024091D01*
X146552887Y-86584000D01*
X146660340Y-87124200D01*
X141751660Y-87124200D01*
X141859113Y-86584000D01*
X141747740Y-86024091D01*
X141430577Y-85549423D01*
X141078242Y-85314000D01*
X141430577Y-85078577D01*
X141747740Y-84603909D01*
X141859113Y-84044000D01*
X141747740Y-83484091D01*
X141430577Y-83009423D01*
X141078242Y-82774000D01*
X141430577Y-82538577D01*
X141747740Y-82063909D01*
X141851708Y-81541223D01*
X162952035Y-81541223D01*
X162979222Y-82111454D01*
X163145136Y-82512005D01*
X163391255Y-82586139D01*
X164219395Y-81758000D01*
X163391255Y-80929861D01*
X163145136Y-81003995D01*
X162952035Y-81541223D01*
X141851708Y-81541223D01*
X141859113Y-81504000D01*
X141789685Y-81154961D01*
X146624096Y-81154961D01*
X146746085Y-81377000D01*
X147889000Y-81377000D01*
X147889000Y-80233371D01*
X148143000Y-80233371D01*
X148143000Y-81377000D01*
X149285915Y-81377000D01*
X149407904Y-81154961D01*
X149247041Y-80766577D01*
X149232256Y-80750255D01*
X163570861Y-80750255D01*
X164399000Y-81578395D01*
X165227139Y-80750255D01*
X165153005Y-80504136D01*
X164615777Y-80311035D01*
X164045546Y-80338222D01*
X163644995Y-80504136D01*
X163570861Y-80750255D01*
X149232256Y-80750255D01*
X148871134Y-80351611D01*
X148365041Y-80112086D01*
X148143000Y-80233371D01*
X147889000Y-80233371D01*
X147666959Y-80112086D01*
X147160866Y-80351611D01*
X146784959Y-80766577D01*
X146624096Y-81154961D01*
X141789685Y-81154961D01*
X141747740Y-80944091D01*
X141430577Y-80469423D01*
X140955909Y-80152260D01*
X140537333Y-80069000D01*
X140254667Y-80069000D01*
X139836091Y-80152260D01*
X139361423Y-80469423D01*
X139044260Y-80944091D01*
X138932887Y-81504000D01*
X139044260Y-82063909D01*
X139361423Y-82538577D01*
X139713758Y-82774000D01*
X139361423Y-83009423D01*
X139044260Y-83484091D01*
X138932887Y-84044000D01*
X139044260Y-84603909D01*
X139361423Y-85078577D01*
X139713758Y-85314000D01*
X139361423Y-85549423D01*
X139044260Y-86024091D01*
X138932887Y-86584000D01*
X139040340Y-87124200D01*
X137923373Y-87124200D01*
X136866100Y-86067554D01*
X136820977Y-86000023D01*
X136753245Y-85954766D01*
X136753161Y-85954682D01*
X136688351Y-85911405D01*
X136553046Y-85820997D01*
X136552922Y-85820972D01*
X136552820Y-85820904D01*
X136395411Y-85789642D01*
X136316774Y-85774000D01*
X136316653Y-85774000D01*
X136236756Y-85758132D01*
X136236117Y-85758259D01*
X136096577Y-85549423D01*
X135854391Y-85387600D01*
X135887868Y-85219300D01*
X135887645Y-85218181D01*
X136096577Y-85078577D01*
X136413740Y-84603909D01*
X136525113Y-84044000D01*
X136413740Y-83484091D01*
X136096577Y-83009423D01*
X135744242Y-82774000D01*
X136096577Y-82538577D01*
X136413740Y-82063909D01*
X136525113Y-81504000D01*
X136413740Y-80944091D01*
X136096577Y-80469423D01*
X135621909Y-80152260D01*
X135203333Y-80069000D01*
X134920667Y-80069000D01*
X134502091Y-80152260D01*
X134027423Y-80469423D01*
X133977592Y-80544000D01*
X133831607Y-80544000D01*
X133737118Y-80525193D01*
X133642509Y-80544000D01*
X133642451Y-80544000D01*
X133550468Y-80562297D01*
X133362535Y-80599655D01*
X133362485Y-80599688D01*
X133362427Y-80599700D01*
X133201777Y-80707043D01*
X133125124Y-80758248D01*
X133125085Y-80758287D01*
X133044879Y-80811879D01*
X132991352Y-80891988D01*
X130228086Y-83654586D01*
X130147879Y-83708179D01*
X130039359Y-83870591D01*
X129935746Y-84025618D01*
X129935734Y-84025677D01*
X129935700Y-84025728D01*
X129897409Y-84218229D01*
X129861194Y-84400182D01*
X129880000Y-84494787D01*
X129880001Y-95487987D01*
X128858491Y-96509617D01*
X128793740Y-96184091D01*
X128476577Y-95709423D01*
X128124242Y-95474000D01*
X128476577Y-95238577D01*
X128793740Y-94763909D01*
X128905113Y-94204000D01*
X128793740Y-93644091D01*
X128476577Y-93169423D01*
X128124242Y-92934000D01*
X128476577Y-92698577D01*
X128793740Y-92223909D01*
X128905113Y-91664000D01*
X128793740Y-91104091D01*
X128476577Y-90629423D01*
X128124242Y-90394000D01*
X128476577Y-90158577D01*
X128793740Y-89683909D01*
X128905113Y-89124000D01*
X128793740Y-88564091D01*
X128589352Y-88258203D01*
X129143302Y-87704396D01*
X129210977Y-87659177D01*
X129302148Y-87522731D01*
X129389962Y-87391345D01*
X129389973Y-87391291D01*
X129390003Y-87391246D01*
X129421501Y-87232895D01*
X129452868Y-87075306D01*
X129437000Y-86995479D01*
X129437000Y-83578569D01*
X129452867Y-83498698D01*
X129421992Y-83343674D01*
X129390003Y-83182854D01*
X129389945Y-83182767D01*
X129389925Y-83182667D01*
X129300587Y-83049034D01*
X129210977Y-82914923D01*
X129143266Y-82869680D01*
X128610890Y-82337564D01*
X128793740Y-82063909D01*
X128905113Y-81504000D01*
X128793740Y-80944091D01*
X128476577Y-80469423D01*
X128001909Y-80152260D01*
X127583333Y-80069000D01*
X127300667Y-80069000D01*
X126882091Y-80152260D01*
X126407423Y-80469423D01*
X126090260Y-80944091D01*
X125978887Y-81504000D01*
X126090260Y-82063909D01*
X126407423Y-82538577D01*
X126616355Y-82678181D01*
X126616132Y-82679300D01*
X126649609Y-82847600D01*
X126407423Y-83009423D01*
X126267854Y-83218302D01*
X126266999Y-83218132D01*
X126187226Y-83234000D01*
X125950954Y-83280997D01*
X125683023Y-83460023D01*
X125637834Y-83527653D01*
X124788488Y-84377000D01*
X121981000Y-84377000D01*
X121981000Y-72360000D01*
X121971333Y-72311399D01*
X121943803Y-72270197D01*
X121902601Y-72242667D01*
X121854000Y-72233000D01*
X87310000Y-72233000D01*
X87310000Y-66861000D01*
X99324560Y-66861000D01*
X99324560Y-68461000D01*
X99373843Y-68708765D01*
X99514191Y-68918809D01*
X99724235Y-69059157D01*
X99972000Y-69108440D01*
X101572000Y-69108440D01*
X101819765Y-69059157D01*
X102029809Y-68918809D01*
X102170157Y-68708765D01*
X102219440Y-68461000D01*
X102219440Y-66861000D01*
X102170157Y-66613235D01*
X102029809Y-66403191D01*
X101819765Y-66262843D01*
X101585813Y-66216307D01*
X101600139Y-66168745D01*
X100772000Y-65340605D01*
X99943861Y-66168745D01*
X99958187Y-66216307D01*
X99724235Y-66262843D01*
X99514191Y-66403191D01*
X99373843Y-66613235D01*
X99324560Y-66861000D01*
X87310000Y-66861000D01*
X87310000Y-64944223D01*
X99325035Y-64944223D01*
X99352222Y-65514454D01*
X99518136Y-65915005D01*
X99764255Y-65989139D01*
X100592395Y-65161000D01*
X100951605Y-65161000D01*
X101779745Y-65989139D01*
X102025864Y-65915005D01*
X102208062Y-65408108D01*
X111046514Y-65408108D01*
X111167181Y-65638000D01*
X112361000Y-65638000D01*
X112361000Y-64444845D01*
X112615000Y-64444845D01*
X112615000Y-65638000D01*
X114901000Y-65638000D01*
X114901000Y-64444845D01*
X114671110Y-64323524D01*
X114261076Y-64493355D01*
X113832817Y-64883642D01*
X113758000Y-65042954D01*
X113683183Y-64883642D01*
X113254924Y-64493355D01*
X112844890Y-64323524D01*
X112615000Y-64444845D01*
X112361000Y-64444845D01*
X112131110Y-64323524D01*
X111721076Y-64493355D01*
X111292817Y-64883642D01*
X111046514Y-65408108D01*
X102208062Y-65408108D01*
X102218965Y-65377777D01*
X102191778Y-64807546D01*
X102025864Y-64406995D01*
X101779745Y-64332861D01*
X100951605Y-65161000D01*
X100592395Y-65161000D01*
X99764255Y-64332861D01*
X99518136Y-64406995D01*
X99325035Y-64944223D01*
X87310000Y-64944223D01*
X87310000Y-64153255D01*
X99943861Y-64153255D01*
X100772000Y-64981395D01*
X101600139Y-64153255D01*
X101526005Y-63907136D01*
X100988777Y-63714035D01*
X100418546Y-63741222D01*
X100017995Y-63907136D01*
X99943861Y-64153255D01*
X87310000Y-64153255D01*
X87310000Y-59164501D01*
X89391000Y-59164501D01*
X89391000Y-60225499D01*
X89797026Y-61205734D01*
X90547266Y-61955974D01*
X91527501Y-62362000D01*
X92588499Y-62362000D01*
X93568734Y-61955974D01*
X94318974Y-61205734D01*
X94725000Y-60225499D01*
X94725000Y-59164501D01*
X94708432Y-59124501D01*
X178381000Y-59124501D01*
X178381000Y-60185499D01*
X178787026Y-61165734D01*
X179537266Y-61915974D01*
X180517501Y-62322000D01*
X181578499Y-62322000D01*
X182558734Y-61915974D01*
X183308974Y-61165734D01*
X183715000Y-60185499D01*
X183715000Y-59124501D01*
X183308974Y-58144266D01*
X182558734Y-57394026D01*
X181578499Y-56988000D01*
X180517501Y-56988000D01*
X179537266Y-57394026D01*
X178787026Y-58144266D01*
X178381000Y-59124501D01*
X94708432Y-59124501D01*
X94318974Y-58184266D01*
X93568734Y-57434026D01*
X92588499Y-57028000D01*
X91527501Y-57028000D01*
X90547266Y-57434026D01*
X89797026Y-58184266D01*
X89391000Y-59164501D01*
X87310000Y-59164501D01*
X87310000Y-56103837D01*
X185735000Y-55977164D01*
X185735000Y-129129000D01*
X185735000Y-129129000D01*
G37*
X185735000Y-129129000D02*
X121981000Y-129129000D01*
X121981000Y-119842000D01*
X122925100Y-119842000D01*
X122954461Y-119852908D01*
X123604460Y-119828856D01*
X124093264Y-119626387D01*
X124191927Y-119359532D01*
X123854000Y-119021605D01*
X123854000Y-118662395D01*
X124371532Y-119179927D01*
X124638387Y-119081264D01*
X124864908Y-118471539D01*
X124840856Y-117821540D01*
X124638387Y-117332736D01*
X124371532Y-117234073D01*
X123854000Y-117751605D01*
X123854000Y-117392395D01*
X124191927Y-117054468D01*
X124093264Y-116787613D01*
X123483539Y-116561092D01*
X123188753Y-116572000D01*
X121981000Y-116572000D01*
X121981000Y-114309691D01*
X152627000Y-114309691D01*
X152627000Y-115000250D01*
X152785750Y-115159000D01*
X153985000Y-115159000D01*
X153985000Y-113959750D01*
X153826250Y-113801000D01*
X153135690Y-113801000D01*
X152902301Y-113897673D01*
X152723673Y-114076302D01*
X152627000Y-114309691D01*
X121981000Y-114309691D01*
X121981000Y-110999750D01*
X151534000Y-110999750D01*
X151534000Y-111640309D01*
X151630673Y-111873698D01*
X151809301Y-112052327D01*
X152042690Y-112149000D01*
X152683250Y-112149000D01*
X152842000Y-111990250D01*
X152842000Y-110841000D01*
X151692750Y-110841000D01*
X151534000Y-110999750D01*
X121981000Y-110999750D01*
X121981000Y-109562745D01*
X144687861Y-109562745D01*
X144761995Y-109808864D01*
X145299223Y-110001965D01*
X145869454Y-109974778D01*
X146270005Y-109808864D01*
X146344139Y-109562745D01*
X145516000Y-108734605D01*
X144687861Y-109562745D01*
X121981000Y-109562745D01*
X121981000Y-108338223D01*
X144069035Y-108338223D01*
X144096222Y-108908454D01*
X144262136Y-109309005D01*
X144508255Y-109383139D01*
X145336395Y-108555000D01*
X144508255Y-107726861D01*
X144262136Y-107800995D01*
X144069035Y-108338223D01*
X121981000Y-108338223D01*
X121981000Y-103847745D01*
X131606861Y-103847745D01*
X131680995Y-104093864D01*
X132218223Y-104286965D01*
X132788454Y-104259778D01*
X133189005Y-104093864D01*
X133263139Y-103847745D01*
X132435000Y-103019605D01*
X131606861Y-103847745D01*
X121981000Y-103847745D01*
X121981000Y-102623223D01*
X130988035Y-102623223D01*
X131015222Y-103193454D01*
X131181136Y-103594005D01*
X131427255Y-103668139D01*
X132255395Y-102840000D01*
X132614605Y-102840000D01*
X133442745Y-103668139D01*
X133688864Y-103594005D01*
X133691290Y-103587254D01*
X133718466Y-103652862D01*
X134122138Y-104056534D01*
X134649561Y-104275000D01*
X135220439Y-104275000D01*
X135747862Y-104056534D01*
X136004396Y-103800000D01*
X140088604Y-103800000D01*
X140345138Y-104056534D01*
X140872561Y-104275000D01*
X141235356Y-104275000D01*
X142069321Y-105108966D01*
X142122879Y-105189121D01*
X142440427Y-105401300D01*
X142720451Y-105457000D01*
X142720455Y-105457000D01*
X142815000Y-105475806D01*
X142909544Y-105457000D01*
X143560356Y-105457000D01*
X145235117Y-107131762D01*
X145162546Y-107135222D01*
X144761995Y-107301136D01*
X144687861Y-107547255D01*
X145516000Y-108375395D01*
X145530143Y-108361253D01*
X145709748Y-108540858D01*
X145695605Y-108555000D01*
X146523745Y-109383139D01*
X146571307Y-109368813D01*
X146617843Y-109602765D01*
X146758191Y-109812809D01*
X146968235Y-109953157D01*
X147216000Y-110002440D01*
X148816000Y-110002440D01*
X149063765Y-109953157D01*
X149273809Y-109812809D01*
X149290592Y-109787691D01*
X151534000Y-109787691D01*
X151534000Y-110428250D01*
X151692750Y-110587000D01*
X152842000Y-110587000D01*
X152842000Y-109437750D01*
X152683250Y-109279000D01*
X152042690Y-109279000D01*
X151809301Y-109375673D01*
X151630673Y-109554302D01*
X151534000Y-109787691D01*
X149290592Y-109787691D01*
X149414157Y-109602765D01*
X149463440Y-109355000D01*
X149463440Y-107755000D01*
X149414157Y-107507235D01*
X149273809Y-107297191D01*
X149063765Y-107156843D01*
X148816000Y-107107560D01*
X147926206Y-107107560D01*
X144703681Y-103885037D01*
X144693635Y-103870001D01*
X144780622Y-103783014D01*
X144665747Y-103668139D01*
X144911864Y-103594005D01*
X145104965Y-103056777D01*
X145077778Y-102486546D01*
X144911864Y-102085995D01*
X144665745Y-102011861D01*
X143837605Y-102840000D01*
X143851748Y-102854142D01*
X143672142Y-103033748D01*
X143658000Y-103019605D01*
X143643858Y-103033748D01*
X143464253Y-102854143D01*
X143478395Y-102840000D01*
X142650255Y-102011861D01*
X142404136Y-102085995D01*
X142401710Y-102092746D01*
X142374534Y-102027138D01*
X142179651Y-101832255D01*
X142829861Y-101832255D01*
X143658000Y-102660395D01*
X144486139Y-101832255D01*
X144412005Y-101586136D01*
X143874777Y-101393035D01*
X143304546Y-101420222D01*
X142903995Y-101586136D01*
X142829861Y-101832255D01*
X142179651Y-101832255D01*
X141970862Y-101623466D01*
X141443439Y-101405000D01*
X140872561Y-101405000D01*
X140345138Y-101623466D01*
X140088604Y-101880000D01*
X136004396Y-101880000D01*
X135747862Y-101623466D01*
X135220439Y-101405000D01*
X134649561Y-101405000D01*
X134122138Y-101623466D01*
X133718466Y-102027138D01*
X133691475Y-102092299D01*
X133688864Y-102085995D01*
X133442745Y-102011861D01*
X132614605Y-102840000D01*
X132255395Y-102840000D01*
X131427255Y-102011861D01*
X131181136Y-102085995D01*
X130988035Y-102623223D01*
X121981000Y-102623223D01*
X121981000Y-101569000D01*
X131722365Y-101569000D01*
X131680995Y-101586136D01*
X131606861Y-101832255D01*
X132435000Y-102660395D01*
X133263139Y-101832255D01*
X133189005Y-101586136D01*
X132855807Y-101466371D01*
X132945705Y-101406303D01*
X133022684Y-101354909D01*
X133022810Y-101354783D01*
X133103121Y-101301121D01*
X133156580Y-101221114D01*
X133823492Y-100554706D01*
X134014235Y-100682157D01*
X134262000Y-100731440D01*
X135862000Y-100731440D01*
X136109765Y-100682157D01*
X136319809Y-100541809D01*
X136460157Y-100331765D01*
X136509440Y-100084000D01*
X136509440Y-99336953D01*
X138163834Y-100991347D01*
X138209023Y-101058977D01*
X138276652Y-101104165D01*
X138476953Y-101238003D01*
X138793000Y-101300868D01*
X138872774Y-101285000D01*
X144213488Y-101285000D01*
X146314345Y-103385858D01*
X146439345Y-103687635D01*
X146702365Y-103950655D01*
X147046017Y-104093000D01*
X147417983Y-104093000D01*
X147761635Y-103950655D01*
X147797963Y-103914327D01*
X152809829Y-108926340D01*
X152855023Y-108993977D01*
X153009213Y-109097003D01*
X153122942Y-109172998D01*
X153122948Y-109172999D01*
X153122954Y-109173003D01*
X153278572Y-109203957D01*
X153438987Y-109235868D01*
X153518767Y-109220000D01*
X157239000Y-109220000D01*
X157239000Y-109529365D01*
X157014423Y-109679423D01*
X156779000Y-110031758D01*
X156543577Y-109679423D01*
X156068909Y-109362260D01*
X155650333Y-109279000D01*
X155367667Y-109279000D01*
X154949091Y-109362260D01*
X154474423Y-109679423D01*
X154403265Y-109785918D01*
X154307327Y-109554302D01*
X154128699Y-109375673D01*
X153895310Y-109279000D01*
X153254750Y-109279000D01*
X153096000Y-109437750D01*
X153096000Y-110587000D01*
X153116000Y-110587000D01*
X153116000Y-110841000D01*
X153096000Y-110841000D01*
X153096000Y-111990250D01*
X153254750Y-112149000D01*
X153895310Y-112149000D01*
X154128699Y-112052327D01*
X154307327Y-111873698D01*
X154403265Y-111642082D01*
X154474423Y-111748577D01*
X154949091Y-112065740D01*
X155367667Y-112149000D01*
X155650333Y-112149000D01*
X156068909Y-112065740D01*
X156543577Y-111748577D01*
X156779000Y-111396242D01*
X157014423Y-111748577D01*
X157489091Y-112065740D01*
X157907667Y-112149000D01*
X158190333Y-112149000D01*
X158608909Y-112065740D01*
X159083577Y-111748577D01*
X159319000Y-111396242D01*
X159554423Y-111748577D01*
X159678203Y-111831284D01*
X157465751Y-114043737D01*
X157231418Y-113887161D01*
X156798256Y-113801000D01*
X156505744Y-113801000D01*
X156072582Y-113887161D01*
X155581375Y-114215375D01*
X155566904Y-114237033D01*
X155500327Y-114076302D01*
X155321699Y-113897673D01*
X155088310Y-113801000D01*
X154397750Y-113801000D01*
X154239000Y-113959750D01*
X154239000Y-115159000D01*
X154259000Y-115159000D01*
X154259000Y-115413000D01*
X154239000Y-115413000D01*
X154239000Y-116612250D01*
X154397750Y-116771000D01*
X155088310Y-116771000D01*
X155321699Y-116674327D01*
X155500327Y-116495698D01*
X155566904Y-116334967D01*
X155581375Y-116356625D01*
X156072582Y-116684839D01*
X156505744Y-116771000D01*
X156798256Y-116771000D01*
X157192263Y-116692627D01*
X156135562Y-117749896D01*
X156068024Y-117795023D01*
X156022775Y-117862743D01*
X156022697Y-117862821D01*
X155977972Y-117929795D01*
X155888998Y-118062954D01*
X155888976Y-118063063D01*
X155888913Y-118063158D01*
X155856958Y-118224033D01*
X155842001Y-118299226D01*
X155842001Y-118299331D01*
X155828282Y-118368397D01*
X155581375Y-118533375D01*
X155569184Y-118551619D01*
X155560157Y-118506235D01*
X155419809Y-118296191D01*
X155209765Y-118155843D01*
X154962000Y-118106560D01*
X153262000Y-118106560D01*
X153014235Y-118155843D01*
X152804191Y-118296191D01*
X152772353Y-118343840D01*
X150468168Y-116039656D01*
X150422977Y-115972023D01*
X150155046Y-115792997D01*
X149918774Y-115746000D01*
X149918773Y-115746000D01*
X149839000Y-115730132D01*
X149759227Y-115746000D01*
X148371769Y-115746000D01*
X148255339Y-115571750D01*
X152627000Y-115571750D01*
X152627000Y-116262309D01*
X152723673Y-116495698D01*
X152902301Y-116674327D01*
X153135690Y-116771000D01*
X153826250Y-116771000D01*
X153985000Y-116612250D01*
X153985000Y-115413000D01*
X152785750Y-115413000D01*
X152627000Y-115571750D01*
X148255339Y-115571750D01*
X148197625Y-115485375D01*
X147706418Y-115157161D01*
X147273256Y-115071000D01*
X146980744Y-115071000D01*
X146547582Y-115157161D01*
X146056375Y-115485375D01*
X145882231Y-115746000D01*
X145831769Y-115746000D01*
X145657625Y-115485375D01*
X145166418Y-115157161D01*
X144733256Y-115071000D01*
X144440744Y-115071000D01*
X144007582Y-115157161D01*
X143516375Y-115485375D01*
X143342231Y-115746000D01*
X143291769Y-115746000D01*
X143117625Y-115485375D01*
X142626418Y-115157161D01*
X142193256Y-115071000D01*
X141900744Y-115071000D01*
X141467582Y-115157161D01*
X140976375Y-115485375D01*
X140802231Y-115746000D01*
X140751769Y-115746000D01*
X140577625Y-115485375D01*
X140086418Y-115157161D01*
X139653256Y-115071000D01*
X139360744Y-115071000D01*
X138927582Y-115157161D01*
X138436375Y-115485375D01*
X138262231Y-115746000D01*
X138211769Y-115746000D01*
X138037625Y-115485375D01*
X137546418Y-115157161D01*
X137113256Y-115071000D01*
X136820744Y-115071000D01*
X136387582Y-115157161D01*
X135896375Y-115485375D01*
X135722231Y-115746000D01*
X135671769Y-115746000D01*
X135497625Y-115485375D01*
X135006418Y-115157161D01*
X134573256Y-115071000D01*
X134280744Y-115071000D01*
X133847582Y-115157161D01*
X133356375Y-115485375D01*
X133182231Y-115746000D01*
X133131769Y-115746000D01*
X132957625Y-115485375D01*
X132466418Y-115157161D01*
X132033256Y-115071000D01*
X131740744Y-115071000D01*
X131307582Y-115157161D01*
X130816375Y-115485375D01*
X130642231Y-115746000D01*
X130591769Y-115746000D01*
X130417625Y-115485375D01*
X129926418Y-115157161D01*
X129493256Y-115071000D01*
X129200744Y-115071000D01*
X128767582Y-115157161D01*
X128276375Y-115485375D01*
X127948161Y-115976582D01*
X127832908Y-116556000D01*
X127948161Y-117135418D01*
X128276375Y-117626625D01*
X128294619Y-117638816D01*
X128249235Y-117647843D01*
X128039191Y-117788191D01*
X127898843Y-117998235D01*
X127849560Y-118246000D01*
X127849560Y-119946000D01*
X127898843Y-120193765D01*
X128039191Y-120403809D01*
X128249235Y-120544157D01*
X128497000Y-120593440D01*
X130197000Y-120593440D01*
X130444765Y-120544157D01*
X130654809Y-120403809D01*
X130795157Y-120193765D01*
X130804184Y-120148381D01*
X130816375Y-120166625D01*
X131307582Y-120494839D01*
X131740744Y-120581000D01*
X132033256Y-120581000D01*
X132466418Y-120494839D01*
X132957625Y-120166625D01*
X133157000Y-119868239D01*
X133356375Y-120166625D01*
X133847582Y-120494839D01*
X134280744Y-120581000D01*
X134573256Y-120581000D01*
X135006418Y-120494839D01*
X135497625Y-120166625D01*
X135697000Y-119868239D01*
X135896375Y-120166625D01*
X136387582Y-120494839D01*
X136820744Y-120581000D01*
X137113256Y-120581000D01*
X137546418Y-120494839D01*
X138037625Y-120166625D01*
X138237000Y-119868239D01*
X138436375Y-120166625D01*
X138927582Y-120494839D01*
X139360744Y-120581000D01*
X139653256Y-120581000D01*
X140086418Y-120494839D01*
X140577625Y-120166625D01*
X140777000Y-119868239D01*
X140976375Y-120166625D01*
X141467582Y-120494839D01*
X141900744Y-120581000D01*
X142193256Y-120581000D01*
X142626418Y-120494839D01*
X143117625Y-120166625D01*
X143317000Y-119868239D01*
X143516375Y-120166625D01*
X144007582Y-120494839D01*
X144440744Y-120581000D01*
X144733256Y-120581000D01*
X145166418Y-120494839D01*
X145657625Y-120166625D01*
X145857000Y-119868239D01*
X146056375Y-120166625D01*
X146547582Y-120494839D01*
X146980744Y-120581000D01*
X147273256Y-120581000D01*
X147706418Y-120494839D01*
X148197625Y-120166625D01*
X148525839Y-119675418D01*
X148641092Y-119096000D01*
X148525839Y-118516582D01*
X148197625Y-118025375D01*
X147899239Y-117826000D01*
X148197625Y-117626625D01*
X148371769Y-117366000D01*
X149503488Y-117366000D01*
X152257834Y-120120347D01*
X152303023Y-120187977D01*
X152570954Y-120367003D01*
X152614560Y-120375677D01*
X152614560Y-120429000D01*
X151628544Y-120429000D01*
X151533999Y-120410194D01*
X151439455Y-120429000D01*
X151439451Y-120429000D01*
X151159427Y-120484700D01*
X150841879Y-120696879D01*
X150788321Y-120777034D01*
X149367173Y-122198183D01*
X149098000Y-122144641D01*
X148513275Y-122260950D01*
X148017570Y-122592170D01*
X147828000Y-122875881D01*
X147638430Y-122592170D01*
X147142724Y-122260950D01*
X146558000Y-122144641D01*
X145973275Y-122260950D01*
X145477570Y-122592170D01*
X145288000Y-122875881D01*
X145098430Y-122592170D01*
X144602724Y-122260950D01*
X144018000Y-122144641D01*
X143433275Y-122260950D01*
X142937570Y-122592170D01*
X142748000Y-122875881D01*
X142558430Y-122592170D01*
X142062724Y-122260950D01*
X141478000Y-122144641D01*
X140893275Y-122260950D01*
X140397570Y-122592170D01*
X140208000Y-122875881D01*
X140018430Y-122592170D01*
X139522724Y-122260950D01*
X138938000Y-122144641D01*
X138353275Y-122260950D01*
X137857570Y-122592170D01*
X137526350Y-123087876D01*
X137439400Y-123525003D01*
X137439400Y-124124998D01*
X137526350Y-124562125D01*
X137857570Y-125057830D01*
X138353276Y-125389050D01*
X138938000Y-125505359D01*
X139522725Y-125389050D01*
X140018430Y-125057830D01*
X140208000Y-124774119D01*
X140397570Y-125057830D01*
X140893276Y-125389050D01*
X141478000Y-125505359D01*
X142062725Y-125389050D01*
X142558430Y-125057830D01*
X142748000Y-124774119D01*
X142937570Y-125057830D01*
X143433276Y-125389050D01*
X144018000Y-125505359D01*
X144602725Y-125389050D01*
X145098430Y-125057830D01*
X145288000Y-124774119D01*
X145477570Y-125057830D01*
X145973276Y-125389050D01*
X146558000Y-125505359D01*
X147142725Y-125389050D01*
X147638430Y-125057830D01*
X147828000Y-124774119D01*
X148017570Y-125057830D01*
X148513276Y-125389050D01*
X149098000Y-125505359D01*
X149682725Y-125389050D01*
X150178430Y-125057830D01*
X150371909Y-124768267D01*
X150735964Y-125175732D01*
X151263209Y-125429709D01*
X151278974Y-125432358D01*
X151511000Y-125311217D01*
X151511000Y-123952000D01*
X151765000Y-123952000D01*
X151765000Y-125311217D01*
X151997026Y-125432358D01*
X152012791Y-125429709D01*
X152540036Y-125175732D01*
X152908000Y-124763892D01*
X153275964Y-125175732D01*
X153803209Y-125429709D01*
X153818974Y-125432358D01*
X154051000Y-125311217D01*
X154051000Y-123952000D01*
X151765000Y-123952000D01*
X151511000Y-123952000D01*
X151491000Y-123952000D01*
X151491000Y-123698000D01*
X151511000Y-123698000D01*
X151511000Y-123678000D01*
X151765000Y-123678000D01*
X151765000Y-123698000D01*
X154051000Y-123698000D01*
X154051000Y-123678000D01*
X154305000Y-123678000D01*
X154305000Y-123698000D01*
X154325000Y-123698000D01*
X154325000Y-123952000D01*
X154305000Y-123952000D01*
X154305000Y-125311217D01*
X154537026Y-125432358D01*
X154552791Y-125429709D01*
X155080036Y-125175732D01*
X155444090Y-124768268D01*
X155637570Y-125057830D01*
X156133276Y-125389050D01*
X156718000Y-125505359D01*
X157302725Y-125389050D01*
X157798430Y-125057830D01*
X158129650Y-124562124D01*
X158216600Y-124124997D01*
X158216600Y-123525002D01*
X158129650Y-123087875D01*
X157798430Y-122592170D01*
X157434500Y-122349000D01*
X161081499Y-122349000D01*
X160717570Y-122592170D01*
X160386350Y-123087876D01*
X160299400Y-123525003D01*
X160299400Y-124124998D01*
X160386350Y-124562125D01*
X160717570Y-125057830D01*
X161213276Y-125389050D01*
X161798000Y-125505359D01*
X162382725Y-125389050D01*
X162878430Y-125057830D01*
X163068000Y-124774119D01*
X163257570Y-125057830D01*
X163753276Y-125389050D01*
X164338000Y-125505359D01*
X164922725Y-125389050D01*
X165418430Y-125057830D01*
X165608000Y-124774119D01*
X165797570Y-125057830D01*
X166293276Y-125389050D01*
X166878000Y-125505359D01*
X167462725Y-125389050D01*
X167958430Y-125057830D01*
X168148000Y-124774119D01*
X168337570Y-125057830D01*
X168833276Y-125389050D01*
X169418000Y-125505359D01*
X170002725Y-125389050D01*
X170498430Y-125057830D01*
X170688000Y-124774119D01*
X170877570Y-125057830D01*
X171373276Y-125389050D01*
X171958000Y-125505359D01*
X172542725Y-125389050D01*
X173038430Y-125057830D01*
X173228000Y-124774119D01*
X173417570Y-125057830D01*
X173913276Y-125389050D01*
X174498000Y-125505359D01*
X175082725Y-125389050D01*
X175493615Y-125114501D01*
X178371000Y-125114501D01*
X178371000Y-126175499D01*
X178777026Y-127155734D01*
X179527266Y-127905974D01*
X180507501Y-128312000D01*
X181568499Y-128312000D01*
X182548734Y-127905974D01*
X183298974Y-127155734D01*
X183705000Y-126175499D01*
X183705000Y-125114501D01*
X183298974Y-124134266D01*
X182548734Y-123384026D01*
X181568499Y-122978000D01*
X180507501Y-122978000D01*
X179527266Y-123384026D01*
X178777026Y-124134266D01*
X178371000Y-125114501D01*
X175493615Y-125114501D01*
X175578430Y-125057830D01*
X175909650Y-124562124D01*
X175996600Y-124124997D01*
X175996600Y-123525002D01*
X175909650Y-123087875D01*
X175578430Y-122592170D01*
X175082724Y-122260950D01*
X174498000Y-122144641D01*
X173913275Y-122260950D01*
X173417570Y-122592170D01*
X173228000Y-122875881D01*
X173038430Y-122592170D01*
X172542724Y-122260950D01*
X171958000Y-122144641D01*
X171373275Y-122260950D01*
X170877570Y-122592170D01*
X170688000Y-122875881D01*
X170498430Y-122592170D01*
X170002724Y-122260950D01*
X169418000Y-122144641D01*
X168833275Y-122260950D01*
X168337570Y-122592170D01*
X168148000Y-122875881D01*
X167958430Y-122592170D01*
X167462724Y-122260950D01*
X166878000Y-122144641D01*
X166293275Y-122260950D01*
X165797570Y-122592170D01*
X165608000Y-122875881D01*
X165418430Y-122592170D01*
X165057263Y-122350846D01*
X165066544Y-122349000D01*
X165066549Y-122349000D01*
X165346573Y-122293300D01*
X165664121Y-122081121D01*
X165717681Y-122000963D01*
X168494760Y-119223885D01*
X168685235Y-119351157D01*
X168933000Y-119400440D01*
X170533000Y-119400440D01*
X170780765Y-119351157D01*
X170990809Y-119210809D01*
X171131157Y-119000765D01*
X171148614Y-118913000D01*
X172218456Y-118913000D01*
X172313000Y-118931806D01*
X172407544Y-118913000D01*
X172407549Y-118913000D01*
X172687573Y-118857300D01*
X173005121Y-118645121D01*
X173058681Y-118564963D01*
X175156645Y-116467000D01*
X175519439Y-116467000D01*
X176046862Y-116248534D01*
X176255651Y-116039745D01*
X176905861Y-116039745D01*
X176979995Y-116285864D01*
X177517223Y-116478965D01*
X178087454Y-116451778D01*
X178488005Y-116285864D01*
X178562139Y-116039745D01*
X177734000Y-115211605D01*
X176905861Y-116039745D01*
X176255651Y-116039745D01*
X176450534Y-115844862D01*
X176477525Y-115779701D01*
X176480136Y-115786005D01*
X176726255Y-115860139D01*
X177554395Y-115032000D01*
X177913605Y-115032000D01*
X178741745Y-115860139D01*
X178987864Y-115786005D01*
X179180965Y-115248777D01*
X179153778Y-114678546D01*
X178987864Y-114277995D01*
X178741745Y-114203861D01*
X177913605Y-115032000D01*
X177554395Y-115032000D01*
X176726255Y-114203861D01*
X176480136Y-114277995D01*
X176477710Y-114284746D01*
X176450534Y-114219138D01*
X176255651Y-114024255D01*
X176905861Y-114024255D01*
X177734000Y-114852395D01*
X178562139Y-114024255D01*
X178488005Y-113778136D01*
X177950777Y-113585035D01*
X177380546Y-113612222D01*
X176979995Y-113778136D01*
X176905861Y-114024255D01*
X176255651Y-114024255D01*
X176046862Y-113815466D01*
X175519439Y-113597000D01*
X174948561Y-113597000D01*
X174421138Y-113815466D01*
X174017466Y-114219138D01*
X173799000Y-114746561D01*
X173799000Y-115109355D01*
X171915356Y-116993000D01*
X171148614Y-116993000D01*
X171131157Y-116905235D01*
X170990809Y-116695191D01*
X170780765Y-116554843D01*
X170546813Y-116508307D01*
X170561139Y-116460745D01*
X169733000Y-115632605D01*
X168904861Y-116460745D01*
X168919187Y-116508307D01*
X168685235Y-116554843D01*
X168475191Y-116695191D01*
X168334843Y-116905235D01*
X168317548Y-116992185D01*
X168313452Y-116993000D01*
X168313451Y-116993000D01*
X168033427Y-117048700D01*
X167715879Y-117260879D01*
X167662321Y-117341034D01*
X164574356Y-120429000D01*
X160426746Y-120429000D01*
X160590839Y-120183418D01*
X160706092Y-119604000D01*
X160590839Y-119024582D01*
X160262625Y-118533375D01*
X159771418Y-118205161D01*
X159338256Y-118119000D01*
X159045744Y-118119000D01*
X158612582Y-118205161D01*
X158121375Y-118533375D01*
X157922000Y-118831761D01*
X157722625Y-118533375D01*
X157674831Y-118501440D01*
X158854640Y-117321000D01*
X159112226Y-117321000D01*
X159192000Y-117336868D01*
X159271774Y-117321000D01*
X159508046Y-117274003D01*
X159775977Y-117094977D01*
X159955003Y-116827046D01*
X160015765Y-116521571D01*
X160262625Y-116356625D01*
X160590839Y-115865418D01*
X160706092Y-115286000D01*
X160696191Y-115236223D01*
X168286035Y-115236223D01*
X168313222Y-115806454D01*
X168479136Y-116207005D01*
X168725255Y-116281139D01*
X169553395Y-115453000D01*
X169912605Y-115453000D01*
X170740745Y-116281139D01*
X170986864Y-116207005D01*
X171179965Y-115669777D01*
X171152778Y-115099546D01*
X170986864Y-114698995D01*
X170740745Y-114624861D01*
X169912605Y-115453000D01*
X169553395Y-115453000D01*
X168725255Y-114624861D01*
X168479136Y-114698995D01*
X168286035Y-115236223D01*
X160696191Y-115236223D01*
X160590839Y-114706582D01*
X160416226Y-114445255D01*
X168904861Y-114445255D01*
X169733000Y-115273395D01*
X170561139Y-114445255D01*
X170487005Y-114199136D01*
X169949777Y-114006035D01*
X169379546Y-114033222D01*
X168978995Y-114199136D01*
X168904861Y-114445255D01*
X160416226Y-114445255D01*
X160262625Y-114215375D01*
X159856501Y-113944012D01*
X161101513Y-112699000D01*
X166146227Y-112699000D01*
X166226000Y-112714868D01*
X166305773Y-112699000D01*
X166305774Y-112699000D01*
X166542046Y-112652003D01*
X166809977Y-112472977D01*
X166855168Y-112405344D01*
X167376747Y-111883766D01*
X167649091Y-112065740D01*
X168067667Y-112149000D01*
X168350333Y-112149000D01*
X168768909Y-112065740D01*
X169243577Y-111748577D01*
X169479000Y-111396242D01*
X169714423Y-111748577D01*
X170189091Y-112065740D01*
X170607667Y-112149000D01*
X170890333Y-112149000D01*
X171308909Y-112065740D01*
X171783577Y-111748577D01*
X172019000Y-111396242D01*
X172254423Y-111748577D01*
X172729091Y-112065740D01*
X173147667Y-112149000D01*
X173430333Y-112149000D01*
X173848909Y-112065740D01*
X174323577Y-111748577D01*
X174559000Y-111396242D01*
X174794423Y-111748577D01*
X175269091Y-112065740D01*
X175687667Y-112149000D01*
X175970333Y-112149000D01*
X176388909Y-112065740D01*
X176863577Y-111748577D01*
X177119947Y-111364892D01*
X177216611Y-111569134D01*
X177631577Y-111945041D01*
X178019961Y-112105904D01*
X178242000Y-111983915D01*
X178242000Y-110841000D01*
X178222000Y-110841000D01*
X178222000Y-110587000D01*
X178242000Y-110587000D01*
X178242000Y-109444085D01*
X178496000Y-109444085D01*
X178496000Y-110587000D01*
X178516000Y-110587000D01*
X178516000Y-110841000D01*
X178496000Y-110841000D01*
X178496000Y-111983915D01*
X178718039Y-112105904D01*
X179106423Y-111945041D01*
X179521389Y-111569134D01*
X179618053Y-111364892D01*
X179874423Y-111748577D01*
X180349091Y-112065740D01*
X180767667Y-112149000D01*
X181050333Y-112149000D01*
X181468909Y-112065740D01*
X181943577Y-111748577D01*
X182260740Y-111273909D01*
X182372113Y-110714000D01*
X182260740Y-110154091D01*
X181943577Y-109679423D01*
X181468909Y-109362260D01*
X181050333Y-109279000D01*
X180767667Y-109279000D01*
X180349091Y-109362260D01*
X179874423Y-109679423D01*
X179618053Y-110063108D01*
X179521389Y-109858866D01*
X179106423Y-109482959D01*
X178718039Y-109322096D01*
X178496000Y-109444085D01*
X178242000Y-109444085D01*
X178019961Y-109322096D01*
X177631577Y-109482959D01*
X177216611Y-109858866D01*
X177119947Y-110063108D01*
X176863577Y-109679423D01*
X176388909Y-109362260D01*
X175970333Y-109279000D01*
X175687667Y-109279000D01*
X175269091Y-109362260D01*
X174794423Y-109679423D01*
X174559000Y-110031758D01*
X174323577Y-109679423D01*
X173848909Y-109362260D01*
X173430333Y-109279000D01*
X173147667Y-109279000D01*
X172729091Y-109362260D01*
X172254423Y-109679423D01*
X172019000Y-110031758D01*
X171783577Y-109679423D01*
X171308909Y-109362260D01*
X170890333Y-109279000D01*
X170607667Y-109279000D01*
X170189091Y-109362260D01*
X169714423Y-109679423D01*
X169479000Y-110031758D01*
X169243577Y-109679423D01*
X168768909Y-109362260D01*
X168350333Y-109279000D01*
X168067667Y-109279000D01*
X167649091Y-109362260D01*
X167174423Y-109679423D01*
X167034855Y-109888302D01*
X167034000Y-109888132D01*
X166954226Y-109904000D01*
X166865435Y-109921661D01*
X166703577Y-109679423D01*
X166228909Y-109362260D01*
X165810333Y-109279000D01*
X165527667Y-109279000D01*
X165109091Y-109362260D01*
X164634423Y-109679423D01*
X164399000Y-110031758D01*
X164163577Y-109679423D01*
X163688909Y-109362260D01*
X163270333Y-109279000D01*
X162987667Y-109279000D01*
X162569091Y-109362260D01*
X162094423Y-109679423D01*
X161859000Y-110031758D01*
X161623577Y-109679423D01*
X161148909Y-109362260D01*
X160730333Y-109279000D01*
X160447667Y-109279000D01*
X160029091Y-109362260D01*
X159554423Y-109679423D01*
X159319000Y-110031758D01*
X159083577Y-109679423D01*
X158859000Y-109529365D01*
X158859000Y-108489774D01*
X158874868Y-108410000D01*
X158812003Y-108093954D01*
X158632977Y-107826023D01*
X158365046Y-107646997D01*
X158128774Y-107600000D01*
X158049000Y-107584132D01*
X157969226Y-107600000D01*
X153774520Y-107600000D01*
X147994687Y-101820000D01*
X159243216Y-101820000D01*
X159322977Y-101835868D01*
X159402763Y-101820000D01*
X159402774Y-101820000D01*
X159478278Y-101804981D01*
X159639024Y-101773012D01*
X159639034Y-101773005D01*
X159639046Y-101773003D01*
X159787425Y-101673859D01*
X159839329Y-101639180D01*
X159839335Y-101639174D01*
X159906977Y-101593977D01*
X159952161Y-101526355D01*
X164835721Y-96643080D01*
X165109091Y-96825740D01*
X165527667Y-96909000D01*
X165810333Y-96909000D01*
X166228909Y-96825740D01*
X166703577Y-96508577D01*
X166939000Y-96156242D01*
X167174423Y-96508577D01*
X167649091Y-96825740D01*
X168067667Y-96909000D01*
X168350333Y-96909000D01*
X168768909Y-96825740D01*
X169243577Y-96508577D01*
X169479000Y-96156242D01*
X169714423Y-96508577D01*
X170189091Y-96825740D01*
X170607667Y-96909000D01*
X170890333Y-96909000D01*
X171308909Y-96825740D01*
X171783577Y-96508577D01*
X172019000Y-96156242D01*
X172254423Y-96508577D01*
X172729091Y-96825740D01*
X173147667Y-96909000D01*
X173430333Y-96909000D01*
X173848909Y-96825740D01*
X174323577Y-96508577D01*
X174559000Y-96156242D01*
X174794423Y-96508577D01*
X175269091Y-96825740D01*
X175687667Y-96909000D01*
X175970333Y-96909000D01*
X176388909Y-96825740D01*
X176863577Y-96508577D01*
X177099000Y-96156242D01*
X177334423Y-96508577D01*
X177809091Y-96825740D01*
X178227667Y-96909000D01*
X178510333Y-96909000D01*
X178928909Y-96825740D01*
X179403577Y-96508577D01*
X179639000Y-96156242D01*
X179874423Y-96508577D01*
X180349091Y-96825740D01*
X180767667Y-96909000D01*
X181050333Y-96909000D01*
X181468909Y-96825740D01*
X181943577Y-96508577D01*
X182260740Y-96033909D01*
X182372113Y-95474000D01*
X182260740Y-94914091D01*
X181943577Y-94439423D01*
X181468909Y-94122260D01*
X181050333Y-94039000D01*
X180767667Y-94039000D01*
X180349091Y-94122260D01*
X179874423Y-94439423D01*
X179639000Y-94791758D01*
X179403577Y-94439423D01*
X178928909Y-94122260D01*
X178510333Y-94039000D01*
X178227667Y-94039000D01*
X177809091Y-94122260D01*
X177334423Y-94439423D01*
X177099000Y-94791758D01*
X176863577Y-94439423D01*
X176388909Y-94122260D01*
X175970333Y-94039000D01*
X175687667Y-94039000D01*
X175269091Y-94122260D01*
X174794423Y-94439423D01*
X174559000Y-94791758D01*
X174323577Y-94439423D01*
X173848909Y-94122260D01*
X173430333Y-94039000D01*
X173147667Y-94039000D01*
X172729091Y-94122260D01*
X172254423Y-94439423D01*
X172019000Y-94791758D01*
X171783577Y-94439423D01*
X171341296Y-94143900D01*
X172236450Y-94143900D01*
X172330988Y-94162706D01*
X172425539Y-94143900D01*
X172425549Y-94143900D01*
X172581887Y-94112803D01*
X172705561Y-94088204D01*
X172705564Y-94088202D01*
X172705573Y-94088200D01*
X172921146Y-93944159D01*
X172942956Y-93929586D01*
X172942957Y-93929585D01*
X173023121Y-93876021D01*
X173076678Y-93795868D01*
X176534638Y-90338000D01*
X178569604Y-90338000D01*
X178826138Y-90594534D01*
X179353561Y-90813000D01*
X179924439Y-90813000D01*
X180451862Y-90594534D01*
X180855534Y-90190862D01*
X181074000Y-89663439D01*
X181074000Y-89092561D01*
X180855534Y-88565138D01*
X180451862Y-88161466D01*
X179924439Y-87943000D01*
X179353561Y-87943000D01*
X178826138Y-88161466D01*
X178569604Y-88418000D01*
X177097000Y-88418000D01*
X177097000Y-80958000D01*
X178191560Y-80958000D01*
X178191560Y-82558000D01*
X178240843Y-82805765D01*
X178381191Y-83015809D01*
X178591235Y-83156157D01*
X178839000Y-83205440D01*
X180439000Y-83205440D01*
X180686765Y-83156157D01*
X180896809Y-83015809D01*
X181037157Y-82805765D01*
X181086440Y-82558000D01*
X181086440Y-80958000D01*
X181037157Y-80710235D01*
X180896809Y-80500191D01*
X180686765Y-80359843D01*
X180439000Y-80310560D01*
X178839000Y-80310560D01*
X178591235Y-80359843D01*
X178381191Y-80500191D01*
X178240843Y-80710235D01*
X178191560Y-80958000D01*
X177097000Y-80958000D01*
X177097000Y-75130527D01*
X177115806Y-75035965D01*
X177081122Y-74861628D01*
X177041300Y-74661427D01*
X177041289Y-74661411D01*
X177041286Y-74661394D01*
X176942456Y-74513497D01*
X176829121Y-74343879D01*
X176748950Y-74290311D01*
X171455000Y-68996736D01*
X171455000Y-66787043D01*
X171460525Y-66611306D01*
X171421076Y-66506903D01*
X171399300Y-66397427D01*
X171354215Y-66329953D01*
X171325534Y-66254047D01*
X171249131Y-66172684D01*
X171187121Y-66079879D01*
X171040921Y-65982191D01*
X169670179Y-65002615D01*
X169697154Y-64867000D01*
X169616137Y-64459700D01*
X171045075Y-64459700D01*
X171044132Y-64464440D01*
X171069605Y-64592468D01*
X171075539Y-64641301D01*
X171085136Y-64670527D01*
X171107013Y-64780483D01*
X171134987Y-64822345D01*
X171150694Y-64870178D01*
X171223767Y-64955198D01*
X171240861Y-64980778D01*
X171275651Y-65015564D01*
X171360733Y-65114557D01*
X171388892Y-65128794D01*
X174630611Y-68370197D01*
X174594846Y-68550000D01*
X174698458Y-69070891D01*
X174993519Y-69512481D01*
X175435109Y-69807542D01*
X175824515Y-69885000D01*
X176087485Y-69885000D01*
X176476891Y-69807542D01*
X176918481Y-69512481D01*
X177213542Y-69070891D01*
X177317154Y-68550000D01*
X177213542Y-68029109D01*
X176918481Y-67587519D01*
X176476891Y-67292458D01*
X176087485Y-67215000D01*
X175824515Y-67215000D01*
X175776075Y-67224635D01*
X175228137Y-66676750D01*
X178889000Y-66676750D01*
X178889000Y-67267310D01*
X178985673Y-67500699D01*
X179164302Y-67679327D01*
X179397691Y-67776000D01*
X179470313Y-67776000D01*
X179099853Y-68146460D01*
X178889000Y-68655506D01*
X178889000Y-69206494D01*
X179099853Y-69715540D01*
X179489460Y-70105147D01*
X179720870Y-70201000D01*
X179489460Y-70296853D01*
X179099853Y-70686460D01*
X178889000Y-71195506D01*
X178889000Y-71746494D01*
X179099853Y-72255540D01*
X179489460Y-72645147D01*
X179998506Y-72856000D01*
X180549494Y-72856000D01*
X181058540Y-72645147D01*
X181448147Y-72255540D01*
X181659000Y-71746494D01*
X181659000Y-71195506D01*
X181448147Y-70686460D01*
X181058540Y-70296853D01*
X180827130Y-70201000D01*
X181058540Y-70105147D01*
X181448147Y-69715540D01*
X181659000Y-69206494D01*
X181659000Y-68655506D01*
X181448147Y-68146460D01*
X181077687Y-67776000D01*
X181150309Y-67776000D01*
X181383698Y-67679327D01*
X181562327Y-67500699D01*
X181659000Y-67267310D01*
X181659000Y-66676750D01*
X181500250Y-66518000D01*
X180401000Y-66518000D01*
X180401000Y-66538000D01*
X180147000Y-66538000D01*
X180147000Y-66518000D01*
X179047750Y-66518000D01*
X178889000Y-66676750D01*
X175228137Y-66676750D01*
X173152634Y-64601452D01*
X174621000Y-64601452D01*
X174621000Y-65132548D01*
X174824242Y-65623217D01*
X175199783Y-65998758D01*
X175690452Y-66202000D01*
X176221548Y-66202000D01*
X176712217Y-65998758D01*
X177087758Y-65623217D01*
X177132711Y-65514690D01*
X178889000Y-65514690D01*
X178889000Y-66105250D01*
X179047750Y-66264000D01*
X180147000Y-66264000D01*
X180147000Y-65164750D01*
X180401000Y-65164750D01*
X180401000Y-66264000D01*
X181500250Y-66264000D01*
X181659000Y-66105250D01*
X181659000Y-65514690D01*
X181562327Y-65281301D01*
X181383698Y-65102673D01*
X181150309Y-65006000D01*
X180559750Y-65006000D01*
X180401000Y-65164750D01*
X180147000Y-65164750D01*
X179988250Y-65006000D01*
X179397691Y-65006000D01*
X179164302Y-65102673D01*
X178985673Y-65281301D01*
X178889000Y-65514690D01*
X177132711Y-65514690D01*
X177291000Y-65132548D01*
X177291000Y-64601452D01*
X177087758Y-64110783D01*
X176712217Y-63735242D01*
X176221548Y-63532000D01*
X175690452Y-63532000D01*
X175199783Y-63735242D01*
X174824242Y-64110783D01*
X174621000Y-64601452D01*
X173152634Y-64601452D01*
X172640370Y-64089239D01*
X172608563Y-63827496D01*
X172612598Y-63806906D01*
X172643868Y-63649700D01*
X172643635Y-63648526D01*
X172643864Y-63647355D01*
X172612260Y-63490795D01*
X172581003Y-63333654D01*
X172580338Y-63332659D01*
X172580102Y-63331490D01*
X172491094Y-63199096D01*
X172401977Y-63065723D01*
X172343370Y-63026563D01*
X172279168Y-62950712D01*
X172175771Y-62897448D01*
X172078879Y-62833104D01*
X172033664Y-62824243D01*
X171992705Y-62803144D01*
X171876797Y-62793503D01*
X171762657Y-62771136D01*
X171717493Y-62780253D01*
X171671577Y-62776434D01*
X171560802Y-62811883D01*
X171476987Y-62828802D01*
X171452000Y-62823832D01*
X171372226Y-62839700D01*
X143333720Y-62839700D01*
X143253893Y-62823832D01*
X143095566Y-62855346D01*
X142937954Y-62886697D01*
X142937909Y-62886727D01*
X142937855Y-62886738D01*
X142806469Y-62974552D01*
X142670023Y-63065723D01*
X142624804Y-63133398D01*
X141238197Y-64520362D01*
X141007418Y-64366161D01*
X140574256Y-64280000D01*
X140281744Y-64280000D01*
X139848582Y-64366161D01*
X139357375Y-64694375D01*
X139158000Y-64992761D01*
X138958625Y-64694375D01*
X138467418Y-64366161D01*
X138034256Y-64280000D01*
X137741744Y-64280000D01*
X137308582Y-64366161D01*
X137052873Y-64537020D01*
X135879202Y-63363007D01*
X135833977Y-63295323D01*
X135693663Y-63201568D01*
X135566157Y-63116344D01*
X135566099Y-63116332D01*
X135566046Y-63116297D01*
X135405088Y-63084281D01*
X135250120Y-63053432D01*
X135170285Y-63069300D01*
X125330789Y-63069300D01*
X125251030Y-63053432D01*
X125171241Y-63069300D01*
X125171226Y-63069300D01*
X125089838Y-63085489D01*
X124934981Y-63116286D01*
X124934969Y-63116294D01*
X124934954Y-63116297D01*
X124798872Y-63207224D01*
X124734675Y-63250116D01*
X124734665Y-63250126D01*
X124667023Y-63295323D01*
X124621842Y-63362941D01*
X123461878Y-64522822D01*
X123342054Y-64442758D01*
X126171812Y-61613000D01*
X168235560Y-61613000D01*
X168235560Y-61653000D01*
X168284843Y-61900765D01*
X168425191Y-62110809D01*
X168635235Y-62251157D01*
X168883000Y-62300440D01*
X170583000Y-62300440D01*
X170830765Y-62251157D01*
X171040809Y-62110809D01*
X171181157Y-61900765D01*
X171190184Y-61855381D01*
X171202375Y-61873625D01*
X171693582Y-62201839D01*
X172126744Y-62288000D01*
X172419256Y-62288000D01*
X172852418Y-62201839D01*
X173343625Y-61873625D01*
X173543000Y-61575239D01*
X173742375Y-61873625D01*
X174233582Y-62201839D01*
X174666744Y-62288000D01*
X174959256Y-62288000D01*
X175392418Y-62201839D01*
X175883625Y-61873625D01*
X176211839Y-61382418D01*
X176327092Y-60803000D01*
X176211839Y-60223582D01*
X175883625Y-59732375D01*
X175392418Y-59404161D01*
X174959256Y-59318000D01*
X174666744Y-59318000D01*
X174233582Y-59404161D01*
X173742375Y-59732375D01*
X173543000Y-60030761D01*
X173343625Y-59732375D01*
X172852418Y-59404161D01*
X172419256Y-59318000D01*
X172126744Y-59318000D01*
X171693582Y-59404161D01*
X171202375Y-59732375D01*
X171190184Y-59750619D01*
X171181157Y-59705235D01*
X171040809Y-59495191D01*
X170830765Y-59354843D01*
X170583000Y-59305560D01*
X168883000Y-59305560D01*
X168635235Y-59354843D01*
X168425191Y-59495191D01*
X168284843Y-59705235D01*
X168235560Y-59953000D01*
X168235560Y-59993000D01*
X125916069Y-59993000D01*
X125836299Y-59977133D01*
X125756530Y-59993000D01*
X125756526Y-59993000D01*
X125520254Y-60039997D01*
X125252323Y-60219023D01*
X125207132Y-60286656D01*
X120951304Y-64542484D01*
X120687418Y-64366161D01*
X120254256Y-64280000D01*
X119961744Y-64280000D01*
X119528582Y-64366161D01*
X119037375Y-64694375D01*
X118838000Y-64992761D01*
X118638625Y-64694375D01*
X118147418Y-64366161D01*
X117714256Y-64280000D01*
X117421744Y-64280000D01*
X116988582Y-64366161D01*
X116497375Y-64694375D01*
X116284157Y-65013478D01*
X116223183Y-64883642D01*
X115794924Y-64493355D01*
X115384890Y-64323524D01*
X115155000Y-64444845D01*
X115155000Y-65638000D01*
X115175000Y-65638000D01*
X115175000Y-65892000D01*
X115155000Y-65892000D01*
X115155000Y-65912000D01*
X114901000Y-65912000D01*
X114901000Y-65892000D01*
X112615000Y-65892000D01*
X112615000Y-65912000D01*
X112361000Y-65912000D01*
X112361000Y-65892000D01*
X111167181Y-65892000D01*
X111046514Y-66121892D01*
X111292817Y-66646358D01*
X111499855Y-66835039D01*
X111390235Y-66856843D01*
X111180191Y-66997191D01*
X111039843Y-67207235D01*
X110990560Y-67455000D01*
X110990560Y-69155000D01*
X111039843Y-69402765D01*
X111180191Y-69612809D01*
X111390235Y-69753157D01*
X111638000Y-69802440D01*
X113338000Y-69802440D01*
X113585765Y-69753157D01*
X113795809Y-69612809D01*
X113936157Y-69402765D01*
X113945184Y-69357381D01*
X113957375Y-69375625D01*
X114448582Y-69703839D01*
X114881744Y-69790000D01*
X115174256Y-69790000D01*
X115607418Y-69703839D01*
X116098625Y-69375625D01*
X116298000Y-69077239D01*
X116497375Y-69375625D01*
X116988582Y-69703839D01*
X117421744Y-69790000D01*
X117714256Y-69790000D01*
X118147418Y-69703839D01*
X118638625Y-69375625D01*
X118838000Y-69077239D01*
X119037375Y-69375625D01*
X119528582Y-69703839D01*
X119961744Y-69790000D01*
X120254256Y-69790000D01*
X120687418Y-69703839D01*
X121178625Y-69375625D01*
X121378000Y-69077239D01*
X121577375Y-69375625D01*
X122068582Y-69703839D01*
X122501744Y-69790000D01*
X122794256Y-69790000D01*
X123227418Y-69703839D01*
X123718625Y-69375625D01*
X123918000Y-69077239D01*
X124117375Y-69375625D01*
X124608582Y-69703839D01*
X125041744Y-69790000D01*
X125334256Y-69790000D01*
X125767418Y-69703839D01*
X126030824Y-69527836D01*
X130756075Y-74253087D01*
X130378724Y-74000950D01*
X129794000Y-73884641D01*
X129209275Y-74000950D01*
X128713570Y-74332170D01*
X128382350Y-74827876D01*
X128295400Y-75265003D01*
X128295400Y-75864998D01*
X128382350Y-76302125D01*
X128713570Y-76797830D01*
X129209276Y-77129050D01*
X129794000Y-77245359D01*
X130378725Y-77129050D01*
X130874430Y-76797830D01*
X131064000Y-76514119D01*
X131253570Y-76797830D01*
X131749276Y-77129050D01*
X132334000Y-77245359D01*
X132918725Y-77129050D01*
X133414430Y-76797830D01*
X133604000Y-76514119D01*
X133793570Y-76797830D01*
X134289276Y-77129050D01*
X134874000Y-77245359D01*
X135458725Y-77129050D01*
X135954430Y-76797830D01*
X136147909Y-76508267D01*
X136511964Y-76915732D01*
X137039209Y-77169709D01*
X137054974Y-77172358D01*
X137287000Y-77051217D01*
X137287000Y-75692000D01*
X137267000Y-75692000D01*
X137267000Y-75438000D01*
X137287000Y-75438000D01*
X137287000Y-75418000D01*
X137541000Y-75418000D01*
X137541000Y-75438000D01*
X137561000Y-75438000D01*
X137561000Y-75692000D01*
X137541000Y-75692000D01*
X137541000Y-77051217D01*
X137773026Y-77172358D01*
X137788791Y-77169709D01*
X138316036Y-76915732D01*
X138680090Y-76508268D01*
X138873570Y-76797830D01*
X139369276Y-77129050D01*
X139954000Y-77245359D01*
X140538725Y-77129050D01*
X140812406Y-76946182D01*
X141937860Y-78071387D01*
X141983023Y-78138977D01*
X142050689Y-78184190D01*
X142050722Y-78184223D01*
X142117571Y-78228879D01*
X142250954Y-78318003D01*
X142251000Y-78318012D01*
X142251039Y-78318038D01*
X142408632Y-78349367D01*
X142487226Y-78365000D01*
X142487271Y-78365000D01*
X142567092Y-78380868D01*
X142646819Y-78365000D01*
X161695257Y-78365000D01*
X161775062Y-78380868D01*
X161925684Y-78350895D01*
X162091046Y-78318003D01*
X162091075Y-78317984D01*
X162091103Y-78317978D01*
X162215959Y-78234539D01*
X162358977Y-78138977D01*
X162404184Y-78071320D01*
X163509304Y-76966033D01*
X163753276Y-77129050D01*
X164338000Y-77245359D01*
X164922725Y-77129050D01*
X165418430Y-76797830D01*
X165608000Y-76514119D01*
X165797570Y-76797830D01*
X166293276Y-77129050D01*
X166878000Y-77245359D01*
X167338000Y-77153859D01*
X167338000Y-79388798D01*
X165673370Y-81053501D01*
X165652864Y-81003995D01*
X165406745Y-80929861D01*
X164578605Y-81758000D01*
X164592748Y-81772143D01*
X164413143Y-81951748D01*
X164399000Y-81937605D01*
X163570861Y-82765745D01*
X163644995Y-83011864D01*
X163696560Y-83030398D01*
X160966478Y-85760600D01*
X159444785Y-85760600D01*
X159365024Y-85744732D01*
X159285238Y-85760600D01*
X159285226Y-85760600D01*
X159206280Y-85776303D01*
X159048976Y-85807588D01*
X159048966Y-85807595D01*
X159048954Y-85807597D01*
X158900575Y-85906741D01*
X158848671Y-85941420D01*
X158848665Y-85941426D01*
X158781023Y-85986623D01*
X158735839Y-86054245D01*
X157412548Y-87377458D01*
X157176635Y-87141545D01*
X156832983Y-86999200D01*
X156461017Y-86999200D01*
X156159240Y-87124200D01*
X151403477Y-87124200D01*
X151340330Y-86806602D01*
X151181729Y-86569197D01*
X150584704Y-85972071D01*
X150531121Y-85891879D01*
X150365987Y-85781540D01*
X150213649Y-85679732D01*
X150213609Y-85679724D01*
X150213573Y-85679700D01*
X150016704Y-85640540D01*
X149839081Y-85605194D01*
X149744495Y-85624000D01*
X149100408Y-85624000D01*
X149050577Y-85549423D01*
X148698242Y-85314000D01*
X149050577Y-85078577D01*
X149367740Y-84603909D01*
X149479113Y-84044000D01*
X149367740Y-83484091D01*
X149050577Y-83009423D01*
X148666892Y-82753053D01*
X148871134Y-82656389D01*
X149247041Y-82241423D01*
X149407904Y-81853039D01*
X149285915Y-81631000D01*
X148143000Y-81631000D01*
X148143000Y-81651000D01*
X147889000Y-81651000D01*
X147889000Y-81631000D01*
X146746085Y-81631000D01*
X146624096Y-81853039D01*
X146784959Y-82241423D01*
X147160866Y-82656389D01*
X147365108Y-82753053D01*
X146981423Y-83009423D01*
X146664260Y-83484091D01*
X146552887Y-84044000D01*
X146664260Y-84603909D01*
X146981423Y-85078577D01*
X147333758Y-85314000D01*
X146981423Y-85549423D01*
X146664260Y-86024091D01*
X146552887Y-86584000D01*
X146660340Y-87124200D01*
X141751660Y-87124200D01*
X141859113Y-86584000D01*
X141747740Y-86024091D01*
X141430577Y-85549423D01*
X141078242Y-85314000D01*
X141430577Y-85078577D01*
X141747740Y-84603909D01*
X141859113Y-84044000D01*
X141747740Y-83484091D01*
X141430577Y-83009423D01*
X141078242Y-82774000D01*
X141430577Y-82538577D01*
X141747740Y-82063909D01*
X141851708Y-81541223D01*
X162952035Y-81541223D01*
X162979222Y-82111454D01*
X163145136Y-82512005D01*
X163391255Y-82586139D01*
X164219395Y-81758000D01*
X163391255Y-80929861D01*
X163145136Y-81003995D01*
X162952035Y-81541223D01*
X141851708Y-81541223D01*
X141859113Y-81504000D01*
X141789685Y-81154961D01*
X146624096Y-81154961D01*
X146746085Y-81377000D01*
X147889000Y-81377000D01*
X147889000Y-80233371D01*
X148143000Y-80233371D01*
X148143000Y-81377000D01*
X149285915Y-81377000D01*
X149407904Y-81154961D01*
X149247041Y-80766577D01*
X149232256Y-80750255D01*
X163570861Y-80750255D01*
X164399000Y-81578395D01*
X165227139Y-80750255D01*
X165153005Y-80504136D01*
X164615777Y-80311035D01*
X164045546Y-80338222D01*
X163644995Y-80504136D01*
X163570861Y-80750255D01*
X149232256Y-80750255D01*
X148871134Y-80351611D01*
X148365041Y-80112086D01*
X148143000Y-80233371D01*
X147889000Y-80233371D01*
X147666959Y-80112086D01*
X147160866Y-80351611D01*
X146784959Y-80766577D01*
X146624096Y-81154961D01*
X141789685Y-81154961D01*
X141747740Y-80944091D01*
X141430577Y-80469423D01*
X140955909Y-80152260D01*
X140537333Y-80069000D01*
X140254667Y-80069000D01*
X139836091Y-80152260D01*
X139361423Y-80469423D01*
X139044260Y-80944091D01*
X138932887Y-81504000D01*
X139044260Y-82063909D01*
X139361423Y-82538577D01*
X139713758Y-82774000D01*
X139361423Y-83009423D01*
X139044260Y-83484091D01*
X138932887Y-84044000D01*
X139044260Y-84603909D01*
X139361423Y-85078577D01*
X139713758Y-85314000D01*
X139361423Y-85549423D01*
X139044260Y-86024091D01*
X138932887Y-86584000D01*
X139040340Y-87124200D01*
X137923373Y-87124200D01*
X136866100Y-86067554D01*
X136820977Y-86000023D01*
X136753245Y-85954766D01*
X136753161Y-85954682D01*
X136688351Y-85911405D01*
X136553046Y-85820997D01*
X136552922Y-85820972D01*
X136552820Y-85820904D01*
X136395411Y-85789642D01*
X136316774Y-85774000D01*
X136316653Y-85774000D01*
X136236756Y-85758132D01*
X136236117Y-85758259D01*
X136096577Y-85549423D01*
X135854391Y-85387600D01*
X135887868Y-85219300D01*
X135887645Y-85218181D01*
X136096577Y-85078577D01*
X136413740Y-84603909D01*
X136525113Y-84044000D01*
X136413740Y-83484091D01*
X136096577Y-83009423D01*
X135744242Y-82774000D01*
X136096577Y-82538577D01*
X136413740Y-82063909D01*
X136525113Y-81504000D01*
X136413740Y-80944091D01*
X136096577Y-80469423D01*
X135621909Y-80152260D01*
X135203333Y-80069000D01*
X134920667Y-80069000D01*
X134502091Y-80152260D01*
X134027423Y-80469423D01*
X133977592Y-80544000D01*
X133831607Y-80544000D01*
X133737118Y-80525193D01*
X133642509Y-80544000D01*
X133642451Y-80544000D01*
X133550468Y-80562297D01*
X133362535Y-80599655D01*
X133362485Y-80599688D01*
X133362427Y-80599700D01*
X133201777Y-80707043D01*
X133125124Y-80758248D01*
X133125085Y-80758287D01*
X133044879Y-80811879D01*
X132991352Y-80891988D01*
X130228086Y-83654586D01*
X130147879Y-83708179D01*
X130039359Y-83870591D01*
X129935746Y-84025618D01*
X129935734Y-84025677D01*
X129935700Y-84025728D01*
X129897409Y-84218229D01*
X129861194Y-84400182D01*
X129880000Y-84494787D01*
X129880001Y-95487987D01*
X128858491Y-96509617D01*
X128793740Y-96184091D01*
X128476577Y-95709423D01*
X128124242Y-95474000D01*
X128476577Y-95238577D01*
X128793740Y-94763909D01*
X128905113Y-94204000D01*
X128793740Y-93644091D01*
X128476577Y-93169423D01*
X128124242Y-92934000D01*
X128476577Y-92698577D01*
X128793740Y-92223909D01*
X128905113Y-91664000D01*
X128793740Y-91104091D01*
X128476577Y-90629423D01*
X128124242Y-90394000D01*
X128476577Y-90158577D01*
X128793740Y-89683909D01*
X128905113Y-89124000D01*
X128793740Y-88564091D01*
X128589352Y-88258203D01*
X129143302Y-87704396D01*
X129210977Y-87659177D01*
X129302148Y-87522731D01*
X129389962Y-87391345D01*
X129389973Y-87391291D01*
X129390003Y-87391246D01*
X129421501Y-87232895D01*
X129452868Y-87075306D01*
X129437000Y-86995479D01*
X129437000Y-83578569D01*
X129452867Y-83498698D01*
X129421992Y-83343674D01*
X129390003Y-83182854D01*
X129389945Y-83182767D01*
X129389925Y-83182667D01*
X129300587Y-83049034D01*
X129210977Y-82914923D01*
X129143266Y-82869680D01*
X128610890Y-82337564D01*
X128793740Y-82063909D01*
X128905113Y-81504000D01*
X128793740Y-80944091D01*
X128476577Y-80469423D01*
X128001909Y-80152260D01*
X127583333Y-80069000D01*
X127300667Y-80069000D01*
X126882091Y-80152260D01*
X126407423Y-80469423D01*
X126090260Y-80944091D01*
X125978887Y-81504000D01*
X126090260Y-82063909D01*
X126407423Y-82538577D01*
X126616355Y-82678181D01*
X126616132Y-82679300D01*
X126649609Y-82847600D01*
X126407423Y-83009423D01*
X126267854Y-83218302D01*
X126266999Y-83218132D01*
X126187226Y-83234000D01*
X125950954Y-83280997D01*
X125683023Y-83460023D01*
X125637834Y-83527653D01*
X124788488Y-84377000D01*
X121981000Y-84377000D01*
X121981000Y-72360000D01*
X121971333Y-72311399D01*
X121943803Y-72270197D01*
X121902601Y-72242667D01*
X121854000Y-72233000D01*
X87310000Y-72233000D01*
X87310000Y-66861000D01*
X99324560Y-66861000D01*
X99324560Y-68461000D01*
X99373843Y-68708765D01*
X99514191Y-68918809D01*
X99724235Y-69059157D01*
X99972000Y-69108440D01*
X101572000Y-69108440D01*
X101819765Y-69059157D01*
X102029809Y-68918809D01*
X102170157Y-68708765D01*
X102219440Y-68461000D01*
X102219440Y-66861000D01*
X102170157Y-66613235D01*
X102029809Y-66403191D01*
X101819765Y-66262843D01*
X101585813Y-66216307D01*
X101600139Y-66168745D01*
X100772000Y-65340605D01*
X99943861Y-66168745D01*
X99958187Y-66216307D01*
X99724235Y-66262843D01*
X99514191Y-66403191D01*
X99373843Y-66613235D01*
X99324560Y-66861000D01*
X87310000Y-66861000D01*
X87310000Y-64944223D01*
X99325035Y-64944223D01*
X99352222Y-65514454D01*
X99518136Y-65915005D01*
X99764255Y-65989139D01*
X100592395Y-65161000D01*
X100951605Y-65161000D01*
X101779745Y-65989139D01*
X102025864Y-65915005D01*
X102208062Y-65408108D01*
X111046514Y-65408108D01*
X111167181Y-65638000D01*
X112361000Y-65638000D01*
X112361000Y-64444845D01*
X112615000Y-64444845D01*
X112615000Y-65638000D01*
X114901000Y-65638000D01*
X114901000Y-64444845D01*
X114671110Y-64323524D01*
X114261076Y-64493355D01*
X113832817Y-64883642D01*
X113758000Y-65042954D01*
X113683183Y-64883642D01*
X113254924Y-64493355D01*
X112844890Y-64323524D01*
X112615000Y-64444845D01*
X112361000Y-64444845D01*
X112131110Y-64323524D01*
X111721076Y-64493355D01*
X111292817Y-64883642D01*
X111046514Y-65408108D01*
X102208062Y-65408108D01*
X102218965Y-65377777D01*
X102191778Y-64807546D01*
X102025864Y-64406995D01*
X101779745Y-64332861D01*
X100951605Y-65161000D01*
X100592395Y-65161000D01*
X99764255Y-64332861D01*
X99518136Y-64406995D01*
X99325035Y-64944223D01*
X87310000Y-64944223D01*
X87310000Y-64153255D01*
X99943861Y-64153255D01*
X100772000Y-64981395D01*
X101600139Y-64153255D01*
X101526005Y-63907136D01*
X100988777Y-63714035D01*
X100418546Y-63741222D01*
X100017995Y-63907136D01*
X99943861Y-64153255D01*
X87310000Y-64153255D01*
X87310000Y-59164501D01*
X89391000Y-59164501D01*
X89391000Y-60225499D01*
X89797026Y-61205734D01*
X90547266Y-61955974D01*
X91527501Y-62362000D01*
X92588499Y-62362000D01*
X93568734Y-61955974D01*
X94318974Y-61205734D01*
X94725000Y-60225499D01*
X94725000Y-59164501D01*
X94708432Y-59124501D01*
X178381000Y-59124501D01*
X178381000Y-60185499D01*
X178787026Y-61165734D01*
X179537266Y-61915974D01*
X180517501Y-62322000D01*
X181578499Y-62322000D01*
X182558734Y-61915974D01*
X183308974Y-61165734D01*
X183715000Y-60185499D01*
X183715000Y-59124501D01*
X183308974Y-58144266D01*
X182558734Y-57394026D01*
X181578499Y-56988000D01*
X180517501Y-56988000D01*
X179537266Y-57394026D01*
X178787026Y-58144266D01*
X178381000Y-59124501D01*
X94708432Y-59124501D01*
X94318974Y-58184266D01*
X93568734Y-57434026D01*
X92588499Y-57028000D01*
X91527501Y-57028000D01*
X90547266Y-57434026D01*
X89797026Y-58184266D01*
X89391000Y-59164501D01*
X87310000Y-59164501D01*
X87310000Y-56103837D01*
X185735000Y-55977164D01*
X185735000Y-129129000D01*
G36*
X134379758Y-82774000D02*
X134027423Y-83009423D01*
X133710260Y-83484091D01*
X133598887Y-84044000D01*
X133710260Y-84603909D01*
X133892328Y-84876394D01*
X132753703Y-86014701D01*
X132686023Y-86059923D01*
X132594649Y-86196674D01*
X132507042Y-86327747D01*
X132507030Y-86327805D01*
X132506997Y-86327855D01*
X132475360Y-86486904D01*
X132444132Y-86643785D01*
X132460000Y-86723617D01*
X132460001Y-94042106D01*
X132444132Y-94121870D01*
X132460001Y-94201664D01*
X132460001Y-94201674D01*
X132471187Y-94257909D01*
X132506986Y-94437918D01*
X132506995Y-94437932D01*
X132506998Y-94437946D01*
X132593638Y-94567613D01*
X132640816Y-94638224D01*
X132640827Y-94638235D01*
X132686024Y-94705877D01*
X132753641Y-94751057D01*
X133901051Y-95898552D01*
X133710260Y-96184091D01*
X133598887Y-96744000D01*
X133710260Y-97303909D01*
X134027423Y-97778577D01*
X134148106Y-97859215D01*
X134014235Y-97885843D01*
X133804191Y-98026191D01*
X133663843Y-98236235D01*
X133646540Y-98323225D01*
X133642638Y-98324000D01*
X133642451Y-98324000D01*
X133547624Y-98342862D01*
X133362767Y-98379560D01*
X133362613Y-98379663D01*
X133362427Y-98379700D01*
X133203745Y-98485728D01*
X133125314Y-98538091D01*
X133125184Y-98538221D01*
X133044879Y-98591879D01*
X132991424Y-98671881D01*
X132013568Y-99649000D01*
X128832510Y-99649000D01*
X128905113Y-99284000D01*
X128887600Y-99195955D01*
X131451992Y-96631261D01*
X131532121Y-96577721D01*
X131585693Y-96497545D01*
X131585715Y-96497523D01*
X131643760Y-96410642D01*
X131744300Y-96260173D01*
X131744305Y-96260146D01*
X131744322Y-96260121D01*
X131782270Y-96069286D01*
X131800000Y-95980149D01*
X131800000Y-95980122D01*
X131818807Y-95885543D01*
X131800000Y-95791022D01*
X131800000Y-84798012D01*
X134046939Y-82551617D01*
X134379758Y-82774000D01*
X134379758Y-82774000D01*
G37*
X134379758Y-82774000D02*
X134027423Y-83009423D01*
X133710260Y-83484091D01*
X133598887Y-84044000D01*
X133710260Y-84603909D01*
X133892328Y-84876394D01*
X132753703Y-86014701D01*
X132686023Y-86059923D01*
X132594649Y-86196674D01*
X132507042Y-86327747D01*
X132507030Y-86327805D01*
X132506997Y-86327855D01*
X132475360Y-86486904D01*
X132444132Y-86643785D01*
X132460000Y-86723617D01*
X132460001Y-94042106D01*
X132444132Y-94121870D01*
X132460001Y-94201664D01*
X132460001Y-94201674D01*
X132471187Y-94257909D01*
X132506986Y-94437918D01*
X132506995Y-94437932D01*
X132506998Y-94437946D01*
X132593638Y-94567613D01*
X132640816Y-94638224D01*
X132640827Y-94638235D01*
X132686024Y-94705877D01*
X132753641Y-94751057D01*
X133901051Y-95898552D01*
X133710260Y-96184091D01*
X133598887Y-96744000D01*
X133710260Y-97303909D01*
X134027423Y-97778577D01*
X134148106Y-97859215D01*
X134014235Y-97885843D01*
X133804191Y-98026191D01*
X133663843Y-98236235D01*
X133646540Y-98323225D01*
X133642638Y-98324000D01*
X133642451Y-98324000D01*
X133547624Y-98342862D01*
X133362767Y-98379560D01*
X133362613Y-98379663D01*
X133362427Y-98379700D01*
X133203745Y-98485728D01*
X133125314Y-98538091D01*
X133125184Y-98538221D01*
X133044879Y-98591879D01*
X132991424Y-98671881D01*
X132013568Y-99649000D01*
X128832510Y-99649000D01*
X128905113Y-99284000D01*
X128887600Y-99195955D01*
X131451992Y-96631261D01*
X131532121Y-96577721D01*
X131585693Y-96497545D01*
X131585715Y-96497523D01*
X131643760Y-96410642D01*
X131744300Y-96260173D01*
X131744305Y-96260146D01*
X131744322Y-96260121D01*
X131782270Y-96069286D01*
X131800000Y-95980149D01*
X131800000Y-95980122D01*
X131818807Y-95885543D01*
X131800000Y-95791022D01*
X131800000Y-84798012D01*
X134046939Y-82551617D01*
X134379758Y-82774000D01*
G36*
X126407423Y-90158577D02*
X126759758Y-90394000D01*
X126407423Y-90629423D01*
X126090260Y-91104091D01*
X125978887Y-91664000D01*
X126090260Y-92223909D01*
X126407423Y-92698577D01*
X126759758Y-92934000D01*
X126407423Y-93169423D01*
X126090260Y-93644091D01*
X125978887Y-94204000D01*
X126090260Y-94763909D01*
X126407423Y-95238577D01*
X126759758Y-95474000D01*
X126407423Y-95709423D01*
X126090260Y-96184091D01*
X125978887Y-96744000D01*
X126090260Y-97303909D01*
X126407423Y-97778577D01*
X126759758Y-98014000D01*
X126407423Y-98249423D01*
X126090260Y-98724091D01*
X125978887Y-99284000D01*
X126051490Y-99649000D01*
X121981572Y-99649000D01*
X121981000Y-99648428D01*
X121981000Y-94555512D01*
X126395612Y-90140901D01*
X126407423Y-90158577D01*
X126407423Y-90158577D01*
G37*
X126407423Y-90158577D02*
X126759758Y-90394000D01*
X126407423Y-90629423D01*
X126090260Y-91104091D01*
X125978887Y-91664000D01*
X126090260Y-92223909D01*
X126407423Y-92698577D01*
X126759758Y-92934000D01*
X126407423Y-93169423D01*
X126090260Y-93644091D01*
X125978887Y-94204000D01*
X126090260Y-94763909D01*
X126407423Y-95238577D01*
X126759758Y-95474000D01*
X126407423Y-95709423D01*
X126090260Y-96184091D01*
X125978887Y-96744000D01*
X126090260Y-97303909D01*
X126407423Y-97778577D01*
X126759758Y-98014000D01*
X126407423Y-98249423D01*
X126090260Y-98724091D01*
X125978887Y-99284000D01*
X126051490Y-99649000D01*
X121981572Y-99649000D01*
X121981000Y-99648428D01*
X121981000Y-94555512D01*
X126395612Y-90140901D01*
X126407423Y-90158577D01*
G36*
X146624096Y-88774961D02*
X146746085Y-88997000D01*
X147889000Y-88997000D01*
X147889000Y-88977000D01*
X148143000Y-88977000D01*
X148143000Y-88997000D01*
X149285915Y-88997000D01*
X149407904Y-88774961D01*
X149395163Y-88744200D01*
X156045726Y-88744200D01*
X149062398Y-95727115D01*
X149050577Y-95709423D01*
X148808391Y-95547600D01*
X148826000Y-95459074D01*
X148841868Y-95379300D01*
X148841645Y-95378181D01*
X149050577Y-95238577D01*
X149367740Y-94763909D01*
X149479113Y-94204000D01*
X149367740Y-93644091D01*
X149050577Y-93169423D01*
X148666892Y-92913053D01*
X148871134Y-92816389D01*
X149247041Y-92401423D01*
X149407904Y-92013039D01*
X149285915Y-91791000D01*
X148143000Y-91791000D01*
X148143000Y-91811000D01*
X147889000Y-91811000D01*
X147889000Y-91791000D01*
X146746085Y-91791000D01*
X146624096Y-92013039D01*
X146784959Y-92401423D01*
X147160866Y-92816389D01*
X147365108Y-92913053D01*
X146981423Y-93169423D01*
X146664260Y-93644091D01*
X146552887Y-94204000D01*
X146664260Y-94763909D01*
X146846275Y-95036314D01*
X146321801Y-95560335D01*
X146254023Y-95605623D01*
X146182000Y-95713413D01*
X146182000Y-94967541D01*
X146197867Y-94887743D01*
X146167877Y-94737025D01*
X146135003Y-94571754D01*
X146134987Y-94571730D01*
X146134981Y-94571701D01*
X146045595Y-94437946D01*
X145955977Y-94303823D01*
X145888322Y-94258618D01*
X141601153Y-89972034D01*
X141578187Y-89937663D01*
X141747740Y-89683909D01*
X141789684Y-89473039D01*
X146624096Y-89473039D01*
X146784959Y-89861423D01*
X147160866Y-90276389D01*
X147409367Y-90394000D01*
X147160866Y-90511611D01*
X146784959Y-90926577D01*
X146624096Y-91314961D01*
X146746085Y-91537000D01*
X147889000Y-91537000D01*
X147889000Y-89251000D01*
X148143000Y-89251000D01*
X148143000Y-91537000D01*
X149285915Y-91537000D01*
X149407904Y-91314961D01*
X149247041Y-90926577D01*
X148871134Y-90511611D01*
X148622633Y-90394000D01*
X148871134Y-90276389D01*
X149247041Y-89861423D01*
X149407904Y-89473039D01*
X149285915Y-89251000D01*
X148143000Y-89251000D01*
X147889000Y-89251000D01*
X146746085Y-89251000D01*
X146624096Y-89473039D01*
X141789684Y-89473039D01*
X141859113Y-89124000D01*
X141783566Y-88744200D01*
X146636837Y-88744200D01*
X146624096Y-88774961D01*
X146624096Y-88774961D01*
G37*
X146624096Y-88774961D02*
X146746085Y-88997000D01*
X147889000Y-88997000D01*
X147889000Y-88977000D01*
X148143000Y-88977000D01*
X148143000Y-88997000D01*
X149285915Y-88997000D01*
X149407904Y-88774961D01*
X149395163Y-88744200D01*
X156045726Y-88744200D01*
X149062398Y-95727115D01*
X149050577Y-95709423D01*
X148808391Y-95547600D01*
X148826000Y-95459074D01*
X148841868Y-95379300D01*
X148841645Y-95378181D01*
X149050577Y-95238577D01*
X149367740Y-94763909D01*
X149479113Y-94204000D01*
X149367740Y-93644091D01*
X149050577Y-93169423D01*
X148666892Y-92913053D01*
X148871134Y-92816389D01*
X149247041Y-92401423D01*
X149407904Y-92013039D01*
X149285915Y-91791000D01*
X148143000Y-91791000D01*
X148143000Y-91811000D01*
X147889000Y-91811000D01*
X147889000Y-91791000D01*
X146746085Y-91791000D01*
X146624096Y-92013039D01*
X146784959Y-92401423D01*
X147160866Y-92816389D01*
X147365108Y-92913053D01*
X146981423Y-93169423D01*
X146664260Y-93644091D01*
X146552887Y-94204000D01*
X146664260Y-94763909D01*
X146846275Y-95036314D01*
X146321801Y-95560335D01*
X146254023Y-95605623D01*
X146182000Y-95713413D01*
X146182000Y-94967541D01*
X146197867Y-94887743D01*
X146167877Y-94737025D01*
X146135003Y-94571754D01*
X146134987Y-94571730D01*
X146134981Y-94571701D01*
X146045595Y-94437946D01*
X145955977Y-94303823D01*
X145888322Y-94258618D01*
X141601153Y-89972034D01*
X141578187Y-89937663D01*
X141747740Y-89683909D01*
X141789684Y-89473039D01*
X146624096Y-89473039D01*
X146784959Y-89861423D01*
X147160866Y-90276389D01*
X147409367Y-90394000D01*
X147160866Y-90511611D01*
X146784959Y-90926577D01*
X146624096Y-91314961D01*
X146746085Y-91537000D01*
X147889000Y-91537000D01*
X147889000Y-89251000D01*
X148143000Y-89251000D01*
X148143000Y-91537000D01*
X149285915Y-91537000D01*
X149407904Y-91314961D01*
X149247041Y-90926577D01*
X148871134Y-90511611D01*
X148622633Y-90394000D01*
X148871134Y-90276389D01*
X149247041Y-89861423D01*
X149407904Y-89473039D01*
X149285915Y-89251000D01*
X148143000Y-89251000D01*
X147889000Y-89251000D01*
X146746085Y-89251000D01*
X146624096Y-89473039D01*
X141789684Y-89473039D01*
X141859113Y-89124000D01*
X141783566Y-88744200D01*
X146636837Y-88744200D01*
X146624096Y-88774961D01*
G36*
X135189000Y-94077000D02*
X135209000Y-94077000D01*
X135209000Y-94331000D01*
X135189000Y-94331000D01*
X135189000Y-94351000D01*
X134935000Y-94351000D01*
X134935000Y-94331000D01*
X134915000Y-94331000D01*
X134915000Y-94077000D01*
X134935000Y-94077000D01*
X134935000Y-94057000D01*
X135189000Y-94057000D01*
X135189000Y-94077000D01*
X135189000Y-94077000D01*
G37*
X135189000Y-94077000D02*
X135209000Y-94077000D01*
X135209000Y-94331000D01*
X135189000Y-94331000D01*
X135189000Y-94351000D01*
X134935000Y-94351000D01*
X134935000Y-94331000D01*
X134915000Y-94331000D01*
X134915000Y-94077000D01*
X134935000Y-94077000D01*
X134935000Y-94057000D01*
X135189000Y-94057000D01*
X135189000Y-94077000D01*
G36*
X173417570Y-76797830D02*
X173913276Y-77129050D01*
X174498000Y-77245359D01*
X175082725Y-77129050D01*
X175177000Y-77066057D01*
X175177001Y-88980347D01*
X171933363Y-92223900D01*
X160745713Y-92223900D01*
X161033513Y-91936100D01*
X164291229Y-91936100D01*
X164371006Y-91951968D01*
X164503324Y-91925647D01*
X164687046Y-91889103D01*
X164687050Y-91889100D01*
X164687052Y-91889100D01*
X164772321Y-91832124D01*
X164954977Y-91710077D01*
X165000170Y-91642442D01*
X171204349Y-85438164D01*
X171271977Y-85392977D01*
X171331060Y-85304554D01*
X171344753Y-85284061D01*
X171451003Y-85125046D01*
X171451004Y-85125043D01*
X171451005Y-85125041D01*
X171495098Y-84903361D01*
X171498000Y-84888774D01*
X171498000Y-84888771D01*
X171513868Y-84808994D01*
X171498000Y-84729223D01*
X171498000Y-77153859D01*
X171958000Y-77245359D01*
X172542725Y-77129050D01*
X173038430Y-76797830D01*
X173228000Y-76514119D01*
X173417570Y-76797830D01*
X173417570Y-76797830D01*
G37*
X173417570Y-76797830D02*
X173913276Y-77129050D01*
X174498000Y-77245359D01*
X175082725Y-77129050D01*
X175177000Y-77066057D01*
X175177001Y-88980347D01*
X171933363Y-92223900D01*
X160745713Y-92223900D01*
X161033513Y-91936100D01*
X164291229Y-91936100D01*
X164371006Y-91951968D01*
X164503324Y-91925647D01*
X164687046Y-91889103D01*
X164687050Y-91889100D01*
X164687052Y-91889100D01*
X164772321Y-91832124D01*
X164954977Y-91710077D01*
X165000170Y-91642442D01*
X171204349Y-85438164D01*
X171271977Y-85392977D01*
X171331060Y-85304554D01*
X171344753Y-85284061D01*
X171451003Y-85125046D01*
X171451004Y-85125043D01*
X171451005Y-85125041D01*
X171495098Y-84903361D01*
X171498000Y-84888774D01*
X171498000Y-84888771D01*
X171513868Y-84808994D01*
X171498000Y-84729223D01*
X171498000Y-77153859D01*
X171958000Y-77245359D01*
X172542725Y-77129050D01*
X173038430Y-76797830D01*
X173228000Y-76514119D01*
X173417570Y-76797830D01*
G36*
X169878001Y-84473490D02*
X165665585Y-88685973D01*
X165615534Y-88565138D01*
X165211862Y-88161466D01*
X164684439Y-87943000D01*
X164113561Y-87943000D01*
X163586138Y-88161466D01*
X163182466Y-88565138D01*
X163181281Y-88568000D01*
X162183976Y-88568000D01*
X162258802Y-88518003D01*
X162307328Y-88485581D01*
X162307335Y-88485574D01*
X162374977Y-88440377D01*
X162420160Y-88372756D01*
X165248821Y-85544270D01*
X165550635Y-85419255D01*
X165813655Y-85156235D01*
X165956000Y-84812583D01*
X165956000Y-84440617D01*
X165813655Y-84096965D01*
X165550635Y-83833945D01*
X165291397Y-83726565D01*
X168664356Y-80353460D01*
X168731977Y-80308277D01*
X168777170Y-80240641D01*
X168777176Y-80240635D01*
X168817218Y-80180705D01*
X168911003Y-80040346D01*
X168911005Y-80040336D01*
X168911009Y-80040330D01*
X168940083Y-79894148D01*
X168958000Y-79804074D01*
X168958000Y-79804065D01*
X168973868Y-79724283D01*
X168958000Y-79644519D01*
X168958000Y-77153859D01*
X169418000Y-77245359D01*
X169878000Y-77153859D01*
X169878001Y-84473490D01*
X169878001Y-84473490D01*
G37*
X169878001Y-84473490D02*
X165665585Y-88685973D01*
X165615534Y-88565138D01*
X165211862Y-88161466D01*
X164684439Y-87943000D01*
X164113561Y-87943000D01*
X163586138Y-88161466D01*
X163182466Y-88565138D01*
X163181281Y-88568000D01*
X162183976Y-88568000D01*
X162258802Y-88518003D01*
X162307328Y-88485581D01*
X162307335Y-88485574D01*
X162374977Y-88440377D01*
X162420160Y-88372756D01*
X165248821Y-85544270D01*
X165550635Y-85419255D01*
X165813655Y-85156235D01*
X165956000Y-84812583D01*
X165956000Y-84440617D01*
X165813655Y-84096965D01*
X165550635Y-83833945D01*
X165291397Y-83726565D01*
X168664356Y-80353460D01*
X168731977Y-80308277D01*
X168777170Y-80240641D01*
X168777176Y-80240635D01*
X168817218Y-80180705D01*
X168911003Y-80040346D01*
X168911005Y-80040336D01*
X168911009Y-80040330D01*
X168940083Y-79894148D01*
X168958000Y-79804074D01*
X168958000Y-79804065D01*
X168973868Y-79724283D01*
X168958000Y-79644519D01*
X168958000Y-77153859D01*
X169418000Y-77245359D01*
X169878000Y-77153859D01*
X169878001Y-84473490D01*
G04 #@! TD*
M02*
