G04 #@! TF.GenerationSoftware,KiCad,Pcbnew,(5.0.0-3-g5ebb6b6)*
G04 #@! TF.CreationDate,2019-01-15T21:50:23+09:00*
G04 #@! TF.ProjectId,YM2151,594D323135312E6B696361645F706362,rev?*
G04 #@! TF.SameCoordinates,Original*
G04 #@! TF.FileFunction,Copper,L2,Bot,Signal*
G04 #@! TF.FilePolarity,Positive*
%FSLAX46Y46*%
G04 Gerber Fmt 4.6, Leading zero omitted, Abs format (unit mm)*
G04 Created by KiCad (PCBNEW (5.0.0-3-g5ebb6b6)) date *
%MOMM*%
%LPD*%
G01*
G04 APERTURE LIST*
G04 #@! TA.AperFunction,ComponentPad*
%ADD10R,1.600000X1.600000*%
G04 #@! TD*
G04 #@! TA.AperFunction,ComponentPad*
%ADD11C,1.600000*%
G04 #@! TD*
G04 #@! TA.AperFunction,ComponentPad*
%ADD12C,1.400000*%
G04 #@! TD*
G04 #@! TA.AperFunction,ComponentPad*
%ADD13O,1.400000X1.400000*%
G04 #@! TD*
G04 #@! TA.AperFunction,ComponentPad*
%ADD14R,1.700000X1.700000*%
G04 #@! TD*
G04 #@! TA.AperFunction,ComponentPad*
%ADD15O,1.700000X1.700000*%
G04 #@! TD*
G04 #@! TA.AperFunction,ComponentPad*
%ADD16C,1.500000*%
G04 #@! TD*
G04 #@! TA.AperFunction,ComponentPad*
%ADD17R,1.500000X1.500000*%
G04 #@! TD*
G04 #@! TA.AperFunction,ComponentPad*
%ADD18O,1.600000X1.600000*%
G04 #@! TD*
G04 #@! TA.AperFunction,ComponentPad*
%ADD19C,2.900000*%
G04 #@! TD*
G04 #@! TA.AperFunction,ComponentPad*
%ADD20C,2.700000*%
G04 #@! TD*
G04 #@! TA.AperFunction,ComponentPad*
%ADD21C,2.500000*%
G04 #@! TD*
G04 #@! TA.AperFunction,ComponentPad*
%ADD22O,1.727200X2.032000*%
G04 #@! TD*
G04 #@! TA.AperFunction,ComponentPad*
%ADD23C,4.064000*%
G04 #@! TD*
G04 #@! TA.AperFunction,ViaPad*
%ADD24C,0.600000*%
G04 #@! TD*
G04 #@! TA.AperFunction,Conductor*
%ADD25C,0.350000*%
G04 #@! TD*
G04 #@! TA.AperFunction,Conductor*
%ADD26C,0.650000*%
G04 #@! TD*
G04 #@! TA.AperFunction,Conductor*
%ADD27C,0.254000*%
G04 #@! TD*
G04 APERTURE END LIST*
D10*
G04 #@! TO.P,C1,1*
G04 #@! TO.N,Net-(C1-Pad1)*
X117028000Y-79853000D03*
D11*
G04 #@! TO.P,C1,2*
G04 #@! TO.N,GNDA*
X114528000Y-79853000D03*
G04 #@! TD*
G04 #@! TO.P,C4,2*
G04 #@! TO.N,Net-(C4-Pad2)*
X95605000Y-79980000D03*
D10*
G04 #@! TO.P,C4,1*
G04 #@! TO.N,Net-(C4-Pad1)*
X98105000Y-79980000D03*
G04 #@! TD*
G04 #@! TO.P,C5,1*
G04 #@! TO.N,Net-(C5-Pad1)*
X98105000Y-114524000D03*
D11*
G04 #@! TO.P,C5,2*
G04 #@! TO.N,Net-(C5-Pad2)*
X95605000Y-114524000D03*
G04 #@! TD*
G04 #@! TO.P,C6,2*
G04 #@! TO.N,GNDD*
X145516000Y-108555000D03*
D10*
G04 #@! TO.P,C6,1*
G04 #@! TO.N,VCC*
X148016000Y-108555000D03*
G04 #@! TD*
G04 #@! TO.P,C10,1*
G04 #@! TO.N,VCC*
X169733000Y-117953000D03*
D11*
G04 #@! TO.P,C10,2*
G04 #@! TO.N,GNDD*
X169733000Y-115453000D03*
G04 #@! TD*
D12*
G04 #@! TO.P,R5,1*
G04 #@! TO.N,Net-(R5-Pad1)*
X117268000Y-86495000D03*
D13*
G04 #@! TO.P,R5,2*
G04 #@! TO.N,Net-(R5-Pad2)*
X124888000Y-86495000D03*
G04 #@! TD*
D14*
G04 #@! TO.P,JP3,1*
G04 #@! TO.N,Net-(JP3-Pad1)*
X129347000Y-119096000D03*
D15*
G04 #@! TO.P,JP3,2*
G04 #@! TO.N,Net-(JP2-Pad1)*
X129347000Y-116556000D03*
G04 #@! TO.P,JP3,3*
G04 #@! TO.N,Net-(JP3-Pad3)*
X131887000Y-119096000D03*
G04 #@! TO.P,JP3,4*
G04 #@! TO.N,Net-(JP2-Pad1)*
X131887000Y-116556000D03*
G04 #@! TO.P,JP3,5*
G04 #@! TO.N,Net-(JP3-Pad5)*
X134427000Y-119096000D03*
G04 #@! TO.P,JP3,6*
G04 #@! TO.N,Net-(JP2-Pad1)*
X134427000Y-116556000D03*
G04 #@! TO.P,JP3,7*
G04 #@! TO.N,Net-(JP3-Pad7)*
X136967000Y-119096000D03*
G04 #@! TO.P,JP3,8*
G04 #@! TO.N,Net-(JP2-Pad1)*
X136967000Y-116556000D03*
G04 #@! TO.P,JP3,9*
G04 #@! TO.N,Net-(JP3-Pad9)*
X139507000Y-119096000D03*
G04 #@! TO.P,JP3,10*
G04 #@! TO.N,Net-(JP2-Pad1)*
X139507000Y-116556000D03*
G04 #@! TO.P,JP3,11*
G04 #@! TO.N,Net-(JP3-Pad11)*
X142047000Y-119096000D03*
G04 #@! TO.P,JP3,12*
G04 #@! TO.N,Net-(JP2-Pad1)*
X142047000Y-116556000D03*
G04 #@! TO.P,JP3,13*
G04 #@! TO.N,Net-(JP3-Pad13)*
X144587000Y-119096000D03*
G04 #@! TO.P,JP3,14*
G04 #@! TO.N,Net-(JP2-Pad1)*
X144587000Y-116556000D03*
G04 #@! TO.P,JP3,15*
G04 #@! TO.N,Net-(JP3-Pad15)*
X147127000Y-119096000D03*
G04 #@! TO.P,JP3,16*
G04 #@! TO.N,Net-(JP2-Pad1)*
X147127000Y-116556000D03*
G04 #@! TD*
D14*
G04 #@! TO.P,JP4,1*
G04 #@! TO.N,VCC*
X112488000Y-68305000D03*
D15*
G04 #@! TO.P,JP4,2*
G04 #@! TO.N,GNDD*
X112488000Y-65765000D03*
G04 #@! TO.P,JP4,3*
G04 #@! TO.N,VCC*
X115028000Y-68305000D03*
G04 #@! TO.P,JP4,4*
G04 #@! TO.N,GNDD*
X115028000Y-65765000D03*
G04 #@! TO.P,JP4,5*
G04 #@! TO.N,N/C*
X117568000Y-68305000D03*
G04 #@! TO.P,JP4,6*
X117568000Y-65765000D03*
G04 #@! TO.P,JP4,7*
X120108000Y-68305000D03*
G04 #@! TO.P,JP4,8*
X120108000Y-65765000D03*
G04 #@! TO.P,JP4,9*
G04 #@! TO.N,/D0*
X122648000Y-68305000D03*
G04 #@! TO.P,JP4,10*
G04 #@! TO.N,/D1*
X122648000Y-65765000D03*
G04 #@! TO.P,JP4,11*
G04 #@! TO.N,/D2*
X125188000Y-68305000D03*
G04 #@! TO.P,JP4,12*
G04 #@! TO.N,/D3*
X125188000Y-65765000D03*
G04 #@! TO.P,JP4,13*
G04 #@! TO.N,/D4*
X127728000Y-68305000D03*
G04 #@! TO.P,JP4,14*
G04 #@! TO.N,/D5*
X127728000Y-65765000D03*
G04 #@! TO.P,JP4,15*
G04 #@! TO.N,/D6*
X130268000Y-68305000D03*
G04 #@! TO.P,JP4,16*
G04 #@! TO.N,/D7*
X130268000Y-65765000D03*
G04 #@! TO.P,JP4,17*
G04 #@! TO.N,/~RD*
X132808000Y-68305000D03*
G04 #@! TO.P,JP4,18*
G04 #@! TO.N,N/C*
X132808000Y-65765000D03*
G04 #@! TO.P,JP4,19*
G04 #@! TO.N,/~WR*
X135348000Y-68305000D03*
G04 #@! TO.P,JP4,20*
G04 #@! TO.N,N/C*
X135348000Y-65765000D03*
G04 #@! TO.P,JP4,21*
G04 #@! TO.N,RES*
X137888000Y-68305000D03*
G04 #@! TO.P,JP4,22*
G04 #@! TO.N,N/C*
X137888000Y-65765000D03*
G04 #@! TO.P,JP4,23*
X140428000Y-68305000D03*
G04 #@! TO.P,JP4,24*
X140428000Y-65765000D03*
G04 #@! TO.P,JP4,25*
G04 #@! TO.N,/A0*
X142968000Y-68305000D03*
G04 #@! TO.P,JP4,26*
G04 #@! TO.N,N/C*
X142968000Y-65765000D03*
G04 #@! TO.P,JP4,27*
X145508000Y-68305000D03*
G04 #@! TO.P,JP4,28*
X145508000Y-65765000D03*
G04 #@! TO.P,JP4,29*
X148048000Y-68305000D03*
G04 #@! TO.P,JP4,30*
G04 #@! TO.N,/A5*
X148048000Y-65765000D03*
G04 #@! TO.P,JP4,31*
G04 #@! TO.N,/A6*
X150588000Y-68305000D03*
G04 #@! TO.P,JP4,32*
G04 #@! TO.N,/A7*
X150588000Y-65765000D03*
G04 #@! TO.P,JP4,33*
G04 #@! TO.N,N/C*
X153128000Y-68305000D03*
G04 #@! TO.P,JP4,34*
X153128000Y-65765000D03*
G04 #@! TO.P,JP4,35*
X155668000Y-68305000D03*
G04 #@! TO.P,JP4,36*
X155668000Y-65765000D03*
G04 #@! TO.P,JP4,37*
X158208000Y-68305000D03*
G04 #@! TO.P,JP4,38*
X158208000Y-65765000D03*
G04 #@! TO.P,JP4,39*
X160748000Y-68305000D03*
G04 #@! TO.P,JP4,40*
X160748000Y-65765000D03*
G04 #@! TD*
D10*
G04 #@! TO.P,C11,1*
G04 #@! TO.N,VCC*
X100772000Y-67661000D03*
D11*
G04 #@! TO.P,C11,2*
G04 #@! TO.N,GNDD*
X100772000Y-65161000D03*
G04 #@! TD*
G04 #@! TO.P,C7,1*
G04 #@! TO.N,VCC*
X134935000Y-102840000D03*
G04 #@! TO.P,C7,2*
G04 #@! TO.N,GNDD*
X132435000Y-102840000D03*
G04 #@! TD*
G04 #@! TO.P,C8,2*
G04 #@! TO.N,GNDD*
X177734000Y-115032000D03*
G04 #@! TO.P,C8,1*
G04 #@! TO.N,VCC*
X175234000Y-115032000D03*
G04 #@! TD*
G04 #@! TO.P,C9,1*
G04 #@! TO.N,VCC*
X141158000Y-102840000D03*
G04 #@! TO.P,C9,2*
G04 #@! TO.N,GNDD*
X143658000Y-102840000D03*
G04 #@! TD*
D15*
G04 #@! TO.P,JP1,3*
G04 #@! TO.N,Net-(JP1-Pad3)*
X159192000Y-115286000D03*
G04 #@! TO.P,JP1,2*
G04 #@! TO.N,/~CS*
X156652000Y-115286000D03*
D14*
G04 #@! TO.P,JP1,1*
G04 #@! TO.N,GNDD*
X154112000Y-115286000D03*
G04 #@! TD*
G04 #@! TO.P,JP2,1*
G04 #@! TO.N,Net-(JP2-Pad1)*
X154112000Y-119604000D03*
D15*
G04 #@! TO.P,JP2,2*
G04 #@! TO.N,Net-(JP1-Pad3)*
X156652000Y-119604000D03*
G04 #@! TO.P,JP2,3*
G04 #@! TO.N,/~CE*
X159192000Y-119604000D03*
G04 #@! TD*
D16*
G04 #@! TO.P,Q1,2*
G04 #@! TO.N,Net-(JP5-Pad3)*
X180274000Y-68931000D03*
G04 #@! TO.P,Q1,3*
G04 #@! TO.N,Net-(Q1-Pad3)*
X180274000Y-71471000D03*
D17*
G04 #@! TO.P,Q1,1*
G04 #@! TO.N,GNDD*
X180274000Y-66391000D03*
G04 #@! TD*
D10*
G04 #@! TO.P,U4,1*
G04 #@! TO.N,/A5*
X148016000Y-99284000D03*
D18*
G04 #@! TO.P,U4,9*
G04 #@! TO.N,Net-(JP3-Pad13)*
X140396000Y-81504000D03*
G04 #@! TO.P,U4,2*
G04 #@! TO.N,/A6*
X148016000Y-96744000D03*
G04 #@! TO.P,U4,10*
G04 #@! TO.N,Net-(JP3-Pad11)*
X140396000Y-84044000D03*
G04 #@! TO.P,U4,3*
G04 #@! TO.N,/A7*
X148016000Y-94204000D03*
G04 #@! TO.P,U4,11*
G04 #@! TO.N,Net-(JP3-Pad9)*
X140396000Y-86584000D03*
G04 #@! TO.P,U4,4*
G04 #@! TO.N,GNDD*
X148016000Y-91664000D03*
G04 #@! TO.P,U4,12*
G04 #@! TO.N,Net-(JP3-Pad7)*
X140396000Y-89124000D03*
G04 #@! TO.P,U4,5*
G04 #@! TO.N,GNDD*
X148016000Y-89124000D03*
G04 #@! TO.P,U4,13*
G04 #@! TO.N,Net-(JP3-Pad5)*
X140396000Y-91664000D03*
G04 #@! TO.P,U4,6*
G04 #@! TO.N,VCC*
X148016000Y-86584000D03*
G04 #@! TO.P,U4,14*
G04 #@! TO.N,Net-(JP3-Pad3)*
X140396000Y-94204000D03*
G04 #@! TO.P,U4,7*
G04 #@! TO.N,Net-(JP3-Pad15)*
X148016000Y-84044000D03*
G04 #@! TO.P,U4,15*
G04 #@! TO.N,Net-(JP3-Pad1)*
X140396000Y-96744000D03*
G04 #@! TO.P,U4,8*
G04 #@! TO.N,GNDD*
X148016000Y-81504000D03*
G04 #@! TO.P,U4,16*
G04 #@! TO.N,VCC*
X140396000Y-99284000D03*
G04 #@! TD*
D13*
G04 #@! TO.P,R3,2*
G04 #@! TO.N,RES*
X175956000Y-68550000D03*
D12*
G04 #@! TO.P,R3,1*
G04 #@! TO.N,Net-(Q1-Pad3)*
X168336000Y-68550000D03*
G04 #@! TD*
G04 #@! TO.P,R4,1*
G04 #@! TO.N,Net-(JP5-Pad3)*
X175956000Y-64867000D03*
D13*
G04 #@! TO.P,R4,2*
G04 #@! TO.N,VCC*
X168336000Y-64867000D03*
G04 #@! TD*
D19*
G04 #@! TO.P,J1,1*
G04 #@! TO.N,GNDA*
X92178000Y-97335000D03*
D20*
G04 #@! TO.P,J1,2*
G04 #@! TO.N,Net-(J1-Pad2)*
X100678000Y-91935000D03*
D21*
G04 #@! TO.P,J1,3*
G04 #@! TO.N,N/C*
X98978000Y-94435000D03*
D19*
G04 #@! TO.P,J1,4*
X103478000Y-101635000D03*
G04 #@! TO.P,J1,5*
G04 #@! TO.N,Net-(J1-Pad5)*
X95678000Y-101835000D03*
G04 #@! TD*
D11*
G04 #@! TO.P,C3,2*
G04 #@! TO.N,GNDA*
X106440000Y-109063000D03*
G04 #@! TO.P,C3,1*
G04 #@! TO.N,Net-(C3-Pad1)*
X111440000Y-109063000D03*
G04 #@! TD*
G04 #@! TO.P,C2,1*
G04 #@! TO.N,Net-(C2-Pad1)*
X111313000Y-85187000D03*
G04 #@! TO.P,C2,2*
G04 #@! TO.N,GNDA*
X106313000Y-85187000D03*
G04 #@! TD*
D22*
G04 #@! TO.P,P1,1*
G04 #@! TO.N,N/C*
X138938000Y-123825000D03*
G04 #@! TO.P,P1,2*
X141478000Y-123825000D03*
G04 #@! TO.P,P1,3*
X144018000Y-123825000D03*
G04 #@! TO.P,P1,4*
X146558000Y-123825000D03*
G04 #@! TO.P,P1,5*
G04 #@! TO.N,VCC*
X149098000Y-123825000D03*
G04 #@! TO.P,P1,6*
G04 #@! TO.N,GNDD*
X151638000Y-123825000D03*
G04 #@! TO.P,P1,7*
X154178000Y-123825000D03*
G04 #@! TO.P,P1,8*
G04 #@! TO.N,N/C*
X156718000Y-123825000D03*
G04 #@! TD*
G04 #@! TO.P,P2,1*
G04 #@! TO.N,/~CE*
X161798000Y-123825000D03*
G04 #@! TO.P,P2,2*
G04 #@! TO.N,N/C*
X164338000Y-123825000D03*
G04 #@! TO.P,P2,3*
X166878000Y-123825000D03*
G04 #@! TO.P,P2,4*
X169418000Y-123825000D03*
G04 #@! TO.P,P2,5*
X171958000Y-123825000D03*
G04 #@! TO.P,P2,6*
X174498000Y-123825000D03*
G04 #@! TD*
G04 #@! TO.P,P3,1*
G04 #@! TO.N,N/C*
X129794000Y-75565000D03*
G04 #@! TO.P,P3,2*
X132334000Y-75565000D03*
G04 #@! TO.P,P3,3*
X134874000Y-75565000D03*
G04 #@! TO.P,P3,4*
G04 #@! TO.N,GNDD*
X137414000Y-75565000D03*
G04 #@! TO.P,P3,5*
G04 #@! TO.N,Net-(JP5-Pad1)*
X139954000Y-75565000D03*
G04 #@! TO.P,P3,6*
G04 #@! TO.N,/A0*
X142494000Y-75565000D03*
G04 #@! TO.P,P3,7*
G04 #@! TO.N,/~WR*
X145034000Y-75565000D03*
G04 #@! TO.P,P3,8*
G04 #@! TO.N,/~RD*
X147574000Y-75565000D03*
G04 #@! TO.P,P3,9*
G04 #@! TO.N,/D7*
X150114000Y-75565000D03*
G04 #@! TO.P,P3,10*
G04 #@! TO.N,/D6*
X152654000Y-75565000D03*
G04 #@! TD*
G04 #@! TO.P,P4,1*
G04 #@! TO.N,/D5*
X156718000Y-75565000D03*
G04 #@! TO.P,P4,2*
G04 #@! TO.N,/D4*
X159258000Y-75565000D03*
G04 #@! TO.P,P4,3*
G04 #@! TO.N,/D3*
X161798000Y-75565000D03*
G04 #@! TO.P,P4,4*
G04 #@! TO.N,/D2*
X164338000Y-75565000D03*
G04 #@! TO.P,P4,5*
G04 #@! TO.N,/D1*
X166878000Y-75565000D03*
G04 #@! TO.P,P4,6*
G04 #@! TO.N,/D0*
X169418000Y-75565000D03*
G04 #@! TO.P,P4,7*
G04 #@! TO.N,N/C*
X171958000Y-75565000D03*
G04 #@! TO.P,P4,8*
X174498000Y-75565000D03*
G04 #@! TD*
D23*
G04 #@! TO.P,P5,1*
G04 #@! TO.N,N/C*
X92048000Y-125635000D03*
G04 #@! TD*
G04 #@! TO.P,P6,1*
G04 #@! TO.N,N/C*
X181038000Y-125645000D03*
G04 #@! TD*
G04 #@! TO.P,P7,1*
G04 #@! TO.N,N/C*
X92058000Y-59695000D03*
G04 #@! TD*
G04 #@! TO.P,P8,1*
G04 #@! TO.N,N/C*
X181048000Y-59655000D03*
G04 #@! TD*
D12*
G04 #@! TO.P,R1,1*
G04 #@! TO.N,Net-(J1-Pad2)*
X93748000Y-86075000D03*
D13*
G04 #@! TO.P,R1,2*
G04 #@! TO.N,Net-(C4-Pad2)*
X101368000Y-86075000D03*
G04 #@! TD*
D12*
G04 #@! TO.P,R2,1*
G04 #@! TO.N,Net-(J1-Pad5)*
X94168000Y-109063000D03*
D13*
G04 #@! TO.P,R2,2*
G04 #@! TO.N,Net-(C5-Pad2)*
X101788000Y-109063000D03*
G04 #@! TD*
D10*
G04 #@! TO.P,U1,1*
G04 #@! TO.N,GNDD*
X152969000Y-110714000D03*
D18*
G04 #@! TO.P,U1,13*
G04 #@! TO.N,/D2*
X180909000Y-95474000D03*
G04 #@! TO.P,U1,2*
G04 #@! TO.N,N/C*
X155509000Y-110714000D03*
G04 #@! TO.P,U1,14*
G04 #@! TO.N,/D3*
X178369000Y-95474000D03*
G04 #@! TO.P,U1,3*
G04 #@! TO.N,/~IC*
X158049000Y-110714000D03*
G04 #@! TO.P,U1,15*
G04 #@! TO.N,/D4*
X175829000Y-95474000D03*
G04 #@! TO.P,U1,4*
G04 #@! TO.N,/A0*
X160589000Y-110714000D03*
G04 #@! TO.P,U1,16*
G04 #@! TO.N,/D5*
X173289000Y-95474000D03*
G04 #@! TO.P,U1,5*
G04 #@! TO.N,/~WR*
X163129000Y-110714000D03*
G04 #@! TO.P,U1,17*
G04 #@! TO.N,/D6*
X170749000Y-95474000D03*
G04 #@! TO.P,U1,6*
G04 #@! TO.N,/~RD*
X165669000Y-110714000D03*
G04 #@! TO.P,U1,18*
G04 #@! TO.N,/D7*
X168209000Y-95474000D03*
G04 #@! TO.P,U1,7*
G04 #@! TO.N,/~CS*
X168209000Y-110714000D03*
G04 #@! TO.P,U1,19*
G04 #@! TO.N,Net-(U1-Pad19)*
X165669000Y-95474000D03*
G04 #@! TO.P,U1,8*
G04 #@! TO.N,N/C*
X170749000Y-110714000D03*
G04 #@! TO.P,U1,20*
G04 #@! TO.N,Net-(U1-Pad20)*
X163129000Y-95474000D03*
G04 #@! TO.P,U1,9*
G04 #@! TO.N,N/C*
X173289000Y-110714000D03*
G04 #@! TO.P,U1,21*
G04 #@! TO.N,Net-(U1-Pad21)*
X160589000Y-95474000D03*
G04 #@! TO.P,U1,10*
G04 #@! TO.N,/D0*
X175829000Y-110714000D03*
G04 #@! TO.P,U1,22*
G04 #@! TO.N,VCC*
X158049000Y-95474000D03*
G04 #@! TO.P,U1,11*
G04 #@! TO.N,GNDD*
X178369000Y-110714000D03*
G04 #@! TO.P,U1,23*
G04 #@! TO.N,Net-(U1-Pad23)*
X155509000Y-95474000D03*
G04 #@! TO.P,U1,12*
G04 #@! TO.N,/D1*
X180909000Y-110714000D03*
G04 #@! TO.P,U1,24*
G04 #@! TO.N,/phM*
X152969000Y-95474000D03*
G04 #@! TD*
D10*
G04 #@! TO.P,U2,1*
G04 #@! TO.N,VCC*
X135062000Y-99284000D03*
D18*
G04 #@! TO.P,U2,9*
G04 #@! TO.N,Net-(C3-Pad1)*
X127442000Y-81504000D03*
G04 #@! TO.P,U2,2*
G04 #@! TO.N,Net-(U1-Pad23)*
X135062000Y-96744000D03*
G04 #@! TO.P,U2,10*
G04 #@! TO.N,Net-(C2-Pad1)*
X127442000Y-84044000D03*
G04 #@! TO.P,U2,3*
G04 #@! TO.N,GNDD*
X135062000Y-94204000D03*
G04 #@! TO.P,U2,11*
G04 #@! TO.N,Net-(R5-Pad2)*
X127442000Y-86584000D03*
G04 #@! TO.P,U2,4*
G04 #@! TO.N,Net-(U1-Pad21)*
X135062000Y-91664000D03*
G04 #@! TO.P,U2,12*
G04 #@! TO.N,Net-(U2-Pad12)*
X127442000Y-89124000D03*
G04 #@! TO.P,U2,5*
G04 #@! TO.N,Net-(U1-Pad19)*
X135062000Y-89124000D03*
G04 #@! TO.P,U2,13*
G04 #@! TO.N,Net-(U2-Pad13)*
X127442000Y-91664000D03*
G04 #@! TO.P,U2,6*
G04 #@! TO.N,Net-(U1-Pad20)*
X135062000Y-86584000D03*
G04 #@! TO.P,U2,14*
G04 #@! TO.N,Net-(U2-Pad13)*
X127442000Y-94204000D03*
G04 #@! TO.P,U2,7*
G04 #@! TO.N,/~IC*
X135062000Y-84044000D03*
G04 #@! TO.P,U2,15*
G04 #@! TO.N,Net-(C1-Pad1)*
X127442000Y-96744000D03*
G04 #@! TO.P,U2,8*
G04 #@! TO.N,GNDA*
X135062000Y-81504000D03*
G04 #@! TO.P,U2,16*
X127442000Y-99284000D03*
G04 #@! TD*
D10*
G04 #@! TO.P,U3,1*
G04 #@! TO.N,Net-(U2-Pad13)*
X116393000Y-104364000D03*
D18*
G04 #@! TO.P,U3,8*
G04 #@! TO.N,Net-(C4-Pad1)*
X108773000Y-89124000D03*
G04 #@! TO.P,U3,2*
G04 #@! TO.N,Net-(U2-Pad13)*
X116393000Y-101824000D03*
G04 #@! TO.P,U3,9*
G04 #@! TO.N,Net-(C4-Pad1)*
X108773000Y-91664000D03*
G04 #@! TO.P,U3,3*
G04 #@! TO.N,Net-(C1-Pad1)*
X116393000Y-99284000D03*
G04 #@! TO.P,U3,10*
G04 #@! TO.N,Net-(C2-Pad1)*
X108773000Y-94204000D03*
G04 #@! TO.P,U3,4*
G04 #@! TO.N,VCC*
X116393000Y-96744000D03*
G04 #@! TO.P,U3,11*
G04 #@! TO.N,GNDA*
X108773000Y-96744000D03*
G04 #@! TO.P,U3,5*
G04 #@! TO.N,Net-(U2-Pad12)*
X116393000Y-94204000D03*
G04 #@! TO.P,U3,12*
G04 #@! TO.N,Net-(C3-Pad1)*
X108773000Y-99284000D03*
G04 #@! TO.P,U3,6*
G04 #@! TO.N,Net-(R5-Pad1)*
X116393000Y-91664000D03*
G04 #@! TO.P,U3,13*
G04 #@! TO.N,Net-(C5-Pad1)*
X108773000Y-101824000D03*
G04 #@! TO.P,U3,7*
G04 #@! TO.N,Net-(R5-Pad1)*
X116393000Y-89124000D03*
G04 #@! TO.P,U3,14*
G04 #@! TO.N,Net-(C5-Pad1)*
X108773000Y-104364000D03*
G04 #@! TD*
D10*
G04 #@! TO.P,O1,1*
G04 #@! TO.N,N/C*
X179639000Y-81758000D03*
D11*
G04 #@! TO.P,O1,14*
G04 #@! TO.N,VCC*
X179639000Y-89378000D03*
G04 #@! TO.P,O1,8*
G04 #@! TO.N,/phM*
X164399000Y-89378000D03*
G04 #@! TO.P,O1,7*
G04 #@! TO.N,GNDD*
X164399000Y-81758000D03*
G04 #@! TD*
D14*
G04 #@! TO.P,JP5,1*
G04 #@! TO.N,Net-(JP5-Pad1)*
X169733000Y-60803000D03*
D15*
G04 #@! TO.P,JP5,2*
G04 #@! TO.N,/~IC*
X172273000Y-60803000D03*
G04 #@! TO.P,JP5,3*
G04 #@! TO.N,Net-(JP5-Pad3)*
X174813000Y-60803000D03*
G04 #@! TD*
D24*
G04 #@! TO.N,GNDA*
X119187000Y-115032000D03*
X118425000Y-90394000D03*
X118552000Y-95601000D03*
G04 #@! TO.N,VCC*
X150436000Y-87181100D03*
G04 #@! TO.N,/~WR*
X142428000Y-73385000D03*
G04 #@! TO.N,/~RD*
X138522000Y-72920000D03*
G04 #@! TO.N,Net-(U1-Pad20)*
X156647000Y-87934200D03*
G04 #@! TO.N,Net-(U1-Pad23)*
X147232000Y-103158000D03*
G04 #@! TO.N,GNDD*
X166812000Y-84298000D03*
X171384000Y-88616000D03*
X124267000Y-103856000D03*
X140523000Y-110460000D03*
X172781000Y-103221000D03*
X166304000Y-98268000D03*
X130236000Y-81758000D03*
X158049000Y-82647000D03*
X125791000Y-71979000D03*
X124394000Y-93823000D03*
X132435000Y-96831000D03*
G04 #@! TO.N,/A7*
X165021000Y-84626600D03*
G04 #@! TO.N,Net-(JP5-Pad1)*
X126868500Y-67225300D03*
G04 #@! TD*
D25*
G04 #@! TO.N,/A0*
X143305000Y-75565000D02*
X143389000Y-75480400D01*
X143389000Y-75480400D02*
X143389000Y-69951500D01*
X143389000Y-69951500D02*
X142968000Y-69530300D01*
X142968000Y-69530300D02*
X142968000Y-68305000D01*
X142494000Y-75565000D02*
X143305000Y-75565000D01*
X160589000Y-110714000D02*
X160589000Y-109539000D01*
X160589000Y-109539000D02*
X159414000Y-108363000D01*
X159414000Y-108363000D02*
X159414000Y-92636300D01*
X159414000Y-92636300D02*
X152085000Y-85307900D01*
X152085000Y-85307900D02*
X152085000Y-83887500D01*
X152085000Y-83887500D02*
X147291000Y-79093100D01*
X147291000Y-79093100D02*
X146612000Y-79093100D01*
X146612000Y-79093100D02*
X143305000Y-75785600D01*
X143305000Y-75785600D02*
X143305000Y-75565000D01*
G04 #@! TO.N,Net-(C1-Pad1)*
X120108000Y-96744000D02*
X127442000Y-96744000D01*
X116393000Y-99284000D02*
X117568000Y-99284000D01*
X117568000Y-99284000D02*
X120108000Y-96744000D01*
X120108000Y-96744000D02*
X120108000Y-84108600D01*
X120108000Y-84108600D02*
X117028000Y-81028300D01*
X117028000Y-81028300D02*
X117028000Y-79853000D01*
D26*
G04 #@! TO.N,GNDA*
X107103000Y-96744000D02*
X107103000Y-85977300D01*
X107103000Y-85977300D02*
X106313000Y-85187000D01*
X108773000Y-96744000D02*
X107103000Y-96744000D01*
X106440000Y-97407300D02*
X107103000Y-96744000D01*
X127442000Y-99284000D02*
X127442000Y-103602000D01*
X127442000Y-103602000D02*
X125918000Y-105126000D01*
X125918000Y-105126000D02*
X125918000Y-112619000D01*
X125918000Y-112619000D02*
X123505000Y-115032000D01*
X123505000Y-115032000D02*
X119187000Y-115032000D01*
X106440000Y-109063000D02*
X106440000Y-97407300D01*
X106440000Y-97407300D02*
X92250300Y-97407300D01*
X92250300Y-97407300D02*
X92178000Y-97335000D01*
D25*
G04 #@! TO.N,Net-(C2-Pad1)*
X108773000Y-94204000D02*
X108773000Y-93028700D01*
X108773000Y-93028700D02*
X109140000Y-93028700D01*
X109140000Y-93028700D02*
X111313000Y-90856000D01*
X111313000Y-90856000D02*
X111313000Y-85187000D01*
G04 #@! TO.N,Net-(C4-Pad1)*
X108773000Y-91664000D02*
X108773000Y-89124000D01*
G04 #@! TO.N,Net-(C4-Pad2)*
X101368000Y-86075000D02*
X101368000Y-84999700D01*
X101368000Y-84999700D02*
X100625000Y-84999700D01*
X100625000Y-84999700D02*
X95605000Y-79980000D01*
G04 #@! TO.N,Net-(C5-Pad1)*
X108773000Y-104364000D02*
X108773000Y-101824000D01*
G04 #@! TO.N,Net-(C5-Pad2)*
X101788000Y-109063000D02*
X100713000Y-109063000D01*
X100713000Y-109063000D02*
X100713000Y-109416000D01*
X100713000Y-109416000D02*
X95605000Y-114524000D01*
D26*
G04 #@! TO.N,VCC*
X158049000Y-95474000D02*
X158049000Y-94148700D01*
X158049000Y-94148700D02*
X157404000Y-94148700D01*
X157404000Y-94148700D02*
X150436000Y-87181100D01*
X140396000Y-99284000D02*
X140396000Y-100609000D01*
X140396000Y-100609000D02*
X141158000Y-101371000D01*
X141158000Y-101371000D02*
X141158000Y-102840000D01*
X112488000Y-68305000D02*
X112488000Y-69680300D01*
X112488000Y-69680300D02*
X112732000Y-69924800D01*
X112732000Y-69924800D02*
X112732000Y-93083500D01*
X112732000Y-93083500D02*
X116393000Y-96744000D01*
X149098000Y-123825000D02*
X149098000Y-110962000D01*
X149098000Y-110962000D02*
X148016000Y-109880000D01*
X148016000Y-109880000D02*
X148016000Y-108555000D01*
X158049000Y-95474000D02*
X158049000Y-96799300D01*
X158049000Y-96799300D02*
X148016000Y-106832000D01*
X148016000Y-106832000D02*
X148016000Y-108555000D01*
X135062000Y-99284000D02*
X135062000Y-100609000D01*
X135062000Y-100609000D02*
X134935000Y-100736000D01*
X134935000Y-100736000D02*
X134935000Y-102840000D01*
X112488000Y-68305000D02*
X101416000Y-68305000D01*
X101416000Y-68305000D02*
X100772000Y-67661000D01*
D25*
G04 #@! TO.N,Net-(J1-Pad2)*
X93748000Y-86075000D02*
X99608000Y-91935000D01*
X99608000Y-91935000D02*
X100678000Y-91935000D01*
G04 #@! TO.N,Net-(J1-Pad5)*
X94168000Y-109063000D02*
X94168000Y-103345000D01*
X94168000Y-103345000D02*
X95678000Y-101835000D01*
G04 #@! TO.N,/~IC*
X172273000Y-60803000D02*
X171047700Y-60803000D01*
X135062000Y-83456300D02*
X121378000Y-69772300D01*
X121378000Y-69772300D02*
X121378000Y-65233000D01*
X121378000Y-65233000D02*
X124193300Y-62417700D01*
X124193300Y-62417700D02*
X170389200Y-62417700D01*
X170389200Y-62417700D02*
X171047700Y-61759200D01*
X171047700Y-61759200D02*
X171047700Y-60803000D01*
X135062000Y-84044000D02*
X135062000Y-83456300D01*
G04 #@! TO.N,/~WR*
X142428000Y-73385000D02*
X141131000Y-73370400D01*
X141131000Y-73370400D02*
X136573000Y-68812800D01*
X136573000Y-68812800D02*
X136573000Y-68305000D01*
X136573000Y-68305000D02*
X135348000Y-68305000D01*
X163129000Y-110714000D02*
X163129000Y-109539000D01*
X163129000Y-109539000D02*
X161954000Y-108363000D01*
X161954000Y-108363000D02*
X161954000Y-94248600D01*
X161954000Y-94248600D02*
X152830000Y-85125000D01*
X152830000Y-85125000D02*
X152830000Y-83361100D01*
X152830000Y-83361100D02*
X146273000Y-76803900D01*
X146273000Y-76803900D02*
X146273000Y-75565000D01*
X146273000Y-75565000D02*
X145034000Y-75565000D01*
G04 #@! TO.N,/~RD*
X138522000Y-72920000D02*
X138140000Y-72920000D01*
X138140000Y-72920000D02*
X134033000Y-68812800D01*
X134033000Y-68812800D02*
X134033000Y-68305000D01*
X134033000Y-68305000D02*
X132808000Y-68305000D01*
X165669000Y-110714000D02*
X165669000Y-109539000D01*
X165669000Y-109539000D02*
X164494000Y-108363000D01*
X164494000Y-108363000D02*
X164494000Y-92484700D01*
X164494000Y-92484700D02*
X148813000Y-76803900D01*
X148813000Y-76803900D02*
X148813000Y-75565000D01*
X148813000Y-75565000D02*
X147574000Y-75565000D01*
G04 #@! TO.N,/D7*
X168209000Y-95474000D02*
X168209000Y-94298700D01*
X168209000Y-94298700D02*
X167456000Y-94298700D01*
X167456000Y-94298700D02*
X150114000Y-76956300D01*
X150114000Y-76956300D02*
X150114000Y-75565000D01*
G04 #@! TO.N,/D6*
X152654000Y-75565000D02*
X153893000Y-75565000D01*
X153893000Y-75565000D02*
X154014000Y-75686100D01*
X154014000Y-75686100D02*
X154014000Y-76522800D01*
X154014000Y-76522800D02*
X170749000Y-93257600D01*
X170749000Y-93257600D02*
X170749000Y-95474000D01*
G04 #@! TO.N,/D5*
X173289000Y-95474000D02*
X173289000Y-94298700D01*
X173289000Y-94298700D02*
X172929000Y-94298700D01*
X172929000Y-94298700D02*
X156718000Y-78088000D01*
X156718000Y-78088000D02*
X156718000Y-75565000D01*
X127728000Y-65765000D02*
X128953000Y-65765000D01*
X128953000Y-65765000D02*
X128953000Y-66272800D01*
X128953000Y-66272800D02*
X129760000Y-67079600D01*
X129760000Y-67079600D02*
X143581000Y-67079600D01*
X143581000Y-67079600D02*
X144193000Y-67691700D01*
X144193000Y-67691700D02*
X144193000Y-68786300D01*
X144193000Y-68786300D02*
X145077000Y-69670200D01*
X145077000Y-69670200D02*
X149584000Y-69670200D01*
X149584000Y-69670200D02*
X155479000Y-75565000D01*
X155479000Y-75565000D02*
X156718000Y-75565000D01*
G04 #@! TO.N,/D4*
X175829000Y-95474000D02*
X174654000Y-95474000D01*
X174654000Y-95474000D02*
X174654000Y-94872500D01*
X174654000Y-94872500D02*
X168271000Y-88490200D01*
X168271000Y-88490200D02*
X167927000Y-88490200D01*
X167927000Y-88490200D02*
X159258000Y-79821000D01*
X159258000Y-79821000D02*
X159258000Y-75565000D01*
G04 #@! TO.N,/D3*
X161798000Y-75565000D02*
X163037000Y-75565000D01*
X163037000Y-75565000D02*
X163037000Y-77211700D01*
X163037000Y-77211700D02*
X178369000Y-92543800D01*
X178369000Y-92543800D02*
X178369000Y-95474000D01*
G04 #@! TO.N,/D2*
X164338000Y-75565000D02*
X164338000Y-76956300D01*
X164338000Y-76956300D02*
X180909000Y-93527300D01*
X180909000Y-93527300D02*
X180909000Y-95474000D01*
G04 #@! TO.N,/D1*
X180909000Y-110714000D02*
X180909000Y-109539000D01*
X180909000Y-109539000D02*
X182680000Y-107768000D01*
X182680000Y-107768000D02*
X182680000Y-89500600D01*
X182680000Y-89500600D02*
X170688000Y-77508500D01*
X170688000Y-77508500D02*
X170688000Y-74928500D01*
X170688000Y-74928500D02*
X169916000Y-74156100D01*
X169916000Y-74156100D02*
X168860000Y-74156100D01*
X168860000Y-74156100D02*
X168117000Y-74899200D01*
X168117000Y-74899200D02*
X168117000Y-75565000D01*
X168117000Y-75565000D02*
X166878000Y-75565000D01*
G04 #@! TO.N,/D0*
X169418000Y-76973400D02*
X169418000Y-75565000D01*
X175829000Y-110714000D02*
X175829000Y-109539000D01*
X175829000Y-109539000D02*
X182130000Y-103238000D01*
X182130000Y-103238000D02*
X182130000Y-93969600D01*
X182130000Y-93969600D02*
X169418000Y-81257900D01*
X169418000Y-81257900D02*
X169418000Y-76973400D01*
X169418000Y-76973400D02*
X166361000Y-76973400D01*
X166361000Y-76973400D02*
X165608000Y-76220200D01*
X165608000Y-76220200D02*
X165608000Y-68859700D01*
X165608000Y-68859700D02*
X161262000Y-64514100D01*
X161262000Y-64514100D02*
X124652000Y-64514100D01*
X124652000Y-64514100D02*
X123918000Y-65248100D01*
X123918000Y-65248100D02*
X123918000Y-66317500D01*
X123918000Y-66317500D02*
X123156000Y-67079700D01*
X123156000Y-67079700D02*
X122648000Y-67079700D01*
X122648000Y-67079700D02*
X122648000Y-68305000D01*
G04 #@! TO.N,Net-(U1-Pad20)*
X163129000Y-95474000D02*
X163129000Y-94298700D01*
X163129000Y-94298700D02*
X156764000Y-87934200D01*
X156764000Y-87934200D02*
X156647000Y-87934200D01*
G04 #@! TO.N,Net-(U1-Pad23)*
X155509000Y-95474000D02*
X154334000Y-95474000D01*
X154334000Y-95474000D02*
X154334000Y-96057200D01*
X154334000Y-96057200D02*
X147232000Y-103158000D01*
G04 #@! TO.N,Net-(U2-Pad13)*
X116393000Y-101824000D02*
X116393000Y-104364000D01*
X127442000Y-94204000D02*
X127442000Y-95379300D01*
X127442000Y-95379300D02*
X127807000Y-95379300D01*
X127807000Y-95379300D02*
X128626000Y-96197800D01*
X128626000Y-96197800D02*
X128626000Y-97230400D01*
X128626000Y-97230400D02*
X127842000Y-98014000D01*
X127842000Y-98014000D02*
X121378000Y-98014000D01*
X121378000Y-98014000D02*
X117568000Y-101824000D01*
X117568000Y-101824000D02*
X116393000Y-101824000D01*
X127442000Y-94204000D02*
X127442000Y-91664000D01*
D26*
G04 #@! TO.N,GNDD*
X169733000Y-115453000D02*
X170672000Y-116392000D01*
X170672000Y-116392000D02*
X176374000Y-116392000D01*
X176374000Y-116392000D02*
X177734000Y-115032000D01*
X154112000Y-116572000D02*
X154218000Y-116678000D01*
X154218000Y-116678000D02*
X168508000Y-116678000D01*
X168508000Y-116678000D02*
X169733000Y-115453000D01*
X148016000Y-81504000D02*
X149347000Y-82835000D01*
X149347000Y-82835000D02*
X149347000Y-87793000D01*
X149347000Y-87793000D02*
X148016000Y-89124000D01*
X143658000Y-102840000D02*
X143658000Y-96022000D01*
X143658000Y-96022000D02*
X148016000Y-91664000D01*
X154112000Y-115286000D02*
X154112000Y-116572000D01*
X154112000Y-116572000D02*
X154112000Y-116661000D01*
X154112000Y-116661000D02*
X151638000Y-119135000D01*
X151638000Y-119135000D02*
X151638000Y-123825000D01*
X178369000Y-110714000D02*
X178369000Y-114397000D01*
X178369000Y-114397000D02*
X177734000Y-115032000D01*
X132435000Y-102840000D02*
X132435000Y-96831000D01*
X132435000Y-96831000D02*
X135062000Y-94204000D01*
X145516000Y-108555000D02*
X143658000Y-106697000D01*
X143658000Y-106697000D02*
X143658000Y-102840000D01*
X132435000Y-96831000D02*
X132435000Y-96831000D01*
D25*
G04 #@! TO.N,/~CE*
X161798000Y-123825000D02*
X160559000Y-123825000D01*
X160559000Y-123825000D02*
X160559000Y-122196000D01*
X160559000Y-122196000D02*
X159192000Y-120829000D01*
X159192000Y-120829000D02*
X159192000Y-119604000D01*
G04 #@! TO.N,Net-(Q1-Pad3)*
X168336000Y-68550000D02*
X168558000Y-68885000D01*
X168558000Y-68885000D02*
X170749000Y-71471000D01*
X170749000Y-71471000D02*
X180274000Y-71471000D01*
G04 #@! TO.N,Net-(JP3-Pad1)*
X140396000Y-96744000D02*
X138043000Y-99097400D01*
X138043000Y-99097400D02*
X138043000Y-105094000D01*
X138043000Y-105094000D02*
X135697000Y-107440000D01*
X135697000Y-107440000D02*
X135697000Y-119629000D01*
X135697000Y-119629000D02*
X134451000Y-120875000D01*
X134451000Y-120875000D02*
X131126000Y-120875000D01*
X131126000Y-120875000D02*
X129347000Y-119096000D01*
G04 #@! TO.N,Net-(JP3-Pad3)*
X131887000Y-119096000D02*
X131887000Y-117871000D01*
X131887000Y-117871000D02*
X132347000Y-117871000D01*
X132347000Y-117871000D02*
X133112000Y-117105000D01*
X133112000Y-117105000D02*
X133112000Y-108423000D01*
X133112000Y-108423000D02*
X137492000Y-104043000D01*
X137492000Y-104043000D02*
X137492000Y-97917800D01*
X137492000Y-97917800D02*
X140031000Y-95379300D01*
X140031000Y-95379300D02*
X140396000Y-95379300D01*
X140396000Y-95379300D02*
X140396000Y-94204000D01*
G04 #@! TO.N,Net-(JP3-Pad5)*
X140396000Y-91664000D02*
X140396000Y-92839300D01*
X140396000Y-92839300D02*
X140029000Y-92839300D01*
X140029000Y-92839300D02*
X136942000Y-95926100D01*
X136942000Y-95926100D02*
X136942000Y-103709000D01*
X136942000Y-103709000D02*
X130623000Y-110028000D01*
X130623000Y-110028000D02*
X130623000Y-119568000D01*
X130623000Y-119568000D02*
X131380000Y-120325000D01*
X131380000Y-120325000D02*
X132481000Y-120325000D01*
X132481000Y-120325000D02*
X133202000Y-119604000D01*
X133202000Y-119604000D02*
X133202000Y-119096000D01*
X133202000Y-119096000D02*
X134427000Y-119096000D01*
G04 #@! TO.N,Net-(JP3-Pad7)*
X140396000Y-89124000D02*
X140396000Y-90299300D01*
X140396000Y-90299300D02*
X140763000Y-90299300D01*
X140763000Y-90299300D02*
X141586000Y-91121600D01*
X141586000Y-91121600D02*
X141586000Y-97292400D01*
X141586000Y-97292400D02*
X140864000Y-98014000D01*
X140864000Y-98014000D02*
X139998000Y-98014000D01*
X139998000Y-98014000D02*
X138787000Y-99224900D01*
X138787000Y-99224900D02*
X138787000Y-105404000D01*
X138787000Y-105404000D02*
X138237000Y-105954000D01*
X138237000Y-105954000D02*
X138237000Y-117108000D01*
X138237000Y-117108000D02*
X137475000Y-117871000D01*
X137475000Y-117871000D02*
X136967000Y-117871000D01*
X136967000Y-117871000D02*
X136967000Y-119096000D01*
G04 #@! TO.N,Net-(JP3-Pad9)*
X140396000Y-86584000D02*
X140396000Y-87759300D01*
X140396000Y-87759300D02*
X140029000Y-87759300D01*
X140029000Y-87759300D02*
X136392000Y-91396500D01*
X136392000Y-91396500D02*
X136392000Y-103046000D01*
X136392000Y-103046000D02*
X128110000Y-111327000D01*
X128110000Y-111327000D02*
X128110000Y-120090000D01*
X128110000Y-120090000D02*
X129466000Y-121446000D01*
X129466000Y-121446000D02*
X136440000Y-121446000D01*
X136440000Y-121446000D02*
X138282000Y-119604000D01*
X138282000Y-119604000D02*
X138282000Y-119096000D01*
X138282000Y-119096000D02*
X139507000Y-119096000D01*
G04 #@! TO.N,Net-(JP3-Pad11)*
X140396000Y-84044000D02*
X140396000Y-85219300D01*
X140396000Y-85219300D02*
X140763000Y-85219300D01*
X140763000Y-85219300D02*
X142408000Y-86864000D01*
X142408000Y-86864000D02*
X142408000Y-110764000D01*
X142408000Y-110764000D02*
X143317000Y-111673000D01*
X143317000Y-111673000D02*
X143317000Y-117108000D01*
X143317000Y-117108000D02*
X142555000Y-117871000D01*
X142555000Y-117871000D02*
X142047000Y-117871000D01*
X142047000Y-117871000D02*
X142047000Y-119096000D01*
G04 #@! TO.N,Net-(JP3-Pad13)*
X140396000Y-81504000D02*
X140396000Y-82679300D01*
X140396000Y-82679300D02*
X140029000Y-82679300D01*
X140029000Y-82679300D02*
X139221000Y-83487200D01*
X139221000Y-83487200D02*
X139221000Y-84100800D01*
X139221000Y-84100800D02*
X135468000Y-87854000D01*
X135468000Y-87854000D02*
X134578000Y-87854000D01*
X134578000Y-87854000D02*
X130371000Y-92061500D01*
X130371000Y-92061500D02*
X130371000Y-102246000D01*
X130371000Y-102246000D02*
X127560000Y-105057000D01*
X127560000Y-105057000D02*
X127560000Y-120318000D01*
X127560000Y-120318000D02*
X129238000Y-121996000D01*
X129238000Y-121996000D02*
X140970000Y-121996000D01*
X140970000Y-121996000D02*
X143362000Y-119604000D01*
X143362000Y-119604000D02*
X143362000Y-119096000D01*
X143362000Y-119096000D02*
X144587000Y-119096000D01*
G04 #@! TO.N,Net-(JP3-Pad15)*
X148016000Y-84044000D02*
X148016000Y-85219300D01*
X148016000Y-85219300D02*
X147649000Y-85219300D01*
X147649000Y-85219300D02*
X146841000Y-86027400D01*
X146841000Y-86027400D02*
X146841000Y-89647500D01*
X146841000Y-89647500D02*
X147587000Y-90394000D01*
X147587000Y-90394000D02*
X148490000Y-90394000D01*
X148490000Y-90394000D02*
X149227000Y-91131000D01*
X149227000Y-91131000D02*
X149227000Y-94655900D01*
X149227000Y-94655900D02*
X148408000Y-95474000D01*
X148408000Y-95474000D02*
X147614000Y-95474000D01*
X147614000Y-95474000D02*
X146527000Y-96561000D01*
X146527000Y-96561000D02*
X146527000Y-104167000D01*
X146527000Y-104167000D02*
X146691000Y-104332000D01*
X146691000Y-104332000D02*
X146691000Y-115091000D01*
X146691000Y-115091000D02*
X145857000Y-115926000D01*
X145857000Y-115926000D02*
X145857000Y-117108000D01*
X145857000Y-117108000D02*
X146619000Y-117871000D01*
X146619000Y-117871000D02*
X147127000Y-117871000D01*
X147127000Y-117871000D02*
X147127000Y-119096000D01*
G04 #@! TO.N,Net-(R5-Pad1)*
X116393000Y-89124000D02*
X116393000Y-91664000D01*
X116393000Y-89124000D02*
X116393000Y-87370000D01*
X116393000Y-87370000D02*
X117268000Y-86495000D01*
G04 #@! TO.N,Net-(R5-Pad2)*
X124888000Y-86495000D02*
X127353000Y-86495000D01*
X127353000Y-86495000D02*
X127442000Y-86584000D01*
G04 #@! TO.N,/A7*
X165021000Y-84626600D02*
X160528000Y-80133400D01*
X160528000Y-80133400D02*
X160528000Y-74868600D01*
X160528000Y-74868600D02*
X159833000Y-74173600D01*
X159833000Y-74173600D02*
X157214000Y-74173600D01*
X157214000Y-74173600D02*
X151858000Y-68817200D01*
X151858000Y-68817200D02*
X151858000Y-67752500D01*
X151858000Y-67752500D02*
X151096000Y-66990300D01*
X151096000Y-66990300D02*
X150588000Y-66990300D01*
X150588000Y-66990300D02*
X150588000Y-65765000D01*
G04 #@! TO.N,Net-(JP5-Pad1)*
X139954000Y-75565000D02*
X138715100Y-75565000D01*
X138715100Y-75565000D02*
X138715100Y-74945600D01*
X138715100Y-74945600D02*
X135008700Y-71239200D01*
X135008700Y-71239200D02*
X131403600Y-71239200D01*
X131403600Y-71239200D02*
X128981400Y-68817000D01*
X128981400Y-68817000D02*
X128981400Y-67801000D01*
X128981400Y-67801000D02*
X128260000Y-67079600D01*
X128260000Y-67079600D02*
X127014200Y-67079600D01*
X127014200Y-67079600D02*
X126868500Y-67225300D01*
G04 #@! TO.N,Net-(JP5-Pad3)*
X174813000Y-60803000D02*
X174813000Y-62028300D01*
X174813000Y-62028300D02*
X175956000Y-63171300D01*
X175956000Y-63171300D02*
X175956000Y-64867000D01*
X176010000Y-65031500D02*
X175938000Y-64815000D01*
X180274000Y-68931000D02*
X179718000Y-68715000D01*
X179718000Y-68715000D02*
X176083000Y-65248000D01*
X176083000Y-65248000D02*
X176010000Y-65031500D01*
X176010000Y-65031500D02*
X175956000Y-64977000D01*
X175956000Y-64977000D02*
X175956000Y-64867000D01*
G04 #@! TD*
D27*
G04 #@! TO.N,GNDA*
G36*
X111772001Y-83823892D02*
X111598439Y-83752000D01*
X111027561Y-83752000D01*
X110500138Y-83970466D01*
X110096466Y-84374138D01*
X109878000Y-84901561D01*
X109878000Y-85472439D01*
X110096466Y-85999862D01*
X110500138Y-86403534D01*
X110503001Y-86404720D01*
X110503000Y-90520454D01*
X110042452Y-90980939D01*
X109807577Y-90629423D01*
X109583000Y-90479365D01*
X109583000Y-90308635D01*
X109807577Y-90158577D01*
X110124740Y-89683909D01*
X110236113Y-89124000D01*
X110124740Y-88564091D01*
X109807577Y-88089423D01*
X109332909Y-87772260D01*
X108914333Y-87689000D01*
X108631667Y-87689000D01*
X108213091Y-87772260D01*
X107738423Y-88089423D01*
X107421260Y-88564091D01*
X107309887Y-89124000D01*
X107421260Y-89683909D01*
X107738423Y-90158577D01*
X107963001Y-90308635D01*
X107963000Y-90479365D01*
X107738423Y-90629423D01*
X107421260Y-91104091D01*
X107309887Y-91664000D01*
X107421260Y-92223909D01*
X107738423Y-92698577D01*
X107980609Y-92860400D01*
X107947132Y-93028700D01*
X107947355Y-93029819D01*
X107738423Y-93169423D01*
X107421260Y-93644091D01*
X107309887Y-94204000D01*
X107421260Y-94763909D01*
X107738423Y-95238577D01*
X108122108Y-95494947D01*
X107917866Y-95591611D01*
X107541959Y-96006577D01*
X107381096Y-96394961D01*
X107503085Y-96617000D01*
X108646000Y-96617000D01*
X108646000Y-96597000D01*
X108900000Y-96597000D01*
X108900000Y-96617000D01*
X110042915Y-96617000D01*
X110164904Y-96394961D01*
X110004041Y-96006577D01*
X109628134Y-95591611D01*
X109423892Y-95494947D01*
X109807577Y-95238577D01*
X110124740Y-94763909D01*
X110236113Y-94204000D01*
X110124740Y-93644091D01*
X109942658Y-93371586D01*
X111772001Y-91542496D01*
X111772001Y-92988983D01*
X111753194Y-93083566D01*
X111791287Y-93275008D01*
X111827701Y-93458073D01*
X111827719Y-93458100D01*
X111827726Y-93458135D01*
X111931004Y-93612677D01*
X112039880Y-93775621D01*
X112120063Y-93829197D01*
X114947368Y-96656118D01*
X114929887Y-96744000D01*
X115041260Y-97303909D01*
X115358423Y-97778577D01*
X115710758Y-98014000D01*
X115358423Y-98249423D01*
X115041260Y-98724091D01*
X114929887Y-99284000D01*
X115041260Y-99843909D01*
X115358423Y-100318577D01*
X115710758Y-100554000D01*
X115358423Y-100789423D01*
X115041260Y-101264091D01*
X114929887Y-101824000D01*
X115041260Y-102383909D01*
X115358423Y-102858577D01*
X115479106Y-102939215D01*
X115345235Y-102965843D01*
X115135191Y-103106191D01*
X114994843Y-103316235D01*
X114945560Y-103564000D01*
X114945560Y-105164000D01*
X114994843Y-105411765D01*
X115135191Y-105621809D01*
X115345235Y-105762157D01*
X115593000Y-105811440D01*
X117193000Y-105811440D01*
X117440765Y-105762157D01*
X117650809Y-105621809D01*
X117791157Y-105411765D01*
X117840440Y-105164000D01*
X117840440Y-103564000D01*
X117791157Y-103316235D01*
X117650809Y-103106191D01*
X117440765Y-102965843D01*
X117306894Y-102939215D01*
X117427577Y-102858577D01*
X117567145Y-102649698D01*
X117568000Y-102649868D01*
X117647773Y-102634000D01*
X117647774Y-102634000D01*
X117884046Y-102587003D01*
X118151977Y-102407977D01*
X118197168Y-102340344D01*
X120457000Y-100080513D01*
X120457000Y-129002000D01*
X87436711Y-129002000D01*
X87427813Y-125104501D01*
X89381000Y-125104501D01*
X89381000Y-126165499D01*
X89787026Y-127145734D01*
X90537266Y-127895974D01*
X91517501Y-128302000D01*
X92578499Y-128302000D01*
X93558734Y-127895974D01*
X94308974Y-127145734D01*
X94715000Y-126165499D01*
X94715000Y-125104501D01*
X94308974Y-124124266D01*
X93558734Y-123374026D01*
X92578499Y-122968000D01*
X91517501Y-122968000D01*
X90537266Y-123374026D01*
X89787026Y-124124266D01*
X89381000Y-125104501D01*
X87427813Y-125104501D01*
X87403007Y-114238561D01*
X94170000Y-114238561D01*
X94170000Y-114809439D01*
X94388466Y-115336862D01*
X94792138Y-115740534D01*
X95319561Y-115959000D01*
X95890439Y-115959000D01*
X96417862Y-115740534D01*
X96686899Y-115471497D01*
X96706843Y-115571765D01*
X96847191Y-115781809D01*
X97057235Y-115922157D01*
X97305000Y-115971440D01*
X98905000Y-115971440D01*
X99152765Y-115922157D01*
X99362809Y-115781809D01*
X99503157Y-115571765D01*
X99552440Y-115324000D01*
X99552440Y-113724000D01*
X99503157Y-113476235D01*
X99362809Y-113266191D01*
X99152765Y-113125843D01*
X98905000Y-113076560D01*
X98197952Y-113076560D01*
X101079396Y-110195116D01*
X101267109Y-110320542D01*
X101656515Y-110398000D01*
X101919485Y-110398000D01*
X102308891Y-110320542D01*
X102682738Y-110070745D01*
X105611861Y-110070745D01*
X105685995Y-110316864D01*
X106223223Y-110509965D01*
X106793454Y-110482778D01*
X107194005Y-110316864D01*
X107268139Y-110070745D01*
X106440000Y-109242605D01*
X105611861Y-110070745D01*
X102682738Y-110070745D01*
X102750481Y-110025481D01*
X103045542Y-109583891D01*
X103149154Y-109063000D01*
X103106035Y-108846223D01*
X104993035Y-108846223D01*
X105020222Y-109416454D01*
X105186136Y-109817005D01*
X105432255Y-109891139D01*
X106260395Y-109063000D01*
X106619605Y-109063000D01*
X107447745Y-109891139D01*
X107693864Y-109817005D01*
X107886965Y-109279777D01*
X107863021Y-108777561D01*
X110005000Y-108777561D01*
X110005000Y-109348439D01*
X110223466Y-109875862D01*
X110627138Y-110279534D01*
X111154561Y-110498000D01*
X111725439Y-110498000D01*
X112252862Y-110279534D01*
X112656534Y-109875862D01*
X112875000Y-109348439D01*
X112875000Y-108777561D01*
X112656534Y-108250138D01*
X112252862Y-107846466D01*
X111725439Y-107628000D01*
X111154561Y-107628000D01*
X110627138Y-107846466D01*
X110223466Y-108250138D01*
X110005000Y-108777561D01*
X107863021Y-108777561D01*
X107859778Y-108709546D01*
X107693864Y-108308995D01*
X107447745Y-108234861D01*
X106619605Y-109063000D01*
X106260395Y-109063000D01*
X105432255Y-108234861D01*
X105186136Y-108308995D01*
X104993035Y-108846223D01*
X103106035Y-108846223D01*
X103045542Y-108542109D01*
X102750481Y-108100519D01*
X102682739Y-108055255D01*
X105611861Y-108055255D01*
X106440000Y-108883395D01*
X107268139Y-108055255D01*
X107194005Y-107809136D01*
X106656777Y-107616035D01*
X106086546Y-107643222D01*
X105685995Y-107809136D01*
X105611861Y-108055255D01*
X102682739Y-108055255D01*
X102308891Y-107805458D01*
X101919485Y-107728000D01*
X101656515Y-107728000D01*
X101267109Y-107805458D01*
X100825519Y-108100519D01*
X100731746Y-108240861D01*
X100713000Y-108237132D01*
X100633226Y-108253000D01*
X100396954Y-108299997D01*
X100129023Y-108479023D01*
X99949997Y-108746954D01*
X99887132Y-109063000D01*
X99892666Y-109090821D01*
X95893302Y-113090186D01*
X95890439Y-113089000D01*
X95319561Y-113089000D01*
X94792138Y-113307466D01*
X94388466Y-113711138D01*
X94170000Y-114238561D01*
X87403007Y-114238561D01*
X87390584Y-108797452D01*
X92833000Y-108797452D01*
X92833000Y-109328548D01*
X93036242Y-109819217D01*
X93411783Y-110194758D01*
X93902452Y-110398000D01*
X94433548Y-110398000D01*
X94924217Y-110194758D01*
X95299758Y-109819217D01*
X95503000Y-109328548D01*
X95503000Y-108797452D01*
X95299758Y-108306783D01*
X94978000Y-107985025D01*
X94978000Y-103801838D01*
X95263268Y-103920000D01*
X96092732Y-103920000D01*
X96859058Y-103602578D01*
X97445578Y-103016058D01*
X97763000Y-102249732D01*
X97763000Y-101420268D01*
X97680158Y-101220268D01*
X101393000Y-101220268D01*
X101393000Y-102049732D01*
X101710422Y-102816058D01*
X102296942Y-103402578D01*
X103063268Y-103720000D01*
X103892732Y-103720000D01*
X104659058Y-103402578D01*
X105245578Y-102816058D01*
X105563000Y-102049732D01*
X105563000Y-101220268D01*
X105245578Y-100453942D01*
X104659058Y-99867422D01*
X103892732Y-99550000D01*
X103063268Y-99550000D01*
X102296942Y-99867422D01*
X101710422Y-100453942D01*
X101393000Y-101220268D01*
X97680158Y-101220268D01*
X97445578Y-100653942D01*
X96859058Y-100067422D01*
X96092732Y-99750000D01*
X95263268Y-99750000D01*
X94496942Y-100067422D01*
X93910422Y-100653942D01*
X93593000Y-101420268D01*
X93593000Y-102249732D01*
X93746697Y-102620791D01*
X93651654Y-102715834D01*
X93584024Y-102761023D01*
X93538835Y-102828653D01*
X93404998Y-103028954D01*
X93342132Y-103345000D01*
X93358001Y-103424778D01*
X93358000Y-107985025D01*
X93036242Y-108306783D01*
X92833000Y-108797452D01*
X87390584Y-108797452D01*
X87367788Y-98812849D01*
X90879756Y-98812849D01*
X91033435Y-99126424D01*
X91806108Y-99428066D01*
X92635398Y-99411058D01*
X92942143Y-99284000D01*
X107309887Y-99284000D01*
X107421260Y-99843909D01*
X107738423Y-100318577D01*
X108090758Y-100554000D01*
X107738423Y-100789423D01*
X107421260Y-101264091D01*
X107309887Y-101824000D01*
X107421260Y-102383909D01*
X107738423Y-102858577D01*
X107963001Y-103008635D01*
X107963000Y-103179365D01*
X107738423Y-103329423D01*
X107421260Y-103804091D01*
X107309887Y-104364000D01*
X107421260Y-104923909D01*
X107738423Y-105398577D01*
X108213091Y-105715740D01*
X108631667Y-105799000D01*
X108914333Y-105799000D01*
X109332909Y-105715740D01*
X109807577Y-105398577D01*
X110124740Y-104923909D01*
X110236113Y-104364000D01*
X110124740Y-103804091D01*
X109807577Y-103329423D01*
X109583000Y-103179365D01*
X109583000Y-103008635D01*
X109807577Y-102858577D01*
X110124740Y-102383909D01*
X110236113Y-101824000D01*
X110124740Y-101264091D01*
X109807577Y-100789423D01*
X109455242Y-100554000D01*
X109807577Y-100318577D01*
X110124740Y-99843909D01*
X110236113Y-99284000D01*
X110124740Y-98724091D01*
X109807577Y-98249423D01*
X109423892Y-97993053D01*
X109628134Y-97896389D01*
X110004041Y-97481423D01*
X110164904Y-97093039D01*
X110042915Y-96871000D01*
X108900000Y-96871000D01*
X108900000Y-96891000D01*
X108646000Y-96891000D01*
X108646000Y-96871000D01*
X107503085Y-96871000D01*
X107381096Y-97093039D01*
X107541959Y-97481423D01*
X107917866Y-97896389D01*
X108122108Y-97993053D01*
X107738423Y-98249423D01*
X107421260Y-98724091D01*
X107309887Y-99284000D01*
X92942143Y-99284000D01*
X93322565Y-99126424D01*
X93476244Y-98812849D01*
X92178000Y-97514605D01*
X90879756Y-98812849D01*
X87367788Y-98812849D01*
X87363564Y-96963108D01*
X90084934Y-96963108D01*
X90101942Y-97792398D01*
X90386576Y-98479565D01*
X90700151Y-98633244D01*
X91998395Y-97335000D01*
X92357605Y-97335000D01*
X93655849Y-98633244D01*
X93969424Y-98479565D01*
X94271066Y-97706892D01*
X94254058Y-96877602D01*
X93969424Y-96190435D01*
X93655849Y-96036756D01*
X92357605Y-97335000D01*
X91998395Y-97335000D01*
X90700151Y-96036756D01*
X90386576Y-96190435D01*
X90084934Y-96963108D01*
X87363564Y-96963108D01*
X87361039Y-95857151D01*
X90879756Y-95857151D01*
X92178000Y-97155395D01*
X93476244Y-95857151D01*
X93322565Y-95543576D01*
X92549892Y-95241934D01*
X91720602Y-95258942D01*
X91033435Y-95543576D01*
X90879756Y-95857151D01*
X87361039Y-95857151D01*
X87338099Y-85809452D01*
X92413000Y-85809452D01*
X92413000Y-86340548D01*
X92616242Y-86831217D01*
X92991783Y-87206758D01*
X93482452Y-87410000D01*
X93937488Y-87410000D01*
X98693000Y-92165513D01*
X98693000Y-92329841D01*
X98784193Y-92550000D01*
X98603050Y-92550000D01*
X97910233Y-92836974D01*
X97379974Y-93367233D01*
X97093000Y-94060050D01*
X97093000Y-94809950D01*
X97379974Y-95502767D01*
X97910233Y-96033026D01*
X98603050Y-96320000D01*
X99352950Y-96320000D01*
X100045767Y-96033026D01*
X100576026Y-95502767D01*
X100863000Y-94809950D01*
X100863000Y-94060050D01*
X100804989Y-93920000D01*
X101072841Y-93920000D01*
X101802412Y-93617801D01*
X102360801Y-93059412D01*
X102663000Y-92329841D01*
X102663000Y-91540159D01*
X102360801Y-90810588D01*
X101802412Y-90252199D01*
X101072841Y-89950000D01*
X100283159Y-89950000D01*
X99553588Y-90252199D01*
X99312150Y-90493637D01*
X95083000Y-86264488D01*
X95083000Y-85809452D01*
X94879758Y-85318783D01*
X94504217Y-84943242D01*
X94013548Y-84740000D01*
X93482452Y-84740000D01*
X92991783Y-84943242D01*
X92616242Y-85318783D01*
X92413000Y-85809452D01*
X87338099Y-85809452D01*
X87324138Y-79694561D01*
X94170000Y-79694561D01*
X94170000Y-80265439D01*
X94388466Y-80792862D01*
X94792138Y-81196534D01*
X95319561Y-81415000D01*
X95890439Y-81415000D01*
X95893339Y-81413799D01*
X99995840Y-85516055D01*
X100041023Y-85583677D01*
X100097121Y-85621160D01*
X100006846Y-86075000D01*
X100110458Y-86595891D01*
X100405519Y-87037481D01*
X100847109Y-87332542D01*
X101236515Y-87410000D01*
X101499485Y-87410000D01*
X101888891Y-87332542D01*
X102330481Y-87037481D01*
X102625542Y-86595891D01*
X102705335Y-86194745D01*
X105484861Y-86194745D01*
X105558995Y-86440864D01*
X106096223Y-86633965D01*
X106666454Y-86606778D01*
X107067005Y-86440864D01*
X107141139Y-86194745D01*
X106313000Y-85366605D01*
X105484861Y-86194745D01*
X102705335Y-86194745D01*
X102729154Y-86075000D01*
X102625542Y-85554109D01*
X102330481Y-85112519D01*
X102190087Y-85018710D01*
X102193868Y-84999700D01*
X102188005Y-84970223D01*
X104866035Y-84970223D01*
X104893222Y-85540454D01*
X105059136Y-85941005D01*
X105305255Y-86015139D01*
X106133395Y-85187000D01*
X106492605Y-85187000D01*
X107320745Y-86015139D01*
X107566864Y-85941005D01*
X107759965Y-85403777D01*
X107732778Y-84833546D01*
X107566864Y-84432995D01*
X107320745Y-84358861D01*
X106492605Y-85187000D01*
X106133395Y-85187000D01*
X105305255Y-84358861D01*
X105059136Y-84432995D01*
X104866035Y-84970223D01*
X102188005Y-84970223D01*
X102131003Y-84683654D01*
X101951977Y-84415723D01*
X101684046Y-84236697D01*
X101447774Y-84189700D01*
X101395264Y-84179255D01*
X105484861Y-84179255D01*
X106313000Y-85007395D01*
X107141139Y-84179255D01*
X107067005Y-83933136D01*
X106529777Y-83740035D01*
X105959546Y-83767222D01*
X105558995Y-83933136D01*
X105484861Y-84179255D01*
X101395264Y-84179255D01*
X101368000Y-84173832D01*
X101288226Y-84189700D01*
X100960498Y-84189700D01*
X98198073Y-81427440D01*
X98905000Y-81427440D01*
X99152765Y-81378157D01*
X99362809Y-81237809D01*
X99503157Y-81027765D01*
X99552440Y-80780000D01*
X99552440Y-79180000D01*
X99503157Y-78932235D01*
X99362809Y-78722191D01*
X99152765Y-78581843D01*
X98905000Y-78532560D01*
X97305000Y-78532560D01*
X97057235Y-78581843D01*
X96847191Y-78722191D01*
X96706843Y-78932235D01*
X96686899Y-79032503D01*
X96417862Y-78763466D01*
X95890439Y-78545000D01*
X95319561Y-78545000D01*
X94792138Y-78763466D01*
X94388466Y-79167138D01*
X94170000Y-79694561D01*
X87324138Y-79694561D01*
X87310291Y-73630000D01*
X111772000Y-73630000D01*
X111772001Y-83823892D01*
X111772001Y-83823892D01*
G37*
X111772001Y-83823892D02*
X111598439Y-83752000D01*
X111027561Y-83752000D01*
X110500138Y-83970466D01*
X110096466Y-84374138D01*
X109878000Y-84901561D01*
X109878000Y-85472439D01*
X110096466Y-85999862D01*
X110500138Y-86403534D01*
X110503001Y-86404720D01*
X110503000Y-90520454D01*
X110042452Y-90980939D01*
X109807577Y-90629423D01*
X109583000Y-90479365D01*
X109583000Y-90308635D01*
X109807577Y-90158577D01*
X110124740Y-89683909D01*
X110236113Y-89124000D01*
X110124740Y-88564091D01*
X109807577Y-88089423D01*
X109332909Y-87772260D01*
X108914333Y-87689000D01*
X108631667Y-87689000D01*
X108213091Y-87772260D01*
X107738423Y-88089423D01*
X107421260Y-88564091D01*
X107309887Y-89124000D01*
X107421260Y-89683909D01*
X107738423Y-90158577D01*
X107963001Y-90308635D01*
X107963000Y-90479365D01*
X107738423Y-90629423D01*
X107421260Y-91104091D01*
X107309887Y-91664000D01*
X107421260Y-92223909D01*
X107738423Y-92698577D01*
X107980609Y-92860400D01*
X107947132Y-93028700D01*
X107947355Y-93029819D01*
X107738423Y-93169423D01*
X107421260Y-93644091D01*
X107309887Y-94204000D01*
X107421260Y-94763909D01*
X107738423Y-95238577D01*
X108122108Y-95494947D01*
X107917866Y-95591611D01*
X107541959Y-96006577D01*
X107381096Y-96394961D01*
X107503085Y-96617000D01*
X108646000Y-96617000D01*
X108646000Y-96597000D01*
X108900000Y-96597000D01*
X108900000Y-96617000D01*
X110042915Y-96617000D01*
X110164904Y-96394961D01*
X110004041Y-96006577D01*
X109628134Y-95591611D01*
X109423892Y-95494947D01*
X109807577Y-95238577D01*
X110124740Y-94763909D01*
X110236113Y-94204000D01*
X110124740Y-93644091D01*
X109942658Y-93371586D01*
X111772001Y-91542496D01*
X111772001Y-92988983D01*
X111753194Y-93083566D01*
X111791287Y-93275008D01*
X111827701Y-93458073D01*
X111827719Y-93458100D01*
X111827726Y-93458135D01*
X111931004Y-93612677D01*
X112039880Y-93775621D01*
X112120063Y-93829197D01*
X114947368Y-96656118D01*
X114929887Y-96744000D01*
X115041260Y-97303909D01*
X115358423Y-97778577D01*
X115710758Y-98014000D01*
X115358423Y-98249423D01*
X115041260Y-98724091D01*
X114929887Y-99284000D01*
X115041260Y-99843909D01*
X115358423Y-100318577D01*
X115710758Y-100554000D01*
X115358423Y-100789423D01*
X115041260Y-101264091D01*
X114929887Y-101824000D01*
X115041260Y-102383909D01*
X115358423Y-102858577D01*
X115479106Y-102939215D01*
X115345235Y-102965843D01*
X115135191Y-103106191D01*
X114994843Y-103316235D01*
X114945560Y-103564000D01*
X114945560Y-105164000D01*
X114994843Y-105411765D01*
X115135191Y-105621809D01*
X115345235Y-105762157D01*
X115593000Y-105811440D01*
X117193000Y-105811440D01*
X117440765Y-105762157D01*
X117650809Y-105621809D01*
X117791157Y-105411765D01*
X117840440Y-105164000D01*
X117840440Y-103564000D01*
X117791157Y-103316235D01*
X117650809Y-103106191D01*
X117440765Y-102965843D01*
X117306894Y-102939215D01*
X117427577Y-102858577D01*
X117567145Y-102649698D01*
X117568000Y-102649868D01*
X117647773Y-102634000D01*
X117647774Y-102634000D01*
X117884046Y-102587003D01*
X118151977Y-102407977D01*
X118197168Y-102340344D01*
X120457000Y-100080513D01*
X120457000Y-129002000D01*
X87436711Y-129002000D01*
X87427813Y-125104501D01*
X89381000Y-125104501D01*
X89381000Y-126165499D01*
X89787026Y-127145734D01*
X90537266Y-127895974D01*
X91517501Y-128302000D01*
X92578499Y-128302000D01*
X93558734Y-127895974D01*
X94308974Y-127145734D01*
X94715000Y-126165499D01*
X94715000Y-125104501D01*
X94308974Y-124124266D01*
X93558734Y-123374026D01*
X92578499Y-122968000D01*
X91517501Y-122968000D01*
X90537266Y-123374026D01*
X89787026Y-124124266D01*
X89381000Y-125104501D01*
X87427813Y-125104501D01*
X87403007Y-114238561D01*
X94170000Y-114238561D01*
X94170000Y-114809439D01*
X94388466Y-115336862D01*
X94792138Y-115740534D01*
X95319561Y-115959000D01*
X95890439Y-115959000D01*
X96417862Y-115740534D01*
X96686899Y-115471497D01*
X96706843Y-115571765D01*
X96847191Y-115781809D01*
X97057235Y-115922157D01*
X97305000Y-115971440D01*
X98905000Y-115971440D01*
X99152765Y-115922157D01*
X99362809Y-115781809D01*
X99503157Y-115571765D01*
X99552440Y-115324000D01*
X99552440Y-113724000D01*
X99503157Y-113476235D01*
X99362809Y-113266191D01*
X99152765Y-113125843D01*
X98905000Y-113076560D01*
X98197952Y-113076560D01*
X101079396Y-110195116D01*
X101267109Y-110320542D01*
X101656515Y-110398000D01*
X101919485Y-110398000D01*
X102308891Y-110320542D01*
X102682738Y-110070745D01*
X105611861Y-110070745D01*
X105685995Y-110316864D01*
X106223223Y-110509965D01*
X106793454Y-110482778D01*
X107194005Y-110316864D01*
X107268139Y-110070745D01*
X106440000Y-109242605D01*
X105611861Y-110070745D01*
X102682738Y-110070745D01*
X102750481Y-110025481D01*
X103045542Y-109583891D01*
X103149154Y-109063000D01*
X103106035Y-108846223D01*
X104993035Y-108846223D01*
X105020222Y-109416454D01*
X105186136Y-109817005D01*
X105432255Y-109891139D01*
X106260395Y-109063000D01*
X106619605Y-109063000D01*
X107447745Y-109891139D01*
X107693864Y-109817005D01*
X107886965Y-109279777D01*
X107863021Y-108777561D01*
X110005000Y-108777561D01*
X110005000Y-109348439D01*
X110223466Y-109875862D01*
X110627138Y-110279534D01*
X111154561Y-110498000D01*
X111725439Y-110498000D01*
X112252862Y-110279534D01*
X112656534Y-109875862D01*
X112875000Y-109348439D01*
X112875000Y-108777561D01*
X112656534Y-108250138D01*
X112252862Y-107846466D01*
X111725439Y-107628000D01*
X111154561Y-107628000D01*
X110627138Y-107846466D01*
X110223466Y-108250138D01*
X110005000Y-108777561D01*
X107863021Y-108777561D01*
X107859778Y-108709546D01*
X107693864Y-108308995D01*
X107447745Y-108234861D01*
X106619605Y-109063000D01*
X106260395Y-109063000D01*
X105432255Y-108234861D01*
X105186136Y-108308995D01*
X104993035Y-108846223D01*
X103106035Y-108846223D01*
X103045542Y-108542109D01*
X102750481Y-108100519D01*
X102682739Y-108055255D01*
X105611861Y-108055255D01*
X106440000Y-108883395D01*
X107268139Y-108055255D01*
X107194005Y-107809136D01*
X106656777Y-107616035D01*
X106086546Y-107643222D01*
X105685995Y-107809136D01*
X105611861Y-108055255D01*
X102682739Y-108055255D01*
X102308891Y-107805458D01*
X101919485Y-107728000D01*
X101656515Y-107728000D01*
X101267109Y-107805458D01*
X100825519Y-108100519D01*
X100731746Y-108240861D01*
X100713000Y-108237132D01*
X100633226Y-108253000D01*
X100396954Y-108299997D01*
X100129023Y-108479023D01*
X99949997Y-108746954D01*
X99887132Y-109063000D01*
X99892666Y-109090821D01*
X95893302Y-113090186D01*
X95890439Y-113089000D01*
X95319561Y-113089000D01*
X94792138Y-113307466D01*
X94388466Y-113711138D01*
X94170000Y-114238561D01*
X87403007Y-114238561D01*
X87390584Y-108797452D01*
X92833000Y-108797452D01*
X92833000Y-109328548D01*
X93036242Y-109819217D01*
X93411783Y-110194758D01*
X93902452Y-110398000D01*
X94433548Y-110398000D01*
X94924217Y-110194758D01*
X95299758Y-109819217D01*
X95503000Y-109328548D01*
X95503000Y-108797452D01*
X95299758Y-108306783D01*
X94978000Y-107985025D01*
X94978000Y-103801838D01*
X95263268Y-103920000D01*
X96092732Y-103920000D01*
X96859058Y-103602578D01*
X97445578Y-103016058D01*
X97763000Y-102249732D01*
X97763000Y-101420268D01*
X97680158Y-101220268D01*
X101393000Y-101220268D01*
X101393000Y-102049732D01*
X101710422Y-102816058D01*
X102296942Y-103402578D01*
X103063268Y-103720000D01*
X103892732Y-103720000D01*
X104659058Y-103402578D01*
X105245578Y-102816058D01*
X105563000Y-102049732D01*
X105563000Y-101220268D01*
X105245578Y-100453942D01*
X104659058Y-99867422D01*
X103892732Y-99550000D01*
X103063268Y-99550000D01*
X102296942Y-99867422D01*
X101710422Y-100453942D01*
X101393000Y-101220268D01*
X97680158Y-101220268D01*
X97445578Y-100653942D01*
X96859058Y-100067422D01*
X96092732Y-99750000D01*
X95263268Y-99750000D01*
X94496942Y-100067422D01*
X93910422Y-100653942D01*
X93593000Y-101420268D01*
X93593000Y-102249732D01*
X93746697Y-102620791D01*
X93651654Y-102715834D01*
X93584024Y-102761023D01*
X93538835Y-102828653D01*
X93404998Y-103028954D01*
X93342132Y-103345000D01*
X93358001Y-103424778D01*
X93358000Y-107985025D01*
X93036242Y-108306783D01*
X92833000Y-108797452D01*
X87390584Y-108797452D01*
X87367788Y-98812849D01*
X90879756Y-98812849D01*
X91033435Y-99126424D01*
X91806108Y-99428066D01*
X92635398Y-99411058D01*
X92942143Y-99284000D01*
X107309887Y-99284000D01*
X107421260Y-99843909D01*
X107738423Y-100318577D01*
X108090758Y-100554000D01*
X107738423Y-100789423D01*
X107421260Y-101264091D01*
X107309887Y-101824000D01*
X107421260Y-102383909D01*
X107738423Y-102858577D01*
X107963001Y-103008635D01*
X107963000Y-103179365D01*
X107738423Y-103329423D01*
X107421260Y-103804091D01*
X107309887Y-104364000D01*
X107421260Y-104923909D01*
X107738423Y-105398577D01*
X108213091Y-105715740D01*
X108631667Y-105799000D01*
X108914333Y-105799000D01*
X109332909Y-105715740D01*
X109807577Y-105398577D01*
X110124740Y-104923909D01*
X110236113Y-104364000D01*
X110124740Y-103804091D01*
X109807577Y-103329423D01*
X109583000Y-103179365D01*
X109583000Y-103008635D01*
X109807577Y-102858577D01*
X110124740Y-102383909D01*
X110236113Y-101824000D01*
X110124740Y-101264091D01*
X109807577Y-100789423D01*
X109455242Y-100554000D01*
X109807577Y-100318577D01*
X110124740Y-99843909D01*
X110236113Y-99284000D01*
X110124740Y-98724091D01*
X109807577Y-98249423D01*
X109423892Y-97993053D01*
X109628134Y-97896389D01*
X110004041Y-97481423D01*
X110164904Y-97093039D01*
X110042915Y-96871000D01*
X108900000Y-96871000D01*
X108900000Y-96891000D01*
X108646000Y-96891000D01*
X108646000Y-96871000D01*
X107503085Y-96871000D01*
X107381096Y-97093039D01*
X107541959Y-97481423D01*
X107917866Y-97896389D01*
X108122108Y-97993053D01*
X107738423Y-98249423D01*
X107421260Y-98724091D01*
X107309887Y-99284000D01*
X92942143Y-99284000D01*
X93322565Y-99126424D01*
X93476244Y-98812849D01*
X92178000Y-97514605D01*
X90879756Y-98812849D01*
X87367788Y-98812849D01*
X87363564Y-96963108D01*
X90084934Y-96963108D01*
X90101942Y-97792398D01*
X90386576Y-98479565D01*
X90700151Y-98633244D01*
X91998395Y-97335000D01*
X92357605Y-97335000D01*
X93655849Y-98633244D01*
X93969424Y-98479565D01*
X94271066Y-97706892D01*
X94254058Y-96877602D01*
X93969424Y-96190435D01*
X93655849Y-96036756D01*
X92357605Y-97335000D01*
X91998395Y-97335000D01*
X90700151Y-96036756D01*
X90386576Y-96190435D01*
X90084934Y-96963108D01*
X87363564Y-96963108D01*
X87361039Y-95857151D01*
X90879756Y-95857151D01*
X92178000Y-97155395D01*
X93476244Y-95857151D01*
X93322565Y-95543576D01*
X92549892Y-95241934D01*
X91720602Y-95258942D01*
X91033435Y-95543576D01*
X90879756Y-95857151D01*
X87361039Y-95857151D01*
X87338099Y-85809452D01*
X92413000Y-85809452D01*
X92413000Y-86340548D01*
X92616242Y-86831217D01*
X92991783Y-87206758D01*
X93482452Y-87410000D01*
X93937488Y-87410000D01*
X98693000Y-92165513D01*
X98693000Y-92329841D01*
X98784193Y-92550000D01*
X98603050Y-92550000D01*
X97910233Y-92836974D01*
X97379974Y-93367233D01*
X97093000Y-94060050D01*
X97093000Y-94809950D01*
X97379974Y-95502767D01*
X97910233Y-96033026D01*
X98603050Y-96320000D01*
X99352950Y-96320000D01*
X100045767Y-96033026D01*
X100576026Y-95502767D01*
X100863000Y-94809950D01*
X100863000Y-94060050D01*
X100804989Y-93920000D01*
X101072841Y-93920000D01*
X101802412Y-93617801D01*
X102360801Y-93059412D01*
X102663000Y-92329841D01*
X102663000Y-91540159D01*
X102360801Y-90810588D01*
X101802412Y-90252199D01*
X101072841Y-89950000D01*
X100283159Y-89950000D01*
X99553588Y-90252199D01*
X99312150Y-90493637D01*
X95083000Y-86264488D01*
X95083000Y-85809452D01*
X94879758Y-85318783D01*
X94504217Y-84943242D01*
X94013548Y-84740000D01*
X93482452Y-84740000D01*
X92991783Y-84943242D01*
X92616242Y-85318783D01*
X92413000Y-85809452D01*
X87338099Y-85809452D01*
X87324138Y-79694561D01*
X94170000Y-79694561D01*
X94170000Y-80265439D01*
X94388466Y-80792862D01*
X94792138Y-81196534D01*
X95319561Y-81415000D01*
X95890439Y-81415000D01*
X95893339Y-81413799D01*
X99995840Y-85516055D01*
X100041023Y-85583677D01*
X100097121Y-85621160D01*
X100006846Y-86075000D01*
X100110458Y-86595891D01*
X100405519Y-87037481D01*
X100847109Y-87332542D01*
X101236515Y-87410000D01*
X101499485Y-87410000D01*
X101888891Y-87332542D01*
X102330481Y-87037481D01*
X102625542Y-86595891D01*
X102705335Y-86194745D01*
X105484861Y-86194745D01*
X105558995Y-86440864D01*
X106096223Y-86633965D01*
X106666454Y-86606778D01*
X107067005Y-86440864D01*
X107141139Y-86194745D01*
X106313000Y-85366605D01*
X105484861Y-86194745D01*
X102705335Y-86194745D01*
X102729154Y-86075000D01*
X102625542Y-85554109D01*
X102330481Y-85112519D01*
X102190087Y-85018710D01*
X102193868Y-84999700D01*
X102188005Y-84970223D01*
X104866035Y-84970223D01*
X104893222Y-85540454D01*
X105059136Y-85941005D01*
X105305255Y-86015139D01*
X106133395Y-85187000D01*
X106492605Y-85187000D01*
X107320745Y-86015139D01*
X107566864Y-85941005D01*
X107759965Y-85403777D01*
X107732778Y-84833546D01*
X107566864Y-84432995D01*
X107320745Y-84358861D01*
X106492605Y-85187000D01*
X106133395Y-85187000D01*
X105305255Y-84358861D01*
X105059136Y-84432995D01*
X104866035Y-84970223D01*
X102188005Y-84970223D01*
X102131003Y-84683654D01*
X101951977Y-84415723D01*
X101684046Y-84236697D01*
X101447774Y-84189700D01*
X101395264Y-84179255D01*
X105484861Y-84179255D01*
X106313000Y-85007395D01*
X107141139Y-84179255D01*
X107067005Y-83933136D01*
X106529777Y-83740035D01*
X105959546Y-83767222D01*
X105558995Y-83933136D01*
X105484861Y-84179255D01*
X101395264Y-84179255D01*
X101368000Y-84173832D01*
X101288226Y-84189700D01*
X100960498Y-84189700D01*
X98198073Y-81427440D01*
X98905000Y-81427440D01*
X99152765Y-81378157D01*
X99362809Y-81237809D01*
X99503157Y-81027765D01*
X99552440Y-80780000D01*
X99552440Y-79180000D01*
X99503157Y-78932235D01*
X99362809Y-78722191D01*
X99152765Y-78581843D01*
X98905000Y-78532560D01*
X97305000Y-78532560D01*
X97057235Y-78581843D01*
X96847191Y-78722191D01*
X96706843Y-78932235D01*
X96686899Y-79032503D01*
X96417862Y-78763466D01*
X95890439Y-78545000D01*
X95319561Y-78545000D01*
X94792138Y-78763466D01*
X94388466Y-79167138D01*
X94170000Y-79694561D01*
X87324138Y-79694561D01*
X87310291Y-73630000D01*
X111772000Y-73630000D01*
X111772001Y-83823892D01*
G36*
X120457000Y-83312065D02*
X118267914Y-81122766D01*
X118285809Y-81110809D01*
X118426157Y-80900765D01*
X118475440Y-80653000D01*
X118475440Y-79053000D01*
X118426157Y-78805235D01*
X118285809Y-78595191D01*
X118075765Y-78454843D01*
X117828000Y-78405560D01*
X116228000Y-78405560D01*
X115980235Y-78454843D01*
X115770191Y-78595191D01*
X115629843Y-78805235D01*
X115583307Y-79039187D01*
X115535745Y-79024861D01*
X114707605Y-79853000D01*
X115535745Y-80681139D01*
X115583307Y-80666813D01*
X115629843Y-80900765D01*
X115770191Y-81110809D01*
X115980235Y-81251157D01*
X116228000Y-81300440D01*
X116256258Y-81300440D01*
X116264982Y-81344309D01*
X116264993Y-81344326D01*
X116264997Y-81344345D01*
X116356790Y-81481723D01*
X116398810Y-81544617D01*
X116398822Y-81544629D01*
X116444023Y-81612277D01*
X116511638Y-81657456D01*
X119298001Y-84444091D01*
X119298000Y-96408487D01*
X117439388Y-98267100D01*
X117427577Y-98249423D01*
X117075242Y-98014000D01*
X117427577Y-97778577D01*
X117744740Y-97303909D01*
X117856113Y-96744000D01*
X117744740Y-96184091D01*
X117427577Y-95709423D01*
X117075242Y-95474000D01*
X117427577Y-95238577D01*
X117744740Y-94763909D01*
X117856113Y-94204000D01*
X117744740Y-93644091D01*
X117427577Y-93169423D01*
X117075242Y-92934000D01*
X117427577Y-92698577D01*
X117744740Y-92223909D01*
X117856113Y-91664000D01*
X117744740Y-91104091D01*
X117427577Y-90629423D01*
X117203000Y-90479365D01*
X117203000Y-90308635D01*
X117427577Y-90158577D01*
X117744740Y-89683909D01*
X117856113Y-89124000D01*
X117744740Y-88564091D01*
X117427577Y-88089423D01*
X117203000Y-87939365D01*
X117203000Y-87830000D01*
X117533548Y-87830000D01*
X118024217Y-87626758D01*
X118399758Y-87251217D01*
X118603000Y-86760548D01*
X118603000Y-86229452D01*
X118399758Y-85738783D01*
X118024217Y-85363242D01*
X117533548Y-85160000D01*
X117002452Y-85160000D01*
X116511783Y-85363242D01*
X116136242Y-85738783D01*
X115933000Y-86229452D01*
X115933000Y-86684488D01*
X115876654Y-86740834D01*
X115809024Y-86786023D01*
X115763835Y-86853653D01*
X115629998Y-87053954D01*
X115567132Y-87370000D01*
X115583001Y-87449778D01*
X115583001Y-87939365D01*
X115358423Y-88089423D01*
X115041260Y-88564091D01*
X114929887Y-89124000D01*
X115041260Y-89683909D01*
X115358423Y-90158577D01*
X115583000Y-90308635D01*
X115583001Y-90479365D01*
X115358423Y-90629423D01*
X115041260Y-91104091D01*
X114929887Y-91664000D01*
X115041260Y-92223909D01*
X115358423Y-92698577D01*
X115710758Y-92934000D01*
X115358423Y-93169423D01*
X115041260Y-93644091D01*
X114976420Y-93970062D01*
X113692000Y-92685817D01*
X113692000Y-80868608D01*
X113699861Y-80860747D01*
X113773995Y-81106864D01*
X114311223Y-81299965D01*
X114881454Y-81272778D01*
X115282005Y-81106864D01*
X115356139Y-80860745D01*
X114528000Y-80032605D01*
X114513858Y-80046748D01*
X114334252Y-79867142D01*
X114348395Y-79853000D01*
X114334252Y-79838858D01*
X114513858Y-79659252D01*
X114528000Y-79673395D01*
X115356139Y-78845255D01*
X115282005Y-78599136D01*
X114744777Y-78406035D01*
X114174546Y-78433222D01*
X113773995Y-78599136D01*
X113699861Y-78845253D01*
X113692000Y-78837392D01*
X113692000Y-73630000D01*
X120457000Y-73630000D01*
X120457000Y-83312065D01*
X120457000Y-83312065D01*
G37*
X120457000Y-83312065D02*
X118267914Y-81122766D01*
X118285809Y-81110809D01*
X118426157Y-80900765D01*
X118475440Y-80653000D01*
X118475440Y-79053000D01*
X118426157Y-78805235D01*
X118285809Y-78595191D01*
X118075765Y-78454843D01*
X117828000Y-78405560D01*
X116228000Y-78405560D01*
X115980235Y-78454843D01*
X115770191Y-78595191D01*
X115629843Y-78805235D01*
X115583307Y-79039187D01*
X115535745Y-79024861D01*
X114707605Y-79853000D01*
X115535745Y-80681139D01*
X115583307Y-80666813D01*
X115629843Y-80900765D01*
X115770191Y-81110809D01*
X115980235Y-81251157D01*
X116228000Y-81300440D01*
X116256258Y-81300440D01*
X116264982Y-81344309D01*
X116264993Y-81344326D01*
X116264997Y-81344345D01*
X116356790Y-81481723D01*
X116398810Y-81544617D01*
X116398822Y-81544629D01*
X116444023Y-81612277D01*
X116511638Y-81657456D01*
X119298001Y-84444091D01*
X119298000Y-96408487D01*
X117439388Y-98267100D01*
X117427577Y-98249423D01*
X117075242Y-98014000D01*
X117427577Y-97778577D01*
X117744740Y-97303909D01*
X117856113Y-96744000D01*
X117744740Y-96184091D01*
X117427577Y-95709423D01*
X117075242Y-95474000D01*
X117427577Y-95238577D01*
X117744740Y-94763909D01*
X117856113Y-94204000D01*
X117744740Y-93644091D01*
X117427577Y-93169423D01*
X117075242Y-92934000D01*
X117427577Y-92698577D01*
X117744740Y-92223909D01*
X117856113Y-91664000D01*
X117744740Y-91104091D01*
X117427577Y-90629423D01*
X117203000Y-90479365D01*
X117203000Y-90308635D01*
X117427577Y-90158577D01*
X117744740Y-89683909D01*
X117856113Y-89124000D01*
X117744740Y-88564091D01*
X117427577Y-88089423D01*
X117203000Y-87939365D01*
X117203000Y-87830000D01*
X117533548Y-87830000D01*
X118024217Y-87626758D01*
X118399758Y-87251217D01*
X118603000Y-86760548D01*
X118603000Y-86229452D01*
X118399758Y-85738783D01*
X118024217Y-85363242D01*
X117533548Y-85160000D01*
X117002452Y-85160000D01*
X116511783Y-85363242D01*
X116136242Y-85738783D01*
X115933000Y-86229452D01*
X115933000Y-86684488D01*
X115876654Y-86740834D01*
X115809024Y-86786023D01*
X115763835Y-86853653D01*
X115629998Y-87053954D01*
X115567132Y-87370000D01*
X115583001Y-87449778D01*
X115583001Y-87939365D01*
X115358423Y-88089423D01*
X115041260Y-88564091D01*
X114929887Y-89124000D01*
X115041260Y-89683909D01*
X115358423Y-90158577D01*
X115583000Y-90308635D01*
X115583001Y-90479365D01*
X115358423Y-90629423D01*
X115041260Y-91104091D01*
X114929887Y-91664000D01*
X115041260Y-92223909D01*
X115358423Y-92698577D01*
X115710758Y-92934000D01*
X115358423Y-93169423D01*
X115041260Y-93644091D01*
X114976420Y-93970062D01*
X113692000Y-92685817D01*
X113692000Y-80868608D01*
X113699861Y-80860747D01*
X113773995Y-81106864D01*
X114311223Y-81299965D01*
X114881454Y-81272778D01*
X115282005Y-81106864D01*
X115356139Y-80860745D01*
X114528000Y-80032605D01*
X114513858Y-80046748D01*
X114334252Y-79867142D01*
X114348395Y-79853000D01*
X114334252Y-79838858D01*
X114513858Y-79659252D01*
X114528000Y-79673395D01*
X115356139Y-78845255D01*
X115282005Y-78599136D01*
X114744777Y-78406035D01*
X114174546Y-78433222D01*
X113773995Y-78599136D01*
X113699861Y-78845253D01*
X113692000Y-78837392D01*
X113692000Y-73630000D01*
X120457000Y-73630000D01*
X120457000Y-83312065D01*
G04 #@! TO.N,GNDD*
G36*
X185735000Y-129129000D02*
X121981000Y-129129000D01*
X121981000Y-115992000D01*
X123410456Y-115992000D01*
X123505000Y-116010806D01*
X123599544Y-115992000D01*
X123599549Y-115992000D01*
X123879573Y-115936300D01*
X124197121Y-115724121D01*
X124250681Y-115643963D01*
X126529966Y-113364679D01*
X126610121Y-113311121D01*
X126750001Y-113101777D01*
X126750001Y-120238222D01*
X126734132Y-120318000D01*
X126788921Y-120593440D01*
X126796998Y-120634046D01*
X126976024Y-120901977D01*
X127043654Y-120947166D01*
X128608834Y-122512347D01*
X128654023Y-122579977D01*
X128921954Y-122759003D01*
X129158226Y-122806000D01*
X129158230Y-122806000D01*
X129237999Y-122821867D01*
X129317769Y-122806000D01*
X137714693Y-122806000D01*
X137526350Y-123087876D01*
X137439400Y-123525003D01*
X137439400Y-124124998D01*
X137526350Y-124562125D01*
X137857570Y-125057830D01*
X138353276Y-125389050D01*
X138938000Y-125505359D01*
X139522725Y-125389050D01*
X140018430Y-125057830D01*
X140208000Y-124774119D01*
X140397570Y-125057830D01*
X140893276Y-125389050D01*
X141478000Y-125505359D01*
X142062725Y-125389050D01*
X142558430Y-125057830D01*
X142748000Y-124774119D01*
X142937570Y-125057830D01*
X143433276Y-125389050D01*
X144018000Y-125505359D01*
X144602725Y-125389050D01*
X145098430Y-125057830D01*
X145288000Y-124774119D01*
X145477570Y-125057830D01*
X145973276Y-125389050D01*
X146558000Y-125505359D01*
X147142725Y-125389050D01*
X147638430Y-125057830D01*
X147828000Y-124774119D01*
X148017570Y-125057830D01*
X148513276Y-125389050D01*
X149098000Y-125505359D01*
X149682725Y-125389050D01*
X150178430Y-125057830D01*
X150371909Y-124768267D01*
X150735964Y-125175732D01*
X151263209Y-125429709D01*
X151278974Y-125432358D01*
X151511000Y-125311217D01*
X151511000Y-123952000D01*
X151765000Y-123952000D01*
X151765000Y-125311217D01*
X151997026Y-125432358D01*
X152012791Y-125429709D01*
X152540036Y-125175732D01*
X152908000Y-124763892D01*
X153275964Y-125175732D01*
X153803209Y-125429709D01*
X153818974Y-125432358D01*
X154051000Y-125311217D01*
X154051000Y-123952000D01*
X151765000Y-123952000D01*
X151511000Y-123952000D01*
X151491000Y-123952000D01*
X151491000Y-123698000D01*
X151511000Y-123698000D01*
X151511000Y-122338783D01*
X151765000Y-122338783D01*
X151765000Y-123698000D01*
X154051000Y-123698000D01*
X154051000Y-122338783D01*
X154305000Y-122338783D01*
X154305000Y-123698000D01*
X154325000Y-123698000D01*
X154325000Y-123952000D01*
X154305000Y-123952000D01*
X154305000Y-125311217D01*
X154537026Y-125432358D01*
X154552791Y-125429709D01*
X155080036Y-125175732D01*
X155444090Y-124768268D01*
X155637570Y-125057830D01*
X156133276Y-125389050D01*
X156718000Y-125505359D01*
X157302725Y-125389050D01*
X157798430Y-125057830D01*
X158129650Y-124562124D01*
X158216600Y-124124997D01*
X158216600Y-123525002D01*
X158129650Y-123087875D01*
X157798430Y-122592170D01*
X157302724Y-122260950D01*
X156718000Y-122144641D01*
X156133275Y-122260950D01*
X155637570Y-122592170D01*
X155444091Y-122881733D01*
X155080036Y-122474268D01*
X154552791Y-122220291D01*
X154537026Y-122217642D01*
X154305000Y-122338783D01*
X154051000Y-122338783D01*
X153818974Y-122217642D01*
X153803209Y-122220291D01*
X153275964Y-122474268D01*
X152908000Y-122886108D01*
X152540036Y-122474268D01*
X152012791Y-122220291D01*
X151997026Y-122217642D01*
X151765000Y-122338783D01*
X151511000Y-122338783D01*
X151278974Y-122217642D01*
X151263209Y-122220291D01*
X150735964Y-122474268D01*
X150371910Y-122881732D01*
X150178430Y-122592170D01*
X150058000Y-122511701D01*
X150058000Y-118754000D01*
X152614560Y-118754000D01*
X152614560Y-120454000D01*
X152663843Y-120701765D01*
X152804191Y-120911809D01*
X153014235Y-121052157D01*
X153262000Y-121101440D01*
X154962000Y-121101440D01*
X155209765Y-121052157D01*
X155419809Y-120911809D01*
X155560157Y-120701765D01*
X155569184Y-120656381D01*
X155581375Y-120674625D01*
X156072582Y-121002839D01*
X156505744Y-121089000D01*
X156798256Y-121089000D01*
X157231418Y-121002839D01*
X157722625Y-120674625D01*
X157922000Y-120376239D01*
X158121375Y-120674625D01*
X158368235Y-120839571D01*
X158382000Y-120908773D01*
X158428997Y-121145045D01*
X158608023Y-121412977D01*
X158675656Y-121458168D01*
X159749001Y-122531514D01*
X159749000Y-123745225D01*
X159733132Y-123825000D01*
X159795997Y-124141046D01*
X159835103Y-124199572D01*
X159975023Y-124408977D01*
X160242954Y-124588003D01*
X160428271Y-124624865D01*
X160717570Y-125057830D01*
X161213276Y-125389050D01*
X161798000Y-125505359D01*
X162382725Y-125389050D01*
X162878430Y-125057830D01*
X163068000Y-124774119D01*
X163257570Y-125057830D01*
X163753276Y-125389050D01*
X164338000Y-125505359D01*
X164922725Y-125389050D01*
X165418430Y-125057830D01*
X165608000Y-124774119D01*
X165797570Y-125057830D01*
X166293276Y-125389050D01*
X166878000Y-125505359D01*
X167462725Y-125389050D01*
X167958430Y-125057830D01*
X168148000Y-124774119D01*
X168337570Y-125057830D01*
X168833276Y-125389050D01*
X169418000Y-125505359D01*
X170002725Y-125389050D01*
X170498430Y-125057830D01*
X170688000Y-124774119D01*
X170877570Y-125057830D01*
X171373276Y-125389050D01*
X171958000Y-125505359D01*
X172542725Y-125389050D01*
X173038430Y-125057830D01*
X173228000Y-124774119D01*
X173417570Y-125057830D01*
X173913276Y-125389050D01*
X174498000Y-125505359D01*
X175082725Y-125389050D01*
X175493615Y-125114501D01*
X178371000Y-125114501D01*
X178371000Y-126175499D01*
X178777026Y-127155734D01*
X179527266Y-127905974D01*
X180507501Y-128312000D01*
X181568499Y-128312000D01*
X182548734Y-127905974D01*
X183298974Y-127155734D01*
X183705000Y-126175499D01*
X183705000Y-125114501D01*
X183298974Y-124134266D01*
X182548734Y-123384026D01*
X181568499Y-122978000D01*
X180507501Y-122978000D01*
X179527266Y-123384026D01*
X178777026Y-124134266D01*
X178371000Y-125114501D01*
X175493615Y-125114501D01*
X175578430Y-125057830D01*
X175909650Y-124562124D01*
X175996600Y-124124997D01*
X175996600Y-123525002D01*
X175909650Y-123087875D01*
X175578430Y-122592170D01*
X175082724Y-122260950D01*
X174498000Y-122144641D01*
X173913275Y-122260950D01*
X173417570Y-122592170D01*
X173228000Y-122875881D01*
X173038430Y-122592170D01*
X172542724Y-122260950D01*
X171958000Y-122144641D01*
X171373275Y-122260950D01*
X170877570Y-122592170D01*
X170688000Y-122875881D01*
X170498430Y-122592170D01*
X170002724Y-122260950D01*
X169418000Y-122144641D01*
X168833275Y-122260950D01*
X168337570Y-122592170D01*
X168148000Y-122875881D01*
X167958430Y-122592170D01*
X167462724Y-122260950D01*
X166878000Y-122144641D01*
X166293275Y-122260950D01*
X165797570Y-122592170D01*
X165608000Y-122875881D01*
X165418430Y-122592170D01*
X164922724Y-122260950D01*
X164338000Y-122144641D01*
X163753275Y-122260950D01*
X163257570Y-122592170D01*
X163068000Y-122875881D01*
X162878430Y-122592170D01*
X162382724Y-122260950D01*
X161798000Y-122144641D01*
X161378485Y-122228088D01*
X161384868Y-122196000D01*
X161369000Y-122116226D01*
X161322003Y-121879954D01*
X161142977Y-121612023D01*
X161075347Y-121566834D01*
X160214976Y-120706463D01*
X160262625Y-120674625D01*
X160590839Y-120183418D01*
X160706092Y-119604000D01*
X160590839Y-119024582D01*
X160262625Y-118533375D01*
X159771418Y-118205161D01*
X159338256Y-118119000D01*
X159045744Y-118119000D01*
X158612582Y-118205161D01*
X158121375Y-118533375D01*
X157922000Y-118831761D01*
X157722625Y-118533375D01*
X157231418Y-118205161D01*
X156798256Y-118119000D01*
X156505744Y-118119000D01*
X156072582Y-118205161D01*
X155581375Y-118533375D01*
X155569184Y-118551619D01*
X155560157Y-118506235D01*
X155419809Y-118296191D01*
X155209765Y-118155843D01*
X154962000Y-118106560D01*
X153262000Y-118106560D01*
X153014235Y-118155843D01*
X152804191Y-118296191D01*
X152663843Y-118506235D01*
X152614560Y-118754000D01*
X150058000Y-118754000D01*
X150058000Y-117153000D01*
X168285560Y-117153000D01*
X168285560Y-118753000D01*
X168334843Y-119000765D01*
X168475191Y-119210809D01*
X168685235Y-119351157D01*
X168933000Y-119400440D01*
X170533000Y-119400440D01*
X170780765Y-119351157D01*
X170990809Y-119210809D01*
X171131157Y-119000765D01*
X171180440Y-118753000D01*
X171180440Y-117153000D01*
X171131157Y-116905235D01*
X170990809Y-116695191D01*
X170780765Y-116554843D01*
X170546813Y-116508307D01*
X170561139Y-116460745D01*
X169733000Y-115632605D01*
X168904861Y-116460745D01*
X168919187Y-116508307D01*
X168685235Y-116554843D01*
X168475191Y-116695191D01*
X168334843Y-116905235D01*
X168285560Y-117153000D01*
X150058000Y-117153000D01*
X150058000Y-115571750D01*
X152627000Y-115571750D01*
X152627000Y-116262309D01*
X152723673Y-116495698D01*
X152902301Y-116674327D01*
X153135690Y-116771000D01*
X153826250Y-116771000D01*
X153985000Y-116612250D01*
X153985000Y-115413000D01*
X152785750Y-115413000D01*
X152627000Y-115571750D01*
X150058000Y-115571750D01*
X150058000Y-114309691D01*
X152627000Y-114309691D01*
X152627000Y-115000250D01*
X152785750Y-115159000D01*
X153985000Y-115159000D01*
X153985000Y-113959750D01*
X154239000Y-113959750D01*
X154239000Y-115159000D01*
X154259000Y-115159000D01*
X154259000Y-115413000D01*
X154239000Y-115413000D01*
X154239000Y-116612250D01*
X154397750Y-116771000D01*
X155088310Y-116771000D01*
X155321699Y-116674327D01*
X155500327Y-116495698D01*
X155566904Y-116334967D01*
X155581375Y-116356625D01*
X156072582Y-116684839D01*
X156505744Y-116771000D01*
X156798256Y-116771000D01*
X157231418Y-116684839D01*
X157722625Y-116356625D01*
X157922000Y-116058239D01*
X158121375Y-116356625D01*
X158612582Y-116684839D01*
X159045744Y-116771000D01*
X159338256Y-116771000D01*
X159771418Y-116684839D01*
X160262625Y-116356625D01*
X160590839Y-115865418D01*
X160706092Y-115286000D01*
X160696191Y-115236223D01*
X168286035Y-115236223D01*
X168313222Y-115806454D01*
X168479136Y-116207005D01*
X168725255Y-116281139D01*
X169553395Y-115453000D01*
X169912605Y-115453000D01*
X170740745Y-116281139D01*
X170986864Y-116207005D01*
X171179965Y-115669777D01*
X171152778Y-115099546D01*
X171006567Y-114746561D01*
X173799000Y-114746561D01*
X173799000Y-115317439D01*
X174017466Y-115844862D01*
X174421138Y-116248534D01*
X174948561Y-116467000D01*
X175519439Y-116467000D01*
X176046862Y-116248534D01*
X176255651Y-116039745D01*
X176905861Y-116039745D01*
X176979995Y-116285864D01*
X177517223Y-116478965D01*
X178087454Y-116451778D01*
X178488005Y-116285864D01*
X178562139Y-116039745D01*
X177734000Y-115211605D01*
X176905861Y-116039745D01*
X176255651Y-116039745D01*
X176450534Y-115844862D01*
X176477525Y-115779701D01*
X176480136Y-115786005D01*
X176726255Y-115860139D01*
X177554395Y-115032000D01*
X177913605Y-115032000D01*
X178741745Y-115860139D01*
X178987864Y-115786005D01*
X179180965Y-115248777D01*
X179153778Y-114678546D01*
X178987864Y-114277995D01*
X178741745Y-114203861D01*
X177913605Y-115032000D01*
X177554395Y-115032000D01*
X176726255Y-114203861D01*
X176480136Y-114277995D01*
X176477710Y-114284746D01*
X176450534Y-114219138D01*
X176255651Y-114024255D01*
X176905861Y-114024255D01*
X177734000Y-114852395D01*
X178562139Y-114024255D01*
X178488005Y-113778136D01*
X177950777Y-113585035D01*
X177380546Y-113612222D01*
X176979995Y-113778136D01*
X176905861Y-114024255D01*
X176255651Y-114024255D01*
X176046862Y-113815466D01*
X175519439Y-113597000D01*
X174948561Y-113597000D01*
X174421138Y-113815466D01*
X174017466Y-114219138D01*
X173799000Y-114746561D01*
X171006567Y-114746561D01*
X170986864Y-114698995D01*
X170740745Y-114624861D01*
X169912605Y-115453000D01*
X169553395Y-115453000D01*
X168725255Y-114624861D01*
X168479136Y-114698995D01*
X168286035Y-115236223D01*
X160696191Y-115236223D01*
X160590839Y-114706582D01*
X160416226Y-114445255D01*
X168904861Y-114445255D01*
X169733000Y-115273395D01*
X170561139Y-114445255D01*
X170487005Y-114199136D01*
X169949777Y-114006035D01*
X169379546Y-114033222D01*
X168978995Y-114199136D01*
X168904861Y-114445255D01*
X160416226Y-114445255D01*
X160262625Y-114215375D01*
X159771418Y-113887161D01*
X159338256Y-113801000D01*
X159045744Y-113801000D01*
X158612582Y-113887161D01*
X158121375Y-114215375D01*
X157922000Y-114513761D01*
X157722625Y-114215375D01*
X157231418Y-113887161D01*
X156798256Y-113801000D01*
X156505744Y-113801000D01*
X156072582Y-113887161D01*
X155581375Y-114215375D01*
X155566904Y-114237033D01*
X155500327Y-114076302D01*
X155321699Y-113897673D01*
X155088310Y-113801000D01*
X154397750Y-113801000D01*
X154239000Y-113959750D01*
X153985000Y-113959750D01*
X153826250Y-113801000D01*
X153135690Y-113801000D01*
X152902301Y-113897673D01*
X152723673Y-114076302D01*
X152627000Y-114309691D01*
X150058000Y-114309691D01*
X150058000Y-111056544D01*
X150069296Y-110999750D01*
X151534000Y-110999750D01*
X151534000Y-111640309D01*
X151630673Y-111873698D01*
X151809301Y-112052327D01*
X152042690Y-112149000D01*
X152683250Y-112149000D01*
X152842000Y-111990250D01*
X152842000Y-110841000D01*
X151692750Y-110841000D01*
X151534000Y-110999750D01*
X150069296Y-110999750D01*
X150076806Y-110961999D01*
X150058000Y-110867455D01*
X150058000Y-110867451D01*
X150002300Y-110587427D01*
X149790121Y-110269879D01*
X149709966Y-110216321D01*
X149286885Y-109793240D01*
X149290592Y-109787691D01*
X151534000Y-109787691D01*
X151534000Y-110428250D01*
X151692750Y-110587000D01*
X152842000Y-110587000D01*
X152842000Y-109437750D01*
X152683250Y-109279000D01*
X152042690Y-109279000D01*
X151809301Y-109375673D01*
X151630673Y-109554302D01*
X151534000Y-109787691D01*
X149290592Y-109787691D01*
X149414157Y-109602765D01*
X149463440Y-109355000D01*
X149463440Y-107755000D01*
X149414157Y-107507235D01*
X149273809Y-107297191D01*
X149063765Y-107156843D01*
X149051293Y-107154362D01*
X158604001Y-97601941D01*
X158604000Y-108283052D01*
X158588132Y-108362649D01*
X158604000Y-108442600D01*
X158604000Y-108442773D01*
X158619488Y-108520637D01*
X158650863Y-108678721D01*
X158650962Y-108678869D01*
X158650997Y-108679045D01*
X158741095Y-108813887D01*
X158784616Y-108879080D01*
X158784736Y-108879200D01*
X158830023Y-108946977D01*
X158897511Y-108992071D01*
X159572326Y-109667461D01*
X159554423Y-109679423D01*
X159319000Y-110031758D01*
X159083577Y-109679423D01*
X158608909Y-109362260D01*
X158190333Y-109279000D01*
X157907667Y-109279000D01*
X157489091Y-109362260D01*
X157014423Y-109679423D01*
X156779000Y-110031758D01*
X156543577Y-109679423D01*
X156068909Y-109362260D01*
X155650333Y-109279000D01*
X155367667Y-109279000D01*
X154949091Y-109362260D01*
X154474423Y-109679423D01*
X154403265Y-109785918D01*
X154307327Y-109554302D01*
X154128699Y-109375673D01*
X153895310Y-109279000D01*
X153254750Y-109279000D01*
X153096000Y-109437750D01*
X153096000Y-110587000D01*
X153116000Y-110587000D01*
X153116000Y-110841000D01*
X153096000Y-110841000D01*
X153096000Y-111990250D01*
X153254750Y-112149000D01*
X153895310Y-112149000D01*
X154128699Y-112052327D01*
X154307327Y-111873698D01*
X154403265Y-111642082D01*
X154474423Y-111748577D01*
X154949091Y-112065740D01*
X155367667Y-112149000D01*
X155650333Y-112149000D01*
X156068909Y-112065740D01*
X156543577Y-111748577D01*
X156779000Y-111396242D01*
X157014423Y-111748577D01*
X157489091Y-112065740D01*
X157907667Y-112149000D01*
X158190333Y-112149000D01*
X158608909Y-112065740D01*
X159083577Y-111748577D01*
X159319000Y-111396242D01*
X159554423Y-111748577D01*
X160029091Y-112065740D01*
X160447667Y-112149000D01*
X160730333Y-112149000D01*
X161148909Y-112065740D01*
X161623577Y-111748577D01*
X161859000Y-111396242D01*
X162094423Y-111748577D01*
X162569091Y-112065740D01*
X162987667Y-112149000D01*
X163270333Y-112149000D01*
X163688909Y-112065740D01*
X164163577Y-111748577D01*
X164399000Y-111396242D01*
X164634423Y-111748577D01*
X165109091Y-112065740D01*
X165527667Y-112149000D01*
X165810333Y-112149000D01*
X166228909Y-112065740D01*
X166703577Y-111748577D01*
X166939000Y-111396242D01*
X167174423Y-111748577D01*
X167649091Y-112065740D01*
X168067667Y-112149000D01*
X168350333Y-112149000D01*
X168768909Y-112065740D01*
X169243577Y-111748577D01*
X169479000Y-111396242D01*
X169714423Y-111748577D01*
X170189091Y-112065740D01*
X170607667Y-112149000D01*
X170890333Y-112149000D01*
X171308909Y-112065740D01*
X171783577Y-111748577D01*
X172019000Y-111396242D01*
X172254423Y-111748577D01*
X172729091Y-112065740D01*
X173147667Y-112149000D01*
X173430333Y-112149000D01*
X173848909Y-112065740D01*
X174323577Y-111748577D01*
X174559000Y-111396242D01*
X174794423Y-111748577D01*
X175269091Y-112065740D01*
X175687667Y-112149000D01*
X175970333Y-112149000D01*
X176388909Y-112065740D01*
X176863577Y-111748577D01*
X177119947Y-111364892D01*
X177216611Y-111569134D01*
X177631577Y-111945041D01*
X178019961Y-112105904D01*
X178242000Y-111983915D01*
X178242000Y-110841000D01*
X178222000Y-110841000D01*
X178222000Y-110587000D01*
X178242000Y-110587000D01*
X178242000Y-109444085D01*
X178019961Y-109322096D01*
X177631577Y-109482959D01*
X177216611Y-109858866D01*
X177119947Y-110063108D01*
X176863577Y-109679423D01*
X176845900Y-109667612D01*
X181870000Y-104643513D01*
X181870000Y-107432487D01*
X180392654Y-108909834D01*
X180325024Y-108955023D01*
X180279835Y-109022653D01*
X180145998Y-109222954D01*
X180083132Y-109539000D01*
X180083302Y-109539855D01*
X179874423Y-109679423D01*
X179618053Y-110063108D01*
X179521389Y-109858866D01*
X179106423Y-109482959D01*
X178718039Y-109322096D01*
X178496000Y-109444085D01*
X178496000Y-110587000D01*
X178516000Y-110587000D01*
X178516000Y-110841000D01*
X178496000Y-110841000D01*
X178496000Y-111983915D01*
X178718039Y-112105904D01*
X179106423Y-111945041D01*
X179521389Y-111569134D01*
X179618053Y-111364892D01*
X179874423Y-111748577D01*
X180349091Y-112065740D01*
X180767667Y-112149000D01*
X181050333Y-112149000D01*
X181468909Y-112065740D01*
X181943577Y-111748577D01*
X182260740Y-111273909D01*
X182372113Y-110714000D01*
X182260740Y-110154091D01*
X181943577Y-109679423D01*
X181925900Y-109667612D01*
X183196347Y-108397166D01*
X183263977Y-108351977D01*
X183443003Y-108084046D01*
X183490000Y-107847774D01*
X183490000Y-107847773D01*
X183505868Y-107768001D01*
X183490000Y-107688228D01*
X183490000Y-89580375D01*
X183505868Y-89500603D01*
X183443004Y-89184557D01*
X183443003Y-89184556D01*
X183443003Y-89184554D01*
X183263977Y-88916623D01*
X183196347Y-88871434D01*
X175282980Y-80958000D01*
X178191560Y-80958000D01*
X178191560Y-82558000D01*
X178240843Y-82805765D01*
X178381191Y-83015809D01*
X178591235Y-83156157D01*
X178839000Y-83205440D01*
X180439000Y-83205440D01*
X180686765Y-83156157D01*
X180896809Y-83015809D01*
X181037157Y-82805765D01*
X181086440Y-82558000D01*
X181086440Y-80958000D01*
X181037157Y-80710235D01*
X180896809Y-80500191D01*
X180686765Y-80359843D01*
X180439000Y-80310560D01*
X178839000Y-80310560D01*
X178591235Y-80359843D01*
X178381191Y-80500191D01*
X178240843Y-80710235D01*
X178191560Y-80958000D01*
X175282980Y-80958000D01*
X171498000Y-77172989D01*
X171498000Y-77153859D01*
X171958000Y-77245359D01*
X172542725Y-77129050D01*
X173038430Y-76797830D01*
X173228000Y-76514119D01*
X173417570Y-76797830D01*
X173913276Y-77129050D01*
X174498000Y-77245359D01*
X175082725Y-77129050D01*
X175578430Y-76797830D01*
X175909650Y-76302124D01*
X175996600Y-75864997D01*
X175996600Y-75265002D01*
X175909650Y-74827875D01*
X175578430Y-74332170D01*
X175082724Y-74000950D01*
X174498000Y-73884641D01*
X173913275Y-74000950D01*
X173417570Y-74332170D01*
X173228000Y-74615881D01*
X173038430Y-74332170D01*
X172542724Y-74000950D01*
X171958000Y-73884641D01*
X171373275Y-74000950D01*
X171093194Y-74188094D01*
X170545227Y-73639844D01*
X170499977Y-73572123D01*
X170362626Y-73480348D01*
X170232243Y-73393180D01*
X170232139Y-73393159D01*
X170232046Y-73393097D01*
X170071776Y-73361218D01*
X169916213Y-73330232D01*
X169836332Y-73346100D01*
X168939741Y-73346100D01*
X168859944Y-73330233D01*
X168712096Y-73359652D01*
X168543954Y-73393097D01*
X168543929Y-73393114D01*
X168543902Y-73393119D01*
X168411801Y-73481399D01*
X168276023Y-73572123D01*
X168230819Y-73639775D01*
X167706698Y-74163968D01*
X167462724Y-74000950D01*
X166878000Y-73884641D01*
X166418000Y-73976141D01*
X166418000Y-68939450D01*
X166433867Y-68859661D01*
X166402399Y-68701494D01*
X166371003Y-68543654D01*
X166370992Y-68543637D01*
X166370988Y-68543618D01*
X166284350Y-68413969D01*
X166191977Y-68275723D01*
X166124331Y-68230523D01*
X162760497Y-64867000D01*
X166974846Y-64867000D01*
X167078458Y-65387891D01*
X167373519Y-65829481D01*
X167815109Y-66124542D01*
X168204515Y-66202000D01*
X168467485Y-66202000D01*
X168856891Y-66124542D01*
X169298481Y-65829481D01*
X169593542Y-65387891D01*
X169697154Y-64867000D01*
X169593542Y-64346109D01*
X169298481Y-63904519D01*
X168856891Y-63609458D01*
X168467485Y-63532000D01*
X168204515Y-63532000D01*
X167815109Y-63609458D01*
X167373519Y-63904519D01*
X167078458Y-64346109D01*
X166974846Y-64867000D01*
X162760497Y-64867000D01*
X161891159Y-63997743D01*
X161845977Y-63930123D01*
X161778326Y-63884920D01*
X161778318Y-63884912D01*
X161734300Y-63855503D01*
X161578046Y-63751097D01*
X161578026Y-63751093D01*
X161578011Y-63751083D01*
X161424490Y-63720553D01*
X161341774Y-63704100D01*
X161341755Y-63704100D01*
X161261962Y-63688232D01*
X161182207Y-63704100D01*
X124731774Y-63704100D01*
X124652000Y-63688232D01*
X124335953Y-63751097D01*
X124199270Y-63842427D01*
X124068023Y-63930123D01*
X124022834Y-63997753D01*
X123483391Y-64537197D01*
X123325089Y-64431423D01*
X124528813Y-63227700D01*
X170309427Y-63227700D01*
X170389200Y-63243568D01*
X170468973Y-63227700D01*
X170468974Y-63227700D01*
X170705246Y-63180703D01*
X170973177Y-63001677D01*
X171018368Y-62934044D01*
X171564047Y-62388366D01*
X171631677Y-62343177D01*
X171722299Y-62207551D01*
X172126744Y-62288000D01*
X172419256Y-62288000D01*
X172852418Y-62201839D01*
X173343625Y-61873625D01*
X173543000Y-61575239D01*
X173742375Y-61873625D01*
X173989166Y-62038525D01*
X174045553Y-62322000D01*
X174049998Y-62344346D01*
X174229024Y-62612277D01*
X174296654Y-62657466D01*
X175146000Y-63506813D01*
X175146000Y-63789025D01*
X174824242Y-64110783D01*
X174621000Y-64601452D01*
X174621000Y-65132548D01*
X174824242Y-65623217D01*
X175199783Y-65998758D01*
X175690452Y-66202000D01*
X175909633Y-66202000D01*
X178889000Y-69043669D01*
X178889000Y-69206494D01*
X179099853Y-69715540D01*
X179489460Y-70105147D01*
X179720870Y-70201000D01*
X179489460Y-70296853D01*
X179125313Y-70661000D01*
X171124361Y-70661000D01*
X169634813Y-68902912D01*
X169671000Y-68815548D01*
X169671000Y-68550000D01*
X174594846Y-68550000D01*
X174698458Y-69070891D01*
X174993519Y-69512481D01*
X175435109Y-69807542D01*
X175824515Y-69885000D01*
X176087485Y-69885000D01*
X176476891Y-69807542D01*
X176918481Y-69512481D01*
X177213542Y-69070891D01*
X177317154Y-68550000D01*
X177213542Y-68029109D01*
X176918481Y-67587519D01*
X176476891Y-67292458D01*
X176087485Y-67215000D01*
X175824515Y-67215000D01*
X175435109Y-67292458D01*
X174993519Y-67587519D01*
X174698458Y-68029109D01*
X174594846Y-68550000D01*
X169671000Y-68550000D01*
X169671000Y-68284452D01*
X169467758Y-67793783D01*
X169092217Y-67418242D01*
X168601548Y-67215000D01*
X168070452Y-67215000D01*
X167579783Y-67418242D01*
X167204242Y-67793783D01*
X167001000Y-68284452D01*
X167001000Y-68815548D01*
X167204242Y-69306217D01*
X167579783Y-69681758D01*
X168070452Y-69885000D01*
X168343617Y-69885000D01*
X170101155Y-71959392D01*
X170165023Y-72054977D01*
X170271196Y-72125920D01*
X170371152Y-72205363D01*
X170404291Y-72214851D01*
X170432954Y-72234003D01*
X170558189Y-72258914D01*
X170680942Y-72294059D01*
X170795148Y-72281000D01*
X179125313Y-72281000D01*
X179489460Y-72645147D01*
X179998506Y-72856000D01*
X180549494Y-72856000D01*
X181058540Y-72645147D01*
X181448147Y-72255540D01*
X181659000Y-71746494D01*
X181659000Y-71195506D01*
X181448147Y-70686460D01*
X181058540Y-70296853D01*
X180827130Y-70201000D01*
X181058540Y-70105147D01*
X181448147Y-69715540D01*
X181659000Y-69206494D01*
X181659000Y-68655506D01*
X181448147Y-68146460D01*
X181077687Y-67776000D01*
X181150309Y-67776000D01*
X181383698Y-67679327D01*
X181562327Y-67500699D01*
X181659000Y-67267310D01*
X181659000Y-66676750D01*
X181500250Y-66518000D01*
X180401000Y-66518000D01*
X180401000Y-66538000D01*
X180147000Y-66538000D01*
X180147000Y-66518000D01*
X179047750Y-66518000D01*
X178889000Y-66676750D01*
X178889000Y-66804959D01*
X177536209Y-65514690D01*
X178889000Y-65514690D01*
X178889000Y-66105250D01*
X179047750Y-66264000D01*
X180147000Y-66264000D01*
X180147000Y-65164750D01*
X180401000Y-65164750D01*
X180401000Y-66264000D01*
X181500250Y-66264000D01*
X181659000Y-66105250D01*
X181659000Y-65514690D01*
X181562327Y-65281301D01*
X181383698Y-65102673D01*
X181150309Y-65006000D01*
X180559750Y-65006000D01*
X180401000Y-65164750D01*
X180147000Y-65164750D01*
X179988250Y-65006000D01*
X179397691Y-65006000D01*
X179164302Y-65102673D01*
X178985673Y-65281301D01*
X178889000Y-65514690D01*
X177536209Y-65514690D01*
X177246978Y-65238827D01*
X177291000Y-65132548D01*
X177291000Y-64601452D01*
X177087758Y-64110783D01*
X176766000Y-63789025D01*
X176766000Y-63251072D01*
X176781868Y-63171299D01*
X176734676Y-62934049D01*
X176719003Y-62855254D01*
X176539977Y-62587323D01*
X176472347Y-62542134D01*
X175835796Y-61905583D01*
X175883625Y-61873625D01*
X176211839Y-61382418D01*
X176327092Y-60803000D01*
X176211839Y-60223582D01*
X175883625Y-59732375D01*
X175392418Y-59404161D01*
X174959256Y-59318000D01*
X174666744Y-59318000D01*
X174233582Y-59404161D01*
X173742375Y-59732375D01*
X173543000Y-60030761D01*
X173343625Y-59732375D01*
X172852418Y-59404161D01*
X172419256Y-59318000D01*
X172126744Y-59318000D01*
X171693582Y-59404161D01*
X171202375Y-59732375D01*
X171190184Y-59750619D01*
X171181157Y-59705235D01*
X171040809Y-59495191D01*
X170830765Y-59354843D01*
X170583000Y-59305560D01*
X168883000Y-59305560D01*
X168635235Y-59354843D01*
X168425191Y-59495191D01*
X168284843Y-59705235D01*
X168235560Y-59953000D01*
X168235560Y-61607700D01*
X124273069Y-61607700D01*
X124193299Y-61591833D01*
X124113530Y-61607700D01*
X124113526Y-61607700D01*
X123877254Y-61654697D01*
X123609323Y-61833723D01*
X123564134Y-61901353D01*
X120934339Y-64531149D01*
X120687418Y-64366161D01*
X120254256Y-64280000D01*
X119961744Y-64280000D01*
X119528582Y-64366161D01*
X119037375Y-64694375D01*
X118838000Y-64992761D01*
X118638625Y-64694375D01*
X118147418Y-64366161D01*
X117714256Y-64280000D01*
X117421744Y-64280000D01*
X116988582Y-64366161D01*
X116497375Y-64694375D01*
X116284157Y-65013478D01*
X116223183Y-64883642D01*
X115794924Y-64493355D01*
X115384890Y-64323524D01*
X115155000Y-64444845D01*
X115155000Y-65638000D01*
X115175000Y-65638000D01*
X115175000Y-65892000D01*
X115155000Y-65892000D01*
X115155000Y-65912000D01*
X114901000Y-65912000D01*
X114901000Y-65892000D01*
X112615000Y-65892000D01*
X112615000Y-65912000D01*
X112361000Y-65912000D01*
X112361000Y-65892000D01*
X111167181Y-65892000D01*
X111046514Y-66121892D01*
X111292817Y-66646358D01*
X111499855Y-66835039D01*
X111390235Y-66856843D01*
X111180191Y-66997191D01*
X111039843Y-67207235D01*
X111012440Y-67345000D01*
X102219440Y-67345000D01*
X102219440Y-66861000D01*
X102170157Y-66613235D01*
X102029809Y-66403191D01*
X101819765Y-66262843D01*
X101585813Y-66216307D01*
X101600139Y-66168745D01*
X100772000Y-65340605D01*
X99943861Y-66168745D01*
X99958187Y-66216307D01*
X99724235Y-66262843D01*
X99514191Y-66403191D01*
X99373843Y-66613235D01*
X99324560Y-66861000D01*
X99324560Y-68461000D01*
X99373843Y-68708765D01*
X99514191Y-68918809D01*
X99724235Y-69059157D01*
X99972000Y-69108440D01*
X100890479Y-69108440D01*
X101041426Y-69209300D01*
X101416000Y-69283807D01*
X101510549Y-69265000D01*
X111012440Y-69265000D01*
X111039843Y-69402765D01*
X111180191Y-69612809D01*
X111390235Y-69753157D01*
X111529184Y-69780795D01*
X111546274Y-69866712D01*
X111583318Y-70053947D01*
X111583601Y-70054372D01*
X111583701Y-70054873D01*
X111689585Y-70213339D01*
X111741696Y-70291502D01*
X111742046Y-70291853D01*
X111772000Y-70336682D01*
X111772000Y-72233000D01*
X87310000Y-72233000D01*
X87310000Y-64944223D01*
X99325035Y-64944223D01*
X99352222Y-65514454D01*
X99518136Y-65915005D01*
X99764255Y-65989139D01*
X100592395Y-65161000D01*
X100951605Y-65161000D01*
X101779745Y-65989139D01*
X102025864Y-65915005D01*
X102208062Y-65408108D01*
X111046514Y-65408108D01*
X111167181Y-65638000D01*
X112361000Y-65638000D01*
X112361000Y-64444845D01*
X112615000Y-64444845D01*
X112615000Y-65638000D01*
X114901000Y-65638000D01*
X114901000Y-64444845D01*
X114671110Y-64323524D01*
X114261076Y-64493355D01*
X113832817Y-64883642D01*
X113758000Y-65042954D01*
X113683183Y-64883642D01*
X113254924Y-64493355D01*
X112844890Y-64323524D01*
X112615000Y-64444845D01*
X112361000Y-64444845D01*
X112131110Y-64323524D01*
X111721076Y-64493355D01*
X111292817Y-64883642D01*
X111046514Y-65408108D01*
X102208062Y-65408108D01*
X102218965Y-65377777D01*
X102191778Y-64807546D01*
X102025864Y-64406995D01*
X101779745Y-64332861D01*
X100951605Y-65161000D01*
X100592395Y-65161000D01*
X99764255Y-64332861D01*
X99518136Y-64406995D01*
X99325035Y-64944223D01*
X87310000Y-64944223D01*
X87310000Y-64153255D01*
X99943861Y-64153255D01*
X100772000Y-64981395D01*
X101600139Y-64153255D01*
X101526005Y-63907136D01*
X100988777Y-63714035D01*
X100418546Y-63741222D01*
X100017995Y-63907136D01*
X99943861Y-64153255D01*
X87310000Y-64153255D01*
X87310000Y-59164501D01*
X89391000Y-59164501D01*
X89391000Y-60225499D01*
X89797026Y-61205734D01*
X90547266Y-61955974D01*
X91527501Y-62362000D01*
X92588499Y-62362000D01*
X93568734Y-61955974D01*
X94318974Y-61205734D01*
X94725000Y-60225499D01*
X94725000Y-59164501D01*
X94708432Y-59124501D01*
X178381000Y-59124501D01*
X178381000Y-60185499D01*
X178787026Y-61165734D01*
X179537266Y-61915974D01*
X180517501Y-62322000D01*
X181578499Y-62322000D01*
X182558734Y-61915974D01*
X183308974Y-61165734D01*
X183715000Y-60185499D01*
X183715000Y-59124501D01*
X183308974Y-58144266D01*
X182558734Y-57394026D01*
X181578499Y-56988000D01*
X180517501Y-56988000D01*
X179537266Y-57394026D01*
X178787026Y-58144266D01*
X178381000Y-59124501D01*
X94708432Y-59124501D01*
X94318974Y-58184266D01*
X93568734Y-57434026D01*
X92588499Y-57028000D01*
X91527501Y-57028000D01*
X90547266Y-57434026D01*
X89797026Y-58184266D01*
X89391000Y-59164501D01*
X87310000Y-59164501D01*
X87310000Y-56103837D01*
X185735000Y-55977164D01*
X185735000Y-129129000D01*
X185735000Y-129129000D01*
G37*
X185735000Y-129129000D02*
X121981000Y-129129000D01*
X121981000Y-115992000D01*
X123410456Y-115992000D01*
X123505000Y-116010806D01*
X123599544Y-115992000D01*
X123599549Y-115992000D01*
X123879573Y-115936300D01*
X124197121Y-115724121D01*
X124250681Y-115643963D01*
X126529966Y-113364679D01*
X126610121Y-113311121D01*
X126750001Y-113101777D01*
X126750001Y-120238222D01*
X126734132Y-120318000D01*
X126788921Y-120593440D01*
X126796998Y-120634046D01*
X126976024Y-120901977D01*
X127043654Y-120947166D01*
X128608834Y-122512347D01*
X128654023Y-122579977D01*
X128921954Y-122759003D01*
X129158226Y-122806000D01*
X129158230Y-122806000D01*
X129237999Y-122821867D01*
X129317769Y-122806000D01*
X137714693Y-122806000D01*
X137526350Y-123087876D01*
X137439400Y-123525003D01*
X137439400Y-124124998D01*
X137526350Y-124562125D01*
X137857570Y-125057830D01*
X138353276Y-125389050D01*
X138938000Y-125505359D01*
X139522725Y-125389050D01*
X140018430Y-125057830D01*
X140208000Y-124774119D01*
X140397570Y-125057830D01*
X140893276Y-125389050D01*
X141478000Y-125505359D01*
X142062725Y-125389050D01*
X142558430Y-125057830D01*
X142748000Y-124774119D01*
X142937570Y-125057830D01*
X143433276Y-125389050D01*
X144018000Y-125505359D01*
X144602725Y-125389050D01*
X145098430Y-125057830D01*
X145288000Y-124774119D01*
X145477570Y-125057830D01*
X145973276Y-125389050D01*
X146558000Y-125505359D01*
X147142725Y-125389050D01*
X147638430Y-125057830D01*
X147828000Y-124774119D01*
X148017570Y-125057830D01*
X148513276Y-125389050D01*
X149098000Y-125505359D01*
X149682725Y-125389050D01*
X150178430Y-125057830D01*
X150371909Y-124768267D01*
X150735964Y-125175732D01*
X151263209Y-125429709D01*
X151278974Y-125432358D01*
X151511000Y-125311217D01*
X151511000Y-123952000D01*
X151765000Y-123952000D01*
X151765000Y-125311217D01*
X151997026Y-125432358D01*
X152012791Y-125429709D01*
X152540036Y-125175732D01*
X152908000Y-124763892D01*
X153275964Y-125175732D01*
X153803209Y-125429709D01*
X153818974Y-125432358D01*
X154051000Y-125311217D01*
X154051000Y-123952000D01*
X151765000Y-123952000D01*
X151511000Y-123952000D01*
X151491000Y-123952000D01*
X151491000Y-123698000D01*
X151511000Y-123698000D01*
X151511000Y-122338783D01*
X151765000Y-122338783D01*
X151765000Y-123698000D01*
X154051000Y-123698000D01*
X154051000Y-122338783D01*
X154305000Y-122338783D01*
X154305000Y-123698000D01*
X154325000Y-123698000D01*
X154325000Y-123952000D01*
X154305000Y-123952000D01*
X154305000Y-125311217D01*
X154537026Y-125432358D01*
X154552791Y-125429709D01*
X155080036Y-125175732D01*
X155444090Y-124768268D01*
X155637570Y-125057830D01*
X156133276Y-125389050D01*
X156718000Y-125505359D01*
X157302725Y-125389050D01*
X157798430Y-125057830D01*
X158129650Y-124562124D01*
X158216600Y-124124997D01*
X158216600Y-123525002D01*
X158129650Y-123087875D01*
X157798430Y-122592170D01*
X157302724Y-122260950D01*
X156718000Y-122144641D01*
X156133275Y-122260950D01*
X155637570Y-122592170D01*
X155444091Y-122881733D01*
X155080036Y-122474268D01*
X154552791Y-122220291D01*
X154537026Y-122217642D01*
X154305000Y-122338783D01*
X154051000Y-122338783D01*
X153818974Y-122217642D01*
X153803209Y-122220291D01*
X153275964Y-122474268D01*
X152908000Y-122886108D01*
X152540036Y-122474268D01*
X152012791Y-122220291D01*
X151997026Y-122217642D01*
X151765000Y-122338783D01*
X151511000Y-122338783D01*
X151278974Y-122217642D01*
X151263209Y-122220291D01*
X150735964Y-122474268D01*
X150371910Y-122881732D01*
X150178430Y-122592170D01*
X150058000Y-122511701D01*
X150058000Y-118754000D01*
X152614560Y-118754000D01*
X152614560Y-120454000D01*
X152663843Y-120701765D01*
X152804191Y-120911809D01*
X153014235Y-121052157D01*
X153262000Y-121101440D01*
X154962000Y-121101440D01*
X155209765Y-121052157D01*
X155419809Y-120911809D01*
X155560157Y-120701765D01*
X155569184Y-120656381D01*
X155581375Y-120674625D01*
X156072582Y-121002839D01*
X156505744Y-121089000D01*
X156798256Y-121089000D01*
X157231418Y-121002839D01*
X157722625Y-120674625D01*
X157922000Y-120376239D01*
X158121375Y-120674625D01*
X158368235Y-120839571D01*
X158382000Y-120908773D01*
X158428997Y-121145045D01*
X158608023Y-121412977D01*
X158675656Y-121458168D01*
X159749001Y-122531514D01*
X159749000Y-123745225D01*
X159733132Y-123825000D01*
X159795997Y-124141046D01*
X159835103Y-124199572D01*
X159975023Y-124408977D01*
X160242954Y-124588003D01*
X160428271Y-124624865D01*
X160717570Y-125057830D01*
X161213276Y-125389050D01*
X161798000Y-125505359D01*
X162382725Y-125389050D01*
X162878430Y-125057830D01*
X163068000Y-124774119D01*
X163257570Y-125057830D01*
X163753276Y-125389050D01*
X164338000Y-125505359D01*
X164922725Y-125389050D01*
X165418430Y-125057830D01*
X165608000Y-124774119D01*
X165797570Y-125057830D01*
X166293276Y-125389050D01*
X166878000Y-125505359D01*
X167462725Y-125389050D01*
X167958430Y-125057830D01*
X168148000Y-124774119D01*
X168337570Y-125057830D01*
X168833276Y-125389050D01*
X169418000Y-125505359D01*
X170002725Y-125389050D01*
X170498430Y-125057830D01*
X170688000Y-124774119D01*
X170877570Y-125057830D01*
X171373276Y-125389050D01*
X171958000Y-125505359D01*
X172542725Y-125389050D01*
X173038430Y-125057830D01*
X173228000Y-124774119D01*
X173417570Y-125057830D01*
X173913276Y-125389050D01*
X174498000Y-125505359D01*
X175082725Y-125389050D01*
X175493615Y-125114501D01*
X178371000Y-125114501D01*
X178371000Y-126175499D01*
X178777026Y-127155734D01*
X179527266Y-127905974D01*
X180507501Y-128312000D01*
X181568499Y-128312000D01*
X182548734Y-127905974D01*
X183298974Y-127155734D01*
X183705000Y-126175499D01*
X183705000Y-125114501D01*
X183298974Y-124134266D01*
X182548734Y-123384026D01*
X181568499Y-122978000D01*
X180507501Y-122978000D01*
X179527266Y-123384026D01*
X178777026Y-124134266D01*
X178371000Y-125114501D01*
X175493615Y-125114501D01*
X175578430Y-125057830D01*
X175909650Y-124562124D01*
X175996600Y-124124997D01*
X175996600Y-123525002D01*
X175909650Y-123087875D01*
X175578430Y-122592170D01*
X175082724Y-122260950D01*
X174498000Y-122144641D01*
X173913275Y-122260950D01*
X173417570Y-122592170D01*
X173228000Y-122875881D01*
X173038430Y-122592170D01*
X172542724Y-122260950D01*
X171958000Y-122144641D01*
X171373275Y-122260950D01*
X170877570Y-122592170D01*
X170688000Y-122875881D01*
X170498430Y-122592170D01*
X170002724Y-122260950D01*
X169418000Y-122144641D01*
X168833275Y-122260950D01*
X168337570Y-122592170D01*
X168148000Y-122875881D01*
X167958430Y-122592170D01*
X167462724Y-122260950D01*
X166878000Y-122144641D01*
X166293275Y-122260950D01*
X165797570Y-122592170D01*
X165608000Y-122875881D01*
X165418430Y-122592170D01*
X164922724Y-122260950D01*
X164338000Y-122144641D01*
X163753275Y-122260950D01*
X163257570Y-122592170D01*
X163068000Y-122875881D01*
X162878430Y-122592170D01*
X162382724Y-122260950D01*
X161798000Y-122144641D01*
X161378485Y-122228088D01*
X161384868Y-122196000D01*
X161369000Y-122116226D01*
X161322003Y-121879954D01*
X161142977Y-121612023D01*
X161075347Y-121566834D01*
X160214976Y-120706463D01*
X160262625Y-120674625D01*
X160590839Y-120183418D01*
X160706092Y-119604000D01*
X160590839Y-119024582D01*
X160262625Y-118533375D01*
X159771418Y-118205161D01*
X159338256Y-118119000D01*
X159045744Y-118119000D01*
X158612582Y-118205161D01*
X158121375Y-118533375D01*
X157922000Y-118831761D01*
X157722625Y-118533375D01*
X157231418Y-118205161D01*
X156798256Y-118119000D01*
X156505744Y-118119000D01*
X156072582Y-118205161D01*
X155581375Y-118533375D01*
X155569184Y-118551619D01*
X155560157Y-118506235D01*
X155419809Y-118296191D01*
X155209765Y-118155843D01*
X154962000Y-118106560D01*
X153262000Y-118106560D01*
X153014235Y-118155843D01*
X152804191Y-118296191D01*
X152663843Y-118506235D01*
X152614560Y-118754000D01*
X150058000Y-118754000D01*
X150058000Y-117153000D01*
X168285560Y-117153000D01*
X168285560Y-118753000D01*
X168334843Y-119000765D01*
X168475191Y-119210809D01*
X168685235Y-119351157D01*
X168933000Y-119400440D01*
X170533000Y-119400440D01*
X170780765Y-119351157D01*
X170990809Y-119210809D01*
X171131157Y-119000765D01*
X171180440Y-118753000D01*
X171180440Y-117153000D01*
X171131157Y-116905235D01*
X170990809Y-116695191D01*
X170780765Y-116554843D01*
X170546813Y-116508307D01*
X170561139Y-116460745D01*
X169733000Y-115632605D01*
X168904861Y-116460745D01*
X168919187Y-116508307D01*
X168685235Y-116554843D01*
X168475191Y-116695191D01*
X168334843Y-116905235D01*
X168285560Y-117153000D01*
X150058000Y-117153000D01*
X150058000Y-115571750D01*
X152627000Y-115571750D01*
X152627000Y-116262309D01*
X152723673Y-116495698D01*
X152902301Y-116674327D01*
X153135690Y-116771000D01*
X153826250Y-116771000D01*
X153985000Y-116612250D01*
X153985000Y-115413000D01*
X152785750Y-115413000D01*
X152627000Y-115571750D01*
X150058000Y-115571750D01*
X150058000Y-114309691D01*
X152627000Y-114309691D01*
X152627000Y-115000250D01*
X152785750Y-115159000D01*
X153985000Y-115159000D01*
X153985000Y-113959750D01*
X154239000Y-113959750D01*
X154239000Y-115159000D01*
X154259000Y-115159000D01*
X154259000Y-115413000D01*
X154239000Y-115413000D01*
X154239000Y-116612250D01*
X154397750Y-116771000D01*
X155088310Y-116771000D01*
X155321699Y-116674327D01*
X155500327Y-116495698D01*
X155566904Y-116334967D01*
X155581375Y-116356625D01*
X156072582Y-116684839D01*
X156505744Y-116771000D01*
X156798256Y-116771000D01*
X157231418Y-116684839D01*
X157722625Y-116356625D01*
X157922000Y-116058239D01*
X158121375Y-116356625D01*
X158612582Y-116684839D01*
X159045744Y-116771000D01*
X159338256Y-116771000D01*
X159771418Y-116684839D01*
X160262625Y-116356625D01*
X160590839Y-115865418D01*
X160706092Y-115286000D01*
X160696191Y-115236223D01*
X168286035Y-115236223D01*
X168313222Y-115806454D01*
X168479136Y-116207005D01*
X168725255Y-116281139D01*
X169553395Y-115453000D01*
X169912605Y-115453000D01*
X170740745Y-116281139D01*
X170986864Y-116207005D01*
X171179965Y-115669777D01*
X171152778Y-115099546D01*
X171006567Y-114746561D01*
X173799000Y-114746561D01*
X173799000Y-115317439D01*
X174017466Y-115844862D01*
X174421138Y-116248534D01*
X174948561Y-116467000D01*
X175519439Y-116467000D01*
X176046862Y-116248534D01*
X176255651Y-116039745D01*
X176905861Y-116039745D01*
X176979995Y-116285864D01*
X177517223Y-116478965D01*
X178087454Y-116451778D01*
X178488005Y-116285864D01*
X178562139Y-116039745D01*
X177734000Y-115211605D01*
X176905861Y-116039745D01*
X176255651Y-116039745D01*
X176450534Y-115844862D01*
X176477525Y-115779701D01*
X176480136Y-115786005D01*
X176726255Y-115860139D01*
X177554395Y-115032000D01*
X177913605Y-115032000D01*
X178741745Y-115860139D01*
X178987864Y-115786005D01*
X179180965Y-115248777D01*
X179153778Y-114678546D01*
X178987864Y-114277995D01*
X178741745Y-114203861D01*
X177913605Y-115032000D01*
X177554395Y-115032000D01*
X176726255Y-114203861D01*
X176480136Y-114277995D01*
X176477710Y-114284746D01*
X176450534Y-114219138D01*
X176255651Y-114024255D01*
X176905861Y-114024255D01*
X177734000Y-114852395D01*
X178562139Y-114024255D01*
X178488005Y-113778136D01*
X177950777Y-113585035D01*
X177380546Y-113612222D01*
X176979995Y-113778136D01*
X176905861Y-114024255D01*
X176255651Y-114024255D01*
X176046862Y-113815466D01*
X175519439Y-113597000D01*
X174948561Y-113597000D01*
X174421138Y-113815466D01*
X174017466Y-114219138D01*
X173799000Y-114746561D01*
X171006567Y-114746561D01*
X170986864Y-114698995D01*
X170740745Y-114624861D01*
X169912605Y-115453000D01*
X169553395Y-115453000D01*
X168725255Y-114624861D01*
X168479136Y-114698995D01*
X168286035Y-115236223D01*
X160696191Y-115236223D01*
X160590839Y-114706582D01*
X160416226Y-114445255D01*
X168904861Y-114445255D01*
X169733000Y-115273395D01*
X170561139Y-114445255D01*
X170487005Y-114199136D01*
X169949777Y-114006035D01*
X169379546Y-114033222D01*
X168978995Y-114199136D01*
X168904861Y-114445255D01*
X160416226Y-114445255D01*
X160262625Y-114215375D01*
X159771418Y-113887161D01*
X159338256Y-113801000D01*
X159045744Y-113801000D01*
X158612582Y-113887161D01*
X158121375Y-114215375D01*
X157922000Y-114513761D01*
X157722625Y-114215375D01*
X157231418Y-113887161D01*
X156798256Y-113801000D01*
X156505744Y-113801000D01*
X156072582Y-113887161D01*
X155581375Y-114215375D01*
X155566904Y-114237033D01*
X155500327Y-114076302D01*
X155321699Y-113897673D01*
X155088310Y-113801000D01*
X154397750Y-113801000D01*
X154239000Y-113959750D01*
X153985000Y-113959750D01*
X153826250Y-113801000D01*
X153135690Y-113801000D01*
X152902301Y-113897673D01*
X152723673Y-114076302D01*
X152627000Y-114309691D01*
X150058000Y-114309691D01*
X150058000Y-111056544D01*
X150069296Y-110999750D01*
X151534000Y-110999750D01*
X151534000Y-111640309D01*
X151630673Y-111873698D01*
X151809301Y-112052327D01*
X152042690Y-112149000D01*
X152683250Y-112149000D01*
X152842000Y-111990250D01*
X152842000Y-110841000D01*
X151692750Y-110841000D01*
X151534000Y-110999750D01*
X150069296Y-110999750D01*
X150076806Y-110961999D01*
X150058000Y-110867455D01*
X150058000Y-110867451D01*
X150002300Y-110587427D01*
X149790121Y-110269879D01*
X149709966Y-110216321D01*
X149286885Y-109793240D01*
X149290592Y-109787691D01*
X151534000Y-109787691D01*
X151534000Y-110428250D01*
X151692750Y-110587000D01*
X152842000Y-110587000D01*
X152842000Y-109437750D01*
X152683250Y-109279000D01*
X152042690Y-109279000D01*
X151809301Y-109375673D01*
X151630673Y-109554302D01*
X151534000Y-109787691D01*
X149290592Y-109787691D01*
X149414157Y-109602765D01*
X149463440Y-109355000D01*
X149463440Y-107755000D01*
X149414157Y-107507235D01*
X149273809Y-107297191D01*
X149063765Y-107156843D01*
X149051293Y-107154362D01*
X158604001Y-97601941D01*
X158604000Y-108283052D01*
X158588132Y-108362649D01*
X158604000Y-108442600D01*
X158604000Y-108442773D01*
X158619488Y-108520637D01*
X158650863Y-108678721D01*
X158650962Y-108678869D01*
X158650997Y-108679045D01*
X158741095Y-108813887D01*
X158784616Y-108879080D01*
X158784736Y-108879200D01*
X158830023Y-108946977D01*
X158897511Y-108992071D01*
X159572326Y-109667461D01*
X159554423Y-109679423D01*
X159319000Y-110031758D01*
X159083577Y-109679423D01*
X158608909Y-109362260D01*
X158190333Y-109279000D01*
X157907667Y-109279000D01*
X157489091Y-109362260D01*
X157014423Y-109679423D01*
X156779000Y-110031758D01*
X156543577Y-109679423D01*
X156068909Y-109362260D01*
X155650333Y-109279000D01*
X155367667Y-109279000D01*
X154949091Y-109362260D01*
X154474423Y-109679423D01*
X154403265Y-109785918D01*
X154307327Y-109554302D01*
X154128699Y-109375673D01*
X153895310Y-109279000D01*
X153254750Y-109279000D01*
X153096000Y-109437750D01*
X153096000Y-110587000D01*
X153116000Y-110587000D01*
X153116000Y-110841000D01*
X153096000Y-110841000D01*
X153096000Y-111990250D01*
X153254750Y-112149000D01*
X153895310Y-112149000D01*
X154128699Y-112052327D01*
X154307327Y-111873698D01*
X154403265Y-111642082D01*
X154474423Y-111748577D01*
X154949091Y-112065740D01*
X155367667Y-112149000D01*
X155650333Y-112149000D01*
X156068909Y-112065740D01*
X156543577Y-111748577D01*
X156779000Y-111396242D01*
X157014423Y-111748577D01*
X157489091Y-112065740D01*
X157907667Y-112149000D01*
X158190333Y-112149000D01*
X158608909Y-112065740D01*
X159083577Y-111748577D01*
X159319000Y-111396242D01*
X159554423Y-111748577D01*
X160029091Y-112065740D01*
X160447667Y-112149000D01*
X160730333Y-112149000D01*
X161148909Y-112065740D01*
X161623577Y-111748577D01*
X161859000Y-111396242D01*
X162094423Y-111748577D01*
X162569091Y-112065740D01*
X162987667Y-112149000D01*
X163270333Y-112149000D01*
X163688909Y-112065740D01*
X164163577Y-111748577D01*
X164399000Y-111396242D01*
X164634423Y-111748577D01*
X165109091Y-112065740D01*
X165527667Y-112149000D01*
X165810333Y-112149000D01*
X166228909Y-112065740D01*
X166703577Y-111748577D01*
X166939000Y-111396242D01*
X167174423Y-111748577D01*
X167649091Y-112065740D01*
X168067667Y-112149000D01*
X168350333Y-112149000D01*
X168768909Y-112065740D01*
X169243577Y-111748577D01*
X169479000Y-111396242D01*
X169714423Y-111748577D01*
X170189091Y-112065740D01*
X170607667Y-112149000D01*
X170890333Y-112149000D01*
X171308909Y-112065740D01*
X171783577Y-111748577D01*
X172019000Y-111396242D01*
X172254423Y-111748577D01*
X172729091Y-112065740D01*
X173147667Y-112149000D01*
X173430333Y-112149000D01*
X173848909Y-112065740D01*
X174323577Y-111748577D01*
X174559000Y-111396242D01*
X174794423Y-111748577D01*
X175269091Y-112065740D01*
X175687667Y-112149000D01*
X175970333Y-112149000D01*
X176388909Y-112065740D01*
X176863577Y-111748577D01*
X177119947Y-111364892D01*
X177216611Y-111569134D01*
X177631577Y-111945041D01*
X178019961Y-112105904D01*
X178242000Y-111983915D01*
X178242000Y-110841000D01*
X178222000Y-110841000D01*
X178222000Y-110587000D01*
X178242000Y-110587000D01*
X178242000Y-109444085D01*
X178019961Y-109322096D01*
X177631577Y-109482959D01*
X177216611Y-109858866D01*
X177119947Y-110063108D01*
X176863577Y-109679423D01*
X176845900Y-109667612D01*
X181870000Y-104643513D01*
X181870000Y-107432487D01*
X180392654Y-108909834D01*
X180325024Y-108955023D01*
X180279835Y-109022653D01*
X180145998Y-109222954D01*
X180083132Y-109539000D01*
X180083302Y-109539855D01*
X179874423Y-109679423D01*
X179618053Y-110063108D01*
X179521389Y-109858866D01*
X179106423Y-109482959D01*
X178718039Y-109322096D01*
X178496000Y-109444085D01*
X178496000Y-110587000D01*
X178516000Y-110587000D01*
X178516000Y-110841000D01*
X178496000Y-110841000D01*
X178496000Y-111983915D01*
X178718039Y-112105904D01*
X179106423Y-111945041D01*
X179521389Y-111569134D01*
X179618053Y-111364892D01*
X179874423Y-111748577D01*
X180349091Y-112065740D01*
X180767667Y-112149000D01*
X181050333Y-112149000D01*
X181468909Y-112065740D01*
X181943577Y-111748577D01*
X182260740Y-111273909D01*
X182372113Y-110714000D01*
X182260740Y-110154091D01*
X181943577Y-109679423D01*
X181925900Y-109667612D01*
X183196347Y-108397166D01*
X183263977Y-108351977D01*
X183443003Y-108084046D01*
X183490000Y-107847774D01*
X183490000Y-107847773D01*
X183505868Y-107768001D01*
X183490000Y-107688228D01*
X183490000Y-89580375D01*
X183505868Y-89500603D01*
X183443004Y-89184557D01*
X183443003Y-89184556D01*
X183443003Y-89184554D01*
X183263977Y-88916623D01*
X183196347Y-88871434D01*
X175282980Y-80958000D01*
X178191560Y-80958000D01*
X178191560Y-82558000D01*
X178240843Y-82805765D01*
X178381191Y-83015809D01*
X178591235Y-83156157D01*
X178839000Y-83205440D01*
X180439000Y-83205440D01*
X180686765Y-83156157D01*
X180896809Y-83015809D01*
X181037157Y-82805765D01*
X181086440Y-82558000D01*
X181086440Y-80958000D01*
X181037157Y-80710235D01*
X180896809Y-80500191D01*
X180686765Y-80359843D01*
X180439000Y-80310560D01*
X178839000Y-80310560D01*
X178591235Y-80359843D01*
X178381191Y-80500191D01*
X178240843Y-80710235D01*
X178191560Y-80958000D01*
X175282980Y-80958000D01*
X171498000Y-77172989D01*
X171498000Y-77153859D01*
X171958000Y-77245359D01*
X172542725Y-77129050D01*
X173038430Y-76797830D01*
X173228000Y-76514119D01*
X173417570Y-76797830D01*
X173913276Y-77129050D01*
X174498000Y-77245359D01*
X175082725Y-77129050D01*
X175578430Y-76797830D01*
X175909650Y-76302124D01*
X175996600Y-75864997D01*
X175996600Y-75265002D01*
X175909650Y-74827875D01*
X175578430Y-74332170D01*
X175082724Y-74000950D01*
X174498000Y-73884641D01*
X173913275Y-74000950D01*
X173417570Y-74332170D01*
X173228000Y-74615881D01*
X173038430Y-74332170D01*
X172542724Y-74000950D01*
X171958000Y-73884641D01*
X171373275Y-74000950D01*
X171093194Y-74188094D01*
X170545227Y-73639844D01*
X170499977Y-73572123D01*
X170362626Y-73480348D01*
X170232243Y-73393180D01*
X170232139Y-73393159D01*
X170232046Y-73393097D01*
X170071776Y-73361218D01*
X169916213Y-73330232D01*
X169836332Y-73346100D01*
X168939741Y-73346100D01*
X168859944Y-73330233D01*
X168712096Y-73359652D01*
X168543954Y-73393097D01*
X168543929Y-73393114D01*
X168543902Y-73393119D01*
X168411801Y-73481399D01*
X168276023Y-73572123D01*
X168230819Y-73639775D01*
X167706698Y-74163968D01*
X167462724Y-74000950D01*
X166878000Y-73884641D01*
X166418000Y-73976141D01*
X166418000Y-68939450D01*
X166433867Y-68859661D01*
X166402399Y-68701494D01*
X166371003Y-68543654D01*
X166370992Y-68543637D01*
X166370988Y-68543618D01*
X166284350Y-68413969D01*
X166191977Y-68275723D01*
X166124331Y-68230523D01*
X162760497Y-64867000D01*
X166974846Y-64867000D01*
X167078458Y-65387891D01*
X167373519Y-65829481D01*
X167815109Y-66124542D01*
X168204515Y-66202000D01*
X168467485Y-66202000D01*
X168856891Y-66124542D01*
X169298481Y-65829481D01*
X169593542Y-65387891D01*
X169697154Y-64867000D01*
X169593542Y-64346109D01*
X169298481Y-63904519D01*
X168856891Y-63609458D01*
X168467485Y-63532000D01*
X168204515Y-63532000D01*
X167815109Y-63609458D01*
X167373519Y-63904519D01*
X167078458Y-64346109D01*
X166974846Y-64867000D01*
X162760497Y-64867000D01*
X161891159Y-63997743D01*
X161845977Y-63930123D01*
X161778326Y-63884920D01*
X161778318Y-63884912D01*
X161734300Y-63855503D01*
X161578046Y-63751097D01*
X161578026Y-63751093D01*
X161578011Y-63751083D01*
X161424490Y-63720553D01*
X161341774Y-63704100D01*
X161341755Y-63704100D01*
X161261962Y-63688232D01*
X161182207Y-63704100D01*
X124731774Y-63704100D01*
X124652000Y-63688232D01*
X124335953Y-63751097D01*
X124199270Y-63842427D01*
X124068023Y-63930123D01*
X124022834Y-63997753D01*
X123483391Y-64537197D01*
X123325089Y-64431423D01*
X124528813Y-63227700D01*
X170309427Y-63227700D01*
X170389200Y-63243568D01*
X170468973Y-63227700D01*
X170468974Y-63227700D01*
X170705246Y-63180703D01*
X170973177Y-63001677D01*
X171018368Y-62934044D01*
X171564047Y-62388366D01*
X171631677Y-62343177D01*
X171722299Y-62207551D01*
X172126744Y-62288000D01*
X172419256Y-62288000D01*
X172852418Y-62201839D01*
X173343625Y-61873625D01*
X173543000Y-61575239D01*
X173742375Y-61873625D01*
X173989166Y-62038525D01*
X174045553Y-62322000D01*
X174049998Y-62344346D01*
X174229024Y-62612277D01*
X174296654Y-62657466D01*
X175146000Y-63506813D01*
X175146000Y-63789025D01*
X174824242Y-64110783D01*
X174621000Y-64601452D01*
X174621000Y-65132548D01*
X174824242Y-65623217D01*
X175199783Y-65998758D01*
X175690452Y-66202000D01*
X175909633Y-66202000D01*
X178889000Y-69043669D01*
X178889000Y-69206494D01*
X179099853Y-69715540D01*
X179489460Y-70105147D01*
X179720870Y-70201000D01*
X179489460Y-70296853D01*
X179125313Y-70661000D01*
X171124361Y-70661000D01*
X169634813Y-68902912D01*
X169671000Y-68815548D01*
X169671000Y-68550000D01*
X174594846Y-68550000D01*
X174698458Y-69070891D01*
X174993519Y-69512481D01*
X175435109Y-69807542D01*
X175824515Y-69885000D01*
X176087485Y-69885000D01*
X176476891Y-69807542D01*
X176918481Y-69512481D01*
X177213542Y-69070891D01*
X177317154Y-68550000D01*
X177213542Y-68029109D01*
X176918481Y-67587519D01*
X176476891Y-67292458D01*
X176087485Y-67215000D01*
X175824515Y-67215000D01*
X175435109Y-67292458D01*
X174993519Y-67587519D01*
X174698458Y-68029109D01*
X174594846Y-68550000D01*
X169671000Y-68550000D01*
X169671000Y-68284452D01*
X169467758Y-67793783D01*
X169092217Y-67418242D01*
X168601548Y-67215000D01*
X168070452Y-67215000D01*
X167579783Y-67418242D01*
X167204242Y-67793783D01*
X167001000Y-68284452D01*
X167001000Y-68815548D01*
X167204242Y-69306217D01*
X167579783Y-69681758D01*
X168070452Y-69885000D01*
X168343617Y-69885000D01*
X170101155Y-71959392D01*
X170165023Y-72054977D01*
X170271196Y-72125920D01*
X170371152Y-72205363D01*
X170404291Y-72214851D01*
X170432954Y-72234003D01*
X170558189Y-72258914D01*
X170680942Y-72294059D01*
X170795148Y-72281000D01*
X179125313Y-72281000D01*
X179489460Y-72645147D01*
X179998506Y-72856000D01*
X180549494Y-72856000D01*
X181058540Y-72645147D01*
X181448147Y-72255540D01*
X181659000Y-71746494D01*
X181659000Y-71195506D01*
X181448147Y-70686460D01*
X181058540Y-70296853D01*
X180827130Y-70201000D01*
X181058540Y-70105147D01*
X181448147Y-69715540D01*
X181659000Y-69206494D01*
X181659000Y-68655506D01*
X181448147Y-68146460D01*
X181077687Y-67776000D01*
X181150309Y-67776000D01*
X181383698Y-67679327D01*
X181562327Y-67500699D01*
X181659000Y-67267310D01*
X181659000Y-66676750D01*
X181500250Y-66518000D01*
X180401000Y-66518000D01*
X180401000Y-66538000D01*
X180147000Y-66538000D01*
X180147000Y-66518000D01*
X179047750Y-66518000D01*
X178889000Y-66676750D01*
X178889000Y-66804959D01*
X177536209Y-65514690D01*
X178889000Y-65514690D01*
X178889000Y-66105250D01*
X179047750Y-66264000D01*
X180147000Y-66264000D01*
X180147000Y-65164750D01*
X180401000Y-65164750D01*
X180401000Y-66264000D01*
X181500250Y-66264000D01*
X181659000Y-66105250D01*
X181659000Y-65514690D01*
X181562327Y-65281301D01*
X181383698Y-65102673D01*
X181150309Y-65006000D01*
X180559750Y-65006000D01*
X180401000Y-65164750D01*
X180147000Y-65164750D01*
X179988250Y-65006000D01*
X179397691Y-65006000D01*
X179164302Y-65102673D01*
X178985673Y-65281301D01*
X178889000Y-65514690D01*
X177536209Y-65514690D01*
X177246978Y-65238827D01*
X177291000Y-65132548D01*
X177291000Y-64601452D01*
X177087758Y-64110783D01*
X176766000Y-63789025D01*
X176766000Y-63251072D01*
X176781868Y-63171299D01*
X176734676Y-62934049D01*
X176719003Y-62855254D01*
X176539977Y-62587323D01*
X176472347Y-62542134D01*
X175835796Y-61905583D01*
X175883625Y-61873625D01*
X176211839Y-61382418D01*
X176327092Y-60803000D01*
X176211839Y-60223582D01*
X175883625Y-59732375D01*
X175392418Y-59404161D01*
X174959256Y-59318000D01*
X174666744Y-59318000D01*
X174233582Y-59404161D01*
X173742375Y-59732375D01*
X173543000Y-60030761D01*
X173343625Y-59732375D01*
X172852418Y-59404161D01*
X172419256Y-59318000D01*
X172126744Y-59318000D01*
X171693582Y-59404161D01*
X171202375Y-59732375D01*
X171190184Y-59750619D01*
X171181157Y-59705235D01*
X171040809Y-59495191D01*
X170830765Y-59354843D01*
X170583000Y-59305560D01*
X168883000Y-59305560D01*
X168635235Y-59354843D01*
X168425191Y-59495191D01*
X168284843Y-59705235D01*
X168235560Y-59953000D01*
X168235560Y-61607700D01*
X124273069Y-61607700D01*
X124193299Y-61591833D01*
X124113530Y-61607700D01*
X124113526Y-61607700D01*
X123877254Y-61654697D01*
X123609323Y-61833723D01*
X123564134Y-61901353D01*
X120934339Y-64531149D01*
X120687418Y-64366161D01*
X120254256Y-64280000D01*
X119961744Y-64280000D01*
X119528582Y-64366161D01*
X119037375Y-64694375D01*
X118838000Y-64992761D01*
X118638625Y-64694375D01*
X118147418Y-64366161D01*
X117714256Y-64280000D01*
X117421744Y-64280000D01*
X116988582Y-64366161D01*
X116497375Y-64694375D01*
X116284157Y-65013478D01*
X116223183Y-64883642D01*
X115794924Y-64493355D01*
X115384890Y-64323524D01*
X115155000Y-64444845D01*
X115155000Y-65638000D01*
X115175000Y-65638000D01*
X115175000Y-65892000D01*
X115155000Y-65892000D01*
X115155000Y-65912000D01*
X114901000Y-65912000D01*
X114901000Y-65892000D01*
X112615000Y-65892000D01*
X112615000Y-65912000D01*
X112361000Y-65912000D01*
X112361000Y-65892000D01*
X111167181Y-65892000D01*
X111046514Y-66121892D01*
X111292817Y-66646358D01*
X111499855Y-66835039D01*
X111390235Y-66856843D01*
X111180191Y-66997191D01*
X111039843Y-67207235D01*
X111012440Y-67345000D01*
X102219440Y-67345000D01*
X102219440Y-66861000D01*
X102170157Y-66613235D01*
X102029809Y-66403191D01*
X101819765Y-66262843D01*
X101585813Y-66216307D01*
X101600139Y-66168745D01*
X100772000Y-65340605D01*
X99943861Y-66168745D01*
X99958187Y-66216307D01*
X99724235Y-66262843D01*
X99514191Y-66403191D01*
X99373843Y-66613235D01*
X99324560Y-66861000D01*
X99324560Y-68461000D01*
X99373843Y-68708765D01*
X99514191Y-68918809D01*
X99724235Y-69059157D01*
X99972000Y-69108440D01*
X100890479Y-69108440D01*
X101041426Y-69209300D01*
X101416000Y-69283807D01*
X101510549Y-69265000D01*
X111012440Y-69265000D01*
X111039843Y-69402765D01*
X111180191Y-69612809D01*
X111390235Y-69753157D01*
X111529184Y-69780795D01*
X111546274Y-69866712D01*
X111583318Y-70053947D01*
X111583601Y-70054372D01*
X111583701Y-70054873D01*
X111689585Y-70213339D01*
X111741696Y-70291502D01*
X111742046Y-70291853D01*
X111772000Y-70336682D01*
X111772000Y-72233000D01*
X87310000Y-72233000D01*
X87310000Y-64944223D01*
X99325035Y-64944223D01*
X99352222Y-65514454D01*
X99518136Y-65915005D01*
X99764255Y-65989139D01*
X100592395Y-65161000D01*
X100951605Y-65161000D01*
X101779745Y-65989139D01*
X102025864Y-65915005D01*
X102208062Y-65408108D01*
X111046514Y-65408108D01*
X111167181Y-65638000D01*
X112361000Y-65638000D01*
X112361000Y-64444845D01*
X112615000Y-64444845D01*
X112615000Y-65638000D01*
X114901000Y-65638000D01*
X114901000Y-64444845D01*
X114671110Y-64323524D01*
X114261076Y-64493355D01*
X113832817Y-64883642D01*
X113758000Y-65042954D01*
X113683183Y-64883642D01*
X113254924Y-64493355D01*
X112844890Y-64323524D01*
X112615000Y-64444845D01*
X112361000Y-64444845D01*
X112131110Y-64323524D01*
X111721076Y-64493355D01*
X111292817Y-64883642D01*
X111046514Y-65408108D01*
X102208062Y-65408108D01*
X102218965Y-65377777D01*
X102191778Y-64807546D01*
X102025864Y-64406995D01*
X101779745Y-64332861D01*
X100951605Y-65161000D01*
X100592395Y-65161000D01*
X99764255Y-64332861D01*
X99518136Y-64406995D01*
X99325035Y-64944223D01*
X87310000Y-64944223D01*
X87310000Y-64153255D01*
X99943861Y-64153255D01*
X100772000Y-64981395D01*
X101600139Y-64153255D01*
X101526005Y-63907136D01*
X100988777Y-63714035D01*
X100418546Y-63741222D01*
X100017995Y-63907136D01*
X99943861Y-64153255D01*
X87310000Y-64153255D01*
X87310000Y-59164501D01*
X89391000Y-59164501D01*
X89391000Y-60225499D01*
X89797026Y-61205734D01*
X90547266Y-61955974D01*
X91527501Y-62362000D01*
X92588499Y-62362000D01*
X93568734Y-61955974D01*
X94318974Y-61205734D01*
X94725000Y-60225499D01*
X94725000Y-59164501D01*
X94708432Y-59124501D01*
X178381000Y-59124501D01*
X178381000Y-60185499D01*
X178787026Y-61165734D01*
X179537266Y-61915974D01*
X180517501Y-62322000D01*
X181578499Y-62322000D01*
X182558734Y-61915974D01*
X183308974Y-61165734D01*
X183715000Y-60185499D01*
X183715000Y-59124501D01*
X183308974Y-58144266D01*
X182558734Y-57394026D01*
X181578499Y-56988000D01*
X180517501Y-56988000D01*
X179537266Y-57394026D01*
X178787026Y-58144266D01*
X178381000Y-59124501D01*
X94708432Y-59124501D01*
X94318974Y-58184266D01*
X93568734Y-57434026D01*
X92588499Y-57028000D01*
X91527501Y-57028000D01*
X90547266Y-57434026D01*
X89797026Y-58184266D01*
X89391000Y-59164501D01*
X87310000Y-59164501D01*
X87310000Y-56103837D01*
X185735000Y-55977164D01*
X185735000Y-129129000D01*
G36*
X139640213Y-101205836D02*
X139703880Y-101301121D01*
X139784034Y-101354678D01*
X140198000Y-101768645D01*
X140198000Y-101770604D01*
X139941466Y-102027138D01*
X139723000Y-102554561D01*
X139723000Y-103125439D01*
X139941466Y-103652862D01*
X140345138Y-104056534D01*
X140872561Y-104275000D01*
X141443439Y-104275000D01*
X141598001Y-104210978D01*
X141598001Y-110684222D01*
X141582132Y-110764000D01*
X141644998Y-111080046D01*
X141824024Y-111347977D01*
X141891654Y-111393166D01*
X142507000Y-112008513D01*
X142507001Y-115133407D01*
X142193256Y-115071000D01*
X141900744Y-115071000D01*
X141467582Y-115157161D01*
X140976375Y-115485375D01*
X140777000Y-115783761D01*
X140577625Y-115485375D01*
X140086418Y-115157161D01*
X139653256Y-115071000D01*
X139360744Y-115071000D01*
X139047000Y-115133407D01*
X139047000Y-106289512D01*
X139303347Y-106033166D01*
X139370977Y-105987977D01*
X139550003Y-105720046D01*
X139597000Y-105483774D01*
X139597000Y-105483770D01*
X139612867Y-105404001D01*
X139597000Y-105324231D01*
X139597000Y-101141164D01*
X139640213Y-101205836D01*
X139640213Y-101205836D01*
G37*
X139640213Y-101205836D02*
X139703880Y-101301121D01*
X139784034Y-101354678D01*
X140198000Y-101768645D01*
X140198000Y-101770604D01*
X139941466Y-102027138D01*
X139723000Y-102554561D01*
X139723000Y-103125439D01*
X139941466Y-103652862D01*
X140345138Y-104056534D01*
X140872561Y-104275000D01*
X141443439Y-104275000D01*
X141598001Y-104210978D01*
X141598001Y-110684222D01*
X141582132Y-110764000D01*
X141644998Y-111080046D01*
X141824024Y-111347977D01*
X141891654Y-111393166D01*
X142507000Y-112008513D01*
X142507001Y-115133407D01*
X142193256Y-115071000D01*
X141900744Y-115071000D01*
X141467582Y-115157161D01*
X140976375Y-115485375D01*
X140777000Y-115783761D01*
X140577625Y-115485375D01*
X140086418Y-115157161D01*
X139653256Y-115071000D01*
X139360744Y-115071000D01*
X139047000Y-115133407D01*
X139047000Y-106289512D01*
X139303347Y-106033166D01*
X139370977Y-105987977D01*
X139550003Y-105720046D01*
X139597000Y-105483774D01*
X139597000Y-105483770D01*
X139612867Y-105404001D01*
X139597000Y-105324231D01*
X139597000Y-101141164D01*
X139640213Y-101205836D01*
G36*
X137541000Y-75438000D02*
X137561000Y-75438000D01*
X137561000Y-75692000D01*
X137541000Y-75692000D01*
X137541000Y-77051217D01*
X137773026Y-77172358D01*
X137788791Y-77169709D01*
X138316036Y-76915732D01*
X138680090Y-76508268D01*
X138873570Y-76797830D01*
X139369276Y-77129050D01*
X139954000Y-77245359D01*
X140538725Y-77129050D01*
X141034430Y-76797830D01*
X141224000Y-76514119D01*
X141413570Y-76797830D01*
X141909276Y-77129050D01*
X142494000Y-77245359D01*
X143078725Y-77129050D01*
X143332967Y-76959171D01*
X145982818Y-79609423D01*
X146028023Y-79677077D01*
X146161525Y-79766280D01*
X146295896Y-79856079D01*
X146295927Y-79856085D01*
X146295954Y-79856103D01*
X146452810Y-79887303D01*
X146611937Y-79918968D01*
X146691742Y-79903100D01*
X146955468Y-79903100D01*
X147325860Y-80273522D01*
X147160866Y-80351611D01*
X146784959Y-80766577D01*
X146624096Y-81154961D01*
X146746085Y-81377000D01*
X147889000Y-81377000D01*
X147889000Y-81357000D01*
X148143000Y-81357000D01*
X148143000Y-81377000D01*
X148163000Y-81377000D01*
X148163000Y-81631000D01*
X148143000Y-81631000D01*
X148143000Y-81651000D01*
X147889000Y-81651000D01*
X147889000Y-81631000D01*
X146746085Y-81631000D01*
X146624096Y-81853039D01*
X146784959Y-82241423D01*
X147160866Y-82656389D01*
X147365108Y-82753053D01*
X146981423Y-83009423D01*
X146664260Y-83484091D01*
X146552887Y-84044000D01*
X146664260Y-84603909D01*
X146846366Y-84876450D01*
X146324635Y-85398246D01*
X146257023Y-85443423D01*
X146211818Y-85511077D01*
X146211803Y-85511092D01*
X146171096Y-85572023D01*
X146077997Y-85711355D01*
X146077992Y-85711380D01*
X146077978Y-85711401D01*
X146047269Y-85865835D01*
X146031000Y-85947627D01*
X146031000Y-85947651D01*
X146015132Y-86027451D01*
X146031000Y-86107199D01*
X146031001Y-89567586D01*
X146015132Y-89647224D01*
X146031001Y-89727142D01*
X146031001Y-89727274D01*
X146046141Y-89803389D01*
X146077892Y-89963290D01*
X146077970Y-89963407D01*
X146077998Y-89963546D01*
X146167524Y-90097531D01*
X146211662Y-90163636D01*
X146211759Y-90163733D01*
X146257024Y-90231477D01*
X146324540Y-90276590D01*
X146874886Y-90827306D01*
X146784959Y-90926577D01*
X146624096Y-91314961D01*
X146746085Y-91537000D01*
X147889000Y-91537000D01*
X147889000Y-91517000D01*
X148143000Y-91517000D01*
X148143000Y-91537000D01*
X148163000Y-91537000D01*
X148163000Y-91791000D01*
X148143000Y-91791000D01*
X148143000Y-91811000D01*
X147889000Y-91811000D01*
X147889000Y-91791000D01*
X146746085Y-91791000D01*
X146624096Y-92013039D01*
X146784959Y-92401423D01*
X147160866Y-92816389D01*
X147365108Y-92913053D01*
X146981423Y-93169423D01*
X146664260Y-93644091D01*
X146552887Y-94204000D01*
X146664260Y-94763909D01*
X146870267Y-95072220D01*
X146010656Y-95931832D01*
X145943023Y-95977023D01*
X145763997Y-96244955D01*
X145722653Y-96452807D01*
X145701132Y-96561000D01*
X145717000Y-96640773D01*
X145717001Y-104085979D01*
X145701136Y-104164490D01*
X145717001Y-104245535D01*
X145717001Y-104246774D01*
X145732300Y-104323690D01*
X145763041Y-104480725D01*
X145763748Y-104481790D01*
X145763998Y-104483046D01*
X145852847Y-104616018D01*
X145881000Y-104658430D01*
X145881000Y-107161312D01*
X145732777Y-107108035D01*
X145162546Y-107135222D01*
X144761995Y-107301136D01*
X144687861Y-107547255D01*
X145516000Y-108375395D01*
X145530142Y-108361252D01*
X145709748Y-108540858D01*
X145695605Y-108555000D01*
X145709748Y-108569143D01*
X145530142Y-108748748D01*
X145516000Y-108734605D01*
X144687861Y-109562745D01*
X144761995Y-109808864D01*
X145299223Y-110001965D01*
X145869454Y-109974778D01*
X145881001Y-109969995D01*
X145881001Y-114755771D01*
X145354542Y-115282861D01*
X145166418Y-115157161D01*
X144733256Y-115071000D01*
X144440744Y-115071000D01*
X144127000Y-115133407D01*
X144127000Y-111752772D01*
X144142868Y-111672999D01*
X144122208Y-111569134D01*
X144080003Y-111356954D01*
X143900977Y-111089023D01*
X143833347Y-111043834D01*
X143218000Y-110428488D01*
X143218000Y-108338223D01*
X144069035Y-108338223D01*
X144096222Y-108908454D01*
X144262136Y-109309005D01*
X144508255Y-109383139D01*
X145336395Y-108555000D01*
X144508255Y-107726861D01*
X144262136Y-107800995D01*
X144069035Y-108338223D01*
X143218000Y-108338223D01*
X143218000Y-104206730D01*
X143441223Y-104286965D01*
X144011454Y-104259778D01*
X144412005Y-104093864D01*
X144486139Y-103847745D01*
X143658000Y-103019605D01*
X143643858Y-103033748D01*
X143464253Y-102854143D01*
X143478395Y-102840000D01*
X143837605Y-102840000D01*
X144665745Y-103668139D01*
X144911864Y-103594005D01*
X145104965Y-103056777D01*
X145077778Y-102486546D01*
X144911864Y-102085995D01*
X144665745Y-102011861D01*
X143837605Y-102840000D01*
X143478395Y-102840000D01*
X143464253Y-102825858D01*
X143643858Y-102646252D01*
X143658000Y-102660395D01*
X144486139Y-101832255D01*
X144412005Y-101586136D01*
X143874777Y-101393035D01*
X143304546Y-101420222D01*
X143218000Y-101456071D01*
X143218000Y-86943735D01*
X143233868Y-86863924D01*
X143203080Y-86709219D01*
X143171003Y-86547954D01*
X143170980Y-86547920D01*
X143170973Y-86547883D01*
X143081174Y-86413516D01*
X142991977Y-86280023D01*
X142924318Y-86234815D01*
X141565662Y-84876408D01*
X141747740Y-84603909D01*
X141859113Y-84044000D01*
X141747740Y-83484091D01*
X141430577Y-83009423D01*
X141188391Y-82847600D01*
X141206000Y-82759074D01*
X141221868Y-82679300D01*
X141221645Y-82678181D01*
X141430577Y-82538577D01*
X141747740Y-82063909D01*
X141859113Y-81504000D01*
X141747740Y-80944091D01*
X141430577Y-80469423D01*
X140955909Y-80152260D01*
X140537333Y-80069000D01*
X140254667Y-80069000D01*
X139836091Y-80152260D01*
X139361423Y-80469423D01*
X139044260Y-80944091D01*
X138932887Y-81504000D01*
X139044260Y-82063909D01*
X139226343Y-82336416D01*
X138704677Y-82858018D01*
X138637023Y-82903223D01*
X138543859Y-83042653D01*
X138458017Y-83171107D01*
X138458012Y-83171133D01*
X138457997Y-83171155D01*
X138426572Y-83329138D01*
X138395132Y-83487149D01*
X138411000Y-83566949D01*
X138411000Y-83765300D01*
X136309031Y-85867382D01*
X136096577Y-85549423D01*
X135744242Y-85314000D01*
X136096577Y-85078577D01*
X136413740Y-84603909D01*
X136525113Y-84044000D01*
X136413740Y-83484091D01*
X136096577Y-83009423D01*
X135744242Y-82774000D01*
X136096577Y-82538577D01*
X136413740Y-82063909D01*
X136525113Y-81504000D01*
X136413740Y-80944091D01*
X136096577Y-80469423D01*
X135621909Y-80152260D01*
X135203333Y-80069000D01*
X134920667Y-80069000D01*
X134502091Y-80152260D01*
X134027423Y-80469423D01*
X133710260Y-80944091D01*
X133707779Y-80956566D01*
X129962963Y-77211750D01*
X130378725Y-77129050D01*
X130874430Y-76797830D01*
X131064000Y-76514119D01*
X131253570Y-76797830D01*
X131749276Y-77129050D01*
X132334000Y-77245359D01*
X132918725Y-77129050D01*
X133414430Y-76797830D01*
X133604000Y-76514119D01*
X133793570Y-76797830D01*
X134289276Y-77129050D01*
X134874000Y-77245359D01*
X135458725Y-77129050D01*
X135954430Y-76797830D01*
X136147909Y-76508267D01*
X136511964Y-76915732D01*
X137039209Y-77169709D01*
X137054974Y-77172358D01*
X137287000Y-77051217D01*
X137287000Y-75692000D01*
X137267000Y-75692000D01*
X137267000Y-75438000D01*
X137287000Y-75438000D01*
X137287000Y-75418000D01*
X137541000Y-75418000D01*
X137541000Y-75438000D01*
X137541000Y-75438000D01*
G37*
X137541000Y-75438000D02*
X137561000Y-75438000D01*
X137561000Y-75692000D01*
X137541000Y-75692000D01*
X137541000Y-77051217D01*
X137773026Y-77172358D01*
X137788791Y-77169709D01*
X138316036Y-76915732D01*
X138680090Y-76508268D01*
X138873570Y-76797830D01*
X139369276Y-77129050D01*
X139954000Y-77245359D01*
X140538725Y-77129050D01*
X141034430Y-76797830D01*
X141224000Y-76514119D01*
X141413570Y-76797830D01*
X141909276Y-77129050D01*
X142494000Y-77245359D01*
X143078725Y-77129050D01*
X143332967Y-76959171D01*
X145982818Y-79609423D01*
X146028023Y-79677077D01*
X146161525Y-79766280D01*
X146295896Y-79856079D01*
X146295927Y-79856085D01*
X146295954Y-79856103D01*
X146452810Y-79887303D01*
X146611937Y-79918968D01*
X146691742Y-79903100D01*
X146955468Y-79903100D01*
X147325860Y-80273522D01*
X147160866Y-80351611D01*
X146784959Y-80766577D01*
X146624096Y-81154961D01*
X146746085Y-81377000D01*
X147889000Y-81377000D01*
X147889000Y-81357000D01*
X148143000Y-81357000D01*
X148143000Y-81377000D01*
X148163000Y-81377000D01*
X148163000Y-81631000D01*
X148143000Y-81631000D01*
X148143000Y-81651000D01*
X147889000Y-81651000D01*
X147889000Y-81631000D01*
X146746085Y-81631000D01*
X146624096Y-81853039D01*
X146784959Y-82241423D01*
X147160866Y-82656389D01*
X147365108Y-82753053D01*
X146981423Y-83009423D01*
X146664260Y-83484091D01*
X146552887Y-84044000D01*
X146664260Y-84603909D01*
X146846366Y-84876450D01*
X146324635Y-85398246D01*
X146257023Y-85443423D01*
X146211818Y-85511077D01*
X146211803Y-85511092D01*
X146171096Y-85572023D01*
X146077997Y-85711355D01*
X146077992Y-85711380D01*
X146077978Y-85711401D01*
X146047269Y-85865835D01*
X146031000Y-85947627D01*
X146031000Y-85947651D01*
X146015132Y-86027451D01*
X146031000Y-86107199D01*
X146031001Y-89567586D01*
X146015132Y-89647224D01*
X146031001Y-89727142D01*
X146031001Y-89727274D01*
X146046141Y-89803389D01*
X146077892Y-89963290D01*
X146077970Y-89963407D01*
X146077998Y-89963546D01*
X146167524Y-90097531D01*
X146211662Y-90163636D01*
X146211759Y-90163733D01*
X146257024Y-90231477D01*
X146324540Y-90276590D01*
X146874886Y-90827306D01*
X146784959Y-90926577D01*
X146624096Y-91314961D01*
X146746085Y-91537000D01*
X147889000Y-91537000D01*
X147889000Y-91517000D01*
X148143000Y-91517000D01*
X148143000Y-91537000D01*
X148163000Y-91537000D01*
X148163000Y-91791000D01*
X148143000Y-91791000D01*
X148143000Y-91811000D01*
X147889000Y-91811000D01*
X147889000Y-91791000D01*
X146746085Y-91791000D01*
X146624096Y-92013039D01*
X146784959Y-92401423D01*
X147160866Y-92816389D01*
X147365108Y-92913053D01*
X146981423Y-93169423D01*
X146664260Y-93644091D01*
X146552887Y-94204000D01*
X146664260Y-94763909D01*
X146870267Y-95072220D01*
X146010656Y-95931832D01*
X145943023Y-95977023D01*
X145763997Y-96244955D01*
X145722653Y-96452807D01*
X145701132Y-96561000D01*
X145717000Y-96640773D01*
X145717001Y-104085979D01*
X145701136Y-104164490D01*
X145717001Y-104245535D01*
X145717001Y-104246774D01*
X145732300Y-104323690D01*
X145763041Y-104480725D01*
X145763748Y-104481790D01*
X145763998Y-104483046D01*
X145852847Y-104616018D01*
X145881000Y-104658430D01*
X145881000Y-107161312D01*
X145732777Y-107108035D01*
X145162546Y-107135222D01*
X144761995Y-107301136D01*
X144687861Y-107547255D01*
X145516000Y-108375395D01*
X145530142Y-108361252D01*
X145709748Y-108540858D01*
X145695605Y-108555000D01*
X145709748Y-108569143D01*
X145530142Y-108748748D01*
X145516000Y-108734605D01*
X144687861Y-109562745D01*
X144761995Y-109808864D01*
X145299223Y-110001965D01*
X145869454Y-109974778D01*
X145881001Y-109969995D01*
X145881001Y-114755771D01*
X145354542Y-115282861D01*
X145166418Y-115157161D01*
X144733256Y-115071000D01*
X144440744Y-115071000D01*
X144127000Y-115133407D01*
X144127000Y-111752772D01*
X144142868Y-111672999D01*
X144122208Y-111569134D01*
X144080003Y-111356954D01*
X143900977Y-111089023D01*
X143833347Y-111043834D01*
X143218000Y-110428488D01*
X143218000Y-108338223D01*
X144069035Y-108338223D01*
X144096222Y-108908454D01*
X144262136Y-109309005D01*
X144508255Y-109383139D01*
X145336395Y-108555000D01*
X144508255Y-107726861D01*
X144262136Y-107800995D01*
X144069035Y-108338223D01*
X143218000Y-108338223D01*
X143218000Y-104206730D01*
X143441223Y-104286965D01*
X144011454Y-104259778D01*
X144412005Y-104093864D01*
X144486139Y-103847745D01*
X143658000Y-103019605D01*
X143643858Y-103033748D01*
X143464253Y-102854143D01*
X143478395Y-102840000D01*
X143837605Y-102840000D01*
X144665745Y-103668139D01*
X144911864Y-103594005D01*
X145104965Y-103056777D01*
X145077778Y-102486546D01*
X144911864Y-102085995D01*
X144665745Y-102011861D01*
X143837605Y-102840000D01*
X143478395Y-102840000D01*
X143464253Y-102825858D01*
X143643858Y-102646252D01*
X143658000Y-102660395D01*
X144486139Y-101832255D01*
X144412005Y-101586136D01*
X143874777Y-101393035D01*
X143304546Y-101420222D01*
X143218000Y-101456071D01*
X143218000Y-86943735D01*
X143233868Y-86863924D01*
X143203080Y-86709219D01*
X143171003Y-86547954D01*
X143170980Y-86547920D01*
X143170973Y-86547883D01*
X143081174Y-86413516D01*
X142991977Y-86280023D01*
X142924318Y-86234815D01*
X141565662Y-84876408D01*
X141747740Y-84603909D01*
X141859113Y-84044000D01*
X141747740Y-83484091D01*
X141430577Y-83009423D01*
X141188391Y-82847600D01*
X141206000Y-82759074D01*
X141221868Y-82679300D01*
X141221645Y-82678181D01*
X141430577Y-82538577D01*
X141747740Y-82063909D01*
X141859113Y-81504000D01*
X141747740Y-80944091D01*
X141430577Y-80469423D01*
X140955909Y-80152260D01*
X140537333Y-80069000D01*
X140254667Y-80069000D01*
X139836091Y-80152260D01*
X139361423Y-80469423D01*
X139044260Y-80944091D01*
X138932887Y-81504000D01*
X139044260Y-82063909D01*
X139226343Y-82336416D01*
X138704677Y-82858018D01*
X138637023Y-82903223D01*
X138543859Y-83042653D01*
X138458017Y-83171107D01*
X138458012Y-83171133D01*
X138457997Y-83171155D01*
X138426572Y-83329138D01*
X138395132Y-83487149D01*
X138411000Y-83566949D01*
X138411000Y-83765300D01*
X136309031Y-85867382D01*
X136096577Y-85549423D01*
X135744242Y-85314000D01*
X136096577Y-85078577D01*
X136413740Y-84603909D01*
X136525113Y-84044000D01*
X136413740Y-83484091D01*
X136096577Y-83009423D01*
X135744242Y-82774000D01*
X136096577Y-82538577D01*
X136413740Y-82063909D01*
X136525113Y-81504000D01*
X136413740Y-80944091D01*
X136096577Y-80469423D01*
X135621909Y-80152260D01*
X135203333Y-80069000D01*
X134920667Y-80069000D01*
X134502091Y-80152260D01*
X134027423Y-80469423D01*
X133710260Y-80944091D01*
X133707779Y-80956566D01*
X129962963Y-77211750D01*
X130378725Y-77129050D01*
X130874430Y-76797830D01*
X131064000Y-76514119D01*
X131253570Y-76797830D01*
X131749276Y-77129050D01*
X132334000Y-77245359D01*
X132918725Y-77129050D01*
X133414430Y-76797830D01*
X133604000Y-76514119D01*
X133793570Y-76797830D01*
X134289276Y-77129050D01*
X134874000Y-77245359D01*
X135458725Y-77129050D01*
X135954430Y-76797830D01*
X136147909Y-76508267D01*
X136511964Y-76915732D01*
X137039209Y-77169709D01*
X137054974Y-77172358D01*
X137287000Y-77051217D01*
X137287000Y-75692000D01*
X137267000Y-75692000D01*
X137267000Y-75438000D01*
X137287000Y-75438000D01*
X137287000Y-75418000D01*
X137541000Y-75418000D01*
X137541000Y-75438000D01*
G36*
X125978887Y-99284000D02*
X126090260Y-99843909D01*
X126407423Y-100318577D01*
X126482000Y-100368408D01*
X126482001Y-103204354D01*
X125306037Y-104380319D01*
X125225879Y-104433879D01*
X125013700Y-104751428D01*
X124958000Y-105031452D01*
X124958000Y-105031456D01*
X124939194Y-105126000D01*
X124958000Y-105220545D01*
X124958001Y-112221354D01*
X123107356Y-114072000D01*
X121981000Y-114072000D01*
X121981000Y-98824000D01*
X126070387Y-98824000D01*
X125978887Y-99284000D01*
X125978887Y-99284000D01*
G37*
X125978887Y-99284000D02*
X126090260Y-99843909D01*
X126407423Y-100318577D01*
X126482000Y-100368408D01*
X126482001Y-103204354D01*
X125306037Y-104380319D01*
X125225879Y-104433879D01*
X125013700Y-104751428D01*
X124958000Y-105031452D01*
X124958000Y-105031456D01*
X124939194Y-105126000D01*
X124958000Y-105220545D01*
X124958001Y-112221354D01*
X123107356Y-114072000D01*
X121981000Y-114072000D01*
X121981000Y-98824000D01*
X126070387Y-98824000D01*
X125978887Y-99284000D01*
G36*
X179874423Y-96508577D02*
X180349091Y-96825740D01*
X180767667Y-96909000D01*
X181050333Y-96909000D01*
X181320001Y-96855360D01*
X181320000Y-102902487D01*
X175312654Y-108909834D01*
X175245024Y-108955023D01*
X175199835Y-109022653D01*
X175065998Y-109222954D01*
X175003132Y-109539000D01*
X175003302Y-109539855D01*
X174794423Y-109679423D01*
X174559000Y-110031758D01*
X174323577Y-109679423D01*
X173848909Y-109362260D01*
X173430333Y-109279000D01*
X173147667Y-109279000D01*
X172729091Y-109362260D01*
X172254423Y-109679423D01*
X172019000Y-110031758D01*
X171783577Y-109679423D01*
X171308909Y-109362260D01*
X170890333Y-109279000D01*
X170607667Y-109279000D01*
X170189091Y-109362260D01*
X169714423Y-109679423D01*
X169479000Y-110031758D01*
X169243577Y-109679423D01*
X168768909Y-109362260D01*
X168350333Y-109279000D01*
X168067667Y-109279000D01*
X167649091Y-109362260D01*
X167174423Y-109679423D01*
X166939000Y-110031758D01*
X166703577Y-109679423D01*
X166494759Y-109539895D01*
X166494867Y-109539351D01*
X166479000Y-109459403D01*
X166479000Y-109459226D01*
X166463243Y-109380011D01*
X166432137Y-109223278D01*
X166432038Y-109223130D01*
X166432003Y-109222954D01*
X166342271Y-109088661D01*
X166298384Y-109022919D01*
X166298262Y-109022797D01*
X166252977Y-108955023D01*
X166185492Y-108909931D01*
X165304000Y-108027689D01*
X165304000Y-96864510D01*
X165527667Y-96909000D01*
X165810333Y-96909000D01*
X166228909Y-96825740D01*
X166703577Y-96508577D01*
X166939000Y-96156242D01*
X167174423Y-96508577D01*
X167649091Y-96825740D01*
X168067667Y-96909000D01*
X168350333Y-96909000D01*
X168768909Y-96825740D01*
X169243577Y-96508577D01*
X169479000Y-96156242D01*
X169714423Y-96508577D01*
X170189091Y-96825740D01*
X170607667Y-96909000D01*
X170890333Y-96909000D01*
X171308909Y-96825740D01*
X171783577Y-96508577D01*
X172019000Y-96156242D01*
X172254423Y-96508577D01*
X172729091Y-96825740D01*
X173147667Y-96909000D01*
X173430333Y-96909000D01*
X173848909Y-96825740D01*
X174323577Y-96508577D01*
X174485435Y-96266339D01*
X174654000Y-96299868D01*
X174654855Y-96299698D01*
X174794423Y-96508577D01*
X175269091Y-96825740D01*
X175687667Y-96909000D01*
X175970333Y-96909000D01*
X176388909Y-96825740D01*
X176863577Y-96508577D01*
X177099000Y-96156242D01*
X177334423Y-96508577D01*
X177809091Y-96825740D01*
X178227667Y-96909000D01*
X178510333Y-96909000D01*
X178928909Y-96825740D01*
X179403577Y-96508577D01*
X179639000Y-96156242D01*
X179874423Y-96508577D01*
X179874423Y-96508577D01*
G37*
X179874423Y-96508577D02*
X180349091Y-96825740D01*
X180767667Y-96909000D01*
X181050333Y-96909000D01*
X181320001Y-96855360D01*
X181320000Y-102902487D01*
X175312654Y-108909834D01*
X175245024Y-108955023D01*
X175199835Y-109022653D01*
X175065998Y-109222954D01*
X175003132Y-109539000D01*
X175003302Y-109539855D01*
X174794423Y-109679423D01*
X174559000Y-110031758D01*
X174323577Y-109679423D01*
X173848909Y-109362260D01*
X173430333Y-109279000D01*
X173147667Y-109279000D01*
X172729091Y-109362260D01*
X172254423Y-109679423D01*
X172019000Y-110031758D01*
X171783577Y-109679423D01*
X171308909Y-109362260D01*
X170890333Y-109279000D01*
X170607667Y-109279000D01*
X170189091Y-109362260D01*
X169714423Y-109679423D01*
X169479000Y-110031758D01*
X169243577Y-109679423D01*
X168768909Y-109362260D01*
X168350333Y-109279000D01*
X168067667Y-109279000D01*
X167649091Y-109362260D01*
X167174423Y-109679423D01*
X166939000Y-110031758D01*
X166703577Y-109679423D01*
X166494759Y-109539895D01*
X166494867Y-109539351D01*
X166479000Y-109459403D01*
X166479000Y-109459226D01*
X166463243Y-109380011D01*
X166432137Y-109223278D01*
X166432038Y-109223130D01*
X166432003Y-109222954D01*
X166342271Y-109088661D01*
X166298384Y-109022919D01*
X166298262Y-109022797D01*
X166252977Y-108955023D01*
X166185492Y-108909931D01*
X165304000Y-108027689D01*
X165304000Y-96864510D01*
X165527667Y-96909000D01*
X165810333Y-96909000D01*
X166228909Y-96825740D01*
X166703577Y-96508577D01*
X166939000Y-96156242D01*
X167174423Y-96508577D01*
X167649091Y-96825740D01*
X168067667Y-96909000D01*
X168350333Y-96909000D01*
X168768909Y-96825740D01*
X169243577Y-96508577D01*
X169479000Y-96156242D01*
X169714423Y-96508577D01*
X170189091Y-96825740D01*
X170607667Y-96909000D01*
X170890333Y-96909000D01*
X171308909Y-96825740D01*
X171783577Y-96508577D01*
X172019000Y-96156242D01*
X172254423Y-96508577D01*
X172729091Y-96825740D01*
X173147667Y-96909000D01*
X173430333Y-96909000D01*
X173848909Y-96825740D01*
X174323577Y-96508577D01*
X174485435Y-96266339D01*
X174654000Y-96299868D01*
X174654855Y-96299698D01*
X174794423Y-96508577D01*
X175269091Y-96825740D01*
X175687667Y-96909000D01*
X175970333Y-96909000D01*
X176388909Y-96825740D01*
X176863577Y-96508577D01*
X177099000Y-96156242D01*
X177334423Y-96508577D01*
X177809091Y-96825740D01*
X178227667Y-96909000D01*
X178510333Y-96909000D01*
X178928909Y-96825740D01*
X179403577Y-96508577D01*
X179639000Y-96156242D01*
X179874423Y-96508577D01*
G36*
X134027423Y-90158577D02*
X134379758Y-90394000D01*
X134027423Y-90629423D01*
X133710260Y-91104091D01*
X133598887Y-91664000D01*
X133710260Y-92223909D01*
X134027423Y-92698577D01*
X134411108Y-92954947D01*
X134206866Y-93051611D01*
X133830959Y-93466577D01*
X133670096Y-93854961D01*
X133792085Y-94077000D01*
X134935000Y-94077000D01*
X134935000Y-94057000D01*
X135189000Y-94057000D01*
X135189000Y-94077000D01*
X135209000Y-94077000D01*
X135209000Y-94331000D01*
X135189000Y-94331000D01*
X135189000Y-94351000D01*
X134935000Y-94351000D01*
X134935000Y-94331000D01*
X133792085Y-94331000D01*
X133670096Y-94553039D01*
X133830959Y-94941423D01*
X134206866Y-95356389D01*
X134411108Y-95453053D01*
X134027423Y-95709423D01*
X133710260Y-96184091D01*
X133598887Y-96744000D01*
X133710260Y-97303909D01*
X134027423Y-97778577D01*
X134148106Y-97859215D01*
X134014235Y-97885843D01*
X133804191Y-98026191D01*
X133663843Y-98236235D01*
X133614560Y-98484000D01*
X133614560Y-100084000D01*
X133663843Y-100331765D01*
X133804191Y-100541809D01*
X133972457Y-100654241D01*
X133956194Y-100736000D01*
X133975000Y-100830545D01*
X133975000Y-101770604D01*
X133718466Y-102027138D01*
X133691475Y-102092299D01*
X133688864Y-102085995D01*
X133442745Y-102011861D01*
X132614605Y-102840000D01*
X133442745Y-103668139D01*
X133688864Y-103594005D01*
X133691290Y-103587254D01*
X133718466Y-103652862D01*
X134122138Y-104056534D01*
X134202480Y-104089813D01*
X128370000Y-109921588D01*
X128370000Y-105392512D01*
X129914767Y-103847745D01*
X131606861Y-103847745D01*
X131680995Y-104093864D01*
X132218223Y-104286965D01*
X132788454Y-104259778D01*
X133189005Y-104093864D01*
X133263139Y-103847745D01*
X132435000Y-103019605D01*
X131606861Y-103847745D01*
X129914767Y-103847745D01*
X130887347Y-102875166D01*
X130954977Y-102829977D01*
X130995034Y-102770027D01*
X131015222Y-103193454D01*
X131181136Y-103594005D01*
X131427255Y-103668139D01*
X132255395Y-102840000D01*
X131427255Y-102011861D01*
X131181136Y-102085995D01*
X131181000Y-102086373D01*
X131181000Y-101832255D01*
X131606861Y-101832255D01*
X132435000Y-102660395D01*
X133263139Y-101832255D01*
X133189005Y-101586136D01*
X132651777Y-101393035D01*
X132081546Y-101420222D01*
X131680995Y-101586136D01*
X131606861Y-101832255D01*
X131181000Y-101832255D01*
X131181000Y-92396984D01*
X133783762Y-89793913D01*
X134027423Y-90158577D01*
X134027423Y-90158577D01*
G37*
X134027423Y-90158577D02*
X134379758Y-90394000D01*
X134027423Y-90629423D01*
X133710260Y-91104091D01*
X133598887Y-91664000D01*
X133710260Y-92223909D01*
X134027423Y-92698577D01*
X134411108Y-92954947D01*
X134206866Y-93051611D01*
X133830959Y-93466577D01*
X133670096Y-93854961D01*
X133792085Y-94077000D01*
X134935000Y-94077000D01*
X134935000Y-94057000D01*
X135189000Y-94057000D01*
X135189000Y-94077000D01*
X135209000Y-94077000D01*
X135209000Y-94331000D01*
X135189000Y-94331000D01*
X135189000Y-94351000D01*
X134935000Y-94351000D01*
X134935000Y-94331000D01*
X133792085Y-94331000D01*
X133670096Y-94553039D01*
X133830959Y-94941423D01*
X134206866Y-95356389D01*
X134411108Y-95453053D01*
X134027423Y-95709423D01*
X133710260Y-96184091D01*
X133598887Y-96744000D01*
X133710260Y-97303909D01*
X134027423Y-97778577D01*
X134148106Y-97859215D01*
X134014235Y-97885843D01*
X133804191Y-98026191D01*
X133663843Y-98236235D01*
X133614560Y-98484000D01*
X133614560Y-100084000D01*
X133663843Y-100331765D01*
X133804191Y-100541809D01*
X133972457Y-100654241D01*
X133956194Y-100736000D01*
X133975000Y-100830545D01*
X133975000Y-101770604D01*
X133718466Y-102027138D01*
X133691475Y-102092299D01*
X133688864Y-102085995D01*
X133442745Y-102011861D01*
X132614605Y-102840000D01*
X133442745Y-103668139D01*
X133688864Y-103594005D01*
X133691290Y-103587254D01*
X133718466Y-103652862D01*
X134122138Y-104056534D01*
X134202480Y-104089813D01*
X128370000Y-109921588D01*
X128370000Y-105392512D01*
X129914767Y-103847745D01*
X131606861Y-103847745D01*
X131680995Y-104093864D01*
X132218223Y-104286965D01*
X132788454Y-104259778D01*
X133189005Y-104093864D01*
X133263139Y-103847745D01*
X132435000Y-103019605D01*
X131606861Y-103847745D01*
X129914767Y-103847745D01*
X130887347Y-102875166D01*
X130954977Y-102829977D01*
X130995034Y-102770027D01*
X131015222Y-103193454D01*
X131181136Y-103594005D01*
X131427255Y-103668139D01*
X132255395Y-102840000D01*
X131427255Y-102011861D01*
X131181136Y-102085995D01*
X131181000Y-102086373D01*
X131181000Y-101832255D01*
X131606861Y-101832255D01*
X132435000Y-102660395D01*
X133263139Y-101832255D01*
X133189005Y-101586136D01*
X132651777Y-101393035D01*
X132081546Y-101420222D01*
X131680995Y-101586136D01*
X131606861Y-101832255D01*
X131181000Y-101832255D01*
X131181000Y-92396984D01*
X133783762Y-89793913D01*
X134027423Y-90158577D01*
G36*
X119037375Y-69375625D02*
X119528582Y-69703839D01*
X119961744Y-69790000D01*
X120254256Y-69790000D01*
X120560738Y-69729037D01*
X120552132Y-69772300D01*
X120568000Y-69852073D01*
X120614997Y-70088345D01*
X120794023Y-70356277D01*
X120861656Y-70401468D01*
X133803994Y-83343807D01*
X133710260Y-83484091D01*
X133598887Y-84044000D01*
X133710260Y-84603909D01*
X134027423Y-85078577D01*
X134379758Y-85314000D01*
X134027423Y-85549423D01*
X133710260Y-86024091D01*
X133598887Y-86584000D01*
X133710260Y-87143909D01*
X133883428Y-87403073D01*
X129854637Y-91432345D01*
X129787023Y-91477523D01*
X129741818Y-91545177D01*
X129741805Y-91545190D01*
X129705652Y-91599304D01*
X129607997Y-91745455D01*
X129607992Y-91745481D01*
X129607979Y-91745500D01*
X129578449Y-91894002D01*
X129561000Y-91981727D01*
X129561000Y-91981751D01*
X129545132Y-92061549D01*
X129561000Y-92141298D01*
X129561001Y-101910486D01*
X128402000Y-103069487D01*
X128402000Y-100368408D01*
X128476577Y-100318577D01*
X128793740Y-99843909D01*
X128905113Y-99284000D01*
X128793740Y-98724091D01*
X128586967Y-98414633D01*
X129142261Y-97859624D01*
X129209977Y-97814377D01*
X129299767Y-97679997D01*
X129388922Y-97546641D01*
X129388943Y-97546536D01*
X129389003Y-97546446D01*
X129420745Y-97386868D01*
X129451868Y-97230611D01*
X129436000Y-97150731D01*
X129436000Y-96277445D01*
X129451867Y-96197547D01*
X129420709Y-96041152D01*
X129389003Y-95881754D01*
X129388931Y-95881647D01*
X129388906Y-95881520D01*
X129299313Y-95747524D01*
X129209977Y-95613823D01*
X129142245Y-95568566D01*
X128610901Y-95037547D01*
X128793740Y-94763909D01*
X128905113Y-94204000D01*
X128793740Y-93644091D01*
X128476577Y-93169423D01*
X128252000Y-93019365D01*
X128252000Y-92848635D01*
X128476577Y-92698577D01*
X128793740Y-92223909D01*
X128905113Y-91664000D01*
X128793740Y-91104091D01*
X128476577Y-90629423D01*
X128124242Y-90394000D01*
X128476577Y-90158577D01*
X128793740Y-89683909D01*
X128905113Y-89124000D01*
X128793740Y-88564091D01*
X128476577Y-88089423D01*
X128124242Y-87854000D01*
X128476577Y-87618577D01*
X128793740Y-87143909D01*
X128905113Y-86584000D01*
X128793740Y-86024091D01*
X128476577Y-85549423D01*
X128124242Y-85314000D01*
X128476577Y-85078577D01*
X128793740Y-84603909D01*
X128905113Y-84044000D01*
X128793740Y-83484091D01*
X128476577Y-83009423D01*
X128124242Y-82774000D01*
X128476577Y-82538577D01*
X128793740Y-82063909D01*
X128905113Y-81504000D01*
X128793740Y-80944091D01*
X128476577Y-80469423D01*
X128001909Y-80152260D01*
X127583333Y-80069000D01*
X127300667Y-80069000D01*
X126882091Y-80152260D01*
X126407423Y-80469423D01*
X126090260Y-80944091D01*
X125978887Y-81504000D01*
X126090260Y-82063909D01*
X126407423Y-82538577D01*
X126759758Y-82774000D01*
X126407423Y-83009423D01*
X126090260Y-83484091D01*
X125978887Y-84044000D01*
X126090260Y-84603909D01*
X126407423Y-85078577D01*
X126759758Y-85314000D01*
X126407423Y-85549423D01*
X126316833Y-85685000D01*
X125952366Y-85685000D01*
X125850481Y-85532519D01*
X125408891Y-85237458D01*
X125019485Y-85160000D01*
X124756515Y-85160000D01*
X124367109Y-85237458D01*
X123925519Y-85532519D01*
X123630458Y-85974109D01*
X123526846Y-86495000D01*
X123630458Y-87015891D01*
X123925519Y-87457481D01*
X124367109Y-87752542D01*
X124756515Y-87830000D01*
X125019485Y-87830000D01*
X125408891Y-87752542D01*
X125850481Y-87457481D01*
X125952366Y-87305000D01*
X126197898Y-87305000D01*
X126407423Y-87618577D01*
X126759758Y-87854000D01*
X126407423Y-88089423D01*
X126090260Y-88564091D01*
X125978887Y-89124000D01*
X126090260Y-89683909D01*
X126407423Y-90158577D01*
X126759758Y-90394000D01*
X126407423Y-90629423D01*
X126090260Y-91104091D01*
X125978887Y-91664000D01*
X126090260Y-92223909D01*
X126407423Y-92698577D01*
X126632001Y-92848635D01*
X126632000Y-93019365D01*
X126407423Y-93169423D01*
X126090260Y-93644091D01*
X125978887Y-94204000D01*
X126090260Y-94763909D01*
X126407423Y-95238577D01*
X126616355Y-95378181D01*
X126616132Y-95379300D01*
X126649609Y-95547600D01*
X126407423Y-95709423D01*
X126257365Y-95934000D01*
X121981000Y-95934000D01*
X121981000Y-72360000D01*
X121971333Y-72311399D01*
X121943803Y-72270197D01*
X121902601Y-72242667D01*
X121854000Y-72233000D01*
X113692000Y-72233000D01*
X113692000Y-70019843D01*
X113710806Y-69925801D01*
X113692000Y-69830749D01*
X113692000Y-69830251D01*
X113673540Y-69737447D01*
X113666037Y-69699521D01*
X113795809Y-69612809D01*
X113936157Y-69402765D01*
X113945184Y-69357381D01*
X113957375Y-69375625D01*
X114448582Y-69703839D01*
X114881744Y-69790000D01*
X115174256Y-69790000D01*
X115607418Y-69703839D01*
X116098625Y-69375625D01*
X116298000Y-69077239D01*
X116497375Y-69375625D01*
X116988582Y-69703839D01*
X117421744Y-69790000D01*
X117714256Y-69790000D01*
X118147418Y-69703839D01*
X118638625Y-69375625D01*
X118838000Y-69077239D01*
X119037375Y-69375625D01*
X119037375Y-69375625D01*
G37*
X119037375Y-69375625D02*
X119528582Y-69703839D01*
X119961744Y-69790000D01*
X120254256Y-69790000D01*
X120560738Y-69729037D01*
X120552132Y-69772300D01*
X120568000Y-69852073D01*
X120614997Y-70088345D01*
X120794023Y-70356277D01*
X120861656Y-70401468D01*
X133803994Y-83343807D01*
X133710260Y-83484091D01*
X133598887Y-84044000D01*
X133710260Y-84603909D01*
X134027423Y-85078577D01*
X134379758Y-85314000D01*
X134027423Y-85549423D01*
X133710260Y-86024091D01*
X133598887Y-86584000D01*
X133710260Y-87143909D01*
X133883428Y-87403073D01*
X129854637Y-91432345D01*
X129787023Y-91477523D01*
X129741818Y-91545177D01*
X129741805Y-91545190D01*
X129705652Y-91599304D01*
X129607997Y-91745455D01*
X129607992Y-91745481D01*
X129607979Y-91745500D01*
X129578449Y-91894002D01*
X129561000Y-91981727D01*
X129561000Y-91981751D01*
X129545132Y-92061549D01*
X129561000Y-92141298D01*
X129561001Y-101910486D01*
X128402000Y-103069487D01*
X128402000Y-100368408D01*
X128476577Y-100318577D01*
X128793740Y-99843909D01*
X128905113Y-99284000D01*
X128793740Y-98724091D01*
X128586967Y-98414633D01*
X129142261Y-97859624D01*
X129209977Y-97814377D01*
X129299767Y-97679997D01*
X129388922Y-97546641D01*
X129388943Y-97546536D01*
X129389003Y-97546446D01*
X129420745Y-97386868D01*
X129451868Y-97230611D01*
X129436000Y-97150731D01*
X129436000Y-96277445D01*
X129451867Y-96197547D01*
X129420709Y-96041152D01*
X129389003Y-95881754D01*
X129388931Y-95881647D01*
X129388906Y-95881520D01*
X129299313Y-95747524D01*
X129209977Y-95613823D01*
X129142245Y-95568566D01*
X128610901Y-95037547D01*
X128793740Y-94763909D01*
X128905113Y-94204000D01*
X128793740Y-93644091D01*
X128476577Y-93169423D01*
X128252000Y-93019365D01*
X128252000Y-92848635D01*
X128476577Y-92698577D01*
X128793740Y-92223909D01*
X128905113Y-91664000D01*
X128793740Y-91104091D01*
X128476577Y-90629423D01*
X128124242Y-90394000D01*
X128476577Y-90158577D01*
X128793740Y-89683909D01*
X128905113Y-89124000D01*
X128793740Y-88564091D01*
X128476577Y-88089423D01*
X128124242Y-87854000D01*
X128476577Y-87618577D01*
X128793740Y-87143909D01*
X128905113Y-86584000D01*
X128793740Y-86024091D01*
X128476577Y-85549423D01*
X128124242Y-85314000D01*
X128476577Y-85078577D01*
X128793740Y-84603909D01*
X128905113Y-84044000D01*
X128793740Y-83484091D01*
X128476577Y-83009423D01*
X128124242Y-82774000D01*
X128476577Y-82538577D01*
X128793740Y-82063909D01*
X128905113Y-81504000D01*
X128793740Y-80944091D01*
X128476577Y-80469423D01*
X128001909Y-80152260D01*
X127583333Y-80069000D01*
X127300667Y-80069000D01*
X126882091Y-80152260D01*
X126407423Y-80469423D01*
X126090260Y-80944091D01*
X125978887Y-81504000D01*
X126090260Y-82063909D01*
X126407423Y-82538577D01*
X126759758Y-82774000D01*
X126407423Y-83009423D01*
X126090260Y-83484091D01*
X125978887Y-84044000D01*
X126090260Y-84603909D01*
X126407423Y-85078577D01*
X126759758Y-85314000D01*
X126407423Y-85549423D01*
X126316833Y-85685000D01*
X125952366Y-85685000D01*
X125850481Y-85532519D01*
X125408891Y-85237458D01*
X125019485Y-85160000D01*
X124756515Y-85160000D01*
X124367109Y-85237458D01*
X123925519Y-85532519D01*
X123630458Y-85974109D01*
X123526846Y-86495000D01*
X123630458Y-87015891D01*
X123925519Y-87457481D01*
X124367109Y-87752542D01*
X124756515Y-87830000D01*
X125019485Y-87830000D01*
X125408891Y-87752542D01*
X125850481Y-87457481D01*
X125952366Y-87305000D01*
X126197898Y-87305000D01*
X126407423Y-87618577D01*
X126759758Y-87854000D01*
X126407423Y-88089423D01*
X126090260Y-88564091D01*
X125978887Y-89124000D01*
X126090260Y-89683909D01*
X126407423Y-90158577D01*
X126759758Y-90394000D01*
X126407423Y-90629423D01*
X126090260Y-91104091D01*
X125978887Y-91664000D01*
X126090260Y-92223909D01*
X126407423Y-92698577D01*
X126632001Y-92848635D01*
X126632000Y-93019365D01*
X126407423Y-93169423D01*
X126090260Y-93644091D01*
X125978887Y-94204000D01*
X126090260Y-94763909D01*
X126407423Y-95238577D01*
X126616355Y-95378181D01*
X126616132Y-95379300D01*
X126649609Y-95547600D01*
X126407423Y-95709423D01*
X126257365Y-95934000D01*
X121981000Y-95934000D01*
X121981000Y-72360000D01*
X121971333Y-72311399D01*
X121943803Y-72270197D01*
X121902601Y-72242667D01*
X121854000Y-72233000D01*
X113692000Y-72233000D01*
X113692000Y-70019843D01*
X113710806Y-69925801D01*
X113692000Y-69830749D01*
X113692000Y-69830251D01*
X113673540Y-69737447D01*
X113666037Y-69699521D01*
X113795809Y-69612809D01*
X113936157Y-69402765D01*
X113945184Y-69357381D01*
X113957375Y-69375625D01*
X114448582Y-69703839D01*
X114881744Y-69790000D01*
X115174256Y-69790000D01*
X115607418Y-69703839D01*
X116098625Y-69375625D01*
X116298000Y-69077239D01*
X116497375Y-69375625D01*
X116988582Y-69703839D01*
X117421744Y-69790000D01*
X117714256Y-69790000D01*
X118147418Y-69703839D01*
X118638625Y-69375625D01*
X118838000Y-69077239D01*
X119037375Y-69375625D01*
G36*
X151275001Y-84222993D02*
X151275000Y-85228142D01*
X151259132Y-85307933D01*
X151287888Y-85452468D01*
X151321997Y-85623945D01*
X151322008Y-85623961D01*
X151322011Y-85623977D01*
X151396672Y-85735705D01*
X151501023Y-85891877D01*
X151568669Y-85937076D01*
X158604001Y-92971833D01*
X158604001Y-93364958D01*
X158423573Y-93244400D01*
X158143549Y-93188700D01*
X158049000Y-93169893D01*
X157954451Y-93188700D01*
X157801628Y-93188700D01*
X151047944Y-86435404D01*
X150810547Y-86276790D01*
X150435972Y-86202294D01*
X150061401Y-86276811D01*
X149743860Y-86488999D01*
X149531690Y-86806553D01*
X149457194Y-87181128D01*
X149531711Y-87555699D01*
X149690339Y-87793087D01*
X156007697Y-94110084D01*
X155650333Y-94039000D01*
X155367667Y-94039000D01*
X154949091Y-94122260D01*
X154474423Y-94439423D01*
X154334855Y-94648302D01*
X154334000Y-94648132D01*
X154254226Y-94664000D01*
X154165435Y-94681661D01*
X154003577Y-94439423D01*
X153528909Y-94122260D01*
X153110333Y-94039000D01*
X152827667Y-94039000D01*
X152409091Y-94122260D01*
X151934423Y-94439423D01*
X151617260Y-94914091D01*
X151505887Y-95474000D01*
X151617260Y-96033909D01*
X151934423Y-96508577D01*
X152409091Y-96825740D01*
X152417957Y-96827504D01*
X149463440Y-99781522D01*
X149463440Y-98484000D01*
X149414157Y-98236235D01*
X149273809Y-98026191D01*
X149063765Y-97885843D01*
X148929894Y-97859215D01*
X149050577Y-97778577D01*
X149367740Y-97303909D01*
X149479113Y-96744000D01*
X149367740Y-96184091D01*
X149157805Y-95869901D01*
X149743160Y-95285191D01*
X149810977Y-95239877D01*
X149900420Y-95106016D01*
X149989829Y-94972366D01*
X149989874Y-94972138D01*
X149990003Y-94971946D01*
X150021356Y-94814321D01*
X150052868Y-94656354D01*
X150037000Y-94576351D01*
X150037000Y-91210769D01*
X150052867Y-91130999D01*
X150037000Y-91051230D01*
X150037000Y-91051226D01*
X149990003Y-90814954D01*
X149810977Y-90547023D01*
X149743347Y-90501834D01*
X149178547Y-89937034D01*
X149247041Y-89861423D01*
X149407904Y-89473039D01*
X149285915Y-89251000D01*
X148143000Y-89251000D01*
X148143000Y-89271000D01*
X147889000Y-89271000D01*
X147889000Y-89251000D01*
X147869000Y-89251000D01*
X147869000Y-88997000D01*
X147889000Y-88997000D01*
X147889000Y-88977000D01*
X148143000Y-88977000D01*
X148143000Y-88997000D01*
X149285915Y-88997000D01*
X149407904Y-88774961D01*
X149247041Y-88386577D01*
X148871134Y-87971611D01*
X148666892Y-87874947D01*
X149050577Y-87618577D01*
X149367740Y-87143909D01*
X149479113Y-86584000D01*
X149367740Y-86024091D01*
X149050577Y-85549423D01*
X148808391Y-85387600D01*
X148841868Y-85219300D01*
X148841645Y-85218181D01*
X149050577Y-85078577D01*
X149367740Y-84603909D01*
X149479113Y-84044000D01*
X149367740Y-83484091D01*
X149050577Y-83009423D01*
X148666892Y-82753053D01*
X148871134Y-82656389D01*
X149247041Y-82241423D01*
X149260677Y-82208501D01*
X151275001Y-84222993D01*
X151275001Y-84222993D01*
G37*
X151275001Y-84222993D02*
X151275000Y-85228142D01*
X151259132Y-85307933D01*
X151287888Y-85452468D01*
X151321997Y-85623945D01*
X151322008Y-85623961D01*
X151322011Y-85623977D01*
X151396672Y-85735705D01*
X151501023Y-85891877D01*
X151568669Y-85937076D01*
X158604001Y-92971833D01*
X158604001Y-93364958D01*
X158423573Y-93244400D01*
X158143549Y-93188700D01*
X158049000Y-93169893D01*
X157954451Y-93188700D01*
X157801628Y-93188700D01*
X151047944Y-86435404D01*
X150810547Y-86276790D01*
X150435972Y-86202294D01*
X150061401Y-86276811D01*
X149743860Y-86488999D01*
X149531690Y-86806553D01*
X149457194Y-87181128D01*
X149531711Y-87555699D01*
X149690339Y-87793087D01*
X156007697Y-94110084D01*
X155650333Y-94039000D01*
X155367667Y-94039000D01*
X154949091Y-94122260D01*
X154474423Y-94439423D01*
X154334855Y-94648302D01*
X154334000Y-94648132D01*
X154254226Y-94664000D01*
X154165435Y-94681661D01*
X154003577Y-94439423D01*
X153528909Y-94122260D01*
X153110333Y-94039000D01*
X152827667Y-94039000D01*
X152409091Y-94122260D01*
X151934423Y-94439423D01*
X151617260Y-94914091D01*
X151505887Y-95474000D01*
X151617260Y-96033909D01*
X151934423Y-96508577D01*
X152409091Y-96825740D01*
X152417957Y-96827504D01*
X149463440Y-99781522D01*
X149463440Y-98484000D01*
X149414157Y-98236235D01*
X149273809Y-98026191D01*
X149063765Y-97885843D01*
X148929894Y-97859215D01*
X149050577Y-97778577D01*
X149367740Y-97303909D01*
X149479113Y-96744000D01*
X149367740Y-96184091D01*
X149157805Y-95869901D01*
X149743160Y-95285191D01*
X149810977Y-95239877D01*
X149900420Y-95106016D01*
X149989829Y-94972366D01*
X149989874Y-94972138D01*
X149990003Y-94971946D01*
X150021356Y-94814321D01*
X150052868Y-94656354D01*
X150037000Y-94576351D01*
X150037000Y-91210769D01*
X150052867Y-91130999D01*
X150037000Y-91051230D01*
X150037000Y-91051226D01*
X149990003Y-90814954D01*
X149810977Y-90547023D01*
X149743347Y-90501834D01*
X149178547Y-89937034D01*
X149247041Y-89861423D01*
X149407904Y-89473039D01*
X149285915Y-89251000D01*
X148143000Y-89251000D01*
X148143000Y-89271000D01*
X147889000Y-89271000D01*
X147889000Y-89251000D01*
X147869000Y-89251000D01*
X147869000Y-88997000D01*
X147889000Y-88997000D01*
X147889000Y-88977000D01*
X148143000Y-88977000D01*
X148143000Y-88997000D01*
X149285915Y-88997000D01*
X149407904Y-88774961D01*
X149247041Y-88386577D01*
X148871134Y-87971611D01*
X148666892Y-87874947D01*
X149050577Y-87618577D01*
X149367740Y-87143909D01*
X149479113Y-86584000D01*
X149367740Y-86024091D01*
X149050577Y-85549423D01*
X148808391Y-85387600D01*
X148841868Y-85219300D01*
X148841645Y-85218181D01*
X149050577Y-85078577D01*
X149367740Y-84603909D01*
X149479113Y-84044000D01*
X149367740Y-83484091D01*
X149050577Y-83009423D01*
X148666892Y-82753053D01*
X148871134Y-82656389D01*
X149247041Y-82241423D01*
X149260677Y-82208501D01*
X151275001Y-84222993D01*
G36*
X161798000Y-77245359D02*
X162221180Y-77161183D01*
X162211132Y-77211698D01*
X162263038Y-77472647D01*
X162273998Y-77527746D01*
X162453024Y-77795677D01*
X162520655Y-77840866D01*
X165328581Y-80648811D01*
X165227139Y-80750253D01*
X165153005Y-80504136D01*
X164615777Y-80311035D01*
X164045546Y-80338222D01*
X163644995Y-80504136D01*
X163570861Y-80750255D01*
X164399000Y-81578395D01*
X164413142Y-81564252D01*
X164592748Y-81743858D01*
X164578605Y-81758000D01*
X165406745Y-82586139D01*
X165652864Y-82512005D01*
X165845965Y-81974777D01*
X165818778Y-81404546D01*
X165652864Y-81003995D01*
X165406747Y-80929861D01*
X165508189Y-80828419D01*
X177559000Y-92879311D01*
X177559001Y-94289365D01*
X177334423Y-94439423D01*
X177099000Y-94791758D01*
X176863577Y-94439423D01*
X176388909Y-94122260D01*
X175970333Y-94039000D01*
X175687667Y-94039000D01*
X175269091Y-94122260D01*
X175137314Y-94210311D01*
X168900155Y-87973837D01*
X168854977Y-87906223D01*
X168787326Y-87861020D01*
X168787313Y-87861007D01*
X168731224Y-87823534D01*
X168587046Y-87727197D01*
X168587022Y-87727192D01*
X168587004Y-87727180D01*
X168430765Y-87696111D01*
X168350774Y-87680200D01*
X168350752Y-87680200D01*
X168270955Y-87664332D01*
X168250684Y-87668365D01*
X165776133Y-85193757D01*
X165813655Y-85156235D01*
X165956000Y-84812583D01*
X165956000Y-84440617D01*
X165813655Y-84096965D01*
X165550635Y-83833945D01*
X165248883Y-83708956D01*
X164719309Y-83179358D01*
X164752454Y-83177778D01*
X165153005Y-83011864D01*
X165227139Y-82765745D01*
X164399000Y-81937605D01*
X164384858Y-81951748D01*
X164205252Y-81772142D01*
X164219395Y-81758000D01*
X163391255Y-80929861D01*
X163145136Y-81003995D01*
X162986200Y-81446172D01*
X161338000Y-79797899D01*
X161338000Y-77153859D01*
X161798000Y-77245359D01*
X161798000Y-77245359D01*
G37*
X161798000Y-77245359D02*
X162221180Y-77161183D01*
X162211132Y-77211698D01*
X162263038Y-77472647D01*
X162273998Y-77527746D01*
X162453024Y-77795677D01*
X162520655Y-77840866D01*
X165328581Y-80648811D01*
X165227139Y-80750253D01*
X165153005Y-80504136D01*
X164615777Y-80311035D01*
X164045546Y-80338222D01*
X163644995Y-80504136D01*
X163570861Y-80750255D01*
X164399000Y-81578395D01*
X164413142Y-81564252D01*
X164592748Y-81743858D01*
X164578605Y-81758000D01*
X165406745Y-82586139D01*
X165652864Y-82512005D01*
X165845965Y-81974777D01*
X165818778Y-81404546D01*
X165652864Y-81003995D01*
X165406747Y-80929861D01*
X165508189Y-80828419D01*
X177559000Y-92879311D01*
X177559001Y-94289365D01*
X177334423Y-94439423D01*
X177099000Y-94791758D01*
X176863577Y-94439423D01*
X176388909Y-94122260D01*
X175970333Y-94039000D01*
X175687667Y-94039000D01*
X175269091Y-94122260D01*
X175137314Y-94210311D01*
X168900155Y-87973837D01*
X168854977Y-87906223D01*
X168787326Y-87861020D01*
X168787313Y-87861007D01*
X168731224Y-87823534D01*
X168587046Y-87727197D01*
X168587022Y-87727192D01*
X168587004Y-87727180D01*
X168430765Y-87696111D01*
X168350774Y-87680200D01*
X168350752Y-87680200D01*
X168270955Y-87664332D01*
X168250684Y-87668365D01*
X165776133Y-85193757D01*
X165813655Y-85156235D01*
X165956000Y-84812583D01*
X165956000Y-84440617D01*
X165813655Y-84096965D01*
X165550635Y-83833945D01*
X165248883Y-83708956D01*
X164719309Y-83179358D01*
X164752454Y-83177778D01*
X165153005Y-83011864D01*
X165227139Y-82765745D01*
X164399000Y-81937605D01*
X164384858Y-81951748D01*
X164205252Y-81772142D01*
X164219395Y-81758000D01*
X163391255Y-80929861D01*
X163145136Y-81003995D01*
X162986200Y-81446172D01*
X161338000Y-79797899D01*
X161338000Y-77153859D01*
X161798000Y-77245359D01*
G36*
X151573570Y-76797830D02*
X152069276Y-77129050D01*
X152654000Y-77245359D01*
X153238725Y-77129050D01*
X153381267Y-77033807D01*
X153430024Y-77106777D01*
X153497655Y-77151967D01*
X164288817Y-87943000D01*
X164113561Y-87943000D01*
X163586138Y-88161466D01*
X163182466Y-88565138D01*
X163090380Y-88787453D01*
X151138442Y-76835240D01*
X151194430Y-76797830D01*
X151384000Y-76514119D01*
X151573570Y-76797830D01*
X151573570Y-76797830D01*
G37*
X151573570Y-76797830D02*
X152069276Y-77129050D01*
X152654000Y-77245359D01*
X153238725Y-77129050D01*
X153381267Y-77033807D01*
X153430024Y-77106777D01*
X153497655Y-77151967D01*
X164288817Y-87943000D01*
X164113561Y-87943000D01*
X163586138Y-88161466D01*
X163182466Y-88565138D01*
X163090380Y-88787453D01*
X151138442Y-76835240D01*
X151194430Y-76797830D01*
X151384000Y-76514119D01*
X151573570Y-76797830D01*
G36*
X126657375Y-69375625D02*
X127148582Y-69703839D01*
X127581744Y-69790000D01*
X127874256Y-69790000D01*
X128307418Y-69703839D01*
X128556378Y-69537490D01*
X130774434Y-71755547D01*
X130819623Y-71823177D01*
X131087554Y-72002203D01*
X131323826Y-72049200D01*
X131403599Y-72065068D01*
X131483372Y-72049200D01*
X134673188Y-72049200D01*
X136732177Y-74108190D01*
X136511964Y-74214268D01*
X136147910Y-74621732D01*
X135954430Y-74332170D01*
X135458724Y-74000950D01*
X134874000Y-73884641D01*
X134289275Y-74000950D01*
X133793570Y-74332170D01*
X133604000Y-74615881D01*
X133414430Y-74332170D01*
X132918724Y-74000950D01*
X132334000Y-73884641D01*
X131749275Y-74000950D01*
X131253570Y-74332170D01*
X131064000Y-74615881D01*
X130874430Y-74332170D01*
X130378724Y-74000950D01*
X129794000Y-73884641D01*
X129209275Y-74000950D01*
X128713570Y-74332170D01*
X128382350Y-74827876D01*
X128295400Y-75265003D01*
X128295400Y-75544188D01*
X122541212Y-69790000D01*
X122794256Y-69790000D01*
X123227418Y-69703839D01*
X123718625Y-69375625D01*
X123918000Y-69077239D01*
X124117375Y-69375625D01*
X124608582Y-69703839D01*
X125041744Y-69790000D01*
X125334256Y-69790000D01*
X125767418Y-69703839D01*
X126258625Y-69375625D01*
X126458000Y-69077239D01*
X126657375Y-69375625D01*
X126657375Y-69375625D01*
G37*
X126657375Y-69375625D02*
X127148582Y-69703839D01*
X127581744Y-69790000D01*
X127874256Y-69790000D01*
X128307418Y-69703839D01*
X128556378Y-69537490D01*
X130774434Y-71755547D01*
X130819623Y-71823177D01*
X131087554Y-72002203D01*
X131323826Y-72049200D01*
X131403599Y-72065068D01*
X131483372Y-72049200D01*
X134673188Y-72049200D01*
X136732177Y-74108190D01*
X136511964Y-74214268D01*
X136147910Y-74621732D01*
X135954430Y-74332170D01*
X135458724Y-74000950D01*
X134874000Y-73884641D01*
X134289275Y-74000950D01*
X133793570Y-74332170D01*
X133604000Y-74615881D01*
X133414430Y-74332170D01*
X132918724Y-74000950D01*
X132334000Y-73884641D01*
X131749275Y-74000950D01*
X131253570Y-74332170D01*
X131064000Y-74615881D01*
X130874430Y-74332170D01*
X130378724Y-74000950D01*
X129794000Y-73884641D01*
X129209275Y-74000950D01*
X128713570Y-74332170D01*
X128382350Y-74827876D01*
X128295400Y-75265003D01*
X128295400Y-75544188D01*
X122541212Y-69790000D01*
X122794256Y-69790000D01*
X123227418Y-69703839D01*
X123718625Y-69375625D01*
X123918000Y-69077239D01*
X124117375Y-69375625D01*
X124608582Y-69703839D01*
X125041744Y-69790000D01*
X125334256Y-69790000D01*
X125767418Y-69703839D01*
X126258625Y-69375625D01*
X126458000Y-69077239D01*
X126657375Y-69375625D01*
G04 #@! TD*
M02*
