M48
;DRILL file {KiCad (5.0.0-3-g5ebb6b6)} date 
;FORMAT={-:-/ absolute / metric / decimal}
FMAT,2
METRIC,TZ
T1C0.400
T2C0.700
T3C0.800
T4C1.000
T5C1.016
T6C1.800
T7C2.000
T8C3.048
%
G90
G05
M71
T1
X118.425Y-90.394
X118.552Y-95.601
X119.187Y-115.032
X124.267Y-103.856
X124.394Y-93.823
X125.791Y-71.979
X126.868Y-67.225
X130.236Y-81.758
X132.435Y-96.831
X138.522Y-72.92
X140.523Y-110.46
X142.428Y-73.385
X147.232Y-103.158
X150.436Y-87.181
X156.647Y-87.934
X158.049Y-82.647
X165.021Y-84.627
X166.304Y-98.268
X166.812Y-84.298
X171.384Y-88.616
X172.781Y-103.221
T2
X168.336Y-64.867
X175.956Y-64.867
X93.748Y-86.075
X101.368Y-86.075
X168.336Y-68.55
X175.956Y-68.55
X94.168Y-109.063
X101.788Y-109.063
X117.268Y-86.495
X124.888Y-86.495
T3
X95.605Y-114.524
X98.105Y-114.524
X127.442Y-81.504
X127.442Y-84.044
X127.442Y-86.584
X127.442Y-89.124
X127.442Y-91.664
X127.442Y-94.204
X127.442Y-96.744
X127.442Y-99.284
X135.062Y-81.504
X135.062Y-84.044
X135.062Y-86.584
X135.062Y-89.124
X135.062Y-91.664
X135.062Y-94.204
X135.062Y-96.744
X135.062Y-99.284
X164.399Y-81.758
X164.399Y-89.378
X179.639Y-81.758
X179.639Y-89.378
X141.158Y-102.84
X143.658Y-102.84
X100.772Y-65.161
X100.772Y-67.661
X106.44Y-109.063
X111.44Y-109.063
X169.733Y-115.453
X169.733Y-117.953
X114.528Y-79.853
X117.028Y-79.853
X140.396Y-81.504
X140.396Y-84.044
X140.396Y-86.584
X140.396Y-89.124
X140.396Y-91.664
X140.396Y-94.204
X140.396Y-96.744
X140.396Y-99.284
X148.016Y-81.504
X148.016Y-84.044
X148.016Y-86.584
X148.016Y-89.124
X148.016Y-91.664
X148.016Y-94.204
X148.016Y-96.744
X148.016Y-99.284
X95.605Y-79.98
X98.105Y-79.98
X175.234Y-115.032
X177.734Y-115.032
X108.773Y-89.124
X108.773Y-91.664
X108.773Y-94.204
X108.773Y-96.744
X108.773Y-99.284
X108.773Y-101.824
X108.773Y-104.364
X116.393Y-89.124
X116.393Y-91.664
X116.393Y-94.204
X116.393Y-96.744
X116.393Y-99.284
X116.393Y-101.824
X116.393Y-104.364
X145.516Y-108.555
X148.016Y-108.555
X152.969Y-95.474
X152.969Y-110.714
X155.509Y-95.474
X155.509Y-110.714
X158.049Y-95.474
X158.049Y-110.714
X160.589Y-95.474
X160.589Y-110.714
X163.129Y-95.474
X163.129Y-110.714
X165.669Y-95.474
X165.669Y-110.714
X168.209Y-95.474
X168.209Y-110.714
X170.749Y-95.474
X170.749Y-110.714
X173.289Y-95.474
X173.289Y-110.714
X175.829Y-95.474
X175.829Y-110.714
X178.369Y-95.474
X178.369Y-110.714
X180.909Y-95.474
X180.909Y-110.714
X106.313Y-85.187
X111.313Y-85.187
X180.274Y-66.391
X180.274Y-68.931
X180.274Y-71.471
X132.435Y-102.84
X134.935Y-102.84
T4
X129.347Y-116.556
X129.347Y-119.096
X131.887Y-116.556
X131.887Y-119.096
X134.427Y-116.556
X134.427Y-119.096
X136.967Y-116.556
X136.967Y-119.096
X139.507Y-116.556
X139.507Y-119.096
X142.047Y-116.556
X142.047Y-119.096
X144.587Y-116.556
X144.587Y-119.096
X147.127Y-116.556
X147.127Y-119.096
X112.488Y-65.765
X112.488Y-68.305
X115.028Y-65.765
X115.028Y-68.305
X117.568Y-65.765
X117.568Y-68.305
X120.108Y-65.765
X120.108Y-68.305
X122.648Y-65.765
X122.648Y-68.305
X125.188Y-65.765
X125.188Y-68.305
X127.728Y-65.765
X127.728Y-68.305
X130.268Y-65.765
X130.268Y-68.305
X132.808Y-65.765
X132.808Y-68.305
X135.348Y-65.765
X135.348Y-68.305
X137.888Y-65.765
X137.888Y-68.305
X140.428Y-65.765
X140.428Y-68.305
X142.968Y-65.765
X142.968Y-68.305
X145.508Y-65.765
X145.508Y-68.305
X148.048Y-65.765
X148.048Y-68.305
X150.588Y-65.765
X150.588Y-68.305
X153.128Y-65.765
X153.128Y-68.305
X155.668Y-65.765
X155.668Y-68.305
X158.208Y-65.765
X158.208Y-68.305
X160.748Y-65.765
X160.748Y-68.305
X154.112Y-119.604
X156.652Y-119.604
X159.192Y-119.604
X169.733Y-60.803
X172.273Y-60.803
X174.813Y-60.803
X154.112Y-115.286
X156.652Y-115.286
X159.192Y-115.286
T5
X138.938Y-123.825
X141.478Y-123.825
X144.018Y-123.825
X146.558Y-123.825
X149.098Y-123.825
X151.638Y-123.825
X154.178Y-123.825
X156.718Y-123.825
X129.794Y-75.565
X132.334Y-75.565
X134.874Y-75.565
X137.414Y-75.565
X139.954Y-75.565
X142.494Y-75.565
X145.034Y-75.565
X147.574Y-75.565
X150.114Y-75.565
X152.654Y-75.565
X161.798Y-123.825
X164.338Y-123.825
X166.878Y-123.825
X169.418Y-123.825
X171.958Y-123.825
X174.498Y-123.825
X156.718Y-75.565
X159.258Y-75.565
X161.798Y-75.565
X164.338Y-75.565
X166.878Y-75.565
X169.418Y-75.565
X171.958Y-75.565
X174.498Y-75.565
T6
X98.978Y-94.435
X100.678Y-91.935
T7
X92.178Y-97.335
X95.678Y-101.835
X103.478Y-101.635
T8
X92.048Y-125.635
X181.038Y-125.645
X181.048Y-59.655
X92.058Y-59.695
T0
M30
